<svg id="Capa_1" enable-background="new 0 0 511.493 511.493" height="512" viewBox="0 0 511.493 511.493" width="512" xmlns="http://www.w3.org/2000/svg"><path d="m230.118 476.772h123.088c-22.66 0-41.029-18.369-41.029-41.029v-87.586c0-22.66-18.369-41.029-41.029-41.029-22.66 0-41.029 18.369-41.029 41.029v128.615z" fill="#d0e2e7"/><path d="m240.346 0c-22.66 0-41.029 18.37-41.029 41.029v266.098h71.831c22.66 0 41.029 18.369 41.029 41.029v87.586c0 22.66 18.369 41.029 41.029 41.029 22.66 0 41.029-18.369 41.029-41.029v-394.713c0-22.659 18.37-41.029 41.03-41.029z" fill="#f1f4f6"/><path d="m41.456 508.841 24.283-12.32c1.225-.622 2.673-.622 3.898 0l28.591 14.506c1.225.622 2.673.622 3.898 0l28.587-14.505c1.225-.622 2.673-.622 3.899 0l28.588 14.505c1.225.622 2.673.622 3.899 0l28.586-14.505c1.225-.622 2.673-.622 3.899 0l24.278 12.319c2.866 1.454 6.257-.628 6.257-3.842v-156.842c0-22.66 18.369-41.029 41.029-41.029h-194.92c-22.66 0-41.029 18.37-41.029 41.029v156.842c0 3.214 3.391 5.296 6.257 3.842z" fill="#f1f4f6"/><path d="m358.464 0c-3.459 6.015-5.437 12.989-5.437 20.425v394.714c0 20.824-15.514 38.024-35.614 40.674 7.029 12.508 20.424 20.959 35.793 20.959 22.66 0 41.029-18.37 41.029-41.029v-394.714c0-22.659 18.37-41.029 41.03-41.029z" fill="#dfeaef"/><path d="m188.909 327.553v106.111c0 31.893-25.854 57.747-57.747 57.747h-95.963v13.588c0 3.213 3.391 5.296 6.257 3.842l24.284-12.32c1.225-.622 2.673-.622 3.898 0l28.591 14.506c1.225.622 2.673.622 3.898 0l28.587-14.505c1.225-.622 2.673-.622 3.899 0l28.588 14.505c1.225.622 2.673.622 3.899 0l28.586-14.505c1.225-.622 2.673-.622 3.899 0l24.278 12.319c2.866 1.454 6.257-.628 6.257-3.842v-156.842c0-22.66 18.369-41.029 41.029-41.029h-76.8c-3.461 6.014-5.44 12.989-5.44 20.425z" fill="#dfeaef"/><path d="m394.235 207.529 15.141 7.682c1.225.622 2.673.622 3.899 0l28.586-14.505c1.225-.622 2.673-.622 3.899 0l24.278 12.319c2.866 1.454 6.257-.628 6.257-3.842v-168.154c-.001-22.66-18.371-41.029-41.03-41.029-22.66 0-41.029 18.369-41.029 41.029z" fill="#d0e2e7"/><path d="m284.042 102.601c0-13.462-10.953-24.415-24.416-24.415h-7.199c-4.942 0-8.963-4.02-8.963-8.962s4.021-8.963 8.963-8.963h7.199c3.611 0 6.854 2.15 8.262 5.477 1.662 3.93 6.195 5.767 10.126 4.106 3.93-1.662 5.768-6.195 4.106-10.126-3.286-7.768-10.248-13.178-18.367-14.562v-7.094c0-4.268-3.459-7.727-7.727-7.727-4.267 0-7.727 3.459-7.727 7.727v7.095c-11.504 1.967-20.288 12.01-20.288 24.067 0 13.462 10.953 24.415 24.416 24.415h7.199c4.942 0 8.963 4.02 8.963 8.962s-4.021 8.962-8.963 8.962h-7.199c-3.723 0-7.003-2.241-8.356-5.708-1.55-3.974-6.031-5.943-10.006-4.39-3.976 1.55-5.942 6.03-4.391 10.006 3.174 8.138 10.244 13.793 18.625 15.203v7.09c0 4.268 3.459 7.727 7.727 7.727 4.267 0 7.727-3.459 7.727-7.727v-7.096c11.505-1.968 20.289-12.011 20.289-24.067z" fill="#78d0b1"/><path d="m173.666 459.475c0 4.268-3.459 7.727-7.727 7.727h-66.553c-4.267 0-7.727-3.459-7.727-7.727s3.459-7.727 7.727-7.727h66.553c4.268 0 7.727 3.459 7.727 7.727zm189.663-296.551h-133.107c-4.267 0-7.727 3.459-7.727 7.727s3.459 7.727 7.727 7.727h133.107c4.267 0 7.727-3.459 7.727-7.727s-3.46-7.727-7.727-7.727zm-46.039-102.664h46.039c4.267 0 7.727-3.459 7.727-7.727s-3.459-7.727-7.727-7.727h-46.039c-4.267 0-7.727 3.459-7.727 7.727s3.46 7.727 7.727 7.727zm46.039 17.925h-23.019c-4.267 0-7.727 3.459-7.727 7.727s3.459 7.727 7.727 7.727h23.019c4.267 0 7.727-3.459 7.727-7.727s-3.46-7.727-7.727-7.727zm0 33.378h-46.039c-4.267 0-7.727 3.459-7.727 7.727s3.459 7.727 7.727 7.727h46.039c4.267 0 7.727-3.459 7.727-7.727s-3.46-7.727-7.727-7.727zm-53.391 107.213h-79.716c-4.267 0-7.727 3.459-7.727 7.727s3.459 7.727 7.727 7.727h79.716c4.267 0 7.727-3.459 7.727-7.727s-3.46-7.727-7.727-7.727zm53.391 0h-22.485c-4.267 0-7.727 3.459-7.727 7.727s3.459 7.727 7.727 7.727h22.485c4.267 0 7.727-3.459 7.727-7.727s-3.46-7.727-7.727-7.727zm-297.12 137.89h79.716c4.267 0 7.727-3.459 7.727-7.727s-3.459-7.727-7.727-7.727h-79.716c-4.267 0-7.727 3.459-7.727 7.727s3.46 7.727 7.727 7.727zm133.107-15.454h-22.485c-4.267 0-7.727 3.459-7.727 7.727s3.459 7.727 7.727 7.727h22.485c4.267 0 7.727-3.459 7.727-7.727s-3.46-7.727-7.727-7.727zm110.622-68.43h-79.716c-4.267 0-7.727 3.459-7.727 7.727s3.459 7.727 7.727 7.727h79.716c4.267 0 7.727-3.459 7.727-7.727s-3.46-7.727-7.727-7.727zm53.391 0h-22.485c-4.267 0-7.727 3.459-7.727 7.727s3.459 7.727 7.727 7.727h22.485c4.267 0 7.727-3.459 7.727-7.727s-3.46-7.727-7.727-7.727zm-209.677 130.163c0-4.268-3.459-7.727-7.727-7.727h-79.716c-4.267 0-7.727 3.459-7.727 7.727s3.459 7.727 7.727 7.727h79.716c4.267-.001 7.727-3.46 7.727-7.727zm45.664-7.727h-22.485c-4.267 0-7.727 3.459-7.727 7.727s3.459 7.727 7.727 7.727h22.485c4.267 0 7.727-3.459 7.727-7.727s-3.46-7.727-7.727-7.727zm164.013-68.432h-22.485c-4.267 0-7.727 3.459-7.727 7.727s3.459 7.727 7.727 7.727h22.485c4.267 0 7.727-3.459 7.727-7.727s-3.46-7.727-7.727-7.727zm0 54.006h-22.485c-4.267 0-7.727 3.459-7.727 7.727s3.459 7.727 7.727 7.727h22.485c4.267 0 7.727-3.459 7.727-7.727s-3.46-7.727-7.727-7.727zm0 54.005h-22.485c-4.267 0-7.727 3.459-7.727 7.727s3.459 7.727 7.727 7.727h22.485c4.267 0 7.727-3.459 7.727-7.727s-3.46-7.727-7.727-7.727z" fill="#738b95"/><g fill="#617881"><path d="m207.043 402.945c0-4.268-3.459-7.727-7.727-7.727h-10.407v15.453h10.407c4.267 0 7.727-3.459 7.727-7.726z"/><path d="m199.316 341.212h-10.407v15.453h10.407c4.267 0 7.727-3.459 7.727-7.727s-3.46-7.726-7.727-7.726z"/><path d="m371.056 388.519c0-4.268-3.459-7.727-7.727-7.727h-10.302v15.453h10.302c4.267 0 7.727-3.459 7.727-7.726z"/><path d="m371.056 119.289c0-4.268-3.459-7.727-7.727-7.727h-10.302v15.453h10.302c4.267.001 7.727-3.458 7.727-7.726z"/><path d="m363.329 326.786h-10.302v15.453h10.302c4.267 0 7.727-3.459 7.727-7.727s-3.46-7.726-7.727-7.726z"/><path d="m363.329 78.185h-10.302v15.453h10.302c4.267 0 7.727-3.459 7.727-7.727 0-4.267-3.46-7.726-7.727-7.726z"/><path d="m363.329 178.378c4.267 0 7.727-3.459 7.727-7.727s-3.459-7.727-7.727-7.727h-10.302v15.453h10.302z"/><path d="m363.329 44.807h-10.302v15.453h10.302c4.267 0 7.727-3.459 7.727-7.727s-3.46-7.726-7.727-7.726z"/><path d="m363.329 450.25c4.267 0 7.727-3.459 7.727-7.727s-3.459-7.727-7.727-7.727h-15.31c-2.963 5.418-7.114 10.094-12.101 13.679 1.337 1.108 3.054 1.774 4.926 1.774h22.485z"/><path d="m363.329 218.776h-10.302v15.453h10.302c4.267 0 7.727-3.459 7.727-7.727s-3.46-7.726-7.727-7.726z"/><path d="m363.329 272.782h-10.302v15.453h10.302c4.267 0 7.727-3.459 7.727-7.727s-3.46-7.726-7.727-7.726z"/></g></svg>