<?xml version="1.0" encoding="iso-8859-1"?>
<!-- Generator: Adobe Illustrator 19.0.0, SVG Export Plug-In . SVG Version: 6.00 Build 0)  -->
<svg version="1.1" id="Capa_1" xmlns="http://www.w3.org/2000/svg" xmlns:xlink="http://www.w3.org/1999/xlink" x="0px" y="0px"
	 viewBox="0 0 512 512" style="enable-background:new 0 0 512 512;" xml:space="preserve">
<path style="fill:#E4EAF8;" d="M101.668,218.164c0-9.958,8.148-18.106,18.106-18.106h293.648V50.483
	c0-9.958-8.148-18.106-18.106-18.106H18.106C8.148,32.377,0,40.524,0,50.483v246.444c0,9.958,8.148,18.106,18.106,18.106h83.562
	V218.164z"/>
<path style="fill:#D8DCE5;" d="M20.605,296.927V50.483c0-9.958,8.148-18.106,18.106-18.106H18.106C8.148,32.377,0,40.524,0,50.483
	v246.444c0,9.958,8.148,18.106,18.106,18.106h20.605C28.753,315.033,20.605,306.885,20.605,296.927z"/>
<g>
	<path style="fill:#C3C8D1;" d="M103.126,224.552H60.354c-4.267,0-7.727-3.459-7.727-7.727s3.459-7.727,7.727-7.727h42.772
		c4.267,0,7.727,3.459,7.727,7.727S107.393,224.552,103.126,224.552z"/>
	<path style="fill:#C3C8D1;" d="M103.126,265.291H60.354c-4.267,0-7.727-3.459-7.727-7.727c0-4.268,3.459-7.727,7.727-7.727h42.772
		c4.267,0,7.727,3.459,7.727,7.727S107.393,265.291,103.126,265.291z"/>
</g>
<rect y="88.71" style="fill:#707487;" width="413.42" height="56.33"/>
<rect y="88.71" style="fill:#5B5D6E;" width="20.605" height="56.33"/>
<path style="fill:#20B7A1;" d="M493.894,196.967h-377.21c-9.958,0-18.106,8.148-18.106,18.106v246.444
	c0,9.958,8.148,18.106,18.106,18.106h377.21c9.958,0,18.106-8.148,18.106-18.106V215.073
	C512,205.115,503.852,196.967,493.894,196.967z"/>
<path style="fill:#199A8E;" d="M119.183,461.517V215.073c0-9.958,8.148-18.106,18.106-18.106h-20.605
	c-9.958,0-18.106,8.148-18.106,18.106v246.444c0,9.959,8.148,18.106,18.106,18.106h20.605
	C127.33,479.623,119.183,471.476,119.183,461.517z"/>
<path style="fill:#CF5668;" d="M392.482,357.547c7.73,0,14.921,2.297,20.94,6.236c-10.456,6.841-17.37,18.647-17.37,32.075
	s6.914,25.234,17.37,32.075c-6.02,3.938-13.21,6.236-20.94,6.236c-21.158,0-38.311-17.152-38.311-38.31
	C354.171,374.699,371.324,357.547,392.482,357.547z"/>
<path style="fill:#FFC850;" d="M430.792,395.857c0-13.428-6.914-25.234-17.37-32.075c6.02-3.938,13.21-6.236,20.941-6.236
	c21.158,0,38.31,17.152,38.31,38.31s-17.152,38.31-38.31,38.31c-7.731,0-14.921-2.298-20.941-6.236
	C423.878,421.091,430.792,409.285,430.792,395.857z"/>
<path style="fill:#FC932B;" d="M396.053,395.857c0-13.428,6.914-25.234,17.37-32.075c10.456,6.841,17.37,18.647,17.37,32.075
	s-6.914,25.234-17.37,32.075C402.966,421.091,396.053,409.285,396.053,395.857z"/>
<path style="fill:#FFC850;" d="M163.111,357.547h53.116c6.491,0,11.752,5.262,11.752,11.752v53.116
	c0,6.491-5.262,11.752-11.752,11.752h-53.116c-6.491,0-11.752-5.262-11.752-11.752v-53.116
	C151.359,362.809,156.621,357.547,163.111,357.547z"/>
<path style="fill:#F9B428;" d="M189.669,357.547h-26.558c-6.491,0-11.752,5.262-11.752,11.752v53.116
	c0,6.491,5.262,11.752,11.752,11.752h26.558V357.547z"/>
<path style="fill:#E59F23;" d="M171.964,424.285v-56.856c0-4.013,1.886-7.579,4.812-9.882h-13.664
	c-6.491,0-11.752,5.262-11.752,11.753v53.116c0,6.491,5.262,11.752,11.752,11.752h13.664
	C173.849,431.864,171.964,428.298,171.964,424.285z"/>
<path style="fill:#FCD592;" d="M216.227,357.547h-26.558v38.31h38.31v-26.558C227.98,362.809,222.718,357.547,216.227,357.547z"/>
<path style="fill:#FFC850;" d="M512,214.043c0-9.958-8.148-18.106-18.106-18.106h-377.21c-9.958,0-18.106,8.148-18.106,18.106
	v57.336c0,0,71.65-38.561,169.493,0c94.665,37.309,172.498,55.469,243.929,19.318V214.043z"/>
<path style="fill:#F9B428;" d="M98.578,214.043v57.336c0.001-0.001,7.375-3.964,20.605-8.078v-49.258
	c0-9.959,8.148-18.106,18.106-18.106h-20.605c-0.623,0-1.238,0.032-1.844,0.094C105.739,196.962,98.578,204.707,98.578,214.043z"/>
<g>
</g>
<g>
</g>
<g>
</g>
<g>
</g>
<g>
</g>
<g>
</g>
<g>
</g>
<g>
</g>
<g>
</g>
<g>
</g>
<g>
</g>
<g>
</g>
<g>
</g>
<g>
</g>
<g>
</g>
</svg>
