<?xml version="1.0" encoding="iso-8859-1"?>
<!-- Generator: Adobe Illustrator 19.0.0, SVG Export Plug-In . SVG Version: 6.00 Build 0)  -->
<svg version="1.1" id="Capa_1" xmlns="http://www.w3.org/2000/svg" xmlns:xlink="http://www.w3.org/1999/xlink" x="0px" y="0px"
	 viewBox="0 0 512 512" style="enable-background:new 0 0 512 512;" xml:space="preserve">
<g>
	<circle style="fill:#F4B576;" cx="256" cy="267.21" r="30.718"/>
	<path style="fill:#F4B576;" d="M240.66,490.426c-4.142,0-7.499-3.357-7.499-7.499v-71.788c0-4.142,3.357-7.498,7.499-7.498
		s7.499,3.357,7.499,7.498v71.788C248.159,487.069,244.802,490.426,240.66,490.426z"/>
	<path style="fill:#F4B576;" d="M271.339,490.426c-4.142,0-7.499-3.357-7.499-7.499v-71.788c0-4.142,3.357-7.498,7.499-7.498
		s7.499,3.357,7.499,7.498v71.788C278.838,487.069,275.481,490.426,271.339,490.426z"/>
	<path style="fill:#F4B576;" d="M117.091,54.443c0,16.965-13.753,30.718-30.718,30.718c-13.673,0-25.26-8.934-29.241-21.282
		c-0.158-0.491,0.184-0.868,0.05-1.369c-0.677-2.535-0.833-5.318-0.833-8.066c0-16.965,13.059-29.302,30.024-29.302
		c12.53,0,22.499,6.738,27.277,17.496c0.216,0.487,1.231,0.33,1.422,0.83C116.376,46.876,117.091,50.576,117.091,54.443z"/>
	<path style="fill:#F4B576;" d="M441.147,68.407c0,11.21-4.529,20.106-13.497,25.47c-0.615,0.368-1.409,1.626-2.051,1.951
		c-4.164,2.109-8.873,3.297-13.859,3.297c-16.965,0-30.718-13.753-30.718-30.718c0-5.302,1.343-10.289,3.707-14.642
		c0.559-1.029,1.572-1.113,2.241-2.067c5.556-7.922,13.704-12.435,24.114-12.435C428.05,39.264,441.147,51.442,441.147,68.407z"/>
</g>
<g>
	<path style="fill:#555566;" d="M411.74,37.689c-11.551,0-21.607,6.379-26.853,15.802c4.164-2.109,8.869-3.305,13.855-3.305
		c16.965,0,30.718,13.753,30.718,30.717c0,5.414-1.406,10.498-3.865,14.915c10.002-5.066,16.862-15.435,16.862-27.413
		C442.457,51.442,428.705,37.689,411.74,37.689z"/>
	<path style="fill:#555566;" d="M110.165,491.609c-4.142,0-7.499-3.357-7.499-7.499V292.421c0-4.142,3.357-7.498,7.499-7.498
		s7.499,3.357,7.499,7.498v191.69C117.663,488.252,114.306,491.609,110.165,491.609z"/>
	<circle style="fill:#555566;" cx="439.7" cy="37.689" r="17.299"/>
	<path style="fill:#555566;" d="M110.165,297.934H62.582c-9.786,0-17.719-7.933-17.719-17.719v-43.238h83.02v43.238
		C127.883,290.001,119.951,297.934,110.165,297.934z"/>
</g>
<path style="fill:#464655;" d="M106.884,236.977v43.238c0,9.786-7.933,17.719-17.719,17.719h20.999
	c9.786,0,17.719-7.933,17.719-17.719v-43.238L106.884,236.977L106.884,236.977z"/>
<path style="fill:#555566;" d="M62.581,491.609c-4.142,0-7.499-3.357-7.499-7.499V292.421c0-4.142,3.357-7.498,7.499-7.498
	s7.499,3.357,7.499,7.498v191.69C70.08,488.252,66.723,491.609,62.581,491.609z"/>
<g>
	<path style="fill:#F4B576;" d="M192.704,272.677c-2.697,0-5.303-1.459-6.644-4.012l-73.37-139.586
		c-1.927-3.665-0.517-8.2,3.149-10.126c3.667-1.924,8.2-0.516,10.126,3.149l73.369,139.586c1.927,3.665,0.517,8.2-3.149,10.126
		C195.072,272.398,193.879,272.677,192.704,272.677z"/>
	<path style="fill:#F4B576;" d="M19.213,262.604c-4.142,0-7.499-3.357-7.499-7.498V173.59c0-16.848,7.587-32.493,20.817-42.925
		l16.527-13.034c3.251-2.565,7.968-2.008,10.531,1.244c2.565,3.252,2.007,7.967-1.244,10.531l-16.528,13.034
		c-9.601,7.57-15.106,18.923-15.106,31.149v81.515C26.711,259.248,23.355,262.604,19.213,262.604z"/>
	<path style="fill:#F4B576;" d="M318.417,274.716c-1.062,0-2.14-0.227-3.166-0.706c-3.753-1.752-5.375-6.214-3.623-9.966
		l60.488-129.597c1.751-3.753,6.214-5.377,9.966-3.623c3.753,1.752,5.375,6.214,3.623,9.966l-60.488,129.597
		C323.944,273.114,321.24,274.716,318.417,274.716z"/>
	<path style="fill:#F4B576;" d="M478.88,270.21c-4.142,0-7.499-3.357-7.499-7.499v-73.48c0-8.049-2.766-15.923-7.795-22.202
		l-24.509-25.879c-2.848-3.007-2.719-7.752,0.288-10.6c3.005-2.847,7.752-2.721,10.6,0.288l24.713,26.093
		c0.13,0.137,0.254,0.278,0.373,0.424c7.304,8.98,11.327,20.3,11.327,31.875v73.481C486.379,266.854,483.022,270.21,478.88,270.21z"
		/>
</g>
<path style="fill:#26C4C4;" d="M155.311,177.933l-29.346-55.832c-1.926-3.665-6.459-5.073-10.126-3.149
	c-3.666,1.926-5.076,6.461-3.149,10.126l29.965,57.008L155.311,177.933z"/>
<g>
	<path style="fill:#F4B576;" d="M388.154,491.611c-4.142,0-7.499-3.357-7.499-7.499v-44.857c0-4.142,3.357-7.499,7.499-7.499
		s7.499,3.357,7.499,7.499v44.857C395.653,488.254,392.296,491.611,388.154,491.611z"/>
	<path style="fill:#F4B576;" d="M435.737,491.611c-4.142,0-7.499-3.357-7.499-7.499v-44.857c0-4.142,3.357-7.499,7.499-7.499
		s7.499,3.357,7.499,7.499v44.857C443.236,488.254,439.879,491.611,435.737,491.611z"/>
</g>
<path style="fill:#26C4C4;" d="M108.466,110.914H64.281c-10.724,0-19.418,8.693-19.418,19.417v106.645h83.02V130.331
	C127.883,119.608,119.19,110.914,108.466,110.914z"/>
<path style="fill:#1BB2AE;" d="M108.466,110.914H87.47c10.724,0,19.418,8.694,19.418,19.417v106.645h20.996V130.331
	C127.883,119.608,119.19,110.914,108.466,110.914z"/>
<path style="fill:#555566;" d="M450.434,439.254h-81.658c-7.128,0-12.755-6.055-12.233-13.164l13.892-189.113h83.02l12.413,185.777
	C466.464,431.683,459.383,439.254,450.434,439.254z"/>
<path style="fill:#464655;" d="M465.868,422.754l-12.413-185.777h-21.802l12.413,185.777c0.597,8.929-6.485,16.5-15.434,16.5h21.803
	C459.383,439.254,466.465,431.683,465.868,422.754z"/>
<path style="fill:#FFC2E5;" d="M435.1,124.334h-46.31c-10.137,0-18.355,8.218-18.355,18.355v94.288h83.02v-94.288
	C453.455,132.551,445.238,124.334,435.1,124.334z"/>
<path style="fill:#FF99DD;" d="M435.1,124.334h-21.769c10.137,0,18.355,8.218,18.355,18.355v94.288h21.769v-94.288
	C453.455,132.551,445.237,124.334,435.1,124.334z"/>
<path style="fill:#555566;" d="M86.373,23.725c-16.965,0-30.718,13.753-30.718,30.717c0,3.292,0.524,6.46,1.482,9.433
	c4.861-1.065,8.501-5.39,8.501-10.57v-2.977c0-3.788,3.07-6.858,6.858-6.858h42.568C110.647,31.927,99.471,23.725,86.373,23.725z"/>
<path style="fill:#464655;" d="M504.501,491.609H7.499c-4.142,0-7.499-3.357-7.499-7.499s3.357-7.498,7.499-7.498h497.002
	c4.142,0,7.499,3.357,7.499,7.498C511.999,488.252,508.643,491.609,504.501,491.609z"/>
<rect x="263.84" y="410.711" style="fill:#EA4949;" width="14.997" height="29.682"/>
<path style="fill:#F4B576;" d="M256,337.136c-38.555,0-69.921-31.366-69.921-69.921c0-4.142,3.357-7.499,7.499-7.499
	s7.499,3.357,7.499,7.499c0,30.285,24.639,54.924,54.924,54.924s54.924-24.639,54.924-54.924c0-4.142,3.357-7.499,7.499-7.499
	s7.499,3.357,7.499,7.499C325.92,305.771,294.555,337.136,256,337.136z"/>
<path style="fill:#F95353;" d="M312.273,308.656l-10.013-11.891c-9.771,15.243-26.849,25.374-46.26,25.374
	c-19.343,0-36.37-10.06-46.158-25.214l-10.304,11.466c6.952,9.507,16.243,17.196,27.015,22.224v73.902
	c0,3.657,2.964,6.621,6.621,6.621h45.651c3.657,0,6.621-2.964,6.621-6.621v-73.899C296.121,325.637,305.342,318.043,312.273,308.656
	z"/>
<g>
	<path style="fill:#EA4949;" d="M240.754,322.139c2.587,0,5.131-0.186,7.623-0.533c-16.144-2.254-30.057-11.553-38.536-24.681
		l-8.042,8.949C211.754,315.91,225.536,322.139,240.754,322.139z"/>
	<path style="fill:#EA4949;" d="M302.26,296.766c-2.148,3.351-4.649,6.454-7.451,9.257l0,0c1.313,1.559,1.344,3.84,0.053,5.417
		c-5.255,6.417-11.628,11.884-18.816,16.106c-3.664,2.152-5.846,6.151-5.846,10.4v66.571c0,3.657-2.965,6.621-6.621,6.621h15.246
		c3.657,0,6.621-2.964,6.621-6.621v-73.899c10.675-4.98,19.896-12.575,26.827-21.961L302.26,296.766z"/>
</g>
<rect x="233.16" y="410.711" style="fill:#F95353;" width="14.997" height="29.682"/>
<path style="fill:#26C4C4;" d="M49.059,117.633l-16.527,13.034c-13.23,10.432-20.817,26.077-20.817,42.925v7.019h14.997v-7.019
	c0-12.226,5.506-23.579,15.106-31.149l16.528-13.034c3.251-2.564,3.809-7.279,1.244-10.531
	C57.027,115.624,52.31,115.068,49.059,117.633z"/>
<path style="fill:#F4B576;" d="M94.1,126.763L94.1,126.763c-6.557,0-11.873-5.316-11.873-11.873v-1.335h23.745v1.335
	C105.972,121.448,100.657,126.763,94.1,126.763z"/>
<g>
</g>
<g>
</g>
<g>
</g>
<g>
</g>
<g>
</g>
<g>
</g>
<g>
</g>
<g>
</g>
<g>
</g>
<g>
</g>
<g>
</g>
<g>
</g>
<g>
</g>
<g>
</g>
<g>
</g>
</svg>
