<?xml version="1.0" encoding="iso-8859-1"?>
<!-- Generator: Adobe Illustrator 19.0.0, SVG Export Plug-In . SVG Version: 6.00 Build 0)  -->
<svg version="1.1" id="Capa_1" xmlns="http://www.w3.org/2000/svg" xmlns:xlink="http://www.w3.org/1999/xlink" x="0px" y="0px"
	 viewBox="0 0 512 512" style="enable-background:new 0 0 512 512;" xml:space="preserve">
<path style="fill:#BCC4D2;" d="M88.894,471.009c-17.861,0-32.392-14.531-32.392-32.392V235.383c0-4.328,3.508-7.837,7.837-7.837
	s7.837,3.509,7.837,7.837v203.234c0,9.219,7.5,16.718,16.718,16.718c9.219,0,16.719-7.5,16.719-16.718V278.215
	c0-20.449,16.636-37.084,37.083-37.084c4.329,0,7.837,3.509,7.837,7.837c0,4.328-3.508,7.837-7.837,7.837
	c-11.806,0-21.41,9.605-21.41,21.411v160.402C121.287,456.477,106.755,471.009,88.894,471.009z"/>
<path style="fill:#E21730;" d="M132.57,96.098c-3.051-3.062-8.014-3.062-11.076,0l-19.299,19.299l-37.794,37.784
	c-5.089,5.099-7.899,11.87-7.899,19.08v63.122c0,4.326,3.511,7.837,7.837,7.837s7.837-3.511,7.837-7.837v-14.106h14.9
	c14.252,0,25.851-11.598,25.851-25.851v-68.598l19.644-19.655C135.631,104.113,135.631,99.16,132.57,96.098z M97.252,166.942H73.502
	c0.512-0.972,1.181-1.881,1.985-2.675l21.765-21.765C97.252,142.502,97.252,166.942,97.252,166.942z"/>
<path style="fill:#2C2E3B;" d="M142.697,221.277H87.073c-4.329,0-7.837-3.509-7.837-7.837c0-4.328,3.508-7.837,7.837-7.837h55.623
	c4.329,0,7.837,3.509,7.837,7.837C150.533,217.768,147.025,221.277,142.697,221.277z"/>
<path style="fill:#E21730;" d="M288.84,0L288.84,0c-80.712,0-146.143,65.43-146.143,146.143V473.62L434.982,498V146.143
	C434.982,65.43,369.552,0,288.84,0z"/>
<path style="fill:#C60E2D;" d="M306.603,1.077C300.78,0.371,294.853,0,288.84,0l0,0c-80.712,0-146.143,65.43-146.143,146.143V473.62
	l35.527,10.449V146.143C178.224,71.444,234.27,9.843,306.603,1.077z"/>
<path style="fill:#AAB1BC;" d="M439.379,473.62H138.3c-8.904,0-16.121,7.217-16.121,16.121V512h333.319v-22.259
	C455.5,480.837,448.282,473.62,439.379,473.62z"/>
<path style="fill:#959BA5;" d="M178.006,473.62H138.3c-8.904,0-16.121,7.217-16.121,16.121V512h39.706v-22.259
	C161.886,480.837,169.104,473.62,178.006,473.62z"/>
<path style="fill:#EDEDED;" d="M396.052,146.138v27.972H181.629v-27.972c0-59.11,48.097-107.207,107.207-107.207
	c34.983,0,66.111,16.844,85.692,42.851C388.038,99.714,396.052,122.001,396.052,146.138z"/>
<path style="fill:#DBDBDB;" d="M396.052,146.138v27.972H202.987v-6.604c0-59.12,48.097-107.217,107.217-107.217
	c24.116,0,46.393,8.004,64.324,21.494C388.038,99.714,396.052,122.001,396.052,146.138z"/>
<path style="fill:#515B65;" d="M288.84,134.373c-4.329,0-7.837-3.509-7.837-7.837V81.551c0-4.328,3.508-7.837,7.837-7.837
	s7.837,3.509,7.837,7.837v44.985C296.676,130.864,293.169,134.373,288.84,134.373z"/>
<path style="fill:#2C2E3B;" d="M336.419,174.116c0-26.278-21.302-47.579-47.579-47.579s-47.579,21.302-47.579,47.579"/>
<path style="fill:#AD0429;" d="M344.256,174.116h-15.673c0-21.915-17.829-39.743-39.743-39.743
	c-21.914,0-39.743,17.829-39.743,39.743h-15.673c0-30.557,24.859-55.416,55.416-55.416S344.256,143.559,344.256,174.116z"/>
<g>
	<path style="fill:#515B65;" d="M200.601,153.979h-18.974c-4.329,0-7.837-3.509-7.837-7.837c0-4.328,3.508-7.837,7.837-7.837h18.974
		c4.329,0,7.837,3.509,7.837,7.837C208.438,150.471,204.929,153.979,200.601,153.979z"/>
	<path style="fill:#515B65;" d="M396.053,153.979h-18.974c-4.329,0-7.837-3.509-7.837-7.837c0-4.328,3.508-7.837,7.837-7.837h18.974
		c4.329,0,7.837,3.509,7.837,7.837C403.89,150.471,400.381,153.979,396.053,153.979z"/>
	<path style="fill:#515B65;" d="M365.264,109.861c-2.708,0-5.342-1.405-6.794-3.919c-2.164-3.748-0.88-8.541,2.868-10.705
		l16.432-9.488c3.746-2.164,8.54-0.881,10.705,2.868c2.164,3.748,0.88,8.541-2.868,10.705l-16.432,9.488
		C367.941,109.522,366.594,109.861,365.264,109.861z"/>
	<path style="fill:#515B65;" d="M332.952,77.563c-1.329,0-2.677-0.339-3.911-1.051c-3.748-2.164-5.032-6.957-2.868-10.705
		l9.487-16.432c2.163-3.748,6.954-5.032,10.705-2.869c3.748,2.164,5.032,6.957,2.868,10.705l-9.487,16.432
		C338.295,76.157,335.66,77.563,332.952,77.563z"/>
	<path style="fill:#515B65;" d="M288.84,65.74c-4.329,0-7.837-3.509-7.837-7.837V38.929c0-4.328,3.508-7.837,7.837-7.837
		s7.837,3.509,7.837,7.837v18.974C296.676,62.232,293.169,65.74,288.84,65.74z"/>
	<path style="fill:#515B65;" d="M244.727,77.563c-2.708,0-5.342-1.405-6.794-3.919l-9.488-16.432
		c-2.164-3.748-0.88-8.541,2.868-10.705c3.746-2.164,8.54-0.881,10.705,2.868l9.488,16.432c2.164,3.748,0.88,8.541-2.868,10.705
		C247.405,77.224,246.057,77.563,244.727,77.563z"/>
	<path style="fill:#515B65;" d="M212.415,109.861c-1.329,0-2.677-0.339-3.911-1.051l-16.433-9.488
		c-3.748-2.164-5.032-6.957-2.868-10.705c2.163-3.748,6.954-5.033,10.705-2.868l16.433,9.488c3.748,2.164,5.032,6.957,2.868,10.705
		C217.758,108.455,215.123,109.861,212.415,109.861z"/>
</g>
<path style="fill:#C60E2D;" d="M328.272,285.538h-78.865c-8.807,0-15.947-7.14-15.947-15.947v-41.249
	c0-8.807,7.14-15.947,15.947-15.947h78.866c8.807,0,15.947,7.14,15.947,15.947v41.249
	C344.219,278.398,337.079,285.538,328.272,285.538z"/>
<path style="fill:#AD0429;" d="M396.053,181.952H181.627c-4.329,0-7.837-3.509-7.837-7.837v-27.973
	c0-63.439,51.612-115.051,115.05-115.051S403.89,82.704,403.89,146.143v27.973C403.89,178.443,400.381,181.952,396.053,181.952z
	 M189.464,166.279h198.753v-20.136c0-54.797-44.581-99.377-99.376-99.377s-99.376,44.581-99.376,99.377v20.136H189.464z"/>
<path style="fill:#DBDBDB;" d="M132.57,107.174l-19.644,19.655l-10.846-10.846l0.115-0.585l19.299-19.299
	c3.062-3.062,8.025-3.062,11.076,0C135.631,99.16,135.631,104.113,132.57,107.174z"/>
<g>
</g>
<g>
</g>
<g>
</g>
<g>
</g>
<g>
</g>
<g>
</g>
<g>
</g>
<g>
</g>
<g>
</g>
<g>
</g>
<g>
</g>
<g>
</g>
<g>
</g>
<g>
</g>
<g>
</g>
</svg>
