<svg id="Capa_1" enable-background="new 0 0 512 512" height="512" viewBox="0 0 512 512" width="512" xmlns="http://www.w3.org/2000/svg"><path d="m422.331 504.389h-357.266c-5.523 0-10-4.477-10-10v-484.389c0-5.523 4.477-10 10-10h357.266c5.523 0 10 4.477 10 10v484.389c0 5.522-4.477 10-10 10z" fill="#eaeaea"/><path d="m411.827 0v504.389h10.355c5.605 0 10.149-4.544 10.149-10.149v-484.091c0-5.605-4.544-10.149-10.149-10.149z" fill="#cbcbcb"/><path d="m508.194 452.104v-354.815c0-5.605-4.544-10.149-10.149-10.149h-28.911c-5.605 0-10.149 4.544-10.149 10.149v354.815c0 9.312 3.169 18.346 8.986 25.617l15.618 19.523 15.618-19.523c5.818-7.271 8.987-16.305 8.987-25.617z" fill="#818181"/><path d="m489.741 87.14v364.963c0 9.312-3.169 18.346-8.986 25.618l-6.392 7.99 1.615 2.019v16.34c0 4.168 3.212 7.802 7.378 7.927 4.311.129 7.845-3.326 7.845-7.608v-16.659l8.007-10.009c5.817-7.271 8.986-16.305 8.986-25.617v-354.815c0-5.605-4.544-10.149-10.149-10.149z" fill="#595959"/><path d="m458.986 134.299h49.209v41.007h-49.209z" fill="#fcdd2e"/><path d="m489.741 134.299h18.453v41.007h-18.453z" fill="#e6b700"/><path d="m155.784 504.389h-141.978c-5.523 0-10-4.477-10-10v-31.259c0-5.523 4.477-10 10-10h151.978v41.259c0 5.522-4.477 10-10 10z" fill="#fcdd2e"/><path d="m165.784 453.13h-151.978c-5.523 0-10-4.477-10-10v-31.259c0-5.523 4.477-10 10-10h151.978z" fill="#fcdd2e"/><path d="m165.784 401.871h-151.978c-5.523 0-10-4.477-10-10v-31.259c0-5.523 4.477-10 10-10h151.978z" fill="#fcdd2e"/><path d="m165.784 350.612h-151.978c-5.523 0-10-4.477-10-10v-31.259c0-5.523 4.477-10 10-10h151.978z" fill="#fcdd2e"/><path d="m78.644 395.5c0 45.912 24.275 86.255 60.66 108.888h16.332c5.605 0 10.149-4.544 10.149-10.149v-41.11-51.259-51.259-51.259h-43.613c-26.671 23.501-43.528 57.891-43.528 96.148z" fill="#e6b700"/><path d="m13.954 504.389h141.681c5.605 0 10.149-4.544 10.149-10.149v-10.355h-161.978v10.355c0 5.605 4.543 10.149 10.148 10.149z" fill="#e6b700"/><path d="m13.954 453.13h151.83v-20.504h-161.978v10.355c0 5.605 4.543 10.149 10.148 10.149z" fill="#e6b700"/><path d="m13.954 401.871h151.83v-20.504h-161.978v10.355c0 5.605 4.543 10.149 10.148 10.149z" fill="#e6b700"/><path d="m13.954 350.612h151.83v-20.504h-161.978v10.355c0 5.605 4.543 10.149 10.148 10.149z" fill="#e6b700"/><circle cx="206.791" cy="396.745" fill="#fce25c" r="107.644"/><path d="m275.215 313.643c15.332 18.6 24.542 42.436 24.542 68.423 0 59.45-48.194 107.644-107.644 107.644-25.987 0-49.823-9.209-68.423-24.542 19.743 23.951 49.639 39.221 83.102 39.221 59.45 0 107.644-48.194 107.644-107.644-.001-33.463-15.27-63.359-39.221-83.102z" fill="#e6b700"/><circle cx="206.791" cy="396.745" fill="#e6b700" r="71.763"/><path d="m401.576 140.015h-315.756c-4.204 0-7.612 3.407-7.612 7.611v30.755c0 4.204 3.408 7.611 7.612 7.611h315.756c4.204 0 7.612-3.407 7.612-7.611v-30.755c-.001-4.204-3.408-7.611-7.612-7.611z" fill="#fb636f"/><path d="m286.827 28.432c-1.009-3.151-3.94-5.288-7.248-5.288-3.309 0-6.239 2.138-7.249 5.288l-25.629 79.964c-1.283 4.003.922 8.288 4.925 9.572.773.247 1.555.365 2.325.365 3.219 0 6.211-2.059 7.247-5.29l7.176-22.391h22.409l7.177 22.391c1.283 4.004 5.573 6.203 9.572 4.926 4.003-1.283 6.208-5.569 4.926-9.572zm-13.573 46.996 6.325-19.735 6.326 19.735z" fill="#818181"/><path d="m155.532 103.108h-43.647v-72.353c0-4.204-3.408-7.611-7.611-7.611s-7.611 3.407-7.611 7.611v79.964c0 4.204 3.408 7.611 7.611 7.611h51.259c4.204 0 7.611-3.407 7.611-7.611s-3.408-7.611-7.612-7.611z" fill="#818181"/><path d="m207.817 23.144c-18.33 0-33.241 14.912-33.241 33.241v28.705c0 18.329 14.912 33.241 33.241 33.241s33.241-14.912 33.241-33.241v-28.705c-.001-18.329-14.912-33.241-33.241-33.241zm18.017 61.946c0 9.935-8.083 18.018-18.018 18.018-9.936 0-18.018-8.083-18.018-18.018v-28.705c0-9.935 8.083-18.018 18.018-18.018s18.018 8.083 18.018 18.018z" fill="#818181"/><path d="m383.122 23.144c-4.204 0-7.612 3.407-7.612 7.611v53.986l-37.239-58.094c-1.825-2.844-5.309-4.147-8.548-3.196-3.244.95-5.472 3.925-5.472 7.304v79.964c0 4.204 3.407 7.611 7.611 7.611s7.612-3.407 7.612-7.611v-53.986l37.239 58.094c1.426 2.223 3.863 3.504 6.408 3.504.712 0 1.432-.1 2.14-.308 3.244-.95 5.472-3.925 5.472-7.304v-79.964c0-4.204-3.407-7.611-7.611-7.611z" fill="#818181"/><path d="m187.313 222.899h-101.493c-4.204 0-7.612-3.407-7.612-7.611s3.408-7.611 7.612-7.611h101.493c4.204 0 7.611 3.407 7.611 7.611s-3.407 7.611-7.611 7.611z" fill="#818181"/><path d="m147.331 253.655h-61.511c-4.204 0-7.612-3.407-7.612-7.611s3.408-7.611 7.612-7.611h61.511c4.204 0 7.611 3.407 7.611 7.611s-3.407 7.611-7.611 7.611z" fill="#818181"/><path d="m401.576 222.899h-61.511c-4.204 0-7.612-3.407-7.612-7.611s3.407-7.611 7.612-7.611h61.511c4.204 0 7.612 3.407 7.612 7.611s-3.408 7.611-7.612 7.611z" fill="#818181"/><path d="m401.576 294.662h-61.511c-4.204 0-7.612-3.407-7.612-7.612s3.407-7.611 7.612-7.611h61.511c4.204 0 7.612 3.407 7.612 7.611s-3.408 7.612-7.612 7.612z" fill="#818181"/><path d="m377.996 453.565c-2.019 0-3.954-.802-5.383-2.23l-18.196-18.197-18.196 18.197c-2.973 2.973-7.793 2.972-10.764.001-2.973-2.972-2.973-7.792-.001-10.764l23.579-23.58c1.428-1.428 3.364-2.23 5.383-2.23s3.954.802 5.383 2.23l18.196 18.197 18.197-18.198c2.973-2.971 7.792-2.971 10.765 0 2.972 2.973 2.972 7.792 0 10.765l-23.58 23.58c-1.429 1.427-3.364 2.229-5.383 2.229z" fill="#818181"/><path d="m483.59 293.636c-4.204 0-7.611-3.407-7.611-7.611v-131.223c0-4.204 3.407-7.611 7.611-7.611s7.612 3.407 7.612 7.611v131.223c-.001 4.204-3.408 7.611-7.612 7.611z" fill="#434343"/><g fill="#e6b700"><path d="m93.586 453.13v20.503c0 4.204 3.408 7.612 7.612 7.612s7.611-3.407 7.611-7.612v-20.503z"/><path d="m59.755 453.13v20.503c0 4.204 3.408 7.612 7.611 7.612s7.611-3.407 7.611-7.612v-20.503z"/><path d="m33.536 481.245c4.204 0 7.611-3.407 7.611-7.612v-20.503h-15.222v20.503c0 4.204 3.408 7.612 7.611 7.612z"/><path d="m33.536 429.985c4.204 0 7.611-3.407 7.611-7.612v-20.503h-15.222v20.503c0 4.205 3.408 7.612 7.611 7.612z"/><path d="m59.755 401.87v20.503c0 4.204 3.408 7.612 7.611 7.612s7.611-3.407 7.611-7.612v-20.503z"/><path d="m67.367 378.726c4.204 0 7.611-3.407 7.611-7.612v-20.503h-15.223v20.503c0 4.205 3.408 7.612 7.612 7.612z"/><path d="m33.536 378.726c4.204 0 7.611-3.407 7.611-7.612v-20.503h-15.222v20.503c0 4.205 3.408 7.612 7.611 7.612z"/><path d="m93.586 299.353v20.503c0 4.204 3.408 7.612 7.612 7.612s7.611-3.407 7.611-7.612v-20.503z"/><path d="m33.536 327.468c4.204 0 7.611-3.407 7.611-7.612v-20.503h-15.222v20.503c0 4.204 3.408 7.612 7.611 7.612z"/><path d="m59.755 299.353v20.503c0 4.204 3.408 7.612 7.611 7.612s7.611-3.407 7.611-7.612v-20.503z"/></g><path d="m211.917 389.133h-10.252c-4.282 0-7.766-3.484-7.766-7.766s3.484-7.766 7.766-7.766h25.629c4.204 0 7.611-3.407 7.611-7.611s-3.408-7.612-7.611-7.612h-12.892v-7.766c0-4.204-3.408-7.612-7.611-7.612-4.204 0-7.611 3.407-7.611 7.612v7.903c-11.511 1.244-20.503 11.017-20.503 22.853 0 12.676 10.313 22.989 22.989 22.989h10.252c4.282 0 7.766 3.484 7.766 7.766s-3.484 7.767-7.766 7.767h-25.629c-4.204 0-7.611 3.407-7.611 7.611s3.408 7.612 7.611 7.612h12.892v7.766c0 4.204 3.408 7.611 7.611 7.611 4.204 0 7.611-3.407 7.611-7.611v-7.903c11.511-1.244 20.503-11.017 20.503-22.854 0-12.676-10.312-22.989-22.989-22.989z" fill="#fce25c"/></svg>