<?xml version="1.0" encoding="iso-8859-1"?>
<!-- Generator: Adobe Illustrator 19.0.0, SVG Export Plug-In . SVG Version: 6.00 Build 0)  -->
<svg xmlns="http://www.w3.org/2000/svg" xmlns:xlink="http://www.w3.org/1999/xlink" version="1.1" id="Layer_1" x="0px" y="0px" viewBox="0 0 512 512" style="enable-background:new 0 0 512 512;" xml:space="preserve" width="512" height="512">
<g>
	<path style="fill:#F4DBB3;" d="M313.806,470.71l36.159,36.159c3.285,3.285,7.741,5.131,12.387,5.131   c9.675,0,17.518-7.843,17.518-17.518v-65.063L313.806,470.71z"/>
	<path style="fill:#EAC89F;" d="M379.871,459.837v-30.417l-66.065,41.29l21.821,21.821   C352.09,483.998,367.02,472.964,379.871,459.837z"/>
	<path style="fill:#EAC89F;" d="M132.129,429.419v65.063c0,9.675,7.843,17.518,17.518,17.518c4.646,0,9.102-1.846,12.387-5.131   l36.159-36.159L132.129,429.419z"/>
	<path style="fill:#D2AC8C;" d="M132.129,459.837c12.851,13.128,27.781,24.161,44.243,32.694l21.821-21.821l-66.065-41.29V459.837z"/>
	<path style="fill:#F9EAC7;" d="M387.082,181.927c9.068-0.704,16.73,6.016,17.214,15.099c1.833,34.36-3.947,62.367-8.215,77.758   l-78.739-77.12C332.842,191.666,357.194,184.247,387.082,181.927z"/>
	<path style="fill:#F9EAC7;" d="M125.656,181.927c-9.068-0.704-16.73,6.016-17.214,15.099c-1.833,34.36,3.947,62.367,8.215,77.758   l78.739-77.12C179.896,191.666,155.543,184.247,125.656,181.927z"/>
	<path style="fill:#F4DBB3;" d="M132.435,258.069c-4.198-15.138-9.818-42.6-8.259-76.19c-8.398,0.102-15.278,6.571-15.735,15.148   c-1.833,34.36,3.947,62.367,8.215,77.758L132.435,258.069z"/>
	<circle style="fill:#F4DBB3;" cx="256" cy="338.581" r="156.903"/>
	<circle style="fill:#F9EAC7;" cx="256" cy="388.129" r="57.806"/>
	<path style="fill:#EAC89F;" d="M276.645,474.839c-86.655,0-156.903-70.248-156.903-156.903c0-38.071,13.581-72.988,36.133-100.159   c-34.675,28.781-56.778,72.219-56.778,120.804c0,86.655,70.248,156.903,156.903,156.903c48.585,0,92.022-22.096,120.803-56.771   C349.632,461.265,314.716,474.839,276.645,474.839z"/>
	<path style="fill:#D2AC8C;" d="M222.952,227.427c-3.621,0-6.944-2.403-7.952-6.065c-1.218-4.399,1.371-8.944,5.766-10.157   c22.831-6.298,47.556-6.31,70.419-0.012c4.395,1.21,6.976,5.758,5.766,10.153c-1.21,4.395-5.774,6.98-10.153,5.766   c-19.984-5.508-41.645-5.504-61.645,0.012C224.419,227.331,223.685,227.427,222.952,227.427z"/>
	<path style="fill:#D2AC8C;" d="M239.484,404.645c-4.565,0-8.258-3.698-8.258-8.258v-8.258c0-4.56,3.694-8.258,8.258-8.258   s8.258,3.698,8.258,8.258v8.258C247.742,400.948,244.048,404.645,239.484,404.645z"/>
	<path style="fill:#FFFFFF;" d="M173.419,330.323c-4.565,0-8.258-3.698-8.258-8.258v-8.258c0-4.56,3.694-8.258,8.258-8.258   s8.258,3.698,8.258,8.258v8.258C181.677,326.625,177.984,330.323,173.419,330.323z"/>
	<path style="fill:#FFFFFF;" d="M338.581,330.323c-4.565,0-8.258-3.698-8.258-8.258v-8.258c0-4.56,3.694-8.258,8.258-8.258   s8.258,3.698,8.258,8.258v8.258C346.839,326.625,343.145,330.323,338.581,330.323z"/>
	<path style="fill:#D2AC8C;" d="M272.516,404.645c-4.565,0-8.258-3.698-8.258-8.258v-8.258c0-4.56,3.694-8.258,8.258-8.258   c4.565,0,8.258,3.698,8.258,8.258v8.258C280.774,400.948,277.081,404.645,272.516,404.645z"/>
	<path style="fill:#F4DBB3;" d="M404.219,196.127c-0.909-8.641-8.359-14.88-17.137-14.2c-29.888,2.32-54.241,9.739-69.74,15.737   l16.516,14.248c15.499-5.998,40.473-13.463,70.361-15.783C404.22,196.129,404.22,196.129,404.219,196.127z"/>
	<circle style="fill:#FFE07D;" cx="214.71" cy="99.097" r="41.29"/>
	<path style="fill:#FFD064;" d="M228.76,126.336c-22.804,0-41.29-18.486-41.29-41.29c0-7.787,2.176-15.098,5.924-21.315   c-11.985,7.227-19.974,20.35-19.974,35.365c0,22.804,18.486,41.29,41.29,41.29c15.016,0,28.142-7.988,35.368-19.974   C243.861,124.161,236.549,126.336,228.76,126.336z"/>
	<path style="fill:#FFF5D7;" d="M220.548,115.258c-2.645,0-5.282-1.008-7.298-3.024l-11.677-11.677   c-4.032-4.032-4.032-10.565,0-14.597s10.565-4.032,14.597,0l11.677,11.677c4.032,4.032,4.032,10.565,0,14.597   C225.831,114.25,223.194,115.258,220.548,115.258z"/>
	
		<ellipse transform="matrix(-0.7071 -0.7071 0.7071 -0.7071 520.1404 286.7335)" style="fill:#FFE07D;" cx="319.455" cy="35.642" rx="28.903" ry="41.29"/>
	<path style="fill:#FFF5D7;" d="M313.613,49.738c-2.113,0-4.226-0.806-5.839-2.419c-3.226-3.226-3.226-8.452,0-11.677l11.677-11.677   c3.226-3.226,8.452-3.226,11.677,0s3.226,8.452,0,11.677l-11.677,11.677C317.839,48.931,315.726,49.738,313.613,49.738z"/>
	<path style="fill:#FFD064;" d="M303.736,56.581c-11.287-11.287-7.366-33.51,8.759-49.635c1.321-1.321,2.697-2.548,4.089-3.703   c-6.124,2.55-12.172,6.565-17.567,11.961c-16.125,16.125-20.046,38.347-8.759,49.635c10.363,10.363,29.985,7.869,45.601-5.082   C323.684,64.827,311.246,64.091,303.736,56.581z"/>
</g>















</svg>
