<?xml version="1.0" encoding="iso-8859-1"?>
<!-- Generator: Adobe Illustrator 19.0.0, SVG Export Plug-In . SVG Version: 6.00 Build 0)  -->
<svg version="1.1" id="Capa_1" xmlns="http://www.w3.org/2000/svg" xmlns:xlink="http://www.w3.org/1999/xlink" x="0px" y="0px"
	 viewBox="0 0 512 512" style="enable-background:new 0 0 512 512;" xml:space="preserve">
<path style="fill:#E4EAF8;" d="M486.28,141.421l-6.669,36.438h-30.992v-36.438h-15.453v36.438h-29.794v-36.438h-15.453v36.438
	h-29.794v-36.438h-15.453v36.438h-29.794v-36.438h-15.453v36.438h-29.794v-36.438h-15.453v36.438h-29.794v-36.438H206.93v36.438
	h-35.857l3.577,15.453h32.281v26.193h-26.22l3.577,15.453h22.644v26.194h-16.583l3.577,15.453h13.007v33.663h15.453v-33.663h29.794
	v33.663h15.453v-33.663h29.794v33.663h15.453v-33.663h29.794v33.663h15.453v-33.663h29.794v33.663h15.453v-33.663h29.794v33.663
	h15.453v-33.663h12.917l-6.162,33.663h15.711l30.904-168.848L486.28,141.421L486.28,141.421z M252.177,261.153h-29.794v-26.194
	h29.794V261.153z M252.177,219.506h-29.794v-26.193h29.794V219.506z M297.424,261.153h-29.794v-26.194h29.794V261.153z
	 M297.424,219.506h-29.794v-26.193h29.794V219.506z M342.672,261.153h-29.794v-26.194h29.794V261.153z M342.672,219.506h-29.794
	v-26.193h29.794V219.506z M387.919,261.153h-29.794v-26.194h29.794V261.153z M387.919,219.506h-29.794v-26.193h29.794V219.506z
	 M433.166,261.153h-29.794v-26.194h29.794V261.153z M433.166,219.506h-29.794v-26.193h29.794V219.506z M464.366,261.153h-15.747
	v-26.194h20.54L464.366,261.153z M471.989,219.506h-23.369v-26.193h28.163L471.989,219.506z"/>
<g>
	<path style="fill:#707487;" d="M442.512,395.107H226.307c-11.047,0-20.503-7.518-22.994-18.28L135.883,85.432
		c-0.276-1.197-1.329-2.033-2.557-2.033H92.739c-4.267,0-7.727-3.46-7.727-7.727c0-4.267,3.46-7.727,7.727-7.727h40.586
		c8.463,0,15.706,5.758,17.613,14.003l67.43,291.393c0.86,3.716,4.124,6.312,7.939,6.312h216.205c4.267,0,7.727,3.459,7.727,7.727
		C450.239,391.648,446.779,395.107,442.512,395.107z"/>
	<path style="fill:#707487;" d="M10.841,60.86h71.057c5.987,0,10.841,4.854,10.841,10.841v7.944c0,5.987-4.854,10.841-10.841,10.841
		H10.841C4.854,90.485,0,85.631,0,79.644V71.7C0,65.714,4.854,60.86,10.841,60.86z"/>
</g>
<path style="fill:#5B5D6E;" d="M81.898,72.628H10.841c-4.199,0-7.833-2.392-9.634-5.883C0.44,68.231,0,69.913,0,71.701v7.944
	c0,5.987,4.854,10.841,10.841,10.841h71.057c5.987,0,10.841-4.854,10.841-10.841v-7.944c0-1.788-0.44-3.471-1.207-4.957
	C89.732,70.235,86.098,72.628,81.898,72.628z"/>
<circle style="fill:#868B9B;" cx="245.881" cy="419.257" r="31.879"/>
<path style="fill:#707487;" d="M234.716,419.259c0-13.978,9.002-25.848,21.521-30.148c-3.249-1.116-6.731-1.73-10.359-1.73
	c-17.607,0-31.879,14.272-31.879,31.879c0,17.607,14.272,31.879,31.879,31.879c3.628,0,7.11-0.614,10.359-1.73
	C243.717,445.107,234.716,433.239,234.716,419.259z"/>
<path style="fill:#CF5668;" d="M471.276,309.239l-2.458,15.524c-1.846,10.154-10.69,17.535-21.01,17.535H195.012l-7.651-33.059
	H471.276z"/>
<path style="fill:#C83C50;" d="M450.83,325.769H191.186l3.825,16.53h252.796c10.321,0,19.165-7.381,21.01-17.535l1.714-10.825
	C466.73,321.054,459.259,325.769,450.83,325.769z"/>
<path style="fill:#CF5668;" d="M141.361,110.45h363.34c4.015,0,7.299,3.284,7.299,7.298v18.892c0,4.015-3.284,7.298-7.299,7.298
	h-355.59L141.361,110.45z"/>
<path style="fill:#C83C50;" d="M506.492,126.081H144.978l4.132,17.857h355.59c4.015,0,7.299-3.284,7.299-7.298v-12.96
	C510.616,125.152,508.66,126.081,506.492,126.081z"/>
<path style="fill:#E4EAF8;" d="M245.878,426.984c-4.228,0-7.727-3.44-7.727-7.727c0-3.752,2.713-6.902,6.213-7.572
	c4.689-0.943,9.242,2.639,9.242,7.572C253.604,423.564,250.089,426.984,245.878,426.984z"/>
<circle style="fill:#868B9B;" cx="393.939" cy="419.257" r="31.879"/>
<path style="fill:#707487;" d="M382.775,419.259c0-13.978,9.002-25.848,21.521-30.148c-3.249-1.116-6.731-1.73-10.359-1.73
	c-17.607,0-31.879,14.272-31.879,31.879c0,17.607,14.272,31.879,31.879,31.879c3.628,0,7.11-0.614,10.359-1.73
	C391.777,445.107,382.775,433.239,382.775,419.259z"/>
<path style="fill:#E4EAF8;" d="M393.937,426.984c-4.209,0-7.727-3.408-7.727-7.727c0-3.752,2.714-6.903,6.213-7.572
	c4.689-0.943,9.242,2.639,9.242,7.572C401.664,423.565,398.15,426.984,393.937,426.984z"/>
<g>
</g>
<g>
</g>
<g>
</g>
<g>
</g>
<g>
</g>
<g>
</g>
<g>
</g>
<g>
</g>
<g>
</g>
<g>
</g>
<g>
</g>
<g>
</g>
<g>
</g>
<g>
</g>
<g>
</g>
</svg>
