<svg xmlns="http://www.w3.org/2000/svg" version="1.1" xmlns:xlink="http://www.w3.org/1999/xlink" xmlns:svgjs="http://svgjs.com/svgjs" width="512" height="512" x="0" y="0" viewBox="0 0 512 512" style="enable-background:new 0 0 512 512" xml:space="preserve" class=""><g><path d="m511.173 347.819-49.218-239.186c-.142-.695-.411-1.326-.735-1.916-1.025-4.106-2.855-7.917-5.495-11.156-5.563-6.825-13.843-10.581-23.316-10.581h-335.097c-18.577 0-36.785 15.061-40.596 33.576l-56.002 272.102c-1.951 9.509.144 18.908 5.752 25.787 5.559 6.82 13.838 10.577 23.307 10.577h335.097c18.577 0 36.794-15.064 40.6-33.578l1.905-9.262h78.953c7.653 0 14.487-3.212 19.239-9.041 5.701-6.991 7.741-16.948 5.606-27.322zm-119.252 42.837c-2.514 12.212-14.901 22.528-27.05 22.528h-335.098c-5.23 0-9.699-1.948-12.582-5.482-3.014-3.696-4.05-8.759-2.924-14.257l55.997-272.102c2.514-12.21 14.901-22.526 27.046-22.526h335.097c5.234 0 9.708 1.948 12.591 5.484 3.009 3.694 4.045 8.755 2.915 14.253l-52.952 257.315c-.001.006-.001.012-.002.019zm102.923-24.258c-2.104 2.581-5.05 3.946-8.514 3.946h-76.105l18.185-88.375 27.545-133.847 41.668 202.485c1.293 6.284.279 12.039-2.779 15.791zm-144.785-44.303h-99.175c-3.284 0-6.113 2.309-6.775 5.525l-8.68 42.177c-.419 2.036.099 4.153 1.41 5.766 1.315 1.613 3.284 2.547 5.365 2.547h99.179c3.284 0 6.117-2.309 6.775-5.525l8.676-42.177c.419-2.036-.099-4.153-1.414-5.766-1.311-1.613-3.28-2.547-5.361-2.547zm-14.316 42.177h-85.053l5.834-28.339h85.048z" fill="#888e9e" data-original="#000000" class=""></path></g></svg>