<?xml version="1.0" standalone="no"?>
<!DOCTYPE svg PUBLIC "-//W3C//DTD SVG 20010904//EN"
 "http://www.w3.org/TR/2001/REC-SVG-20010904/DTD/svg10.dtd">
<svg version="1.0" xmlns="http://www.w3.org/2000/svg"
 width="512.000000pt" height="512.000000pt" viewBox="0 0 512.000000 512.000000"
 preserveAspectRatio="xMidYMid meet">

<g transform="translate(0.000000,512.000000) scale(0.100000,-0.100000)"
fill="#000000" stroke="none">
<path d="M1110 4449 c-239 -26 -451 -139 -591 -314 -29 -36 -57 -65 -62 -65
-5 0 -61 17 -124 37 -183 58 -193 48 -193 -197 0 -254 30 -569 65 -695 5 -15
-2 -25 -23 -37 -53 -31 -115 -102 -144 -165 -71 -150 -33 -336 90 -444 41 -36
147 -89 179 -89 18 0 25 -10 38 -57 57 -198 205 -406 369 -518 l59 -40 -124
-6 c-144 -7 -204 -24 -287 -79 -85 -57 -140 -128 -183 -235 -23 -59 -24 -66
-27 -447 l-3 -388 25 -25 c23 -23 32 -25 114 -25 62 0 94 4 108 15 27 21 231
21 258 0 17 -13 137 -15 863 -15 760 0 846 2 868 16 l25 16 0 382 c0 349 -3
409 -24 472 -6 21 -4 22 116 26 77 3 139 11 165 21 l43 16 -19 -37 c-48 -94
-51 -124 -51 -509 0 -350 1 -364 20 -383 20 -20 33 -20 1030 -20 1004 0 1010
0 1030 20 20 20 21 29 18 408 l-3 387 -28 59 c-15 32 -26 60 -25 62 2 1 30 -4
63 -12 36 -8 115 -14 197 -14 l137 0 21 27 c21 27 21 33 18 323 -4 314 -7 329
-63 441 -42 84 -130 174 -229 234 -14 9 -14 14 -1 50 17 48 19 144 4 200 -6
22 -22 60 -37 85 -25 43 -25 49 -23 205 3 260 -36 449 -99 475 -16 7 -37 10
-45 6 -11 -4 -19 3 -26 21 -5 15 -26 54 -46 86 -30 50 -34 63 -25 78 27 43 15
74 -55 143 -119 119 -258 201 -432 253 -86 26 -96 26 -351 26 -14 0 -77 0
-140 0 -140 1 -241 -23 -377 -88 -232 -113 -417 -315 -502 -551 -49 -135 -62
-227 -60 -429 1 -168 0 -183 -20 -215 -11 -19 -21 -39 -22 -45 0 -5 -8 18 -18
51 -20 69 -69 152 -111 187 l-28 24 -5 234 c-6 276 -17 330 -102 504 -128 263
-357 451 -645 531 -84 23 -117 27 -280 29 -102 2 -223 -1 -270 -6z m396 -150
c43 -6 91 -17 107 -26 52 -26 197 -175 252 -258 62 -93 107 -193 137 -304 16
-60 22 -117 25 -273 l5 -198 -454 0 c-499 0 -517 2 -630 62 -107 57 -220 205
-243 318 -18 87 -92 107 -152 43 -57 -61 -143 -198 -177 -285 l-33 -80 -12 73
c-16 107 -29 252 -36 431 l-7 157 93 -30 c134 -41 152 -40 192 18 125 181 262
285 433 328 122 31 369 42 500 24z m-870 -905 c52 -89 162 -191 256 -237 146
-72 129 -70 778 -76 653 -7 612 -2 683 -80 65 -72 74 -178 23 -265 -37 -63
-88 -95 -175 -110 -39 -6 -77 -18 -86 -26 -8 -9 -23 -49 -34 -90 -30 -115 -58
-182 -110 -262 -113 -173 -282 -294 -486 -349 -111 -30 -298 -30 -406 -1 -214
58 -402 198 -508 380 -40 69 -101 231 -101 270 0 40 -36 69 -95 76 -177 21
-272 184 -195 336 35 68 115 120 184 120 73 0 95 23 117 120 14 66 50 157 84
216 14 24 27 44 29 44 2 0 21 -30 42 -66z m3064 -194 c0 -25 134 -150 198
-183 107 -56 127 -59 397 -66 227 -5 254 -8 290 -27 92 -48 130 -165 85 -260
-29 -59 -91 -100 -166 -110 -29 -3 -60 -12 -69 -18 -9 -6 -25 -45 -36 -86 -66
-255 -244 -449 -487 -530 -88 -30 -108 -33 -217 -34 -95 0 -137 5 -200 23
-258 73 -439 260 -515 532 -11 39 -27 80 -35 89 -9 10 -37 20 -65 23 -126 15
-196 94 -188 213 5 76 38 126 108 162 42 21 56 22 262 22 119 0 241 5 270 11
120 25 273 124 328 215 21 33 40 45 40 24z m-1136 -587 c3 -4 -21 -24 -54 -45
-113 -74 -201 -198 -235 -333 -11 -44 -15 -115 -15 -276 l0 -218 -50 34 c-90
60 -151 78 -292 83 l-126 4 78 59 c162 122 297 319 349 509 12 44 14 46 63 58
91 21 196 105 236 188 l17 36 11 -47 c7 -26 15 -49 18 -52z m544 -662 c31 -27
84 -66 117 -87 l60 -39 -145 -6 c-80 -4 -153 -10 -164 -14 -11 -5 -17 -4 -14
1 2 5 20 43 41 84 20 41 37 82 37 92 0 10 3 18 6 18 3 0 31 -22 62 -49z m1232
21 c0 -10 18 -53 39 -95 29 -57 35 -77 23 -71 -9 4 -81 9 -159 12 -79 2 -143
7 -143 11 0 3 19 16 43 29 23 12 74 49 112 81 70 59 85 65 85 33z m-655 -236
c93 0 161 5 203 16 l62 15 0 -57 c0 -95 -24 -158 -83 -215 -56 -54 -105 -75
-177 -75 -72 0 -121 21 -177 75 -59 57 -83 121 -83 216 l0 57 58 -16 c40 -11
98 -16 197 -16z m-2618 7 c48 -12 111 -17 213 -17 102 0 165 5 213 17 88 22
89 22 81 -10 -33 -140 -136 -231 -274 -240 -145 -11 -279 91 -305 230 -4 20
-5 37 -2 37 3 0 36 -8 74 -17z m2216 -127 c12 -119 107 -250 224 -309 226
-115 504 7 577 252 9 30 16 67 16 83 0 35 5 35 61 0 83 -54 146 -146 168 -250
6 -32 11 -160 11 -317 l0 -265 -776 0 -775 0 3 313 c3 273 5 317 21 351 42 95
137 169 235 186 26 4 88 8 138 9 l91 1 6 -54z"/>
<path d="M786 2918 c-12 -17 -16 -49 -16 -135 0 -100 2 -115 20 -133 25 -25
71 -26 101 -1 22 18 24 28 27 128 3 98 2 111 -18 136 -28 36 -91 39 -114 5z"/>
<path d="M1664 2919 c-26 -28 -33 -188 -11 -241 18 -42 53 -57 96 -42 42 15
52 48 49 160 -2 84 -6 106 -22 123 -26 28 -86 29 -112 0z"/>
<path d="M1043 2476 c-24 -21 -28 -31 -26 -69 3 -92 61 -179 145 -221 107 -53
244 -26 321 65 35 40 67 118 67 160 0 45 -42 89 -84 89 -29 0 -63 -40 -70 -80
-12 -75 -51 -110 -122 -110 -49 0 -98 49 -107 107 -5 28 -16 48 -33 62 -35 27
-57 26 -91 -3z"/>
<path d="M3175 2820 c-29 -32 -24 -79 13 -110 28 -23 32 -33 32 -74 0 -55 32
-96 75 -96 14 0 37 11 50 25 23 22 25 31 25 128 0 134 -9 147 -109 147 -55 0
-71 -4 -86 -20z"/>
<path d="M4030 2820 c-18 -18 -20 -33 -20 -129 0 -106 1 -110 26 -130 64 -50
124 -5 124 94 0 32 4 45 14 45 21 0 46 40 46 72 0 48 -31 68 -105 68 -52 0
-69 -4 -85 -20z"/>
<path d="M3465 2415 c-29 -28 -31 -53 -11 -119 29 -96 110 -163 209 -173 151
-16 277 107 268 260 -2 27 -38 57 -69 57 -43 0 -71 -26 -78 -72 -9 -52 -40
-87 -85 -94 -49 -8 -96 31 -106 88 -3 23 -14 49 -25 60 -26 26 -74 23 -103 -7z"/>
</g>
</svg>
