<svg id="icons" height="512" viewBox="0 0 60 60" width="512" xmlns="http://www.w3.org/2000/svg"><path d="m55 4v39h-51a3 3 0 0 1 -3-3v-36a3.039 3.039 0 0 1 3-3h48a3.037 3.037 0 0 1 3 3z" fill="#d0e0ef"/><path d="m30.35 22 24.65 21h-51a2.975 2.975 0 0 1 -2.05-.81l23.7-20.19z" fill="#c1d2e0"/><path d="m54.05 1.81-23.98 20.43a3.207 3.207 0 0 1 -4.14 0l-23.98-20.43a2.975 2.975 0 0 1 2.05-.81h48a2.975 2.975 0 0 1 2.05.81z" fill="#e9f4ff"/><circle cx="42" cy="42" fill="#4ab591" r="17"/><path d="m38 52a2 2 0 0 1 -1.414-.586l-4-4a2 2 0 0 1 2.828-2.828l2.473 2.473 10.594-12.359a2 2 0 1 1 3.037 2.6l-12 14a1.966 1.966 0 0 1 -1.518.7z" fill="#fff"/></svg>