<svg xmlns="http://www.w3.org/2000/svg" xmlns:xlink="http://www.w3.org/1999/xlink" width="88.292" height="95.023" viewBox="0 0 88.292 95.023">
  <defs>
    <filter id="Path_385" x="0" y="0" width="55.877" height="95.023" filterUnits="userSpaceOnUse">
      <feOffset dy="4" input="SourceAlpha"/>
      <feGaussianBlur stdDeviation="1" result="blur"/>
      <feFlood flood-opacity="0.161"/>
      <feComposite operator="in" in2="blur"/>
      <feComposite in="SourceGraphic"/>
    </filter>
    <filter id="Path_394" x="34.696" y="16.918" width="53.597" height="43.892" filterUnits="userSpaceOnUse">
      <feOffset dy="4" input="SourceAlpha"/>
      <feGaussianBlur stdDeviation="1" result="blur-2"/>
      <feFlood flood-opacity="0.161"/>
      <feComposite operator="in" in2="blur-2"/>
      <feComposite in="SourceGraphic"/>
    </filter>
  </defs>
  <g id="Group_156" data-name="Group 156" transform="translate(3)">
    <g id="Group_154" data-name="Group 154">
      <g transform="matrix(1, 0, 0, 1, -3, 0)" filter="url(#Path_385)">
        <path id="Path_385-2" data-name="Path 385" d="M496.316,482.024a16.876,16.876,0,0,1,2.85,1.306,6.216,6.216,0,0,1,2.656,5.4q0,4.728,0,9.456,0,32.449,0,64.9a6.487,6.487,0,0,1-3.679,6.287,15.98,15.98,0,0,1-1.833.676H457.462a16.933,16.933,0,0,1-2.85-1.306,6.218,6.218,0,0,1-2.657-5.4q0-4.728,0-9.456,0-32.449,0-64.9a6.489,6.489,0,0,1,3.679-6.288,15.947,15.947,0,0,1,1.833-.675ZM454.929,493.8v55.662h43.9V493.8Zm43.945,58.724h-43.99c0,3.5,0,6.933,0,10.366,0,2.912,1.328,4.232,4.261,4.232q17.743,0,35.486,0a9.773,9.773,0,0,0,1.03-.027,3.4,3.4,0,0,0,3.188-3.173C498.926,560.142,498.873,556.365,498.873,552.52ZM454.89,490.749h44c0-.574,0-1.086,0-1.6,0-2.857-1.345-4.2-4.212-4.2H459.1c-.315,0-.632-.008-.945.023a3.524,3.524,0,0,0-3.262,3.394C454.861,489.138,454.89,489.91,454.89,490.749Z" transform="translate(-448.95 -482.02)" fill="#0b9e4a"/>
      </g>
      <path id="Path_386" data-name="Path 386" d="M455.988,497.983h43.9v55.662h-43.9Z" transform="translate(-453.009 -486.211)" fill="#fff"/>
      <path id="Path_387" data-name="Path 387" d="M499.916,577.6c0,3.845.053,7.623-.024,11.4a3.4,3.4,0,0,1-3.188,3.173,9.773,9.773,0,0,1-1.03.027q-17.743,0-35.486,0c-2.933,0-4.261-1.32-4.261-4.233,0-3.433,0-6.866,0-10.366Zm-21.983,13.1a5.852,5.852,0,0,0,5.849-5.843,5.851,5.851,0,1,0-11.7,0A5.851,5.851,0,0,0,477.934,590.7Z" transform="translate(-452.993 -507.1)" fill="#0b9e4a" stroke="#0b9e4a" stroke-miterlimit="10" stroke-width="1"/>
      <path id="Path_388" data-name="Path 388" d="M455.932,491.79c0-.839-.03-1.61.006-2.379a3.524,3.524,0,0,1,3.262-3.394c.313-.031.63-.023.945-.023h35.579c2.866,0,4.21,1.342,4.212,4.2,0,.512,0,1.024,0,1.6Zm19.084-4.305v0c-.97,0-1.941-.03-2.91.009a1.425,1.425,0,0,0-1.485,1.354,1.4,1.4,0,0,0,1.4,1.519q2.95.093,5.9.008a1.386,1.386,0,0,0,1.432-1.487,1.413,1.413,0,0,0-1.52-1.4C476.9,487.457,475.958,487.485,475.016,487.485ZM483,490.409v.023c.313-.022.63-.017.938-.07a1.434,1.434,0,0,0-.128-2.863,10.7,10.7,0,0,0-1.286-.016c-1,.041-1.607.563-1.649,1.39s.606,1.455,1.609,1.535C482.657,490.42,482.83,490.409,483,490.409Z" transform="translate(-452.992 -483.066)" fill="#0b9e4a" stroke="#0b9e4a" stroke-miterlimit="10" stroke-width="1"/>
      <path id="Path_389" data-name="Path 389" d="M483.68,591.19a5.851,5.851,0,0,1-5.852-5.84,5.851,5.851,0,1,1,11.7,0A5.851,5.851,0,0,1,483.68,591.19Zm2.921-5.853a2.923,2.923,0,1,0-5.846.021,2.923,2.923,0,0,0,5.846-.021Z" transform="translate(-458.74 -507.594)" fill="#fff"/>
      <path id="Path_390" data-name="Path 390" d="M480.244,488.011c.942,0,1.885-.028,2.825.007a1.413,1.413,0,0,1,1.52,1.4,1.386,1.386,0,0,1-1.433,1.487q-2.951.081-5.9-.008a1.4,1.4,0,0,1-1.4-1.519,1.425,1.425,0,0,1,1.485-1.354c.969-.038,1.94-.009,2.91-.009Z" transform="translate(-458.22 -483.592)" fill="#fff"/>
      <path id="Path_391" data-name="Path 391" d="M491.878,490.934c-.171,0-.344.012-.514,0-1-.08-1.652-.7-1.609-1.535s.651-1.349,1.649-1.39a10.68,10.68,0,0,1,1.286.016,1.434,1.434,0,0,1,.128,2.863c-.308.053-.625.048-.938.07Z" transform="translate(-461.869 -483.591)" fill="#fff"/>
      <path id="Path_392" data-name="Path 392" d="M487.643,586.38a2.923,2.923,0,0,1-5.846.021,2.923,2.923,0,1,1,5.846-.021Z" transform="translate(-459.781 -508.637)" fill="#0b9e4a"/>
    </g>
    <g id="Group_155" data-name="Group 155" transform="translate(35.194 17.418)">
      <path id="Path_393" data-name="Path 393" d="M508.353,541.05c.21-.117.28-.152.346-.193,2.526-1.566,5.045-3.14,7.582-4.687a2.073,2.073,0,0,1,1.024-.3q13.414-.023,26.827-.014a1.868,1.868,0,0,0,2.129-2.129q0-12.981,0-25.96c0-1.453-.669-2.132-2.109-2.132q-21.188,0-42.378,0c-1.443,0-2.11.676-2.11,2.13q0,12.98,0,25.96a1.868,1.868,0,0,0,2.124,2.132q3.408.008,6.816,0c.744,0,.882.172.721.876C509.009,538.12,508.7,539.506,508.353,541.05Z" transform="translate(-499.663 -505.637)"/>
      <g transform="matrix(1, 0, 0, 1, -38.19, -17.42)" filter="url(#Path_394)">
        <path id="Path_394-2" data-name="Path 394" d="M508.353,541.05c.348-1.544.656-2.93.973-4.314.161-.7.022-.877-.721-.876q-3.408,0-6.816,0a1.868,1.868,0,0,1-2.124-2.132q0-12.981,0-25.96c0-1.453.668-2.13,2.11-2.13q21.189,0,42.378,0c1.44,0,2.109.679,2.109,2.132q0,12.98,0,25.96a1.868,1.868,0,0,1-2.129,2.129q-13.413,0-26.827.014a2.073,2.073,0,0,0-1.024.3c-2.537,1.547-5.056,3.121-7.582,4.687C508.633,540.9,508.563,540.933,508.353,541.05Zm14.606-19.8q6.32,0,12.64,0c.409,0,.993.141.974-.524-.018-.62-.583-.458-.966-.458q-12.64-.01-25.28,0a1.342,1.342,0,0,0-.55.026c-.176.085-.428.3-.412.425a.854.854,0,0,0,.406.51c.138.084.362.029.548.029Z" transform="translate(-461.47 -488.22)" fill="#0b9e4a" stroke="#0b9e4a" stroke-miterlimit="10" stroke-width="1"/>
      </g>
      <path id="Path_395" data-name="Path 395" d="M526.409,526.44h-12.64c-.186,0-.41.055-.548-.029a.853.853,0,0,1-.406-.51c-.016-.128.236-.34.412-.425a1.343,1.343,0,0,1,.55-.026q12.64,0,25.28,0c.384,0,.948-.162.966.458.019.665-.565.524-.974.524Q532.729,526.446,526.409,526.44Z" transform="translate(-503.114 -510.832)" fill="#fefefe" stroke="#fefefe" stroke-miterlimit="10" stroke-width="1"/>
      <path id="Path_396" data-name="Path 396" d="M526.409,518.9h-12.64c-.186,0-.41.055-.548-.029a.857.857,0,0,1-.406-.511c-.016-.127.236-.339.412-.425a1.355,1.355,0,0,1,.55-.026q12.64,0,25.28,0c.384,0,.948-.161.966.459.019.665-.565.523-.974.524Q532.729,518.9,526.409,518.9Z" transform="translate(-503.114 -508.853)" fill="#fefefe" stroke="#fefefe" stroke-miterlimit="10" stroke-width="1"/>
      <path id="Path_397" data-name="Path 397" d="M521.083,533.814h-7.688c-.113,0-.249.055-.333-.029a.91.91,0,0,1-.247-.51.686.686,0,0,1,.25-.426c.092-.074.221-.026.334-.026q7.689,0,15.376,0c.233,0,.577-.161.588.459.011.665-.344.523-.592.524Q524.927,533.819,521.083,533.814Z" transform="translate(-503.114 -512.766)" fill="#fefefe" stroke="#fefefe" stroke-miterlimit="10" stroke-width="1"/>
    </g>
  </g>
</svg>
