<svg height="464pt" viewBox="-24 0 464 464" width="464pt" xmlns="http://www.w3.org/2000/svg"><path d="m208 24 203.199219 203.199219c3.199219 3.199219 4.800781 7.199219 4.800781 11.199219v209.601562c0 8.800781-7.199219 16-16 16h-384c-8.800781 0-16-7.199219-16-16v-216.800781c0-4 1.601562-8.800781 4.800781-11.199219zm0 0" fill="#8e6a65"/><path d="m48 0h320v384h-320zm0 0" fill="#e2c8ac"/><g fill="#ceb195"><path d="m264 168h72v16h-72zm0 0"/><path d="m80 200h72v16h-72zm0 0"/><path d="m80 232h256v16h-256zm0 0"/><path d="m136 264h144v16h-144zm0 0"/><path d="m168 200h168v16h-168zm0 0"/><path d="m80 168h168v16h-168zm0 0"/></g><path d="m264 88c0 30.929688-25.070312 56-56 56s-56-25.070312-56-56 25.070312-56 56-56 56 25.070312 56 56zm0 0" fill="#71bf79"/><path d="m208 115.199219-29.601562-29.597657 11.203124-11.203124 18.398438 18.402343 50.398438-50.402343 11.203124 11.203124zm0 0" fill="#538457"/><path d="m216 340c-4.800781 2.398438-10.398438 2.398438-15.199219 0l-199.199219-115.199219c-.800781 1.597657-1.601562 4-1.601562 6.398438v216.800781c0 8.800781 7.199219 16 16 16h384c8.800781 0 16-7.199219 16-16v-209.601562c0-2.398438-.800781-4-.800781-5.597657zm0 0" fill="#704d4d"/><path d="m32 408h64v16h-64zm0 0" fill="#8e6a65"/></svg>