<svg id="Capa_1" enable-background="new 0 0 496.572 496.572" height="512" viewBox="0 0 496.572 496.572" width="512" xmlns="http://www.w3.org/2000/svg"><g><path d="m317.747 320.438h42.738v109.86h-42.738z" fill="#efe2dd"/><g><path d="m329.171 357.883v112.14h-41.42-73.281c-24.592 0-48.579-7.623-68.659-21.82l-5.7-4.03h-63.097c-6.314 0-11.433-5.119-11.433-11.433v-134.485c0-6.314 5.119-11.433 11.433-11.433h51.977l83.78-62.57c10.76-8.04 23.82-12.38 37.25-12.38h59.39c24.671 0 44.67 19.999 44.67 44.67v75.58c0 7.12-2.89 13.57-7.55 18.23-4.47 4.471-10.59 7.311-17.36 7.531z" fill="#ffe5c2"/></g><g><path d="m145.811 413.891-5.7-4.03h-69.097c-1.967 0-3.817-.497-5.433-1.372v24.251c0 6.314 5.119 11.433 11.433 11.433h63.097l5.7 4.03c20.08 14.197 44.067 21.82 68.658 21.82h73.281 41.42v-34.312h-114.701c-24.591 0-48.578-7.623-68.658-21.82z" fill="#fed2a4"/></g><g><path d="m387.583 309.151c13.515 0 24.472-10.956 24.472-24.472 0-13.515-10.956-24.472-24.472-24.472h-36.983c-13.516 0-24.472 10.956-24.472 24.472 0 13.515 10.956 24.472 24.472 24.472z" fill="#ffe5c2"/><path d="m387.583 287.194h-36.983c-9.566 0-17.845-5.493-21.87-13.494-1.661 3.302-2.602 7.03-2.602 10.978 0 13.515 10.957 24.472 24.472 24.472h36.984c13.515 0 24.472-10.957 24.472-24.472 0-3.949-.941-7.676-2.602-10.978-4.025 8.001-12.304 13.494-21.871 13.494z" fill="#fed2a4"/><path d="m387.583 358.094c13.515 0 24.472-10.956 24.472-24.472 0-13.516-10.957-24.472-24.472-24.472h-38.646c-13.48 0-24.407 10.927-24.407 24.407 0 13.448 10.877 24.362 24.325 24.407z" fill="#ffe5c2"/><path d="m388.382 336.193-38.728-.13c-9.824-.033-18.27-5.87-22.112-14.254-1.918 3.486-3.012 7.489-3.012 11.748 0 13.448 10.877 24.362 24.325 24.407l38.728.13c13.515 0 24.472-10.956 24.472-24.472 0-3.622-.78-7.046-2.193-10.139-4.158 7.581-12.224 12.71-21.48 12.71z" fill="#fed2a4"/><path d="m173.635 280.682v41.854c0 36.361 32.851 63.894 68.653 57.539l13.621-2.502c13.837-2.544 26.311-8.498 36.623-16.898 8.397 10.496 21.312 17.229 35.77 17.229.223 0 .521-.001.87-.008v-20.012c6.77-.22 12.89-3.06 17.36-7.53 4.66-4.66 7.55-11.11 7.55-18.23v-51.44h-180.447z" fill="#fed2a4"/><g><path d="m300.639 496.572h27.534c3.947 0 7.147-3.2 7.147-7.147v-34.661-342.925h-41.828v377.585c0 3.948 3.2 7.148 7.147 7.148z" fill="#d1a08f"/></g></g><path d="m329.171 357.883c-.29.02-.58.02-.87.02-14.24 0-25.79-11.54-25.79-25.78v-34.51c0 29.58-21.13 54.94-50.22 60.29l-13.5 2.48-77.06 13.68 1.52-112.83 49.52-36.98c10.76-8.04 23.82-12.38 37.25-12.38h59.39c24.67 0 44.67 20 44.67 44.67v75.58c0 7.12-2.89 13.57-7.55 18.23-4.47 4.47-10.59 7.31-17.36 7.53z" fill="#ffe5c2"/><path d="m377.6 407.038h-37.248c-13.515 0-24.472-10.956-24.472-24.472v-3.135c0-13.515 10.956-24.472 24.472-24.472h37.248c13.516 0 24.472 10.956 24.472 24.472v3.135c0 13.516-10.957 24.472-24.472 24.472z" fill="#ffe5c2"/><path d="m379.109 385.702h-37.248c-10.997 0-20.301-7.265-23.386-17.249-1.658 3.3-2.595 7.034-2.595 10.979v3.135c0 13.515 10.956 24.472 24.472 24.472h37.248c13.515 0 24.472-10.957 24.472-24.472v-3.135c0-2.518-.381-4.947-1.088-7.233-4.022 8.005-12.304 13.503-21.875 13.503z" fill="#fed2a4"/><path d="m367.092 459.118h-26.74c-13.515 0-24.472-10.956-24.472-24.472v-3.135c0-13.515 10.956-24.472 24.472-24.472h26.74c13.516 0 24.472 10.956 24.472 24.472v3.135c0 13.515-10.956 24.472-24.472 24.472z" fill="#ffe5c2"/><path d="m367.092 437.674h-26.74c-10.278 0-19.069-6.357-22.695-15.336-1.142 2.829-1.777 5.935-1.777 9.173v3.135c0 13.515 10.956 24.472 24.472 24.472h26.74c13.516 0 24.472-10.957 24.472-24.472v-3.135c0-3.238-.621-6.311-1.764-9.139-3.625 8.978-12.43 15.302-22.708 15.302z" fill="#fed2a4"/><path d="m401.405 160.776h-174.62c-16.34 0-29.585-13.246-29.585-29.585v-101.606c0-16.339 13.246-29.585 29.586-29.585h174.62c16.34 0 29.585 13.246 29.585 29.585v101.606c0 16.34-13.246 29.585-29.586 29.585z" fill="#f79595"/><path d="m426.426 137.341h-174.62c-16.34 0-29.585-13.246-29.585-29.585v-101.606c0-2.012.218-3.987.6-5.886-14.456 1.944-25.621 14.332-25.621 29.321v101.606c0 16.34 13.246 29.585 29.585 29.585h174.62c14.328 0 26.274-10.168 29-23.693-1.302.176-2.629.258-3.979.258z" fill="#f37c7c"/><path d="m335.312 80.494 17.988-17.804c1.787-1.769 1.802-4.651.033-6.438l-14.7-14.851c-1.769-1.787-4.651-1.802-6.438-.033l-17.988 17.804-17.805-17.989c-1.769-1.787-4.651-1.802-6.438-.033l-14.851 14.7c-1.787 1.769-1.802 4.651-.033 6.438l17.805 17.989-17.995 17.811c-1.787 1.768-1.802 4.651-.033 6.438l14.7 14.851c1.768 1.787 4.651 1.802 6.438.033l17.995-17.811 17.811 17.995c1.769 1.787 4.651 1.802 6.438.033l14.851-14.7c1.787-1.769 1.802-4.651.033-6.438z" fill="#f8f6f6"/></g></svg>