<?xml version="1.0"?>
<svg xmlns="http://www.w3.org/2000/svg" id="Capa_1" enable-background="new 0 0 512 512" height="512px" viewBox="0 0 512 512" width="512px" class=""><g><path d="m80.813 152.964v30.305c0 4.143 3.358 7.5 7.5 7.5h311.13c4.143 0 7.5-3.357 7.5-7.5v-30.305c0-4.143-3.357-7.5-7.5-7.5h-311.13c-4.142 0-7.5 3.357-7.5 7.5zm15 7.5h296.13v15.305h-296.13z" data-original="#000000" class="active-path" data-old_color="#000000" fill="#374957"/><path d="m429.748 74.786c-4.143 0-7.5 3.357-7.5 7.5v414.714h-158.374c34.151-19.605 57.205-56.444 57.205-98.567 0-62.621-50.946-113.566-113.567-113.566-16.679 0-32.529 3.615-46.809 10.102h-95.195v-7.396c0-4.143-3.358-7.5-7.5-7.5s-7.5 3.357-7.5 7.5v7.396h-43.008c-4.142 0-7.5 3.357-7.5 7.5v202.031c0 4.143 3.358 7.5 7.5 7.5h422.248c4.143 0 7.5-3.357 7.5-7.5v-422.214c0-4.142-3.357-7.5-7.5-7.5zm-123.669 323.647c0 54.351-44.217 98.567-98.567 98.567s-98.567-44.217-98.567-98.567 44.217-98.566 98.567-98.566 98.567 44.216 98.567 98.566zm-291.079 48.059v-35.509h14.295v12.703c0 4.143 3.358 7.5 7.5 7.5s7.5-3.357 7.5-7.5v-12.703h18.335v12.703c0 4.143 3.358 7.5 7.5 7.5s7.5-3.357 7.5-7.5v-12.703h17.012c1.388 12.563 4.832 24.513 9.989 35.509zm21.795-65.813c4.142 0 7.5-3.357 7.5-7.5v-12.703h18.335v12.703c0 4.143 3.358 7.5 7.5 7.5s7.5-3.357 7.5-7.5v-12.703h22.847c-3.964 11.145-6.236 23.083-6.5 35.508h-78.977v-35.508h14.295v12.703c0 4.142 3.358 7.5 7.5 7.5zm-7.5-70.711v12.703c0 4.143 3.358 7.5 7.5 7.5s7.5-3.357 7.5-7.5v-12.703h18.335v12.703c0 4.143 3.358 7.5 7.5 7.5s7.5-3.357 7.5-7.5v-12.703h18.335v12.703c0 4.143 3.358 7.5 7.5 7.5s7.5-3.357 7.5-7.5v-12.703h25.421c-12.022 9.685-22.036 21.764-29.312 35.508h-92.074v-35.508zm-14.295 151.524h14.295v12.703c0 4.143 3.358 7.5 7.5 7.5s7.5-3.357 7.5-7.5v-12.703h18.335v12.703c0 4.143 3.358 7.5 7.5 7.5s7.5-3.357 7.5-7.5v-12.703h18.335v12.703c0 4.143 3.358 7.5 7.5 7.5s7.5-3.357 7.5-7.5v-12.703h2.143c9.759 14.563 22.792 26.754 38.042 35.508h-136.15z" data-original="#000000" class="active-path" data-old_color="#000000" fill="#374957"/><path d="m429.748 0h-371.74c-4.142 0-7.5 3.357-7.5 7.5v244.821c0 4.143 3.358 7.5 7.5 7.5s7.5-3.357 7.5-7.5v-237.321h356.74v32.076c0 4.143 3.357 7.5 7.5 7.5s7.5-3.357 7.5-7.5v-39.576c0-4.143-3.357-7.5-7.5-7.5z" data-original="#000000" class="active-path" data-old_color="#000000" fill="#374957"/><path d="m253.981 124.1c3.172 0 6.12-2.029 7.141-5.213l7.071-22.063h22.081l7.072 22.063c1.265 3.945 5.491 6.112 9.432 4.854 3.944-1.265 6.117-5.487 4.854-9.432l-25.256-78.793c-.994-3.104-3.882-5.211-7.142-5.211-3.261 0-6.147 2.106-7.143 5.211l-25.253 78.793c-1.264 3.944.909 8.167 4.853 9.432.761.242 1.532.359 2.29.359zm25.252-61.723 6.233 19.446h-12.465z" data-original="#000000" class="active-path" data-old_color="#000000" fill="#374957"/><path d="m106.496 30.305c-4.142 0-7.5 3.357-7.5 7.5v78.793c0 4.143 3.358 7.5 7.5 7.5h50.508c4.142 0 7.5-3.357 7.5-7.5s-3.358-7.5-7.5-7.5h-43.008v-71.293c0-4.143-3.358-7.5-7.5-7.5z" data-original="#000000" class="active-path" data-old_color="#000000" fill="#374957"/><path d="m241.276 91.344v-28.285c0-18.061-14.693-32.754-32.754-32.754s-32.754 14.693-32.754 32.754v28.285c0 18.061 14.693 32.754 32.754 32.754s32.754-14.694 32.754-32.754zm-50.508 0v-28.285c0-9.789 7.964-17.754 17.754-17.754s17.754 7.965 17.754 17.754v28.285c0 9.789-7.964 17.754-17.754 17.754s-17.754-7.965-17.754-17.754z" data-original="#000000" class="active-path" data-old_color="#000000" fill="#374957"/><path d="m338.252 116.598v-53.196l36.693 57.243c1.405 2.19 3.807 3.453 6.314 3.453.701 0 1.411-.099 2.108-.304 3.196-.937 5.392-3.867 5.392-7.197v-78.792c0-4.143-3.357-7.5-7.5-7.5s-7.5 3.357-7.5 7.5v53.195l-36.693-57.243c-1.798-2.803-5.231-4.086-8.423-3.149-3.196.937-5.392 3.867-5.392 7.197v78.793c0 4.143 3.357 7.5 7.5 7.5s7.501-3.358 7.501-7.5z" data-original="#000000" class="active-path" data-old_color="#000000" fill="#374957"/><path d="m88.313 227.134h100.006c4.142 0 7.5-3.357 7.5-7.5s-3.358-7.5-7.5-7.5h-100.006c-4.142 0-7.5 3.357-7.5 7.5s3.358 7.5 7.5 7.5z" data-original="#000000" class="active-path" data-old_color="#000000" fill="#374957"/><path d="m88.313 257.439h60.61c4.142 0 7.5-3.357 7.5-7.5s-3.358-7.5-7.5-7.5h-60.61c-4.142 0-7.5 3.357-7.5 7.5s3.358 7.5 7.5 7.5z" data-original="#000000" class="active-path" data-old_color="#000000" fill="#374957"/><path d="m338.833 227.134h60.61c4.143 0 7.5-3.357 7.5-7.5s-3.357-7.5-7.5-7.5h-60.61c-4.143 0-7.5 3.357-7.5 7.5s3.357 7.5 7.5 7.5z" data-original="#000000" class="active-path" data-old_color="#000000" fill="#374957"/><path d="m338.833 297.846h60.61c4.143 0 7.5-3.357 7.5-7.5s-3.357-7.5-7.5-7.5h-60.61c-4.143 0-7.5 3.357-7.5 7.5s3.357 7.5 7.5 7.5z" data-original="#000000" class="active-path" data-old_color="#000000" fill="#374957"/><path d="m324.439 452.225c2.928 2.928 7.677 2.929 10.606-.001l17.93-17.931 17.93 17.931c1.407 1.407 3.314 2.197 5.304 2.197s3.896-.79 5.304-2.196l23.234-23.234c2.929-2.93 2.929-7.678 0-10.607-2.93-2.928-7.678-2.928-10.607 0l-17.931 17.932-17.93-17.931c-1.407-1.407-3.314-2.197-5.304-2.197s-3.896.79-5.304 2.197l-23.233 23.234c-2.928 2.928-2.928 7.677.001 10.606z" data-original="#000000" class="active-path" data-old_color="#000000" fill="#374957"/><path d="m504.5 85.864h-48.488c-4.143 0-7.5 3.357-7.5 7.5v359.617c0 10.836 3.729 21.464 10.498 29.928l13.746 17.182v4.409c0 4.143 3.357 7.5 7.5 7.5s7.5-3.357 7.5-7.5v-4.409l13.746-17.183c6.77-8.463 10.498-19.091 10.498-29.927v-108.624c0-4.143-3.357-7.5-7.5-7.5s-7.5 3.357-7.5 7.5v108.624c0 7.443-2.561 14.744-7.211 20.557l-9.533 11.916-9.533-11.915c-4.65-5.813-7.211-13.114-7.211-20.558v-265.243h9.244v101.597c0 4.143 3.357 7.5 7.5 7.5s7.5-3.357 7.5-7.5v-101.597h9.244v121.529c0 4.143 3.357 7.5 7.5 7.5s7.5-3.357 7.5-7.5v-215.903c0-4.142-3.357-7.5-7.5-7.5zm-7.5 15v31.467h-33.488v-31.467zm-9.244 71.874v-12.704c0-4.143-3.357-7.5-7.5-7.5s-7.5 3.357-7.5 7.5v12.704h-9.244v-25.407h33.488v25.407z" data-original="#000000" class="active-path" data-old_color="#000000" fill="#374957"/><path d="m207.512 476.645c43.126 0 78.211-35.086 78.211-78.212s-35.085-78.211-78.211-78.211-78.211 35.085-78.211 78.211 35.085 78.212 78.211 78.212zm0-141.423c34.855 0 63.211 28.356 63.211 63.211s-28.356 63.212-63.211 63.212-63.211-28.356-63.211-63.212c0-34.855 28.356-63.211 63.211-63.211z" data-original="#000000" class="active-path" data-old_color="#000000" fill="#374957"/><path d="m212.563 421.238h-25.254c-4.142 0-7.5 3.357-7.5 7.5s3.358 7.5 7.5 7.5h12.703v7.652c0 4.143 3.358 7.5 7.5 7.5s7.5-3.357 7.5-7.5v-7.787c11.343-1.225 20.203-10.855 20.203-22.519 0-12.49-10.162-22.652-22.652-22.652h-10.102c-4.22 0-7.652-3.433-7.652-7.652s3.433-7.652 7.652-7.652h25.254c4.142 0 7.5-3.357 7.5-7.5s-3.358-7.5-7.5-7.5h-12.703v-7.652c0-4.143-3.358-7.5-7.5-7.5s-7.5 3.357-7.5 7.5v7.787c-11.343 1.225-20.203 10.855-20.203 22.518 0 12.49 10.162 22.652 22.652 22.652h10.102c4.22 0 7.652 3.433 7.652 7.652s-3.432 7.653-7.652 7.653z" data-original="#000000" class="active-path" data-old_color="#000000" fill="#374957"/></g> </svg>
