<svg height="512pt" viewBox="0 -20 512.001 512" width="512pt" xmlns="http://www.w3.org/2000/svg"><path d="m502 412.558594h-334.96875c-5.523438 0-10-4.476563-10-10v-392.558594c0-5.523438 4.476562-10 10-10h334.96875c5.523438 0 10 4.476562 10 10v392.558594c0 5.523437-4.476562 10-10 10zm0 0" fill="#607882"/><path d="m503.386719 0h-46.101563v380.277344c0 4.621094-3.855468 8.367187-8.613281 8.367187h-291.640625v15.550781c0 4.621094 3.855469 8.367188 8.613281 8.367188h337.742188c4.757812 0 8.613281-3.746094 8.613281-8.367188v-395.828124c0-4.621094-3.855469-8.367188-8.613281-8.367188zm0 0" fill="#495959"/><path d="m468.164062 116.074219h-265.296874c-5.523438 0-10-4.476563-10-10v-74.6875c0-5.523438 4.476562-10 10-10h265.292968c4.417969 0 8 3.582031 8 8v78.6875c.003906 4.417969-3.578125 8-7.996094 8zm0 0" fill="#738c96"/><path d="m468.164062 232.496094h-265.296874c-5.523438 0-10-4.480469-10-10v-74.6875c0-5.523438 4.476562-10 10-10h265.292968c4.417969 0 8 3.582031 8 8v78.6875c.003906 4.417968-3.578125 8-7.996094 8zm0 0" fill="#738c96"/><path d="m468.164062 348.914062h-265.296874c-5.523438 0-10-4.476562-10-10v-74.6875c0-5.523437 4.476562-10 10-10h265.292968c4.417969 0 8 3.582032 8 8v78.6875c.003906 4.417969-3.578125 8-7.996094 8zm0 0" fill="#738c96"/><path d="m467.921875 21.386719h-27.96875v74.0625c0 4.621093-3.746094 8.367187-8.367187 8.367187h-238.71875v3.890625c0 4.621094 3.746093 8.367188 8.367187 8.367188h266.6875c4.550781 0 8.242187-3.6875 8.242187-8.238281v-78.207032c0-4.550781-3.691406-8.242187-8.242187-8.242187zm0 0" fill="#607882"/><path d="m467.921875 137.808594h-27.96875v74.0625c0 4.621094-3.746094 8.367187-8.367187 8.367187h-238.71875v3.890625c0 4.621094 3.746093 8.367188 8.367187 8.367188h266.6875c4.550781 0 8.242187-3.691406 8.242187-8.242188v-78.203125c0-4.554687-3.691406-8.242187-8.242187-8.242187zm0 0" fill="#607882"/><path d="m467.921875 254.226562h-27.96875v74.0625c0 4.621094-3.746094 8.367188-8.367187 8.367188h-238.71875v3.890625c0 4.621094 3.746093 8.367187 8.367187 8.367187h266.6875c4.550781 0 8.242187-3.6875 8.242187-8.238281v-78.207031c0-4.550781-3.691406-8.242188-8.242187-8.242188zm0 0" fill="#607882"/><path d="m448.933594 194.207031h-122.253906c-4.746094 0-8.59375-3.847656-8.59375-8.59375v-14.167969c0-4.746093 3.847656-8.597656 8.59375-8.597656h122.253906c4.746094 0 8.59375 3.851563 8.59375 8.597656v14.167969c0 4.746094-3.847656 8.59375-8.59375 8.59375zm0 0" fill="#95dae8"/><path d="m448.933594 77.789062h-122.253906c-4.746094 0-8.59375-3.847656-8.59375-8.597656v-14.164062c0-4.746094 3.847656-8.597656 8.59375-8.597656h122.253906c4.746094 0 8.59375 3.851562 8.59375 8.597656v14.164062c0 4.75-3.847656 8.597656-8.59375 8.597656zm0 0" fill="#95dae8"/><path d="m448.933594 310.628906h-122.253906c-4.746094 0-8.59375-3.851562-8.59375-8.597656v-14.164062c0-4.75 3.847656-8.597657 8.59375-8.597657h122.253906c4.746094 0 8.59375 3.847657 8.59375 8.597657v14.164062c0 4.75-3.847656 8.597656-8.59375 8.597656zm0 0" fill="#95dae8"/><g fill="#495959"><path d="m245.589844 48.945312c0 7.394532-5.996094 13.386719-13.390625 13.386719s-13.390625-5.992187-13.390625-13.386719c0-7.394531 5.996094-13.390624 13.390625-13.390624s13.390625 5.996093 13.390625 13.390624zm0 0"/><path d="m287.8125 48.945312c0 7.394532-5.992188 13.386719-13.386719 13.386719s-13.390625-5.992187-13.390625-13.386719c0-7.394531 5.996094-13.390624 13.390625-13.390624s13.386719 5.996093 13.386719 13.390624zm0 0"/><path d="m245.589844 84.484375c0 7.394531-5.996094 13.390625-13.390625 13.390625s-13.390625-5.996094-13.390625-13.390625 5.996094-13.390625 13.390625-13.390625 13.390625 5.996094 13.390625 13.390625zm0 0"/><path d="m287.8125 84.484375c0 7.394531-5.992188 13.390625-13.386719 13.390625s-13.390625-5.996094-13.390625-13.390625 5.996094-13.390625 13.390625-13.390625 13.386719 5.996094 13.386719 13.390625zm0 0"/><path d="m245.589844 165.363281c0 7.394531-5.996094 13.390625-13.390625 13.390625s-13.390625-5.996094-13.390625-13.390625 5.996094-13.390625 13.390625-13.390625 13.390625 5.996094 13.390625 13.390625zm0 0"/><path d="m287.8125 165.363281c0 7.394531-5.992188 13.390625-13.386719 13.390625s-13.390625-5.996094-13.390625-13.390625 5.996094-13.390625 13.390625-13.390625 13.386719 5.996094 13.386719 13.390625zm0 0"/><path d="m245.589844 200.902344c0 7.394531-5.996094 13.390625-13.390625 13.390625s-13.390625-5.996094-13.390625-13.390625c0-7.394532 5.996094-13.386719 13.390625-13.386719s13.390625 5.992187 13.390625 13.386719zm0 0"/><path d="m287.8125 200.902344c0 7.394531-5.992188 13.390625-13.386719 13.390625s-13.390625-5.996094-13.390625-13.390625c0-7.394532 5.996094-13.386719 13.390625-13.386719s13.386719 5.992187 13.386719 13.386719zm0 0"/><path d="m245.589844 281.960938c0 7.394531-5.996094 13.390624-13.390625 13.390624s-13.390625-5.996093-13.390625-13.390624c0-7.394532 5.996094-13.386719 13.390625-13.386719s13.390625 5.992187 13.390625 13.386719zm0 0"/><path d="m287.8125 281.960938c0 7.394531-5.992188 13.390624-13.386719 13.390624s-13.390625-5.996093-13.390625-13.390624c0-7.394532 5.996094-13.386719 13.390625-13.386719s13.386719 5.992187 13.386719 13.386719zm0 0"/><path d="m245.589844 317.503906c0 7.394532-5.996094 13.386719-13.390625 13.386719s-13.390625-5.992187-13.390625-13.386719c0-7.394531 5.996094-13.390625 13.390625-13.390625s13.390625 5.996094 13.390625 13.390625zm0 0"/><path d="m287.8125 317.503906c0 7.394532-5.992188 13.386719-13.386719 13.386719s-13.390625-5.992187-13.390625-13.386719c0-7.394531 5.996094-13.390625 13.390625-13.390625s13.386719 5.996094 13.386719 13.390625zm0 0"/></g><path d="m11.460938 360.878906h33.90625v-211.226562c0-5.976563-4.84375-10.820313-10.820313-10.820313h-12.261719c-5.976562 0-10.824218 4.84375-10.824218 10.820313zm0 0" fill="#c4c4ce"/><path d="m34.21875 138.832031h-2.125v222.046875h13.273438v-210.902344c0-6.15625-4.988282-11.144531-11.148438-11.144531zm0 0" fill="#aeaeb7"/><path d="m29.246094 470.460938h-1.664063c-15.234375 0-27.582031-12.347657-27.582031-27.582032v-97.769531c0-5.230469 4.238281-9.46875 9.46875-9.46875h37.894531c5.226563 0 9.464844 4.238281 9.464844 9.46875v97.769531c0 15.234375-12.347656 27.582032-27.582031 27.582032zm0 0" fill="#8f8f99"/><path d="m47.074219 335.640625h-12.105469v91.027344c0 15.695312-12.722656 28.414062-28.414062 28.414062-1.1875 0-2.351563-.078125-3.5-.21875 4.683593 9.25 14.277343 15.597657 25.359374 15.597657 15.691407 0 28.414063-12.722657 28.414063-28.414063v-96.652344c0-5.386719-4.363281-9.753906-9.753906-9.753906zm0 0" fill="#777784"/><path d="m448.675781 46.429688h-8.722656v31.359374h8.722656c4.886719 0 8.851563-3.964843 8.851563-8.855468v-13.648438c0-4.890625-3.964844-8.855468-8.851563-8.855468zm0 0" fill="#7cd2e3"/><path d="m448.675781 162.851562h-8.722656v31.355469h8.722656c4.886719 0 8.851563-3.964843 8.851563-8.855469v-13.648437c0-4.886719-3.964844-8.851563-8.851563-8.851563zm0 0" fill="#7cd2e3"/><path d="m448.675781 279.269531h-8.722656v31.359375h8.722656c4.886719 0 8.851563-3.964844 8.851563-8.855468v-13.648438c0-4.890625-3.964844-8.855469-8.851563-8.855469zm0 0" fill="#7cd2e3"/><path d="m114.101562 218.894531h64.222657v161.871094h-64.222657zm0 0" fill="#8f8f99"/><path d="m156.289062 218.894531h22.035157v161.871094h-22.035157zm0 0" fill="#777784"/><path d="m177.109375 142.53125v31.046875c0 8.53125-6.914063 15.449219-15.449219 15.449219h-29.65625c-8.535156 0-15.449218-6.917969-15.449218-15.449219v-31.953125c0-3.019531-3.398438-4.742188-5.875-3.011719-16.242188 11.332031-26.820313 30.226563-26.628907 51.578125.304688 34.339844 27.820313 61.605469 62.164063 61.601563 34.332031 0 62.164062-27.832031 62.164062-62.164063 0-20.535156-9.964844-38.734375-25.316406-50.050781-2.46875-1.820313-5.953125-.113281-5.953125 2.953125zm0 0" fill="#c4c4ce"/><path d="m146.214844 358.90625c-34.28125 0-61.710938 27.054688-62.160156 61.332031-.28125 21.171875 10.035156 39.945313 25.976562 51.375 2.46875 1.769531 5.90625.046875 5.90625-2.992187v-33.765625c0-8.53125 6.914062-15.449219 15.445312-15.449219h29.660157c8.53125 0 15.449219 6.917969 15.449219 15.449219v33.769531c0 2.988281 3.378906 4.792969 5.8125 3.054688 15.78125-11.269532 26.078124-29.734376 26.078124-50.605469-.003906-34.335938-27.835937-62.167969-62.167968-62.167969zm0 0" fill="#c4c4ce"/><path d="m183.0625 139.578125c-2.464844-1.820313-5.953125-.113281-5.953125 2.953125v31.046875c0 2.417969-.570313 4.699219-1.5625 6.738281.460937 3.039063.722656 6.144532.722656 9.3125 0 28.800782-19.589843 53.019532-46.171875 60.078125 5.136719 1.355469 10.535156 2.085938 16.117188 2.085938 34.332031 0 62.167968-27.832031 62.167968-62.164063-.003906-20.535156-9.96875-38.734375-25.320312-50.050781zm0 0" fill="#aeaeb7"/><path d="m146.214844 358.90625c-5.589844 0-10.992188.730469-16.128906 2.082031 26.585937 7.054688 46.183593 31.277344 46.183593 60.085938 0 2.96875-.230469 5.886719-.632812 8.746093.542969 1.582032.855469 3.269532.855469 5.035157v33.769531c0 2.988281 3.378906 4.792969 5.8125 3.054688 15.78125-11.269532 26.078124-29.730469 26.078124-50.605469-.003906-34.335938-27.835937-62.167969-62.167968-62.167969zm0 0" fill="#aeaeb7"/></svg>