<?xml version="1.0" encoding="iso-8859-1"?>
<!-- Generator: Adobe Illustrator 19.0.0, SVG Export Plug-In . SVG Version: 6.00 Build 0)  -->
<svg version="1.1" id="Capa_1" xmlns="http://www.w3.org/2000/svg" xmlns:xlink="http://www.w3.org/1999/xlink" x="0px" y="0px"
	 viewBox="0 0 511.963 511.963" style="enable-background:new 0 0 511.963 511.963;" xml:space="preserve">
<g>
	<g>
		<path style="fill:#A5B4B4;" d="M91.691,19.181l29.808-17.184l1.964-1.192l0.351-0.21h0.07c3.701-1.18,7.739-0.585,10.941,1.613
			l274.516,158.58c11.631,8.29,18.613,21.628,18.797,35.91V418.12c0.489,5.442-1.524,10.81-5.471,14.589l-0.351,0.21l-1.543,0.842
			l-0.421,0.281l-29.668,17.113L91.691,19.181z"/>
		<path style="fill:#A5B4B4;" d="M341.028,423.029v9.749c-0.906,16.693-9.744,31.944-23.776,41.03l-51.691,35.84
			c-4.101,2.87-9.497,3.089-13.817,0.561l-115.516-67.051c-2.018-1.193-3.232-3.385-3.173-5.728c0.058-2.343,1.38-4.472,3.454-5.564
			l56.881-29.528c14.01-9.108,22.84-24.346,23.776-41.03v-9.679L341.028,423.029z"/>
	</g>
	<path style="fill:#C9CED1;" d="M396.016,215.284v221.422c0.472,5.371-1.484,10.671-5.33,14.448l-0.07,0.07h-0.07l-0.281,0.21
		l-1.473,0.842c-3.858,1.545-8.234,1.044-11.643-1.333l-36.121-20.831v-0.07l-123.862-71.399v-0.07l-114.534-66.069
		c-11.597-8.351-18.566-21.691-18.797-35.98V35.032c-0.534-5.441,1.518-10.816,5.541-14.518l0.21-0.21l1.894-1.052l0.14-0.07h0.07
		c3.7-1.184,7.74-0.588,10.941,1.613l274.516,158.51C388.789,187.626,395.79,200.977,396.016,215.284z"/>
	<path style="fill:#445C71;" d="M396.016,215.284v190.983h-0.07L83.836,226.015V35.032c-0.534-5.441,1.518-10.816,5.541-14.518
		l0.21-0.21l1.894-1.052l0.14-0.07h0.07c3.7-1.184,7.74-0.588,10.941,1.613l274.516,158.51
		C388.789,187.626,395.79,200.977,396.016,215.284z"/>
	<g>
		<path style="fill:#A0C7E7;" d="M109.213,88.032c-1.592,0.001-2.984-1.071-3.391-2.61c-0.407-1.539,0.274-3.159,1.658-3.945
			l20.445-11.647c1.089-0.619,2.425-0.61,3.506,0.023c1.081,0.633,1.741,1.795,1.733,3.048s-0.684,2.406-1.773,3.025l-20.445,11.647
			C110.418,87.874,109.82,88.033,109.213,88.032z"/>
		<path style="fill:#A0C7E7;" d="M109.213,117.344c-1.592,0.001-2.984-1.071-3.391-2.61c-0.407-1.539,0.274-3.159,1.658-3.945
			l10.219-5.822c1.089-0.619,2.425-0.61,3.506,0.023c1.081,0.633,1.741,1.795,1.733,3.048c-0.008,1.253-0.684,2.406-1.773,3.025
			l-10.219,5.822C110.418,117.186,109.82,117.344,109.213,117.344z"/>
		<path style="fill:#A0C7E7;" d="M139.877,99.875c-1.592,0.001-2.984-1.071-3.391-2.61c-0.407-1.539,0.274-3.159,1.658-3.945
			l15.336-8.736c1.089-0.619,2.425-0.61,3.506,0.023c1.081,0.633,1.741,1.795,1.733,3.048c-0.008,1.253-0.684,2.406-1.773,3.025
			l-15.336,8.736C141.082,99.717,140.485,99.875,139.877,99.875z"/>
		<path style="fill:#A0C7E7;" d="M109.213,146.659c-1.592,0.001-2.984-1.071-3.391-2.61c-0.407-1.539,0.274-3.159,1.658-3.945
			l46-26.205c1.683-0.957,3.824-0.368,4.781,1.315c0.957,1.683,0.368,3.824-1.315,4.781l-46,26.205
			C110.418,146.501,109.82,146.659,109.213,146.659z"/>
		<path style="fill:#A0C7E7;" d="M175.658,108.806c-1.592,0.001-2.984-1.071-3.391-2.61c-0.407-1.539,0.274-3.159,1.658-3.945
			l5.11-2.911c1.683-0.957,3.824-0.368,4.781,1.315c0.957,1.683,0.368,3.824-1.315,4.781l-5.11,2.911
			C176.863,108.648,176.266,108.806,175.658,108.806z"/>
	</g>
</g>
<g>
</g>
<g>
</g>
<g>
</g>
<g>
</g>
<g>
</g>
<g>
</g>
<g>
</g>
<g>
</g>
<g>
</g>
<g>
</g>
<g>
</g>
<g>
</g>
<g>
</g>
<g>
</g>
<g>
</g>
</svg>
