<?xml version="1.0" encoding="iso-8859-1"?>
<!-- Generator: Adobe Illustrator 19.0.0, SVG Export Plug-In . SVG Version: 6.00 Build 0)  -->
<svg version="1.1" id="Capa_1" xmlns="http://www.w3.org/2000/svg" xmlns:xlink="http://www.w3.org/1999/xlink" x="0px" y="0px"
	 viewBox="0 0 511.875 511.875" style="enable-background:new 0 0 511.875 511.875;" xml:space="preserve">
<g>
	<path style="fill:#98A9D5;" d="M374.103,131.877v344.701c0.401,4.915-1.488,9.741-5.12,13.077l-2.283,1.315l-32.035,18.473
		l-0.208,0.138l-2.352,1.384l-0.069,0.069c-4.832,1.633-10.153,0.862-14.322-2.076l-158.097-91.261
		c-12.847-8.389-20.939-22.388-21.795-37.708V35.358c-0.691-5.786,2.106-11.433,7.126-14.391l-0.069-0.069l34.595-19.996
		l0.069,0.069c4.889-1.796,10.348-1.071,14.599,1.937l158.166,91.33C365.165,102.586,373.263,116.571,374.103,131.877z"/>
	<path style="fill:#687492;" d="M374.103,131.877v344.701c0.401,4.915-1.488,9.741-5.12,13.077l-2.283,1.315l-32.035,18.473
		c3.524-3.338,5.333-8.102,4.912-12.939v-344.7c-0.867-15.315-8.99-29.298-21.864-37.639L159.617,22.904
		c-4.265-3.041-9.76-3.767-14.668-1.937l-0.069-0.069l34.595-19.996l0.069,0.069c4.889-1.796,10.348-1.071,14.599,1.937
		l158.166,91.33C365.165,102.586,373.263,116.571,374.103,131.877z"/>
	<g>
		<path style="fill:#EBECED;" d="M203.064,71.818c-0.453,0.016-0.903-0.079-1.311-0.277c-0.408-0.16-0.784-0.394-1.108-0.689
			c-0.352-0.319-0.615-0.724-0.764-1.176c-0.195-0.411-0.29-0.863-0.277-1.318c-0.01-0.917,0.368-1.795,1.041-2.419
			c1.346-1.318,3.499-1.318,4.845,0c0.671,0.624,1.046,1.503,1.034,2.419c0.016,0.455-0.079,0.907-0.277,1.318
			c-0.143,0.452-0.404,0.858-0.757,1.176c-0.314,0.308-0.693,0.544-1.108,0.689C203.972,71.739,203.519,71.834,203.064,71.818z"/>
		<path style="fill:#EBECED;" d="M155.604,44.419c-0.455,0.016-0.907-0.079-1.318-0.277c-0.834-0.365-1.5-1.031-1.865-1.865
			c-0.198-0.41-0.293-0.862-0.277-1.318c-0.012-0.916,0.363-1.795,1.034-2.419c0.975-0.99,2.451-1.292,3.736-0.764
			c0.832,0.373,1.499,1.039,1.872,1.872c0.188,0.411,0.283,0.859,0.277,1.311c0.013,0.455-0.082,0.906-0.277,1.318
			c-0.15,0.432-0.413,0.815-0.764,1.108C157.399,44.056,156.52,44.432,155.604,44.419z"/>
		<path style="fill:#EBECED;" d="M321.726,140.385c-0.908-0.031-1.772-0.403-2.419-1.041c-0.63-0.647-0.98-1.516-0.973-2.419
			c0-0.47,0.071-0.936,0.209-1.385c0.19-0.41,0.448-0.784,0.763-1.108c0.338-0.292,0.707-0.546,1.101-0.757
			c1.075-0.464,2.313-0.347,3.282,0.312s1.533,1.767,1.495,2.938c-0.001,0.447-0.071,0.892-0.209,1.318
			c-0.21,0.394-0.464,0.764-0.757,1.101c-0.324,0.315-0.698,0.573-1.108,0.764C322.667,140.275,322.2,140.368,321.726,140.385z"/>
		<path style="fill:#EBECED;" d="M220.848,82.129c-0.45-0.028-0.894-0.121-1.318-0.277c-0.409-0.189-0.781-0.447-1.101-0.763
			c-0.675-0.622-1.053-1.501-1.041-2.419c0.032-0.93,0.402-1.817,1.041-2.493c1.401-1.243,3.511-1.243,4.912,0
			c0.308,0.353,0.563,0.749,0.757,1.176c0.144,0.424,0.215,0.87,0.209,1.318c0.006,0.902-0.341,1.77-0.966,2.419
			c-0.348,0.317-0.745,0.574-1.176,0.763C221.744,82.015,221.299,82.109,220.848,82.129z"/>
		<path style="fill:#EBECED;" d="M238.699,92.44c-0.932-0.022-1.822-0.393-2.493-1.041c-0.294-0.339-0.548-0.711-0.757-1.108
			c-0.144-0.447-0.215-0.915-0.209-1.385c-0.006-0.902,0.341-1.77,0.966-2.419c0.356-0.307,0.751-0.563,1.176-0.764
			c0.845-0.345,1.791-0.345,2.635,0c0.403,0.199,0.774,0.456,1.101,0.764c0.649,0.64,1.022,1.508,1.041,2.419
			c-0.02,0.473-0.113,0.941-0.277,1.385c-0.187,0.412-0.446,0.787-0.764,1.108C240.469,92.034,239.607,92.405,238.699,92.44z"/>
		<path style="fill:#EBECED;" d="M256.483,102.676c-0.455,0.016-0.907-0.079-1.318-0.277c-0.432-0.144-0.816-0.406-1.108-0.757
			c-0.66-0.633-1.034-1.508-1.034-2.422c0-0.915,0.373-1.79,1.034-2.422c0.293-0.35,0.676-0.614,1.108-0.764
			c0.842-0.345,1.786-0.345,2.628,0c0.832,0.373,1.499,1.039,1.872,1.872c0.369,0.837,0.369,1.791,0,2.628
			c-0.15,0.432-0.413,0.815-0.764,1.108C258.285,102.324,257.401,102.702,256.483,102.676z"/>
		<path style="fill:#EBECED;" d="M274.26,112.987c-0.911-0.018-1.779-0.392-2.419-1.041c-0.314-0.322-0.572-0.694-0.764-1.101
			c-0.37-0.863-0.37-1.84,0-2.703c0.193-0.408,0.451-0.783,0.764-1.108c0.327-0.309,0.701-0.565,1.108-0.757
			c0.841-0.351,1.787-0.351,2.628,0c0.418,0.21,0.812,0.464,1.176,0.757c1.289,1.384,1.289,3.528,0,4.912
			C276.085,112.599,275.193,112.971,274.26,112.987z"/>
		<path style="fill:#EBECED;" d="M203.064,425.791c-1.401,0.016-2.669-0.824-3.202-2.119c-0.533-1.295-0.223-2.785,0.783-3.759
			c0.288-0.356,0.673-0.621,1.108-0.764c0.842-0.345,1.786-0.345,2.628,0c0.434,0.145,0.818,0.409,1.108,0.764
			c0.66,0.631,1.034,1.505,1.034,2.419c0,0.914-0.373,1.787-1.034,2.419C204.874,425.438,203.986,425.819,203.064,425.791z"/>
		<path style="fill:#EBECED;" d="M220.848,436.034c-0.902,0.004-1.77-0.346-2.419-0.973c-0.664-0.629-1.04-1.504-1.041-2.419
			c0.003-0.936,0.377-1.833,1.041-2.493c0.309-0.329,0.685-0.589,1.101-0.764c0.842-0.378,1.803-0.392,2.655-0.038
			c0.852,0.354,1.52,1.045,1.845,1.909c0.199,0.434,0.294,0.908,0.277,1.385c-0.006,0.899-0.351,1.763-0.966,2.419
			c-0.355,0.307-0.751,0.563-1.175,0.764C221.74,435.965,221.295,436.036,220.848,436.034z"/>
		<path style="fill:#EBECED;" d="M238.699,446.338c-0.455,0.016-0.907-0.079-1.318-0.277c-0.452-0.145-0.857-0.406-1.176-0.757
			c-0.291-0.341-0.545-0.713-0.757-1.108c-0.144-0.424-0.215-0.87-0.209-1.318c-0.005-0.446,0.066-0.889,0.209-1.311
			c0.192-0.407,0.448-0.781,0.757-1.108c1.372-1.318,3.54-1.318,4.912,0c0.333,0.309,0.593,0.687,0.764,1.108
			c0.163,0.419,0.257,0.862,0.277,1.311c-0.018,0.913-0.391,1.783-1.041,2.426c-0.302,0.336-0.68,0.595-1.101,0.757
			C239.604,446.252,239.154,446.347,238.699,446.338z"/>
		<path style="fill:#EBECED;" d="M256.483,456.649c-0.452-0.017-0.897-0.11-1.318-0.277c-0.405-0.199-0.778-0.456-1.108-0.764
			c-0.66-0.632-1.033-1.505-1.034-2.419c-0.011-1.397,0.82-2.664,2.107-3.21c1.287-0.546,2.775-0.263,3.772,0.717
			c0.334,0.307,0.595,0.686,0.764,1.108c0.56,1.304,0.256,2.817-0.764,3.804c-0.329,0.309-0.702,0.567-1.108,0.764
			C257.376,456.539,256.932,456.632,256.483,456.649z"/>
		<path style="fill:#EBECED;" d="M274.26,466.892c-0.917,0.01-1.795-0.368-2.419-1.04c-0.658-0.634-1.033-1.506-1.041-2.419
			c0.02-0.913,0.393-1.782,1.041-2.426c0.303-0.337,0.683-0.597,1.108-0.757c1.305-0.535,2.803-0.237,3.804,0.757
			c0.627,0.651,0.974,1.522,0.966,2.426c0.016,0.453-0.079,0.903-0.277,1.311c-0.144,0.416-0.379,0.795-0.689,1.108
			c-0.318,0.354-0.723,0.617-1.176,0.764C275.166,466.81,274.715,466.905,274.26,466.892z"/>
	</g>
	<polygon style="fill:#BDDCF3;" points="339.56,480.708 137.797,364.214 137.797,51.112 339.56,167.599 	"/>
	<g>
		<path style="fill:#FFFFFF;" d="M163.287,117.541c-1.57-0.001-2.942-1.058-3.343-2.575c-0.401-1.517,0.27-3.115,1.634-3.891
			l19.345-11.02c1.075-0.616,2.396-0.61,3.465,0.015c1.069,0.625,1.722,1.774,1.713,3.013c-0.01,1.238-0.681,2.377-1.759,2.986
			l-19.345,11.02C164.475,117.384,163.886,117.54,163.287,117.541z"/>
		<path style="fill:#FFFFFF;" d="M163.287,145.277c-1.57-0.001-2.942-1.058-3.343-2.575c-0.401-1.517,0.27-3.115,1.634-3.891
			l9.669-5.507c1.074-0.611,2.393-0.602,3.459,0.023c1.066,0.625,1.718,1.771,1.709,3.007s-0.675,2.373-1.749,2.984l-9.669,5.507
			C164.475,145.12,163.886,145.276,163.287,145.277z"/>
		<path style="fill:#FFFFFF;" d="M192.307,128.75c-1.57,0.001-2.944-1.055-3.347-2.573s0.267-3.116,1.631-3.894l14.507-8.27
			c1.66-0.94,3.767-0.36,4.713,1.296c0.946,1.657,0.373,3.766-1.281,4.717l-14.507,8.27
			C193.5,128.593,192.909,128.749,192.307,128.75z"/>
		<path style="fill:#FFFFFF;" d="M163.287,173.014c-1.57-0.001-2.942-1.058-3.343-2.575c-0.401-1.517,0.27-3.115,1.634-3.891
			l43.527-24.797c1.074-0.611,2.393-0.602,3.459,0.023c1.066,0.625,1.718,1.771,1.709,3.007c-0.008,1.236-0.675,2.373-1.749,2.984
			l-43.527,24.797C164.475,172.857,163.886,173.012,163.287,173.014z"/>
		<path style="fill:#FFFFFF;" d="M226.158,137.196c-1.57-0.001-2.942-1.058-3.343-2.575s0.269-3.115,1.634-3.891l4.838-2.75
			c1.074-0.611,2.393-0.602,3.459,0.023c1.066,0.625,1.718,1.771,1.709,3.007c-0.008,1.236-0.675,2.373-1.749,2.984l-4.838,2.75
			C227.348,137.042,226.758,137.198,226.158,137.196z"/>
	</g>
</g>
<g>
</g>
<g>
</g>
<g>
</g>
<g>
</g>
<g>
</g>
<g>
</g>
<g>
</g>
<g>
</g>
<g>
</g>
<g>
</g>
<g>
</g>
<g>
</g>
<g>
</g>
<g>
</g>
<g>
</g>
</svg>
