<?xml version="1.0" encoding="iso-8859-1"?>
<!-- Generator: Adobe Illustrator 19.0.0, SVG Export Plug-In . SVG Version: 6.00 Build 0)  -->
<svg version="1.1" id="Capa_1" xmlns="http://www.w3.org/2000/svg" xmlns:xlink="http://www.w3.org/1999/xlink" x="0px" y="0px"
	 viewBox="0 0 490.669 490.669" style="enable-background:new 0 0 490.669 490.669;" xml:space="preserve">
<path style="fill:#F1F2F2;" d="M426.668,192.003L245.335,309.336L64.001,192.003V10.669C63.876,4.903,68.449,0.128,74.215,0.003
	c0.151-0.003,0.302-0.003,0.453,0h341.333c5.766-0.125,10.542,4.448,10.667,10.214c0.003,0.151,0.003,0.302,0,0.453V192.003z"/>
<g>
	<path style="fill:#F6B445;" d="M64.001,192.003l-64-42.667l64-64V192.003z"/>
	<path style="fill:#F6B445;" d="M490.668,149.336l-64,42.667V85.336L490.668,149.336z"/>
</g>
<path style="fill:#FED049;" d="M426.668,191.043l64-41.707v298.667c-0.02,11.314-4.505,22.162-12.48,30.187l-72.853-72.853
	L288.001,288.003l-2.987-4.587L426.668,191.043z"/>
<path style="fill:#F6B445;" d="M405.335,405.336l72.853,72.853c-8.025,7.975-18.873,12.46-30.187,12.48H42.668
	c-11.314-0.02-22.162-4.505-30.187-12.48l72.853-72.853l117.333-117.333l2.987-4.587l39.68,25.92l39.68-25.92l2.987,4.587
	L405.335,405.336z"/>
<path style="fill:#FED049;" d="M205.655,283.416l-2.987,4.587L85.335,405.336l-72.853,72.853
	c-7.975-8.025-12.46-18.873-12.48-30.187V149.336L205.655,283.416z"/>
<circle style="fill:#35DC86;" cx="362.668" cy="128.003" r="128"/>
<path style="fill:#F1F2F2;" d="M330.668,192.003c-2.829-0.001-5.541-1.125-7.541-3.125l-32-32
	c-4.092-4.237-3.975-10.99,0.262-15.083c4.134-3.992,10.687-3.992,14.82,0l24.459,24.459l88.459-88.459
	c4.237-4.093,10.99-3.976,15.083,0.262c3.993,4.134,3.993,10.687,0,14.821l-96,96C336.209,190.878,333.497,192.002,330.668,192.003z
	"/>
<g>
</g>
<g>
</g>
<g>
</g>
<g>
</g>
<g>
</g>
<g>
</g>
<g>
</g>
<g>
</g>
<g>
</g>
<g>
</g>
<g>
</g>
<g>
</g>
<g>
</g>
<g>
</g>
<g>
</g>
</svg>
