<?xml version="1.0"?>
<svg xmlns="http://www.w3.org/2000/svg" xmlns:xlink="http://www.w3.org/1999/xlink" xmlns:svgjs="http://svgjs.com/svgjs" version="1.1" width="512" height="512" x="0" y="0" viewBox="0 0 24 24" style="enable-background:new 0 0 512 512" xml:space="preserve"><g><path xmlns="http://www.w3.org/2000/svg" d="m21 0h-18c-1.655 0-3 1.345-3 3v18c0 1.654 1.345 3 3 3h18c1.654 0 3-1.346 3-3v-18c0-1.655-1.346-3-3-3z" fill="#3b599900" data-original="#3b5999" style=""/><path xmlns="http://www.w3.org/2000/svg" d="m16.5 12v-3c0-.828.672-.75 1.5-.75h1.5v-3.75h-3c-2.486 0-4.5 2.014-4.5 4.5v3h-3v3.75h3v8.25h4.5v-8.25h2.25l1.5-3.75z" fill="#ffffff" data-original="#ffffff" style=""/></g></svg>
