<?xml version="1.0"?>
<svg xmlns="http://www.w3.org/2000/svg" xmlns:xlink="http://www.w3.org/1999/xlink" xmlns:svgjs="http://svgjs.com/svgjs" version="1.1" width="512" height="512" x="0" y="0" viewBox="0 0 32 32" style="enable-background:new 0 0 512 512" xml:space="preserve"><g><path xmlns="http://www.w3.org/2000/svg" d="m26.63 0h-16a5.34 5.34 0 0 0 -5.33 5.33v21.34a1.07 1.07 0 0 0 2.13 0v-21.34a3.2 3.2 0 0 1 3.2-3.2h16a3.2 3.2 0 0 1 3.2 3.2v21.34a3.2 3.2 0 0 1 -3.2 3.2h-20.26a3.2 3.2 0 0 1 -3.2-3.2v-21.34a1.07 1.07 0 0 0 -2.17 0v21.34a5.34 5.34 0 0 0 5.37 5.33h20.26a5.34 5.34 0 0 0 5.37-5.33v-21.34a5.34 5.34 0 0 0 -5.37-5.33z" fill="#ffffff" data-original="#000000" style=""/><path xmlns="http://www.w3.org/2000/svg" d="m26.63 8.53h-16a1.07 1.07 0 1 1 0-2.13h16a1.07 1.07 0 1 1 0 2.13z" fill="#ffffff" data-original="#000000" style=""/><path xmlns="http://www.w3.org/2000/svg" d="m26.63 25.61h-16a1.07 1.07 0 0 1 0-2.13h16a1.07 1.07 0 1 1 0 2.13z" fill="#ffffff" data-original="#000000" style=""/><path xmlns="http://www.w3.org/2000/svg" d="m26.63 14.94h-6.39a1.07 1.07 0 0 1 0-2.13h6.39a1.07 1.07 0 1 1 0 2.13z" fill="#ffffff" data-original="#000000" style=""/><path xmlns="http://www.w3.org/2000/svg" d="m26.63 20.27h-6.39a1.07 1.07 0 0 1 0-2.13h6.39a1.07 1.07 0 1 1 0 2.13z" fill="#ffffff" data-original="#000000" style=""/><path xmlns="http://www.w3.org/2000/svg" d="m16 21.34h-4.3a2.14 2.14 0 0 1 -2.13-2.13v-5.34a2.14 2.14 0 0 1 2.13-2.13h4.3a2.14 2.14 0 0 1 2.13 2.13v5.34a2.14 2.14 0 0 1 -2.13 2.13zm-4.3-7.47v5.34h4.3v-5.34z" fill="#ffffff" data-original="#000000" style=""/></g></svg>
