<?xml version="1.0"?>
<svg xmlns="http://www.w3.org/2000/svg" xmlns:xlink="http://www.w3.org/1999/xlink" xmlns:svgjs="http://svgjs.com/svgjs" version="1.1" width="512" height="512" x="0" y="0" viewBox="0 0 32 32" style="enable-background:new 0 0 512 512" xml:space="preserve" class=""><g><path xmlns="http://www.w3.org/2000/svg" d="M28.78,14.39h-6.4a3.2,3.2,0,0,0-3.2,3.2V28.26a3.2,3.2,0,0,0,3.2,3.2h6.4a3.2,3.2,0,0,0,3.2-3.2V17.59A3.2,3.2,0,0,0,28.78,14.39Zm1.07,13.87a1.07,1.07,0,0,1-1.07,1.07h-6.4a1.07,1.07,0,0,1-1.07-1.07V17.59a1.07,1.07,0,0,1,1.07-1.07h1.06a1.07,1.07,0,0,0,1.07,1.07h2.13a1.07,1.07,0,0,0,1.07-1.07h1.07a1.07,1.07,0,0,1,1.07,1.07Z" fill="#ffffff" data-original="#000000" style="" class=""/><path xmlns="http://www.w3.org/2000/svg" d="M30.93,12.26a1.07,1.07,0,0,1-1.07-1.07V5.87a3.2,3.2,0,0,0-3.2-3.2H9.6A1.07,1.07,0,1,1,9.6.54H26.67A5.34,5.34,0,0,1,32,5.87v5.32A1.07,1.07,0,0,1,30.93,12.26Z" fill="#ffffff" data-original="#000000" style="" class=""/><path xmlns="http://www.w3.org/2000/svg" d="M16,24H5.33A5.34,5.34,0,0,1,0,18.66V5.87A5.34,5.34,0,0,1,5.33.54a1.07,1.07,0,1,1,0,2.13,3.2,3.2,0,0,0-3.2,3.2V18.66a3.2,3.2,0,0,0,3.2,3.2H16A1.07,1.07,0,1,1,16,24Z" fill="#ffffff" data-original="#000000" style="" class=""/><path xmlns="http://www.w3.org/2000/svg" d="M16,26.13a1.07,1.07,0,0,0-1.07,1.07v1.07H12.81a1.07,1.07,0,1,0,0,2.13H16a1.07,1.07,0,0,0,1.07-1.07V27.2A1.07,1.07,0,0,0,16,26.13Z" fill="#ffffff" data-original="#000000" style="" class=""/></g></svg>
