<?xml version="1.0" encoding="iso-8859-1"?>
<!-- Generator: Adobe Illustrator 19.0.0, SVG Export Plug-In . SVG Version: 6.00 Build 0)  -->
<svg version="1.1" id="Layer_1" xmlns="http://www.w3.org/2000/svg" xmlns:xlink="http://www.w3.org/1999/xlink" x="0px" y="0px"
	 viewBox="0 0 451.731 451.731" style="enable-background:new 0 0 451.731 451.731;" xml:space="preserve">
<path style="fill:#B8ABC9;" d="M21.2,349.066l55.2-312.8c3.2-17.2,19.6-28.8,36.8-25.6l312.4,55.2c17.2,3.2,28.8,19.6,25.6,36.8
	l-55.2,312.8c-3.2,17.2-19.6,28.8-36.8,25.6l-312.4-55.2C29.6,383.066,18,366.266,21.2,349.066z"/>
<path style="fill:#F7F7FB;" d="M360,422.266H42.4c-17.6,0-31.6-14.4-31.6-31.6v-317.6c0-17.6,14.4-31.6,31.6-31.6H360
	c17.6,0,31.6,14.4,31.6,31.6v317.6C392,408.266,377.6,422.266,360,422.266z"/>
<path style="fill:#D6EEF2;" d="M329.6,311.466h-254c-17.6,0-31.6-14.4-31.6-31.6v-175.2c0-17.6,14.4-31.6,31.6-31.6h254
	c17.6,0,31.6,14.4,31.6,31.6v174.8C361.2,297.066,347.2,311.466,329.6,311.466z"/>
<path style="fill:#458074;" d="M75.6,311.466h124l-73.2-87.6l-64,84.8C66.4,310.266,70.8,311.466,75.6,311.466z"/>
<path style="fill:#65BFAF;" d="M158,311.466h171.6c6.8,0,13.2-2.4,18.4-6l-94.8-126L158,311.466z"/>
<circle style="fill:#FFFFFF;" cx="177.6" cy="162.666" r="24"/>
<path style="fill:#454B54;" d="M361.2,434.266H43.6c-24,0-43.6-19.6-43.6-43.6v-317.6c0-24,19.6-43.6,43.6-43.6h317.6
	c24,0,43.6,19.6,43.6,43.6v317.6C405.2,414.666,385.6,434.266,361.2,434.266z M43.6,53.466c-10.8,0-19.6,8.8-19.6,19.6v317.6
	c0,10.8,8.8,19.6,19.6,19.6h317.6c10.8,0,19.6-8.8,19.6-19.6v-317.6c0-10.8-8.8-19.6-19.6-19.6H43.6z"/>
<g>
</g>
<g>
</g>
<g>
</g>
<g>
</g>
<g>
</g>
<g>
</g>
<g>
</g>
<g>
</g>
<g>
</g>
<g>
</g>
<g>
</g>
<g>
</g>
<g>
</g>
<g>
</g>
<g>
</g>
</svg>
