<?xml version="1.0" encoding="iso-8859-1"?>
<!-- Generator: Adobe Illustrator 19.0.0, SVG Export Plug-In . SVG Version: 6.00 Build 0)  -->
<svg version="1.1" id="Capa_1" xmlns="http://www.w3.org/2000/svg" xmlns:xlink="http://www.w3.org/1999/xlink" x="0px" y="0px"
	 viewBox="0 0 516 516" style="enable-background:new 0 0 516 516;" xml:space="preserve">
<polygon style="fill:#FFFFFF;" points="236.541,17.438 280.136,106.212 376.836,119.687 307.085,188.645 323.73,285.346 
	236.541,240.166 149.352,285.346 165.998,188.645 95.454,119.687 192.947,106.212 "/>
<polygon style="fill:#FDBF5E;" points="200.081,177.548 163.62,141.88 213.555,134.747 236.541,89.567 258.735,134.747 
	309.463,141.88 273.002,177.548 280.928,227.484 236.541,203.705 191.362,227.484 "/>
<path style="fill:#FFFFFF;" d="M212.763,508.866h194.193c13.475,0,23.779-11.097,23.779-23.779v-108.59
	c0-15.06-11.097-27.742-26.157-28.535c-15.853-0.793-28.535,11.889-28.535,26.949v-17.438c0-12.682-8.719-24.571-21.401-27.742
	c-17.438-3.171-33.29,9.512-33.29,26.949v-17.438c0-12.682-8.719-24.571-21.401-27.742c-17.438-3.171-33.29,9.512-33.29,26.949
	v-124.44c0-15.06-11.097-27.742-26.157-28.535c-15.853-0.793-28.535,11.889-28.535,26.949v214.009l-58.653-58.653
	c-13.475-13.475-34.876-15.853-49.935-3.171c-16.645,13.475-17.438,38.839-2.378,53.899l77.677,77.677
	C188.191,504.111,200.081,508.866,212.763,508.866z"/>
<path style="fill:#D3D7DA;" d="M131.915,447.834l47.558,47.558c8.719,8.719,20.608,13.475,33.29,13.475h194.193
	c13.475,0,23.779-11.097,23.779-23.779v-37.253"/>
<g>
	<path style="fill:#193651;" d="M406.956,509.857H212.763c-13.043,0-25.115-4.888-33.991-13.765l-47.558-47.558l1.401-1.401
		l47.558,47.558c8.502,8.502,20.076,13.184,32.59,13.184h194.193c12.566,0,22.788-10.222,22.788-22.788v-37.253h1.982v37.253
		C431.725,498.745,420.614,509.857,406.956,509.857z"/>
	<path style="fill:#193651;" d="M405.371,339.244c-8.719-0.793-16.645,2.378-22.986,7.134
		c-3.963-12.682-13.475-22.194-26.157-24.571c-10.304-2.378-20.608,0.793-28.535,6.341c-3.963-12.682-13.475-22.194-26.157-24.571
		c-9.512-1.585-19.023,0-26.949,4.756V268.7l58.654,30.912l-19.023-108.59l79.263-76.885L284.099,98.284L236.541,0l-49.143,98.286
		L78.016,114.138l79.263,76.885l-19.023,108.59l65.788-34.876v141.088l-44.387-44.387c-8.719-8.719-20.608-13.475-33.29-13.475
		c-10.304,0-19.816,3.171-27.742,9.512c-9.512,7.926-15.853,19.816-15.853,31.705c-0.793,12.682,3.963,24.571,12.682,33.29
		l77.677,77.677C183.435,510.452,196.91,516,211.97,516h194.194c17.438,0,31.705-14.267,31.705-31.705V376.498
		C439.454,356.682,424.394,340.829,405.371,339.244z M159.657,271.078l14.267-85.604l-61.825-60.24l85.604-12.682l38.046-77.677
		l38.046,77.677l85.604,12.682l-61.032,61.032l14.267,85.604l-38.046-19.816v-38.046c0-19.816-14.267-35.668-33.29-36.461
		c-20.608-1.585-37.253,15.06-37.253,34.876v35.668L159.657,271.078z M423.601,485.088c0,8.719-7.134,15.853-15.853,15.853H212.763
		c-10.304,0-20.608-3.963-27.742-11.097l-77.677-77.677c-5.548-5.548-8.719-13.475-7.926-21.401c0-7.926,3.963-15.06,10.304-20.608
		c4.756-3.963,11.097-6.341,17.438-6.341c7.926,0,15.853,3.171,22.194,8.719l72.129,72.129v-232.24
		c0-10.304,8.719-19.023,19.023-19.023h0.793c10.304,0.793,18.23,10.304,18.23,20.608v123.65v47.558h15.853V337.66
		c0-11.889,11.097-21.401,23.779-19.023c8.719,1.585,15.06,10.304,15.06,19.816v17.438v29.327h15.853v-29.327
		c0-11.889,11.097-21.401,23.779-19.023c8.719,1.585,15.06,10.304,15.06,19.816v17.438l0,0v11.097h15.853V374.12l0,0
		c0-10.304,8.719-19.023,19.023-19.023h0.793c10.304,0.793,18.23,10.304,18.23,20.608v109.383L423.601,485.088L423.601,485.088z"/>
	<rect x="266.67" y="466.86" style="fill:#193651;" width="15.853" height="15.853"/>
	<rect x="314.22" y="466.86" style="fill:#193651;" width="15.853" height="15.853"/>
	<rect x="360.99" y="466.86" style="fill:#193651;" width="15.853" height="15.853"/>
</g>
<g>
</g>
<g>
</g>
<g>
</g>
<g>
</g>
<g>
</g>
<g>
</g>
<g>
</g>
<g>
</g>
<g>
</g>
<g>
</g>
<g>
</g>
<g>
</g>
<g>
</g>
<g>
</g>
<g>
</g>
</svg>
