<?xml version="1.0" encoding="iso-8859-1"?>
<!-- Generator: Adobe Illustrator 19.0.0, SVG Export Plug-In . SVG Version: 6.00 Build 0)  -->
<svg version="1.1" id="Capa_1" xmlns="http://www.w3.org/2000/svg" xmlns:xlink="http://www.w3.org/1999/xlink" x="0px" y="0px"
	 viewBox="0 0 499.394 499.394" style="enable-background:new 0 0 499.394 499.394;" xml:space="preserve">
<path style="fill:#4FBF9F;" d="M91.442,320.97v125.673c0,24.824,20.17,44.994,44.994,44.994s44.994-20.17,44.994-44.994V320.97
	H91.442z"/>
<path style="fill:#193651;" d="M136.436,499.394c-28.703,0-52.752-23.273-52.752-52.751V320.97c0-4.655,3.103-7.758,7.758-7.758
	h89.988c4.655,0,7.758,3.103,7.758,7.758v125.673C189.188,476.121,165.915,499.394,136.436,499.394z M99.2,328.727v117.915
	c0,20.17,17.067,37.236,37.236,37.236s37.236-17.067,37.236-37.236V328.727H99.2z"/>
<path style="fill:#FFFFFF;" d="M136.436,460.606c-7.758,0-13.964-6.206-13.964-13.964V352H150.4v94.642
	C150.4,454.4,144.194,460.606,136.436,460.606z"/>
<path style="fill:#4FBF9F;" d="M181.43,96v350.642c0,24.824-20.17,44.994-44.994,44.994h308.752
	c24.824,0,44.994-20.17,44.994-44.994V96H181.43z"/>
<path style="fill:#193651;" d="M490.182,88.242H181.43c-4.655,0-7.758,3.103-7.758,7.758v350.642
	c0,20.17-17.067,37.236-37.236,37.236c-4.655,0-7.758,3.103-7.758,7.758c0,4.654,3.103,7.758,7.758,7.758h308.752
	c28.703,0,52.751-23.273,52.751-52.751V96C497.939,92.121,494.836,88.242,490.182,88.242z M482.424,446.642
	c0,20.17-17.067,37.236-37.236,37.236H173.673c9.309-9.309,15.515-22.497,15.515-37.236V103.758h293.236V446.642z"/>
<path style="fill:#FFFFFF;" d="M211.685,460.606c0.776-4.655,1.552-9.309,1.552-13.964V127.03h245.915v319.612
	c0,7.758-6.206,13.964-13.964,13.964H211.685z"/>
<path style="fill:#193651;" d="M26.279,206.158c-4.655,0-7.758-3.103-7.758-7.758v-86.109c0-4.655,3.103-7.758,7.758-7.758
	s7.758,3.103,7.758,7.758v86.885C34.036,203.055,30.933,206.158,26.279,206.158z"/>
<path style="fill:#E1E6E9;" d="M321.067,243.394V142.545l0,0c-73.697-56.63-167.564-56.63-242.036,0v100.848H321.067z"/>
<path style="fill:#193651;" d="M321.067,251.152H79.03c-4.655,0-7.758-3.103-7.758-7.758V142.545c0-2.327,0.776-4.655,3.103-6.206
	c38.012-28.703,81.455-44.218,125.673-44.218s87.661,15.515,125.673,44.218c1.552,1.552,3.103,3.879,3.103,6.206v100.848
	C328.824,248.048,324.945,251.152,321.067,251.152z M86.788,235.636h226.521V147.2c-34.133-25.6-73.697-38.788-113.261-38.788
	S120.921,121.6,86.788,147.2V235.636z"/>
<path style="fill:#FFFFFF;" d="M113.939,209.261v-48.097c27.152-17.067,56.63-25.6,86.109-25.6c30.255,0,59.733,9.309,86.109,25.6
	v48.097H113.939z"/>
<path style="fill:#E1E6E9;" d="M321.067,143.321L321.067,143.321v14.739l69.818-59.733L200.048,7.564L9.212,97.552l69.818,59.733
	v-14.739C152.727,86.691,246.594,85.915,321.067,143.321z"/>
<g>
	<path style="fill:#193651;" d="M321.067,165.818c-0.776,0-2.327,0-3.103-0.776c-3.103-1.552-4.655-3.879-4.655-6.982V147.2
		c-34.133-25.6-73.697-38.788-113.261-38.788S120.921,121.6,86.788,147.2v10.861c0,3.103-1.552,5.43-4.655,6.982
		c-3.103,1.552-6.206,0.776-8.533-1.552L3.782,103.758c-1.552-1.552-2.327-4.655-2.327-6.982c0-2.327,2.327-4.655,4.655-6.206
		L196.945,0.582c2.327-0.776,4.655-0.776,6.982,0l190.836,90.764c2.327,0.776,3.879,3.103,4.655,6.206
		c0,2.327-0.776,5.43-2.327,6.982l-69.818,59.733C324.945,165.042,322.618,165.818,321.067,165.818z M200.048,92.897
		c44.218,0,87.661,15.515,125.673,44.218c1.552,0.776,2.327,2.327,3.103,4.655l48.097-41.115L200.048,16.097L23.176,99.879
		l48.097,41.115c0.776-1.552,1.552-3.103,3.103-3.879C112.388,108.412,155.83,92.897,200.048,92.897z"/>
	<rect x="145.745" y="172.8" style="fill:#193651;" width="15.515" height="17.067"/>
	<rect x="192.291" y="172.8" style="fill:#193651;" width="15.515" height="17.067"/>
	<rect x="238.836" y="172.8" style="fill:#193651;" width="15.515" height="17.067"/>
</g>
<circle style="fill:#FFFFFF;" cx="26.279" cy="216.242" r="17.067"/>
<g>
	<path style="fill:#193651;" d="M26.279,241.067c-13.964,0-24.824-11.636-24.824-24.824c0-13.964,11.636-24.824,24.824-24.824
		s24.824,11.636,24.824,24.824C51.879,229.43,40.242,241.067,26.279,241.067z M26.279,206.158c-5.43,0-9.309,4.655-9.309,10.085
		c0,5.43,4.655,9.309,9.309,9.309c5.43,0,9.309-4.655,9.309-9.309C36.364,210.812,31.709,206.158,26.279,206.158z"/>
	<path style="fill:#193651;" d="M422.691,426.473H248.145c-4.655,0-7.758-3.103-7.758-7.758c0-4.655,3.103-7.758,7.758-7.758
		h174.545c4.655,0,7.758,3.103,7.758,7.758C430.448,423.37,426.57,426.473,422.691,426.473z"/>
	<path style="fill:#193651;" d="M422.691,383.03H248.145c-4.655,0-7.758-3.103-7.758-7.758c0-4.655,3.103-7.758,7.758-7.758h174.545
		c4.655,0,7.758,3.103,7.758,7.758C430.448,379.927,426.57,383.03,422.691,383.03z"/>
	<path style="fill:#193651;" d="M422.691,339.588H248.145c-4.655,0-7.758-3.103-7.758-7.758c0-4.655,3.103-7.758,7.758-7.758
		h174.545c4.655,0,7.758,3.103,7.758,7.758C430.448,336.485,426.57,339.588,422.691,339.588z"/>
	<path style="fill:#193651;" d="M422.691,296.145H248.145c-4.655,0-7.758-3.103-7.758-7.758c0-4.655,3.103-7.758,7.758-7.758
		h174.545c4.655,0,7.758,3.103,7.758,7.758C430.448,293.042,426.57,296.145,422.691,296.145z"/>
</g>
<g>
</g>
<g>
</g>
<g>
</g>
<g>
</g>
<g>
</g>
<g>
</g>
<g>
</g>
<g>
</g>
<g>
</g>
<g>
</g>
<g>
</g>
<g>
</g>
<g>
</g>
<g>
</g>
<g>
</g>
</svg>
