<svg height="512" viewBox="0 0 64 64" width="512" xmlns="http://www.w3.org/2000/svg" xmlns:xlink="http://www.w3.org/1999/xlink"><linearGradient id="linear-gradient" gradientUnits="userSpaceOnUse" x1="26" x2="38" y1="54" y2="54"><stop offset="0" stop-color="#54a5ff"/><stop offset="1" stop-color="#8ad3fe"/></linearGradient><linearGradient id="linear-gradient-2" x1="19" x2="27" xlink:href="#linear-gradient" y1="47" y2="47"/><linearGradient id="linear-gradient-3" x1="37" x2="45" xlink:href="#linear-gradient" y1="47" y2="47"/><linearGradient id="linear-gradient-4" x1="37" x2="45" xlink:href="#linear-gradient" y1="17" y2="17"/><linearGradient id="linear-gradient-5" x1="19" x2="27" xlink:href="#linear-gradient" y1="17" y2="17"/><linearGradient id="linear-gradient-6" x1="39" x2="41" xlink:href="#linear-gradient" y1="24" y2="24"/><linearGradient id="linear-gradient-7" x1="35" x2="37" xlink:href="#linear-gradient" y1="24" y2="24"/><linearGradient id="linear-gradient-8" x1="31" x2="33" xlink:href="#linear-gradient" y1="24" y2="24"/><linearGradient id="linear-gradient-9" x1="27" x2="29" xlink:href="#linear-gradient" y1="24" y2="24"/><linearGradient id="linear-gradient-10" x1="23" x2="25" xlink:href="#linear-gradient" y1="24" y2="24"/><linearGradient id="linear-gradient-11" x1="39" x2="41" xlink:href="#linear-gradient" y1="40" y2="40"/><linearGradient id="linear-gradient-12" x1="35" x2="37" xlink:href="#linear-gradient" y1="40" y2="40"/><linearGradient id="linear-gradient-13" x1="31" x2="33" xlink:href="#linear-gradient" y1="40" y2="40"/><linearGradient id="linear-gradient-14" x1="27" x2="29" xlink:href="#linear-gradient" y1="40" y2="40"/><linearGradient id="linear-gradient-15" x1="23" x2="25" xlink:href="#linear-gradient" y1="40" y2="40"/><linearGradient id="linear-gradient-16" x1="20" x2="44" xlink:href="#linear-gradient" y1="32" y2="32"/><g id="Scan_Barcode" data-name="Scan Barcode"><path d="m50 8v48a4 4 0 0 1 -4 4h-28a4 4 0 0 1 -4-4v-48a4 4 0 0 1 4-4h5v3a2 2 0 0 0 2 2h14a2 2 0 0 0 2-2v-3h5a3.66 3.66 0 0 1 1 .13 4 4 0 0 1 3 3.87z" fill="#ccd3eb"/><path d="m47 4.13v37.68a14.19 14.19 0 0 1 -14.19 14.19h-17.81a3.66 3.66 0 0 1 -1-.13v-47.87a4 4 0 0 1 4-4h2.27a2 2 0 0 0 1.73 1h1v2a2 2 0 0 0 2 2h14a2 2 0 0 0 2-2v-3h5a3.66 3.66 0 0 1 1 .13z" fill="#f5f7ff"/><path d="m41 4v3a2 2 0 0 1 -2 2h-14a2 2 0 0 1 -2-2v-3z" fill="#96a1c3"/><path d="m37 55h-10a1 1 0 0 1 0-2h10a1 1 0 0 1 0 2z" fill="url(#linear-gradient)"/><path d="m26 51h-6a1 1 0 0 1 -1-1v-6a1 1 0 0 1 2 0v5h5a1 1 0 0 1 0 2z" fill="url(#linear-gradient-2)"/><path d="m44 51h-6a1 1 0 0 1 0-2h5v-5a1 1 0 0 1 2 0v6a1 1 0 0 1 -1 1z" fill="url(#linear-gradient-3)"/><path d="m44 21a1 1 0 0 1 -1-1v-5h-5a1 1 0 0 1 0-2h6a1 1 0 0 1 1 1v6a1 1 0 0 1 -1 1z" fill="url(#linear-gradient-4)"/><path d="m20 21a1 1 0 0 1 -1-1v-6a1 1 0 0 1 1-1h6a1 1 0 0 1 0 2h-5v5a1 1 0 0 1 -1 1z" fill="url(#linear-gradient-5)"/><path d="m40 28a1 1 0 0 1 -1-1v-6a1 1 0 0 1 2 0v6a1 1 0 0 1 -1 1z" fill="url(#linear-gradient-6)"/><path d="m36 28a1 1 0 0 1 -1-1v-6a1 1 0 0 1 2 0v6a1 1 0 0 1 -1 1z" fill="url(#linear-gradient-7)"/><path d="m32 28a1 1 0 0 1 -1-1v-6a1 1 0 0 1 2 0v6a1 1 0 0 1 -1 1z" fill="url(#linear-gradient-8)"/><path d="m28 28a1 1 0 0 1 -1-1v-6a1 1 0 0 1 2 0v6a1 1 0 0 1 -1 1z" fill="url(#linear-gradient-9)"/><path d="m24 28a1 1 0 0 1 -1-1v-6a1 1 0 0 1 2 0v6a1 1 0 0 1 -1 1z" fill="url(#linear-gradient-10)"/><path d="m40 44a1 1 0 0 1 -1-1v-6a1 1 0 0 1 2 0v6a1 1 0 0 1 -1 1z" fill="url(#linear-gradient-11)"/><path d="m36 44a1 1 0 0 1 -1-1v-6a1 1 0 0 1 2 0v6a1 1 0 0 1 -1 1z" fill="url(#linear-gradient-12)"/><path d="m32 44a1 1 0 0 1 -1-1v-6a1 1 0 0 1 2 0v6a1 1 0 0 1 -1 1z" fill="url(#linear-gradient-13)"/><path d="m28 44a1 1 0 0 1 -1-1v-6a1 1 0 0 1 2 0v6a1 1 0 0 1 -1 1z" fill="url(#linear-gradient-14)"/><path d="m24 44a1 1 0 0 1 -1-1v-6a1 1 0 0 1 2 0v6a1 1 0 0 1 -1 1z" fill="url(#linear-gradient-15)"/><path d="m43 33h-22a1 1 0 0 1 0-2h22a1 1 0 0 1 0 2z" fill="url(#linear-gradient-16)"/><path d="m50 20a1 1 0 0 0 -1 1v1a1 1 0 0 0 2 0v-1a1 1 0 0 0 -1-1z" fill="#033c59"/><path d="m46 3h-28a5 5 0 0 0 -5 5v48a5 5 0 0 0 5 5h28a5 5 0 0 0 5-5v-30a1 1 0 0 0 -2 0v30a3 3 0 0 1 -3 3h-28a3 3 0 0 1 -3-3v-48a3 3 0 0 1 3-3h4v2a3 3 0 0 0 3 3h14a3 3 0 0 0 3-3v-2h4a3 3 0 0 1 3 3v9a1 1 0 0 0 2 0v-9a5 5 0 0 0 -5-5zm-6 4a1 1 0 0 1 -1 1h-14a1 1 0 0 1 -1-1v-2h16z" fill="#033c59"/><path d="m27 55h10a1 1 0 0 0 0-2h-10a1 1 0 0 0 0 2z" fill="#96a1c3"/><path d="m19 50a1 1 0 0 0 1 1h6a1 1 0 0 0 0-2h-5v-5a1 1 0 0 0 -2 0z" fill="#0074ff"/><path d="m44 51a1 1 0 0 0 1-1v-6a1 1 0 0 0 -2 0v5h-5a1 1 0 0 0 0 2z" fill="#0074ff"/><path d="m45 14a1 1 0 0 0 -1-1h-6a1 1 0 0 0 0 2h5v5a1 1 0 0 0 2 0z" fill="#0074ff"/><path d="m26 13h-6a1 1 0 0 0 -1 1v6a1 1 0 0 0 2 0v-5h5a1 1 0 0 0 0-2z" fill="#0074ff"/><g fill="#96a1c3"><path d="m41 27v-6a1 1 0 0 0 -2 0v6a1 1 0 0 0 2 0z"/><path d="m37 27v-6a1 1 0 0 0 -2 0v6a1 1 0 0 0 2 0z"/><path d="m33 27v-6a1 1 0 0 0 -2 0v6a1 1 0 0 0 2 0z"/><path d="m28 20a1 1 0 0 0 -1 1v6a1 1 0 0 0 2 0v-6a1 1 0 0 0 -1-1z"/><path d="m25 27v-6a1 1 0 0 0 -2 0v6a1 1 0 0 0 2 0z"/><path d="m39 37v6a1 1 0 0 0 2 0v-6a1 1 0 0 0 -2 0z"/><path d="m35 37v6a1 1 0 0 0 2 0v-6a1 1 0 0 0 -2 0z"/><path d="m31 37v6a1 1 0 0 0 2 0v-6a1 1 0 0 0 -2 0z"/><path d="m27 37v6a1 1 0 0 0 2 0v-6a1 1 0 0 0 -2 0z"/><path d="m23 37v6a1 1 0 0 0 2 0v-6a1 1 0 0 0 -2 0z"/></g><path d="m20 32a1 1 0 0 0 1 1h22a1 1 0 0 0 0-2h-22a1 1 0 0 0 -1 1z" fill="#0074ff"/></g></svg>