<?xml version="1.0" encoding="iso-8859-1"?>
<!-- Generator: Adobe Illustrator 19.0.0, SVG Export Plug-In . SVG Version: 6.00 Build 0)  -->
<svg version="1.1" id="Capa_1" xmlns="http://www.w3.org/2000/svg" xmlns:xlink="http://www.w3.org/1999/xlink" x="0px" y="0px"
	 viewBox="0 0 512 512" style="enable-background:new 0 0 512 512;" xml:space="preserve">
<path style="fill:#44C4A1;" d="M376,100.7l-28-74.4c-4.8-12-18.4-18.4-31.2-13.6l-230.4,88H376z"/>
<g>
	<path style="fill:#FFFFFF;" d="M283.2,59.9L84,135.9l76.8,201.6l199.2-76c-8-20.8,2.4-44,23.2-52L334.4,82.3
		C314.4,91.1,291.2,80.7,283.2,59.9z"/>
	<path style="fill:#FFFFFF;" d="M425.6,500.7H48c-22.4,0-40-17.6-40-40V138.3c0-22.4,17.6-40,40-40h377.6c32.8,0,60,26.4,60,60
		v282.4C485.6,473.5,458.4,500.7,425.6,500.7z"/>
</g>
<path style="fill:#F15F50;" d="M48,468.7c-4.8,0-8-3.2-8-8V138.3c0-4.8,3.2-8,8-8h377.6c15.2,0,28,12.8,28,28v282.4
	c0,15.2-12.8,28-28,28H48z"/>
<path style="fill:#FFFFFF;" d="M504,355.9H386.4c-31.2,0-56.8-25.6-56.8-56.8l0,0c0-31.2,25.6-56.8,56.8-56.8H504V355.9z"/>
<g>
	<rect x="64" y="428.7" style="fill:#193651;" width="16" height="16"/>
	<rect x="64" y="367.9" style="fill:#193651;" width="16" height="15.2"/>
	<rect x="64" y="398.3" style="fill:#193651;" width="16" height="15.2"/>
	<rect x="64" y="307.1" style="fill:#193651;" width="16" height="15.2"/>
	<rect x="64" y="337.5" style="fill:#193651;" width="16" height="15.2"/>
	<rect x="64" y="276.7" style="fill:#193651;" width="16" height="15.2"/>
	<rect x="64" y="185.5" style="fill:#193651;" width="16" height="15.2"/>
	<rect x="64" y="246.3" style="fill:#193651;" width="16" height="15.2"/>
	<rect x="64" y="215.9" style="fill:#193651;" width="16" height="15.2"/>
	<rect x="64" y="154.3" style="fill:#193651;" width="16" height="16"/>
	<rect x="96" y="428.7" style="fill:#193651;" width="16" height="16"/>
	<rect x="96" y="154.3" style="fill:#193651;" width="16" height="16"/>
	<rect x="349.6" y="154.3" style="fill:#193651;" width="16" height="16"/>
	<rect x="128" y="154.3" style="fill:#193651;" width="16" height="16"/>
	<rect x="128" y="428.7" style="fill:#193651;" width="16" height="16"/>
	<rect x="381.6" y="154.3" style="fill:#193651;" width="16" height="16"/>
	<rect x="413.6" y="195.9" style="fill:#193651;" width="16" height="16"/>
	<path style="fill:#193651;" d="M428.8,178.3c-1.6-7.2-5.6-12.8-11.2-17.6l-9.6,12.8c3.2,2.4,4.8,5.6,5.6,8.8L428.8,178.3z"/>
	<rect x="349.6" y="428.7" style="fill:#193651;" width="16" height="16"/>
	<rect x="318.4" y="428.7" style="fill:#193651;" width="16" height="16"/>
	<rect x="159.2" y="154.3" style="fill:#193651;" width="16" height="16"/>
	<rect x="286.4" y="428.7" style="fill:#193651;" width="16" height="16"/>
	<rect x="286.4" y="154.3" style="fill:#193651;" width="16" height="16"/>
	<rect x="413.6" y="387.1" style="fill:#193651;" width="16" height="16"/>
	<rect x="381.6" y="428.7" style="fill:#193651;" width="16" height="16"/>
	<path style="fill:#193651;" d="M428.8,420.7l-15.2-4c-0.8,3.2-3.2,6.4-5.6,8.8l9.6,12.8C422.4,433.5,427.2,427.1,428.8,420.7z"/>
	<rect x="318.4" y="154.3" style="fill:#193651;" width="16" height="16"/>
	<rect x="254.4" y="428.7" style="fill:#193651;" width="16" height="16"/>
	<rect x="191.2" y="428.7" style="fill:#193651;" width="16" height="16"/>
	<rect x="159.2" y="428.7" style="fill:#193651;" width="16" height="16"/>
	<rect x="191.2" y="154.3" style="fill:#193651;" width="16" height="16"/>
	<rect x="223.2" y="154.3" style="fill:#193651;" width="16" height="16"/>
	<rect x="254.4" y="154.3" style="fill:#193651;" width="16" height="16"/>
	<rect x="223.2" y="428.7" style="fill:#193651;" width="16" height="16"/>
	<path style="fill:#193651;" d="M0,460.7c0,26.4,21.6,48,48,48h377.6c37.6,0,68-30.4,68-68v-76H512V235.1h-18.4v-76
		c0-37.6-30.4-68-68-68h-44.8l-25.6-67.2c-6.4-16.8-24.8-24.8-41.6-18.4L91.2,90.3H48c-26.4,0-48,21.6-48,48V460.7z M496,251.1v97.6
		H386.4c-27.2,0-48.8-21.6-48.8-48.8c0-27.2,21.6-48.8,48.8-48.8H496z M320,20.7c8-3.2,17.6,0.8,20.8,9.6L364,91.1H136L320,20.7z
		 M16,138.3c0-17.6,14.4-32,32-32h377.6c28.8,0,52,23.2,52,52v76h-48v-6.4h-16v6.4h-27.2c-36,0-64.8,28.8-64.8,64.8
		s28.8,64.8,64.8,64.8h27.2v6.4h16v-6.4h48v76c0,28.8-23.2,52-52,52H48c-17.6,0-32-14.4-32-32V138.3z"/>
	<circle style="fill:#193651;" cx="378.4" cy="299.9" r="15.2"/>
</g>
<g>
</g>
<g>
</g>
<g>
</g>
<g>
</g>
<g>
</g>
<g>
</g>
<g>
</g>
<g>
</g>
<g>
</g>
<g>
</g>
<g>
</g>
<g>
</g>
<g>
</g>
<g>
</g>
<g>
</g>
</svg>
