<?xml version="1.0" encoding="iso-8859-1"?>
<!-- Generator: Adobe Illustrator 19.0.0, SVG Export Plug-In . SVG Version: 6.00 Build 0)  -->
<svg version="1.1" id="Capa_1" xmlns="http://www.w3.org/2000/svg" xmlns:xlink="http://www.w3.org/1999/xlink" x="0px" y="0px"
	 viewBox="0 0 513 513" style="enable-background:new 0 0 513 513;" xml:space="preserve">
<rect x="9.15" y="202.6" style="fill:#FFFFFF;" width="494.4" height="302.4"/>
<path style="fill:#193651;" d="M503.55,513H9.15c-4.8,0-8-3.2-8-8V202.6c0-4.8,3.2-8,8-8h494.4c4.8,0,8,3.2,8,8V505
	C511.55,509.8,507.55,513,503.55,513z M17.15,497h478.4V210.6H17.15V497z"/>
<polygon style="fill:#FFBF5D;" points="504.35,505 256.35,284.2 8.35,505 "/>
<path style="fill:#193651;" d="M504.35,513h-496c-3.2,0-6.4-2.4-7.2-4.8c-0.8-3.2,0-6.4,2.4-8.8l248-220.8c3.2-2.4,8-2.4,10.4,0
	l248,220.8c2.4,2.4,3.2,5.6,2.4,8.8C510.75,510.6,507.55,513,504.35,513z M29.15,497h453.6l-226.4-202.4L29.15,497z"/>
<polygon style="fill:#FFFFFF;" points="256.35,9 8.35,202.6 256.35,423.4 504.35,202.6 504.35,202.6 "/>
<path style="fill:#193651;" d="M256.35,431.4c-1.6,0-4-0.8-5.6-2.4l-248-220.8c-1.6-1.6-2.4-4-2.4-6.4s1.6-4.8,3.2-6.4l248-193.6
	c3.2-2.4,7.2-2.4,9.6,0l248,193.6c1.6,1.6,3.2,4,3.2,6.4s-0.8,4.8-2.4,6.4l-248,220.8C260.35,430.6,257.95,431.4,256.35,431.4z
	 M21.15,202.6l235.2,209.6l235.2-209.6L256.35,19.4L21.15,202.6z"/>
<rect x="197.15" y="457" style="fill:#193651;" width="16" height="16"/>
<rect x="248.35" y="457" style="fill:#193651;" width="16" height="16"/>
<rect x="299.55" y="457" style="fill:#193651;" width="16" height="16"/>
<polygon style="fill:#FFFFFF;" points="117.15,52.2 117.15,299.4 256.35,423.4 395.55,299.4 395.55,52.2 "/>
<path id="SVGCleanerId_0" style="fill:#193651;" d="M256.35,433.8l-147.2-131.2V44.2h294.4v258.4L256.35,433.8z M125.15,295.4
	l131.2,116.8l131.2-116.8V60.2h-262.4L125.15,295.4L125.15,295.4z"/>
<path style="fill:#44C4A1;" d="M328.35,87.4h-143.2c0,17.6-14.4,32-32,32v211.2l104,92l104-92V119.4
	C342.75,119.4,328.35,105.8,328.35,87.4z"/>
<g>
	<circle style="fill:#FFFFFF;" cx="256.35" cy="284.2" r="72.8"/>
	<circle style="fill:#FFFFFF;" cx="256.35" cy="139.4" r="17.6"/>
</g>
<g>
	<path id="SVGCleanerId_0_1_" style="fill:#193651;" d="M256.35,433.8l-147.2-131.2V44.2h294.4v258.4L256.35,433.8z M125.15,295.4
		l131.2,116.8l131.2-116.8V60.2h-262.4L125.15,295.4L125.15,295.4z"/>
</g>
<g>
</g>
<g>
</g>
<g>
</g>
<g>
</g>
<g>
</g>
<g>
</g>
<g>
</g>
<g>
</g>
<g>
</g>
<g>
</g>
<g>
</g>
<g>
</g>
<g>
</g>
<g>
</g>
<g>
</g>
</svg>
