<svg id="svg4593" height="512" viewBox="0 0 16.933333 16.933334" width="512" xmlns="http://www.w3.org/2000/svg" xmlns:svg="http://www.w3.org/2000/svg"><clipPath id="clipPath5337"><path id="rect5339" d="m34.774 274.321h35.435v25.702h-35.435z"/></clipPath><clipPath id="clipPath4542"><path id="rect4544" d="m-535.214-48.848h501.574v185.586h-501.574z"/></clipPath><clipPath id="clipPath11017"><path id="rect11019" d="m36.669 153.503h29.654v28.999h-29.654z" transform="rotate(-90)" vector-effect="none"/></clipPath><clipPath id="clipPath11444"><path id="rect11446" d="m-143.933 265.779h28.84v29.104h-28.84z" transform="rotate(-90)" vector-effect="none"/></clipPath><clipPath id="clipPath11781"><rect id="rect11783" height="32.411" rx=".634" transform="rotate(-90)" width="32.941" x="-145.124" y="181.377"/></clipPath><clipPath id="clipPath11499"><path id="rect11501" d="m-551.399-9.261h16.064v16.347h-16.064z" vector-effect="none"/></clipPath><g id="layer1" transform="translate(0 -280.067)"><path id="path1965-62" d="m16.404167 286.06182a3.3368752 3.3368752 0 0 1 -3.336875 3.33688 3.3368752 3.3368752 0 0 1 -3.3368762-3.33688 3.3368752 3.3368752 0 0 1 3.3368762-3.33687 3.3368752 3.3368752 0 0 1 3.336875 3.33687z" fill="#ffc100" vector-effect="none"/><path id="path3329" d="m11.102212 286.02734a3.3368752 3.3368752 0 0 1 -4.6821662.58891 3.3368752 3.3368752 0 0 1 -.5889093-4.68217 3.3368752 3.3368752 0 0 1 4.6821605-.5889 3.3368752 3.3368752 0 0 1 .588915 4.68216z" fill="#ffc100" vector-effect="none"/><path id="rect3689" d="m1.2005941 288.24892h1.9681305c.3719709 0 .6714277.29945.6714277.67142v5.27912c0 .37197-.2994568.67143-.6714277.67143h-1.9681305c-.3719709 0-.67142764-.29946-.67142764-.67143v-5.27912c0-.37197.29945674-.67142.67142764-.67142z" fill="#ffc100" vector-effect="none"/><g fill="#00003a"><path id="rect3858" d="m11.972656 29.921875-7.4335935.002c-1.9425652 0-3.54296875 1.600405-3.54296875 3.542969v19.945312c0 1.942602 1.60038555 3.542969 3.54296875 3.542969h7.4335935c1.942583 0 3.544922-1.600367 3.544922-3.542969v-16.978562c2.167291-.920731 4.486701-2.185508 6.589844-2.777344 1.02482-.341291 2.268183-.228412 2.974609-.01563l9.88086 3.287109c4.934081 1.744228 2.984448 8.348917-1.478516 8.197266-1.484358.08202-1.195007 2.14981.169922 1.992188 2.010235.05474 5.760019-1.728058 6.105469-4.814454l16.015625-2.173828c2.770945-.466204 4.135783.370788 4.886718 1.886719.702569 1.508107.471606 3.495845-1.591797 5.044922l-20.410156 13.07227c-1.39293.866608-3.813775 1.137006-5.476562-.0293l-13.615235-9.708981c-1.091933-.810255-2.282838.861814-1.160156 1.628907l13.707031 9.77539c1.974175 1.261431 4.924597 1.62117 7.61133.02541l20.470702-13.111347c2.53604-1.649197 3.249786-5.297514 2.277343-7.542969-1.083571-2.325959-3.738274-3.656934-7.042968-3.009766l-15.664063 2.126953c-.271748-2.351282-1.782873-4.460835-4.171875-5.255859-3.349253-1.112617-6.762652-2.252225-10.09375-3.355469-1.409036-.440919-2.710056-.356833-4.128906.0918-2.201395.753978-3.76504 1.515377-5.855469 2.466797v-.769531c0-1.942564-1.602357-3.542969-3.544922-3.542969zm-7.4335935 2.001953h7.4335935c.869183 0 1.542969.673791 1.542969 1.542969v19.945312c0 .869178-.673803 1.542969-1.542969 1.542969h-7.4335935c-.8691658 0-1.5429688-.673791-1.5429687-1.542969v-19.945312c0-.869178.673785-1.542969 1.5429687-1.542969z" transform="matrix(.265 0 0 .265 0 280.067)" font-variant-ligatures="normal" font-variant-position="normal" font-variant-caps="normal" font-variant-numeric="normal" font-variant-alternates="normal" font-feature-settings="normal" text-indent="0" text-align="start" text-decoration-line="none" text-decoration-style="solid" text-decoration-color="#000000" text-transform="none" text-orientation="mixed" white-space="normal" shape-padding="0" isolation="auto" mix-blend-mode="normal" solid-color="#000000" solid-opacity="1" vector-effect="none"/><path id="circle2163-5" d="m8.4666666 280.37826c-1.9858945 0-3.6013276 1.61596-3.6013305 3.60185-.008.36069.5371677.36069.5291666 0 .0000024-1.6999 1.3722525-3.07268 3.0721639-3.07268 1.6999124 0 3.0721624 1.37278 3.0721634 3.07268.000003 1.69992-1.372247 3.07216-3.0721634 3.07216-1.0140429 0-1.9107282-.48899-2.4706503-1.24437-.099516-.13426-.1867093-.27612-.2635496-.42581-.1518491-.33852-.6558376-.0813-.4707724.24029.090128.17557.1939989.34295.3105754.50023.6559841.88498 1.7097575 1.45883 2.8943969 1.45883 1.9858994 0 3.6018514-1.61542 3.6018474-3.60133 0-.27037-.03265-.53302-.0894-.78652.338176-.12909.703057-.20412 1.087272-.20412 1.699912 0 3.07216 1.37278 3.072164 3.07268.000003 1.69992-1.372248 3.07216-3.072164 3.07216-1.014044 0-1.908684-.48897-2.468583-1.24437-.02309-.0312-.04689-.0637-.06873-.0956-.191275-.32829-.6727207.002-.435116.29869.02574.0376.051.0752.07803.11162.655968.885 1.70976 1.45883 2.894397 1.45883 1.985899 0 3.601333-1.61542 3.60133-3.60133-.000003-1.98589-1.615435-3.60185-3.60133-3.60185-.43727 0-.820627.0714-1.208195.2155-.592123-1.56041-2.0245283-2.29754-3.3915224-2.29754z" font-variant-ligatures="normal" font-variant-position="normal" font-variant-caps="normal" font-variant-numeric="normal" font-variant-alternates="normal" font-feature-settings="normal" text-indent="0" text-align="start" text-decoration-line="none" text-decoration-style="solid" text-decoration-color="#000000" text-transform="none" text-orientation="mixed" white-space="normal" shape-padding="0" isolation="auto" mix-blend-mode="normal" solid-color="#000000" solid-opacity="1" vector-effect="none"/><path id="path5052" d="m13.024048 284.48406v.10697c-1.03482.31236-.77667 1.84588.25425 1.84588.57453 0 .49957.83922.031.83922-.22271 0-.37711-.105-.43357-.31574-.0874-.34767-.60952-.20792-.5116.13694.0885.33038.34785.57277.65991.66095v.046c-.008.36069.53718.36069.52917 0v-.0522c1.0418-.40939.68273-1.84433-.25373-1.84433-.58519 0-.50868-.84697-.0341-.84697.25999 0 .38478.12984.43666.32349.0859.35202.61497.20881.5116-.13849-.0885-.33045-.34828-.57281-.66042-.66094v-.10077c0-.40345-.52917-.38282-.52917-.00001z" font-variant-ligatures="normal" font-variant-position="normal" font-variant-caps="normal" font-variant-numeric="normal" font-variant-alternates="normal" font-feature-settings="normal" text-indent="0" text-align="start" text-decoration-line="none" text-decoration-style="solid" text-decoration-color="#000000" text-transform="none" text-orientation="mixed" white-space="normal" shape-padding="0" isolation="auto" mix-blend-mode="normal" solid-color="#000000" solid-opacity="1" vector-effect="none"/><path id="path5054" d="m8.2012604 282.32703v.10697c-1.03482.31236-.77667 1.84588.25425 1.84588.57453 0 .49957.83922.031.83922-.22271 0-.37711-.105-.43357-.31574-.0874-.34767-.60952-.20792-.5116.13694.0885.33038.34785.57277.65991.66095v.046c-.008.36069.53718.36069.52917 0v-.0522c1.0418-.40939.68273-1.84433-.25373-1.84433-.58519 0-.50868-.84697-.0341-.84697.25999 0 .38478.12984.43666.32349.0859.35202.61497.20881.5116-.13849-.0885-.33045-.34828-.57281-.66042-.66094v-.10077c0-.38269-.52917-.36025-.52917-.00001z" font-variant-ligatures="normal" font-variant-position="normal" font-variant-caps="normal" font-variant-numeric="normal" font-variant-alternates="normal" font-feature-settings="normal" text-indent="0" text-align="start" text-decoration-line="none" text-decoration-style="solid" text-decoration-color="#000000" text-transform="none" text-orientation="mixed" white-space="normal" shape-padding="0" isolation="auto" mix-blend-mode="normal" solid-color="#000000" solid-opacity="1" vector-effect="none"/></g></g></svg>