<svg id="Icons" height="512" viewBox="0 0 60 60" width="512" xmlns="http://www.w3.org/2000/svg"><rect fill="#c5e0f4" height="58" rx="4" width="34" x="13" y="1"/><path d="m21 1h18a0 0 0 0 1 0 0v3a2 2 0 0 1 -2 2h-14a2 2 0 0 1 -2-2v-3a0 0 0 0 1 0 0z" fill="#4b4b59"/><rect fill="#4e98ec" height="38" rx="4" width="58" x="1" y="12"/><rect fill="#fcd576" height="8" rx="1" width="10" x="5" y="17"/><g fill="#373737"><path d="m55 11h-7v-6a5.006 5.006 0 0 0 -5-5h-26a5.006 5.006 0 0 0 -5 5v3a1 1 0 0 0 2 0v-3a3 3 0 0 1 3-3h3v2a3 3 0 0 0 3 3h14a3 3 0 0 0 3-3v-2h3a3 3 0 0 1 3 3v6h-41a5.006 5.006 0 0 0 -5 5v30a5.006 5.006 0 0 0 5 5h7v4a5.006 5.006 0 0 0 5 5h26a5.006 5.006 0 0 0 5-5v-4h7a5.006 5.006 0 0 0 5-5v-30a5.006 5.006 0 0 0 -5-5zm-17-7a1 1 0 0 1 -1 1h-14a1 1 0 0 1 -1-1v-2h16zm8 51a3 3 0 0 1 -3 3h-26a3 3 0 0 1 -3-3v-4h32zm12-9a3 3 0 0 1 -3 3h-50a3 3 0 0 1 -3-3v-30a3 3 0 0 1 3-3h50a3 3 0 0 1 3 3z"/><path d="m6 26h8a2 2 0 0 0 2-2v-6a2 2 0 0 0 -2-2h-8a2 2 0 0 0 -2 2v6a2 2 0 0 0 2 2zm0-4h4v2h-4zm6 2v-2h2v2zm2-4h-4v-2h4zm-6-2v2h-2v-2z"/><path d="m18 6v-1a1 1 0 0 0 -2 0v1a1 1 0 0 0 2 0z"/><path d="m44 6v-1a1 1 0 0 0 -2 0v1a1 1 0 0 0 2 0z"/><path d="m24 56h12a1 1 0 0 0 0-2h-12a1 1 0 0 0 0 2z"/><path d="m33 42h-2a1 1 0 0 0 0 2h2a1 1 0 0 0 0-2z"/><path d="m27 42h-2a1 1 0 0 0 0 2h2a1 1 0 0 0 0-2z"/><path d="m21 42h-16a1 1 0 0 0 0 2h16a1 1 0 0 0 0-2z"/><path d="m54 16h-16a1 1 0 0 0 0 2h16a1 1 0 0 0 0-2z"/><path d="m5 39a1 1 0 0 0 1-1v-2a1 1 0 0 0 -2 0v2a1 1 0 0 0 1 1z"/><path d="m8 36v2a1 1 0 0 0 2 0v-2a1 1 0 0 0 -2 0z"/><path d="m12 36v2a1 1 0 0 0 2 0v-2a1 1 0 0 0 -2 0z"/><path d="m16 38a1 1 0 0 0 2 0v-2a1 1 0 0 0 -2 0z"/><path d="m25 39a1 1 0 0 0 1-1v-2a1 1 0 0 0 -2 0v2a1 1 0 0 0 1 1z"/><path d="m30 36a1 1 0 0 0 -2 0v2a1 1 0 0 0 2 0z"/><path d="m33 35a1 1 0 0 0 -1 1v2a1 1 0 0 0 2 0v-2a1 1 0 0 0 -1-1z"/><path d="m41 35a1 1 0 0 0 -1 1v2a1 1 0 0 0 2 0v-2a1 1 0 0 0 -1-1z"/><path d="m45 35a1 1 0 0 0 -1 1v2a1 1 0 0 0 2 0v-2a1 1 0 0 0 -1-1z"/><path d="m49 35a1 1 0 0 0 -1 1v2a1 1 0 0 0 2 0v-2a1 1 0 0 0 -1-1z"/></g></svg>