<?xml version="1.0" encoding="iso-8859-1"?>
<!-- Generator: Adobe Illustrator 21.0.0, SVG Export Plug-In . SVG Version: 6.00 Build 0)  -->
<svg xmlns="http://www.w3.org/2000/svg" xmlns:xlink="http://www.w3.org/1999/xlink" version="1.1" id="Capa_1" x="0px" y="0px" viewBox="0 0 512 512" style="enable-background:new 0 0 512 512;" xml:space="preserve" width="512" height="512">
<g>
	<path style="fill:#9C5D35;" d="M256,512L256,512c-8.534,0-15.453-6.918-15.453-15.453l0-282.27c0-8.534,6.918-15.453,15.453-15.453   h0c8.534,0,15.453,6.918,15.453,15.453l0,282.27C271.453,505.082,264.534,512,256,512z"/>
	<g>
		<path style="fill:#B0693C;" d="M173.032,511.606L173.032,511.606c-8.319-1.906-13.517-10.195-11.611-18.514l63.048-275.138    c1.906-8.319,10.195-13.517,18.514-11.611l0,0c8.319,1.906,13.517,10.195,11.611,18.514l-63.048,275.138    C189.639,508.314,181.35,513.512,173.032,511.606z"/>
		<path style="fill:#B0693C;" d="M338.968,511.606L338.968,511.606c8.319-1.906,13.517-10.195,11.611-18.514l-63.048-275.138    c-1.906-8.319-10.195-13.517-18.514-11.611l0,0c-8.319,1.906-13.517,10.195-11.611,18.514l63.048,275.138    C322.361,508.314,330.65,513.512,338.968,511.606z"/>
	</g>
	<g>
		<g>
			
				<ellipse transform="matrix(0.7071 -0.7071 0.7071 0.7071 -20.8757 132.0339)" style="fill:#FF7043;" cx="148.941" cy="91.216" rx="30.977" ry="30.977"/>
			
				<ellipse transform="matrix(0.7071 -0.7071 0.7071 0.7071 10.4241 144.9988)" style="fill:#B5FCFF;" cx="180.241" cy="59.916" rx="23.676" ry="15.441"/>
			
				<ellipse transform="matrix(0.7071 -0.7071 0.7071 0.7071 -52.1756 119.0691)" style="fill:#FDD835;" cx="117.641" cy="122.516" rx="23.676" ry="15.441"/>
			<ellipse style="fill:#B5FCFF;" cx="193.206" cy="91.216" rx="23.676" ry="15.441"/>
			<ellipse style="fill:#FDD835;" cx="104.676" cy="91.216" rx="23.676" ry="15.441"/>
			
				<ellipse transform="matrix(0.7071 -0.7071 0.7071 0.7071 -33.8406 163.3338)" style="fill:#B5FCFF;" cx="180.241" cy="122.516" rx="15.441" ry="23.676"/>
			
				<ellipse transform="matrix(0.7071 -0.7071 0.7071 0.7071 -7.9109 100.7341)" style="fill:#FDD835;" cx="117.641" cy="59.916" rx="15.441" ry="23.676"/>
			<ellipse style="fill:#FDD835;" cx="148.941" cy="135.481" rx="15.441" ry="23.676"/>
			<ellipse style="fill:#FDD835;" cx="148.941" cy="46.952" rx="15.441" ry="23.676"/>
		</g>
		<g>
			
				<ellipse transform="matrix(0.7071 -0.7071 0.7071 0.7071 41.8379 283.438)" style="fill:#FF7043;" cx="363.059" cy="91.216" rx="30.977" ry="30.977"/>
			
				<ellipse transform="matrix(0.7071 -0.7071 0.7071 0.7071 73.1377 296.4028)" style="fill:#FDD835;" cx="394.359" cy="59.916" rx="23.676" ry="15.441"/>
			
				<ellipse transform="matrix(0.7071 -0.7071 0.7071 0.7071 10.538 270.4731)" style="fill:#B5FCFF;" cx="331.759" cy="122.516" rx="23.676" ry="15.441"/>
			<ellipse style="fill:#FDD835;" cx="407.324" cy="91.216" rx="23.676" ry="15.441"/>
			<ellipse style="fill:#B5FCFF;" cx="318.794" cy="91.216" rx="23.676" ry="15.441"/>
			
				<ellipse transform="matrix(0.7071 -0.7071 0.7071 0.7071 28.873 314.7379)" style="fill:#FDD835;" cx="394.359" cy="122.516" rx="15.441" ry="23.676"/>
			
				<ellipse transform="matrix(0.7071 -0.7071 0.7071 0.7071 54.8027 252.1381)" style="fill:#B5FCFF;" cx="331.759" cy="59.916" rx="15.441" ry="23.676"/>
			<ellipse style="fill:#FDD835;" cx="363.059" cy="135.481" rx="15.441" ry="23.676"/>
			<ellipse style="fill:#FDD835;" cx="363.059" cy="46.952" rx="15.441" ry="23.676"/>
		</g>
	</g>
	<g>
		<g>
			
				<ellipse transform="matrix(0.7071 -0.7071 0.7071 0.7071 -106.4045 167.4611)" style="fill:#FF7043;" cx="148.941" cy="212.172" rx="30.977" ry="30.977"/>
			
				<ellipse transform="matrix(0.7071 -0.7071 0.7071 0.7071 -75.1046 180.4259)" style="fill:#B5FCFF;" cx="180.241" cy="180.872" rx="23.676" ry="15.441"/>
			
				<ellipse transform="matrix(0.7071 -0.7071 0.7071 0.7071 -137.7043 154.4963)" style="fill:#B5FCFF;" cx="117.641" cy="243.472" rx="23.676" ry="15.441"/>
			<ellipse style="fill:#B5FCFF;" cx="193.206" cy="212.172" rx="23.676" ry="15.441"/>
			<ellipse style="fill:#B5FCFF;" cx="104.676" cy="212.172" rx="23.676" ry="15.441"/>
			
				<ellipse transform="matrix(0.7071 -0.7071 0.7071 0.7071 -119.3693 198.761)" style="fill:#B5FCFF;" cx="180.241" cy="243.472" rx="15.441" ry="23.676"/>
			
				<ellipse transform="matrix(0.7071 -0.7071 0.7071 0.7071 -93.4396 136.1612)" style="fill:#B5FCFF;" cx="117.641" cy="180.872" rx="15.441" ry="23.676"/>
			<ellipse style="fill:#B5FCFF;" cx="148.941" cy="256.437" rx="15.441" ry="23.676"/>
			<ellipse style="fill:#B5FCFF;" cx="148.941" cy="167.907" rx="15.441" ry="23.676"/>
		</g>
		<g>
			
				<ellipse transform="matrix(0.7071 -0.7071 0.7071 0.7071 -43.6909 318.8651)" style="fill:#FF7043;" cx="363.059" cy="212.172" rx="30.977" ry="30.977"/>
			
				<ellipse transform="matrix(0.7071 -0.7071 0.7071 0.7071 -12.391 331.83)" style="fill:#B5FCFF;" cx="394.359" cy="180.872" rx="23.676" ry="15.441"/>
			
				<ellipse transform="matrix(0.7071 -0.7071 0.7071 0.7071 -74.9907 305.9003)" style="fill:#B5FCFF;" cx="331.759" cy="243.472" rx="23.676" ry="15.441"/>
			<ellipse style="fill:#B5FCFF;" cx="407.324" cy="212.172" rx="23.676" ry="15.441"/>
			<ellipse style="fill:#B5FCFF;" cx="318.794" cy="212.172" rx="23.676" ry="15.441"/>
			
				<ellipse transform="matrix(0.7071 -0.7071 0.7071 0.7071 -56.6557 350.165)" style="fill:#B5FCFF;" cx="394.359" cy="243.472" rx="15.441" ry="23.676"/>
			
				<ellipse transform="matrix(0.7071 -0.7071 0.7071 0.7071 -30.726 287.5652)" style="fill:#B5FCFF;" cx="331.759" cy="180.872" rx="15.441" ry="23.676"/>
			<ellipse style="fill:#B5FCFF;" cx="363.059" cy="256.437" rx="15.441" ry="23.676"/>
			<ellipse style="fill:#B5FCFF;" cx="363.059" cy="167.907" rx="15.441" ry="23.676"/>
		</g>
	</g>
	<path style="fill:#837A91;" d="M351.807,243.123H160.193c-2.276,0-4.121-1.845-4.121-4.121V4.121c0-2.276,1.845-4.121,4.121-4.121   h191.614c2.276,0,4.121,1.845,4.121,4.121v234.881C355.928,241.278,354.083,243.123,351.807,243.123z"/>
	
		<rect x="165.344" y="52.539" transform="matrix(-1.836970e-16 1 -1 -1.836970e-16 377.5614 -134.4386)" style="fill:#F2F0F0;" width="181.312" height="138.044"/>
	<path style="fill:#FDD835;" d="M325.022,23.405H186.978c-4.142,0-7.5,3.357-7.5,7.5v181.313c0,4.143,3.358,7.5,7.5,7.5h138.044   c4.142,0,7.5-3.357,7.5-7.5V30.905C332.522,26.763,329.164,23.405,325.022,23.405z M317.522,204.718H194.478V38.405h123.044   V204.718z"/>
	<g>
		
			<ellipse transform="matrix(0.7071 -0.7071 0.7071 0.7071 -89.3531 249.0886)" style="fill:#FF7043;" cx="256" cy="232.403" rx="31" ry="31"/>
		
			<ellipse transform="matrix(0.7071 -0.7071 0.7071 0.7071 -58.0299 262.0631)" style="fill:#B5FCFF;" cx="287.323" cy="201.08" rx="23.694" ry="15.453"/>
		
			<ellipse transform="matrix(0.7071 -0.7071 0.7071 0.7071 -120.6764 236.1141)" style="fill:#B5FCFF;" cx="224.677" cy="263.726" rx="23.694" ry="15.453"/>
		<ellipse style="fill:#B5FCFF;" cx="300.298" cy="232.403" rx="23.694" ry="15.453"/>
		<ellipse style="fill:#B5FCFF;" cx="211.702" cy="232.403" rx="23.694" ry="15.453"/>
		
			<ellipse transform="matrix(0.7071 -0.7071 0.7071 0.7071 -102.3277 280.4119)" style="fill:#B5FCFF;" cx="287.323" cy="263.726" rx="15.453" ry="23.694"/>
		
			<ellipse transform="matrix(0.7071 -0.7071 0.7071 0.7071 -76.3786 217.7654)" style="fill:#B5FCFF;" cx="224.677" cy="201.08" rx="15.453" ry="23.694"/>
		<ellipse style="fill:#B5FCFF;" cx="256" cy="276.701" rx="15.453" ry="23.694"/>
		<ellipse style="fill:#B5FCFF;" cx="256" cy="188.105" rx="15.453" ry="23.694"/>
	</g>
</g>















</svg>
