<?xml version="1.0" encoding="iso-8859-1"?>
<!-- Generator: Adobe Illustrator 19.0.0, SVG Export Plug-In . SVG Version: 6.00 Build 0)  -->
<svg version="1.1" id="Layer_1" xmlns="http://www.w3.org/2000/svg" xmlns:xlink="http://www.w3.org/1999/xlink" x="0px" y="0px"
	 viewBox="0 0 512 512" style="enable-background:new 0 0 512 512;" xml:space="preserve">
<polygon style="fill:#F8F8F9;" points="354.699,9.253 58.602,9.253 58.602,502.747 453.398,502.747 453.398,107.952 "/>
<polygon style="fill:#EDEDED;" points="354.699,107.952 354.699,9.253 256,9.253 256,502.747 453.398,502.747 453.398,107.952 "/>
<path style="fill:#95D5A7;" d="M217.559,127.497h2.402v31.233c0,3.981,3.227,7.207,7.207,7.207h57.661
	c3.981,0,7.207-3.226,7.207-7.207v-31.233h2.402c2.915,0,5.543-1.756,6.658-4.449c1.115-2.693,0.498-5.794-1.562-7.854
	l-38.441-38.441c-2.814-2.814-7.378-2.814-10.193,0l-38.441,38.441c-2.062,2.06-2.677,5.162-1.563,7.854
	C212.016,125.741,214.644,127.497,217.559,127.497z"/>
<path style="fill:#80CB93;" d="M292.037,158.73v-31.233h2.402c2.915,0,5.543-1.756,6.658-4.449c1.115-2.693,0.498-5.794-1.562-7.854
	l-38.441-38.441c-1.408-1.408-3.252-2.111-5.097-2.111v91.296h28.83C288.811,165.937,292.037,162.711,292.037,158.73z"/>
<g>
	<path style="fill:#2E2D31;" d="M459.94,101.408L361.241,2.709C359.507,0.975,357.153,0,354.699,0H58.602
		c-5.11,0-9.253,4.142-9.253,9.253v493.494c0,5.111,4.143,9.253,9.253,9.253h394.795c5.11,0,9.253-4.142,9.253-9.253V107.952
		C462.651,105.498,461.676,103.145,459.94,101.408z M431.06,98.699h-67.108V31.591L431.06,98.699z M67.855,493.494V18.506h277.59
		v89.446c0,5.111,4.143,9.253,9.253,9.253h89.446v376.289H67.855z"/>
	<path style="fill:#2E2D31;" d="M206.651,129.542h3.084v40.096c0,5.111,4.143,9.253,9.253,9.253h74.024
		c5.11,0,9.253-4.142,9.253-9.253v-40.096h3.084c3.743,0,7.116-2.254,8.549-5.712c1.432-3.458,0.64-7.437-2.006-10.085
		l-49.349-49.349c-3.614-3.612-9.473-3.612-13.085,0l-21.217,21.217v-2.335c0-5.111-4.143-9.253-9.253-9.253
		c-5.11,0-9.253,4.142-9.253,9.253v20.841l-9.627,9.628c-2.646,2.648-3.438,6.626-2.006,10.085
		C199.534,127.288,202.907,129.542,206.651,129.542z M256,84.025l30.106,30.106c-1.46,1.638-2.347,3.795-2.347,6.159v40.096h-55.518
		v-40.096c0-2.364-0.887-4.52-2.347-6.158L256,84.025z"/>
	<path style="fill:#2E2D31;" d="M132.627,240.578h234.41c5.11,0,9.253-4.142,9.253-9.253s-4.143-9.253-9.253-9.253h-234.41
		c-5.11,0-9.253,4.142-9.253,9.253S127.516,240.578,132.627,240.578z"/>
	<path style="fill:#2E2D31;" d="M379.374,259.084H132.627c-5.11,0-9.253,4.142-9.253,9.253c0,5.111,4.143,9.253,9.253,9.253h246.747
		c5.11,0,9.253-4.142,9.253-9.253C388.627,263.226,384.484,259.084,379.374,259.084z"/>
	<path style="fill:#2E2D31;" d="M132.627,314.602H256c5.11,0,9.253-4.142,9.253-9.253c0-5.111-4.143-9.253-9.253-9.253H132.627
		c-5.11,0-9.253,4.142-9.253,9.253C123.373,310.461,127.516,314.602,132.627,314.602z"/>
	<path style="fill:#2E2D31;" d="M132.627,363.952h234.41c5.11,0,9.253-4.142,9.253-9.253c0-5.111-4.143-9.253-9.253-9.253h-234.41
		c-5.11,0-9.253,4.142-9.253,9.253C123.373,359.81,127.516,363.952,132.627,363.952z"/>
	<path style="fill:#2E2D31;" d="M379.374,382.458H132.627c-5.11,0-9.253,4.142-9.253,9.253c0,5.111,4.143,9.253,9.253,9.253h246.747
		c5.11,0,9.253-4.142,9.253-9.253C388.627,386.599,384.484,382.458,379.374,382.458z"/>
	<path style="fill:#2E2D31;" d="M256,419.47H132.627c-5.11,0-9.253,4.142-9.253,9.253s4.143,9.253,9.253,9.253H256
		c5.11,0,9.253-4.142,9.253-9.253S261.11,419.47,256,419.47z"/>
</g>
<g>
</g>
<g>
</g>
<g>
</g>
<g>
</g>
<g>
</g>
<g>
</g>
<g>
</g>
<g>
</g>
<g>
</g>
<g>
</g>
<g>
</g>
<g>
</g>
<g>
</g>
<g>
</g>
<g>
</g>
</svg>
