<?xml version="1.0" encoding="iso-8859-1"?>
<!-- Generator: Adobe Illustrator 19.0.0, SVG Export Plug-In . SVG Version: 6.00 Build 0)  -->
<svg version="1.1" id="Capa_1" xmlns="http://www.w3.org/2000/svg" xmlns:xlink="http://www.w3.org/1999/xlink" x="0px" y="0px"
	 viewBox="0 0 515.2 515.2" style="enable-background:new 0 0 515.2 515.2;" xml:space="preserve">
<rect x="106.8" y="291.2" style="fill:#FFFFFF;" width="301.6" height="42.4"/>
<path style="fill:#193651;" d="M417.2,341.6H98.8v-58.4h317.6v58.4H417.2z M114.8,325.6h285.6v-26.4H114.8V325.6z"/>
<polygon style="fill:#FFFFFF;" points="369.2,507.2 146.8,507.2 128.4,333.6 387.6,333.6 "/>
<path style="fill:#193651;" d="M376.4,515.2H139.6l-20-189.6h276.8L376.4,515.2z M154,499.2h208l16-157.6H137.2L154,499.2z"/>
<polygon style="fill:#D3D7DA;" points="175.6,475.2 163.6,365.6 352.4,365.6 340.4,475.2 "/>
<path style="fill:#FFBF5D;" d="M258,173.6c40.8,0,68-40.8,54.4-78.4c-12-30.4-29.6-59.2-54.4-84l0,0c-24.8,24.8-42.4,53.6-54.4,84
	C190,133.6,217.2,173.6,258,173.6L258,173.6z"/>
<g>
	<path style="fill:#193651;" d="M258,181.6c-21.6,0-41.6-10.4-54.4-28c-12-17.6-15.2-40.8-7.2-61.6c12-32.8,31.2-61.6,56-87.2L258,0
		l5.6,5.6c24.8,24.8,44,54.4,56,87.2c8,20.8,4.8,43.2-8,61.6C299.6,172,279.6,181.6,258,181.6z M258,22.4
		c-20.8,21.6-36,47.2-46.4,75.2c-5.6,16-4,32.8,5.6,46.4c9.6,13.6,24,21.6,40.8,21.6s31.2-8,40.8-21.6c9.6-13.6,12-30.4,5.6-46.4
		C294,70.4,278.8,44.8,258,22.4z"/>
	<path style="fill:#193651;" d="M275.6,120.8c0-9.6-8-17.6-17.6-17.6c-4.8,0-8.8-4-8.8-8.8s4-8.8,8.8-8.8s8.8,4,8.8,8.8h8.8
		c0-8-5.6-15.2-12.8-16.8v-6.4H254v6.4c-7.2,2.4-12.8,8.8-12.8,16.8c0,9.6,8,17.6,17.6,17.6c4.8,0,8.8,4,8.8,8.8s-4,8.8-8.8,8.8
		s-8.8-4-8.8-8.8h-8.8c0,8,5.6,15.2,12.8,16.8v6.4h8.8v-6.4C270,135.2,275.6,128.8,275.6,120.8z"/>
</g>
<rect x="250" y="173.6" style="fill:#193651;" width="16" height="116.8"/>
<path style="fill:#44C4A1;" d="M390.8,142.4c28.8,28.8,76.8,19.2,93.6-17.6C498.8,95.2,506,62.4,506,27.2l0,0
	c-35.2,0-68,7.2-97.6,20.8C371.6,65.6,362,113.6,390.8,142.4L390.8,142.4z"/>
<g>
	<path style="fill:#193651;" d="M431.6,167.2L431.6,167.2c-17.6,0-33.6-7.2-46.4-19.2c-15.2-15.2-22.4-36.8-18.4-58.4
		s18.4-39.2,37.6-48.8c32-14.4,65.6-21.6,100.8-21.6h8v8c0,35.2-7.2,68.8-21.6,100.8C481.2,152,458,167.2,431.6,167.2z M498,35.2
		c-29.6,0.8-59.2,8-86.4,20C396.4,62.4,386,76,382.8,92c-3.2,16,2.4,32,13.6,44c9.6,9.6,21.6,14.4,35.2,14.4
		c20,0,37.6-11.2,45.6-29.6C490,94.4,497.2,65.6,498,35.2z"/>
	<path style="fill:#193651;" d="M441.2,116.8c7.2-7.2,7.2-17.6,0-24.8c-3.2-3.2-3.2-8.8,0-12s8.8-3.2,12,0s3.2,8.8,0,12l6.4,6.4
		c5.6-5.6,6.4-14.4,2.4-20.8l4.8-4.8l-6.4-6.4l-4.8,4.8c-6.4-4-15.2-3.2-20.8,2.4c-7.2,7.2-7.2,17.6,0,24.8c3.2,3.2,3.2,8.8,0,12
		s-8.8,3.2-12,0s-3.2-8.8,0-12l-6.4-6.4c-5.6,5.6-6.4,14.4-3.2,21.6l-4.8,4.8l6.4,6.4l4.8-4.8C426.8,123.2,435.6,122.4,441.2,116.8z
		"/>
	<path style="fill:#193651;" d="M323.6,293.6C294,192.8,386,136,386.8,136l8,13.6c-3.2,2.4-82.4,51.2-56,140L323.6,293.6z"/>
</g>
<path style="fill:#44C4A1;" d="M125.2,142.4c-28.8,28.8-76.8,19.2-93.6-17.6C17.2,95.2,10,62.4,10,27.2l0,0c35.2,0,68,7.2,97.6,20.8
	C144.4,65.6,154,113.6,125.2,142.4L125.2,142.4z"/>
<g>
	<path style="fill:#193651;" d="M84.4,167.2c-25.6,0-49.6-15.2-60.8-39.2C9.2,96.8,2,62.4,2,27.2v-8h8c35.2,0,68.8,7.2,100.8,21.6
		c20,8.8,34.4,27.2,37.6,48.8c4,21.6-2.4,42.4-18.4,58.4C118,160,102,167.2,84.4,167.2z M18,35.2c0.8,30.4,8,59.2,20.8,86.4
		c8,18.4,25.6,29.6,45.6,29.6c12.8,0,25.6-4.8,35.2-14.4c12-12,16.8-28,13.6-44C130,76,119.6,63.2,104.4,56
		C77.2,43.2,48.4,36.8,18,35.2z"/>
	<path style="fill:#193651;" d="M99.6,92c-7.2-7.2-17.6-7.2-24.8,0c-3.2,3.2-8.8,3.2-12,0s-3.2-8.8,0-12s8.8-3.2,12,0l6.4-6.4
		c-5.6-5.6-14.4-6.4-20.8-2.4l-4.8-4.8l-6.4,6.4l4.8,4.8c-4,6.4-3.2,15.2,2.4,20.8c7.2,7.2,17.6,7.2,24.8,0c3.2-3.2,8.8-3.2,12,0
		s3.2,8.8,0,12s-8.8,3.2-12,0l-6.4,6.4c5.6,5.6,14.4,6.4,20.8,2.4l4.8,4.8l6.4-6.4l-4-4C106,106.4,105.2,97.6,99.6,92z"/>
	<path style="fill:#193651;" d="M192.4,293.6l-15.2-4.8c26.4-88.8-55.2-139.2-56-140l8-13.6C130,136,222,192.8,192.4,293.6z"/>
</g>
<rect x="198.8" y="412.8" style="fill:#193651;" width="16" height="16"/>
<rect x="250" y="412.8" style="fill:#193651;" width="16" height="16"/>
<rect x="301.2" y="412.8" style="fill:#193651;" width="16" height="16"/>
<g>
</g>
<g>
</g>
<g>
</g>
<g>
</g>
<g>
</g>
<g>
</g>
<g>
</g>
<g>
</g>
<g>
</g>
<g>
</g>
<g>
</g>
<g>
</g>
<g>
</g>
<g>
</g>
<g>
</g>
</svg>
