<?xml version="1.0" encoding="iso-8859-1"?>
<!-- Generator: Adobe Illustrator 19.0.0, SVG Export Plug-In . SVG Version: 6.00 Build 0)  -->
<svg version="1.1" id="Capa_1" xmlns="http://www.w3.org/2000/svg" xmlns:xlink="http://www.w3.org/1999/xlink" x="0px" y="0px"
	 viewBox="0 0 512.43 512.43" style="enable-background:new 0 0 512.43 512.43;" xml:space="preserve">
<path style="fill:#FFFFFF;" d="M484.8,108.215h-69.6l18.4-68c4.8-16.8,22.4-30.4,39.2-30.4h7.2c16.8,0,27.2,13.6,22.4,30.4
	L484.8,108.215z"/>
<path style="fill:#F15F50;" d="M476.8,9.815c-19.2,0-39.2,15.2-44,34.4l-7.2,26.4l-85.6,320l-29.6,111.2h-300l122.4-457.6
	c4.8-19.2,24.8-34.4,44-34.4C176.8,9.815,476.8,9.815,476.8,9.815z"/>
<path style="fill:#FFFFFF;" d="M52,469.815l114.4-425.6c0-0.8,0.8-1.6,2.4-1.6h232c0,0.8-114.4,427.2-114.4,427.2H52z"/>
<g>
	<path style="fill:#193651;" d="M203.2,342.615L203.2,342.615c-11.2,0-17.6-8.8-15.2-20c3.2-11.2,14.4-20,25.6-20
		c11.2,0,17.6,8.8,15.2,20h16c4.8-16.8-4-31.2-19.2-35.2l4-16h-16l-4,16c-16.8,4-32.8,17.6-37.6,35.2c-5.6,20,6.4,36,26.4,36
		c11.2,0,17.6,8.8,15.2,20c-3.2,11.2-14.4,20-25.6,20c-11.2,0-17.6-8.8-15.2-20h-16c-4,16.8,3.2,31.2,19.2,35.2l-4,16h16l4-16
		c16.8-4,32.8-17.6,37.6-35.2C235.2,358.615,223.2,342.615,203.2,342.615z"/>
	<path style="fill:#193651;" d="M476.8,1.815L476.8,1.815H177.6c-23.2,0-45.6,17.6-52,40.8L0,510.615h316l105.6-394.4h69.6l20-73.6
		C516,23.415,507.2,1.815,476.8,1.815z M304,494.615H20.8l120-448c4-15.2,20.8-28.8,36-28.8h260.8c-5.6,5.6-9.6,12.8-12,20.8
		L304,494.615z M495.2,38.615l-16.8,61.6h-52.8l14.4-53.6c4-15.2,20.8-28.8,36-28.8h4C492,17.815,498.4,26.615,495.2,38.615z"/>
	<rect x="188" y="78.615" style="fill:#193651;" width="166.4" height="16"/>
	<rect x="175.2" y="126.615" style="fill:#193651;" width="166.4" height="16"/>
	<rect x="162.4" y="173.815" style="fill:#193651;" width="8" height="16"/>
	<rect x="187.2" y="173.815" style="fill:#193651;" width="16.8" height="16"/>
	<rect x="220.8" y="173.815" style="fill:#193651;" width="16.8" height="16"/>
	<rect x="288" y="173.815" style="fill:#193651;" width="16.8" height="16"/>
	<rect x="254.4" y="173.815" style="fill:#193651;" width="16.8" height="16"/>
	<rect x="321.6" y="173.815" style="fill:#193651;" width="8" height="16"/>
	<rect x="150.4" y="221.015" style="fill:#193651;" width="166.4" height="16"/>
</g>
<g>
</g>
<g>
</g>
<g>
</g>
<g>
</g>
<g>
</g>
<g>
</g>
<g>
</g>
<g>
</g>
<g>
</g>
<g>
</g>
<g>
</g>
<g>
</g>
<g>
</g>
<g>
</g>
<g>
</g>
</svg>
