<?xml version="1.0" encoding="iso-8859-1"?>
<!-- Generator: Adobe Illustrator 19.0.0, SVG Export Plug-In . SVG Version: 6.00 Build 0)  -->
<svg version="1.1" id="Capa_1" xmlns="http://www.w3.org/2000/svg" xmlns:xlink="http://www.w3.org/1999/xlink" x="0px" y="0px"
	 viewBox="0 0 512.858 512.858" style="enable-background:new 0 0 512.858 512.858;" xml:space="preserve">
<path style="fill:#F15F50;" d="M503.619,66.829l-247.2-58.4l-247.2,58.4c0,0-23.2,371.2,247.2,437.6
	C526.819,438.029,503.619,66.829,503.619,66.829z"/>
<path style="fill:#193651;" d="M256.419,512.429c-191.2-46.4-267.2-261.6-255.2-452l255.2-60l255.2,60.8
	C523.619,249.229,449.219,466.029,256.419,512.429z M16.419,73.229c-0.8,47.2-0.8,362.4,240,423.2c240.8-60.8,240.8-376,240-423.2
	l-240-56.8L16.419,73.229z"/>
<path style="fill:#FFFFFF;" d="M256.419,471.629c-197.6-54.4-215.2-301.6-216-379.2l216-51.2l216,51.2
	C471.619,170.029,453.219,417.229,256.419,471.629z"/>
<circle style="fill:#E1E6E9;" cx="256.419" cy="238.029" r="134.4"/>
<circle style="fill:#FFBF5D;" cx="256.419" cy="238.029" r="104.8"/>
<g>
	<rect x="178.819" y="229.229" style="fill:#193651;" width="16" height="18.4"/>
	<rect x="318.019" y="229.229" style="fill:#193651;" width="16" height="18.4"/>
	<path style="fill:#193651;" d="M256.419,230.029L256.419,230.029c-11.2,0-20.8-9.6-20.8-20.8s9.6-20.8,20.8-20.8
		s20.8,9.6,20.8,20.8h16c0-17.6-12.8-32.8-28.8-36v-16h-16v16c-16.8,4-28.8,18.4-28.8,36c0,20.8,16.8,36.8,36.8,36.8
		c11.2,0,20.8,9.6,20.8,20.8c0,11.2-9.6,20.8-20.8,20.8c-11.2,0-20.8-9.6-20.8-20.8h-16c0,16.8,12,32,28.8,36v16h16v-16
		c16.8-4,28.8-18.4,28.8-36C293.219,246.829,277.219,230.029,256.419,230.029z"/>
</g>
<g>
</g>
<g>
</g>
<g>
</g>
<g>
</g>
<g>
</g>
<g>
</g>
<g>
</g>
<g>
</g>
<g>
</g>
<g>
</g>
<g>
</g>
<g>
</g>
<g>
</g>
<g>
</g>
<g>
</g>
</svg>
