<svg height="512" viewBox="0 0 96 96" width="512" xmlns="http://www.w3.org/2000/svg"><g id="Folder"><path d="m90.41 16.11-9.41 60.08c-16.56-2.59 27.49 4.32-43.87-6.9 9.81-62.68 8.17-52.23 9.4-60.08z" fill="#919af7"/><path d="m81.49 63.91-24.11 8.57-20.29-3.19 9.01-57.29 5.47-2 11.43 1.79c4.71 13.34 8.86 25.01 18.49 52.12z" fill="#7d7ced"/><path d="m79.81 29.25v46.75l-42.72-6.71 6.29-40z" fill="#7d7ced"/><path d="m71.85 58.3-41.85 14.88c-6.95-19.54-7.17-20.18-17.1-48.11l5.93-12.47 32.65-11.6c8.2 23.06 12.2 34.3 20.37 57.3z" fill="#a0aef7"/><path d="m52.65 16.23-3-8.45a1.76 1.76 0 0 0 -2.27-1.08l-20.14 7.16a1.76 1.76 0 0 0 -1.18 1.66v1.4a2.08 2.08 0 0 0 2.08 2.08h22.55a2.08 2.08 0 0 0 1.96-2.77z" fill="#b4c2f7"/><path d="m69.1 50.56v8.72l-39.1 13.9-5.31-14.94v-30.89h36.16z" fill="#919af7"/><path d="m37 49.76v8h-12.48l-7.61-21.41h7a8.35 8.35 0 0 1 7 3.9c6.33 10.2 5.83 9.51 6.09 9.51z" fill="#828bf7"/><path d="m22.1 21.81-9.2 3.26 5.93-12.47z" fill="#828bf7"/><path d="m28.81 25h44.41v60.82h-44.41z" fill="#c3c7f2"/><path d="m68.23 34v12a3.75 3.75 0 0 1 -3.75 3.74c-29.34 0-27.63.07-27.75-.13-2.44-3.93-2.92-4.38-2.92-5.78v-9.83a4 4 0 0 1 4-4h26.43a4 4 0 0 1 3.99 4z" fill="#e1eafc"/><rect fill="#f5f5f5" height="11.88" rx="1.29" width="14.86" x="43.59" y="34.75"/><path d="m89.79 57v35a3 3 0 0 1 -3 3h-78.17a3 3 0 0 1 -3-3v-47.36a4.3 4.3 0 0 1 4.29-4.29h14a4.3 4.3 0 0 1 3.64 2l5.81 9.37a4.31 4.31 0 0 0 3.64 2h49.59a3.2 3.2 0 0 1 3.2 3.28z" fill="#ffa57d"/><path d="m83.92 53.76v19.94a3.91 3.91 0 0 1 -3.92 3.91h-64.63a3.91 3.91 0 0 1 -3.91-3.91c0-34.74-.12-32.37.28-33.35h12.14a4.3 4.3 0 0 1 3.64 2l5.81 9.37a4.31 4.31 0 0 0 3.64 2z" fill="#ffbe91"/><path d="m37 53.76h-31.41v-9.12a4.3 4.3 0 0 1 4.29-4.29h14a4.3 4.3 0 0 1 3.64 2l5.81 9.37a4.31 4.31 0 0 0 3.67 2.04z" fill="#6e90ed"/><path d="m37 53.76h-25.54c0-13.32-.1-12.47.28-13.41h12.14a4.3 4.3 0 0 1 3.64 2l5.81 9.37a4.31 4.31 0 0 0 3.67 2.04z" fill="#8cb3ed"/><path d="m37 53.76h-4.86a4.31 4.31 0 0 1 -3.64-2l-5.81-9.37a4.3 4.3 0 0 0 -3.64-2h4.83a4.3 4.3 0 0 1 3.64 2l5.81 9.37a4.31 4.31 0 0 0 3.67 2z" fill="#c3e5ff"/><rect fill="#e1eafc" height="7.54" rx=".94" width="15.91" x="12.9" y="80.56"/><rect fill="#ffbe91" height="4.56" rx="2.28" width="20.42" x="34.58" y="83.54"/><path d="m26.33 53.76h36.92a0 0 0 0 1 0 0v2.5a2.07 2.07 0 0 1 -2.07 2.07h-32.78a2.07 2.07 0 0 1 -2.07-2.07v-2.5a0 0 0 0 1 0 0z" fill="#ffe6af"/><g fill="#302d3d"><path d="m63.75 45.24a1 1 0 0 0 0-2h-25.46a1 1 0 0 0 0 2z"/><path d="m56.3 38.08h7.45a1 1 0 0 0 0-2h-7.45a1 1 0 0 0 0 2z"/><path d="m38.56 38.08h12.44a1 1 0 0 0 0-2h-12.44a1 1 0 0 0 0 2z"/><path d="m86.59 52.76h-.94l5.74-36.5a1 1 0 0 0 -.83-1.14l-35-5.5-3.14-8.95a1 1 0 0 0 -1.27-.61c-34.15 12.13-32.81 11.56-33.15 11.94-.09.12.26-.59-6 12.65a1.08 1.08 0 0 0 0 .77c.1.1 0-.1 4.95 13.94h-7a5.3 5.3 0 0 0 -5.29 5.29v47.35a4 4 0 0 0 4 4h78.1a4 4 0 0 0 4-4v-35a4.2 4.2 0 0 0 -4.17-4.24zm2.67-35.82-5.63 35.82h-9.4v-27.76a1 1 0 0 0 -1-1h-28l2.14-13.65c13.55 2.12-12.59-1.97 41.89 6.59zm-52.26 35.82a3.28 3.28 0 0 1 -2.79-1.55l-4.37-7v-18.21h42.39v26.76zm-18.3-37.55 2.12 6-6 2.12zm-4.52 10.47 8.26-2.93a1 1 0 0 0 .6-1.28l-2.93-8.26 30.77-10.93 2.48 7-6.68-1a1 1 0 0 0 -1.14.83l-2.35 14.89h-14.38a1 1 0 0 0 -1 1v16.11a5.29 5.29 0 0 0 -3.93-1.76h-4.88zm-7.59 19a3.3 3.3 0 0 1 3.29-3.29h14a3.31 3.31 0 0 1 2.79 1.55c6.41 10.34 5.81 9.39 6.16 9.86h-26.24zm82.2 47.32a2 2 0 0 1 -2 2h-78.17a2 2 0 0 1 -2-2v-37.24h80a2.2 2.2 0 0 1 2.17 2.24z"/><path d="m28.81 79.56h-15.91a1 1 0 0 0 -1 1v7.54a1 1 0 0 0 1 1h15.91a1 1 0 0 0 1-1v-7.54a1 1 0 0 0 -1-1zm-1 7.54h-13.91v-5.54h13.91z"/></g></g></svg>