<svg id="Layer_3" enable-background="new 0 0 64 64" height="512" viewBox="0 0 64 64" width="512" xmlns="http://www.w3.org/2000/svg"><g><path d="m43 48v10c0 2.209-1.791 4-4 4h-26c-2.209 0-4-1.791-4-4v-52c0-2.209 1.791-4 4-4h26c2.209 0 4 1.791 4 4v13" fill="#2c7cf7"/><path d="m39 61h-25c-1.105 0-2-.895-2-2v-54c0-1.105.895-2 2-2h25c1.105 0 2 .895 2 2v54c0 1.105-.895 2-2 2z" fill="#47aaf8"/><path d="m40 6c0-.552-.448-1-1-1h-5.5c-.828 0-1.5.672-1.5 1.5 0 .828-.672 1.5-1.5 1.5h-9c-.828 0-1.5-.672-1.5-1.5 0-.828-.672-1.5-1.5-1.5h-5.5c-.552 0-1 .448-1 1v52c0 .552.448 1 1 1h26c.552 0 1-.448 1-1" fill="#ccc"/><path d="m40 6c0-.552-.448-1-1-1h-5.5c-.828 0-1.5.672-1.5 1.5s-.672 1.5-1.5 1.5h-9c-.828 0-1.5-.672-1.5-1.5s-.672-1.5-1.5-1.5h-3.5v43c0 2.209 1.791 4 4 4h21" fill="#f2f2f2"/><path d="m18 50v-32c0-1.105.895-2 2-2h32c1.105 0 2 .895 2 2v32c0 1.105-.895 2-2 2h-32c-1.105 0-2-.895-2-2z" fill="#b5b5b5"/><g><path d="m30 6h-8c-.552 0-1-.448-1-1s.448-1 1-1h8c.552 0 1 .448 1 1s-.448 1-1 1z" fill="#575659"/></g><path d="m23 5h6c.552 0 1-.448 1-1h-8c0 .552.448 1 1 1z" fill="#706f73"/><path d="m20 48v-32c0-1.105.895-2 2-2h32c1.105 0 2 .895 2 2v32c0 1.105-.895 2-2 2h-32c-1.105 0-2-.895-2-2z" fill="#575659"/><path d="m52 48h-28c-1.105 0-2-.895-2-2v-28c0-1.105.895-2 2-2h28c1.105 0 2 .895 2 2v28c0 1.105-.895 2-2 2z" fill="#706f73"/><path d="m51 46h-26c-1.105 0-2-.895-2-2v-25c0-1.105.895-2 2-2h26c1.105 0 2 .895 2 2v25c0 1.105-.895 2-2 2z" fill="#fff"/><g fill="#454547"><path d="m37 17h2v2h-2z"/><path d="m43 22v-5h-2v4h-4v2h5c.553 0 1-.447 1-1z"/><path d="m47 28c0-.553-.447-1-1-1h-5v2h4v4h2z"/><path d="m51 31h2v2h-2z"/><path d="m49 29h2v2h-2z"/><path d="m43 23h2v2h-2z"/><path d="m45 21h2v2h-2z"/><path d="m49 23h2v-5c0-.553-.447-1-1-1h-5v2h4z"/><path d="m49 25h2v2h-2z"/><path d="m23 31h2v2h-2z"/><path d="m29 36v-5h-2v4h-4v2h5c.553 0 1-.447 1-1z"/><path d="m32 41h-5v2h4v4h2v-5c0-.553-.447-1-1-1z"/><path d="m37 45h2v2h-2z"/><path d="m35 43h2v2h-2z"/><path d="m29 37h2v2h-2z"/><path d="m31 35h2v2h-2z"/><path d="m35 39h2v2h-2z"/><path d="m37 25h2v3h-2z"/><path d="m52 36h-5v2h4v6h-6v-8h-2v9c0 .553.447 1 1 1h8c.553 0 1-.447 1-1v-8c0-.553-.447-1-1-1z"/><path d="m47 40h2v2h-2z"/><path d="m41 31h2v2h-2z"/><path d="m24 27h3v2h2v-2h3c.553 0 1-.447 1-1v-8c0-.553-.447-1-1-1h-8c-.553 0-1 .447-1 1v8c0 .553.447 1 1 1zm1-8h6v6h-6z"/><path d="m27 21h2v2h-2z"/><path d="m37 33v-1c0-.553-.447-1-1-1h-5v2h4v4h2v-2h2v-2z"/><path d="m39 35h2v6h-2z"/><path d="m39 43h2v2h-2z"/><path d="m35 19h2v2h-2z"/><path d="m35 23h2v2h-2z"/><path d="m33 27h2v2h-2z"/><path d="m27 45h2v2h-2z"/><path d="m25 43h2v2h-2z"/><path d="m25 39h2v2h-2z"/></g><path d="m22 4h8v2h-8z"/><path d="m56 13h-12v-7c0-2.757-2.243-5-5-5h-26c-2.757 0-5 2.243-5 5v52c0 2.757 2.243 5 5 5h26c2.757 0 5-2.243 5-5v-7h12c.553 0 1-.447 1-1v-36c0-.553-.447-1-1-1zm-14 45c0 1.654-1.346 3-3 3h-26c-1.654 0-3-1.346-3-3v-52c0-1.654 1.346-3 3-3h26c1.654 0 3 1.346 3 3v7h-1v-7c0-1.103-.897-2-2-2h-5.5c-1.379 0-2.5 1.121-2.5 2.5 0 .275-.225.5-.5.5h-9c-.275 0-.5-.225-.5-.5 0-1.379-1.121-2.5-2.5-2.5h-5.5c-1.103 0-2 .897-2 2v52c0 1.103.897 2 2 2h26c1.103 0 2-.897 2-2v-7h1zm-22-7h19v7h-26v-52h5.5c.275 0 .5.225.5.5 0 1.379 1.121 2.5 2.5 2.5h9c1.379 0 2.5-1.121 2.5-2.5 0-.275.225-.5.5-.5h5.5v7h-19c-.553 0-1 .447-1 1v36c0 .553.447 1 1 1zm35-2h-34v-34h34z"/><path d="m37 17h2v2h-2z"/><path d="m43 22v-5h-2v4h-4v2h5c.553 0 1-.447 1-1z"/><path d="m47 28c0-.553-.447-1-1-1h-5v2h4v4h2z"/><path d="m51 31h2v2h-2z"/><path d="m49 29h2v2h-2z"/><path d="m43 23h2v2h-2z"/><path d="m45 21h2v2h-2z"/><path d="m49 23h2v-5c0-.553-.447-1-1-1h-5v2h4z"/><path d="m49 25h2v2h-2z"/><path d="m23 31h2v2h-2z"/><path d="m29 36v-5h-2v4h-4v2h5c.553 0 1-.447 1-1z"/><path d="m32 41h-5v2h4v4h2v-5c0-.553-.447-1-1-1z"/><path d="m37 45h2v2h-2z"/><path d="m35 43h2v2h-2z"/><path d="m29 37h2v2h-2z"/><path d="m31 35h2v2h-2z"/><path d="m35 39h2v2h-2z"/><path d="m37 25h2v3h-2z"/><path d="m52 36h-5v2h4v6h-6v-8h-2v9c0 .553.447 1 1 1h8c.553 0 1-.447 1-1v-8c0-.553-.447-1-1-1z"/><path d="m47 40h2v2h-2z"/><path d="m41 31h2v2h-2z"/><path d="m24 27h3v2h2v-2h3c.553 0 1-.447 1-1v-8c0-.553-.447-1-1-1h-8c-.553 0-1 .447-1 1v8c0 .553.447 1 1 1zm1-8h6v6h-6z"/><path d="m27 21h2v2h-2z"/><path d="m37 33v-1c0-.553-.447-1-1-1h-5v2h4v4h2v-2h2v-2z"/><path d="m39 35h2v6h-2z"/><path d="m39 43h2v2h-2z"/><path d="m35 19h2v2h-2z"/><path d="m35 23h2v2h-2z"/><path d="m33 27h2v2h-2z"/><path d="m27 45h2v2h-2z"/><path d="m25 43h2v2h-2z"/><path d="m25 39h2v2h-2z"/></g></svg>