<?xml version="1.0" standalone="no"?>
<!DOCTYPE svg PUBLIC "-//W3C//DTD SVG 20010904//EN"
 "http://www.w3.org/TR/2001/REC-SVG-20010904/DTD/svg10.dtd">
<svg version="1.0" xmlns="http://www.w3.org/2000/svg"
 width="512.000000pt" height="512.000000pt" viewBox="0 0 512.000000 512.000000"
 preserveAspectRatio="xMidYMid meet">

<g transform="translate(0.000000,512.000000) scale(0.100000,-0.100000)"
fill="#000000" stroke="none">
<path d="M225 5101 c-22 -10 -52 -31 -67 -47 -59 -63 -58 -52 -58 -664 l0
-561 25 -24 c13 -14 36 -25 50 -25 14 0 37 11 50 25 l25 24 0 551 c0 537 0
550 20 570 20 20 33 20 1590 20 1557 0 1570 0 1590 -20 20 -20 20 -33 20 -934
l0 -914 -52 -12 c-29 -6 -76 -24 -105 -40 l-53 -30 -1424 0 c-1341 0 -1425 -1
-1445 -17 -11 -10 -24 -32 -27 -50 -5 -26 -1 -37 19 -57 l26 -26 1212 0 c1154
0 1211 -1 1197 -17 -33 -38 -48 -83 -48 -143 l0 -60 -1176 0 -1176 0 -29 -29
c-34 -35 -36 -59 -8 -95 l20 -26 1247 0 1247 0 288 -288 287 -287 0 -658 c0
-644 0 -657 -20 -677 -20 -20 -33 -20 -1588 -20 -1403 0 -1570 2 -1590 16
l-22 15 0 1465 0 1465 -25 24 c-31 32 -69 32 -100 0 l-25 -24 0 -1473 c0
-1412 1 -1475 19 -1513 44 -96 107 -125 266 -125 l115 0 0 -125 c0 -137 10
-178 58 -229 15 -16 45 -37 67 -47 38 -18 104 -19 1635 -19 1531 0 1597 1
1635 19 22 10 52 31 67 47 60 64 58 40 58 789 l0 686 -25 24 c-31 32 -69 32
-100 0 l-25 -24 0 -676 c0 -662 0 -675 -20 -695 -20 -20 -33 -20 -1590 -20
-1557 0 -1570 0 -1590 20 -18 18 -20 33 -20 135 l0 115 1400 0 c1244 0 1405 2
1438 16 49 20 90 60 113 109 17 37 19 77 19 633 l0 593 28 -19 c66 -47 145
-51 220 -13 44 23 152 132 177 181 29 53 26 134 -7 192 l-26 46 40 39 c21 21
51 63 66 93 37 75 38 189 3 268 l-24 54 99 99 c67 67 196 173 395 324 163 124
311 242 329 262 173 197 109 511 -128 628 -157 77 -346 42 -467 -86 -28 -30
-107 -128 -175 -219 l-125 -165 -5 550 c-5 603 -3 576 -67 637 -49 47 -91 58
-218 58 l-115 0 0 128 c0 141 -13 184 -66 234 -66 62 50 58 -1696 58 -1529 0
-1595 -1 -1633 -19z m3623 -567 l22 -15 0 -632 0 -632 -104 -104 c-85 -85
-107 -102 -125 -96 l-21 6 0 745 0 744 103 0 c77 0 108 -4 125 -16z m859 -739
c59 -25 96 -59 127 -115 53 -97 34 -223 -45 -296 -39 -37 -495 -383 -513 -390
-13 -5 -236 202 -236 219 0 7 91 131 203 277 186 243 206 267 256 293 64 32
149 37 208 12z m-632 -995 l-80 -80 -110 110 -110 110 80 80 80 80 110 -110
110 -110 -80 -80z m-521 125 c18 -9 121 -104 228 -213 164 -165 198 -204 207
-239 15 -56 0 -117 -43 -168 l-34 -40 -118 112 c-66 61 -200 193 -299 292
l-179 180 29 32 c17 17 44 37 60 45 41 18 110 17 149 -1z m-57 -477 c327 -327
413 -418 413 -438 0 -38 -106 -140 -145 -140 -26 0 -84 55 -437 408 -350 349
-408 411 -408 436 0 38 104 146 141 146 18 0 122 -98 436 -412z"/>
<path d="M495 4765 l-25 -24 0 -369 c0 -358 1 -370 21 -396 l20 -26 153 0
c146 0 153 1 174 23 31 33 29 80 -4 106 -23 18 -41 21 -120 21 l-94 0 0 320 0
321 -25 24 c-13 14 -36 25 -50 25 -14 0 -37 -11 -50 -25z"/>
<path d="M1198 4779 c-208 -49 -357 -271 -319 -475 26 -140 111 -254 237 -315
65 -32 75 -34 174 -34 86 0 115 5 163 24 82 32 177 123 219 209 31 64 33 72
33 182 0 111 -1 118 -34 182 -88 175 -288 271 -473 227z m178 -154 c109 -32
184 -137 184 -254 -1 -151 -101 -258 -251 -269 -56 -4 -75 -1 -120 20 -106 49
-163 135 -163 248 0 78 25 137 82 193 71 69 169 92 268 62z"/>
<path d="M2037 4768 c-18 -16 -65 -129 -162 -384 -129 -342 -136 -363 -124
-390 17 -35 59 -52 96 -38 22 7 34 25 59 84 l31 75 156 3 156 3 22 -61 c31
-84 53 -110 94 -110 36 0 75 36 75 70 0 17 -236 652 -266 716 -26 55 -95 71
-137 32z m102 -359 c22 -57 42 -112 46 -121 7 -16 -1 -18 -89 -18 -53 0 -96 4
-96 9 0 8 33 97 81 220 5 13 12 22 14 19 3 -2 22 -51 44 -109z"/>
<path d="M2565 4765 l-25 -24 0 -369 c0 -358 1 -370 21 -396 27 -34 77 -36
107 -3 21 22 22 33 24 259 l3 236 155 -226 c197 -286 193 -282 237 -282 19 0
43 4 53 10 37 20 40 58 33 423 -6 349 -6 351 -29 374 -28 28 -64 29 -95 4 -24
-19 -24 -22 -29 -261 l-5 -241 -173 250 c-95 138 -181 255 -192 261 -31 16
-59 12 -85 -15z"/>
<path d="M414 3750 c-26 -10 -54 -48 -54 -72 0 -9 10 -28 23 -42 l22 -26 1425
0 c784 -1 1433 -1 1442 0 24 0 58 39 58 68 0 36 -16 59 -51 71 -39 13 -2832
15 -2865 1z"/>
<path d="M1445 3365 c-14 -13 -25 -36 -25 -50 0 -14 11 -37 25 -50 l24 -25
501 0 501 0 24 25 c32 31 33 74 2 103 -23 22 -24 22 -526 22 l-502 0 -24 -25z"/>
<path d="M2295 1891 c-140 -40 -278 -146 -345 -263 l-32 -58 -82 0 c-106 0
-159 -25 -193 -90 -20 -38 -23 -57 -23 -158 0 -135 16 -181 77 -222 30 -21 52
-26 129 -30 l92 -5 52 -78 c166 -248 487 -329 754 -189 86 45 181 136 226 215
l32 57 82 0 c106 0 159 25 193 90 20 38 23 57 23 160 0 102 -3 122 -23 161
-33 64 -87 89 -193 89 l-82 0 -32 58 c-68 120 -215 230 -356 266 -81 21 -222
20 -299 -3z m286 -150 c74 -24 154 -76 198 -131 l32 -40 -356 0 c-197 0 -355
4 -355 9 0 15 77 89 122 117 100 64 241 81 359 45z m544 -421 l0 -95 -675 0
-675 0 -3 84 c-2 46 -1 90 2 98 5 11 123 13 678 11 l673 -3 0 -95z m-340 -282
c-163 -195 -453 -211 -632 -35 -29 28 -53 55 -53 59 0 4 160 8 356 8 l356 0
-27 -32z"/>
<path d="M1275 1365 c-66 -18 -137 -49 -182 -79 -32 -23 -38 -24 -57 -10 -28
20 -105 18 -148 -4 -30 -16 -38 -17 -54 -5 -10 7 -44 13 -78 13 -141 0 -311
-135 -276 -220 11 -27 46 -50 76 -50 9 0 36 20 61 45 46 44 98 75 125 75 10 0
13 -8 10 -28 -5 -38 31 -82 68 -82 44 0 59 9 79 49 11 20 28 45 40 55 21 19
21 19 21 -11 0 -42 34 -83 70 -83 46 0 61 10 80 56 23 54 71 86 187 128 95 34
113 54 99 109 -5 21 -52 60 -68 56 -2 0 -25 -6 -53 -14z"/>
</g>
</svg>
