<?xml version="1.0" encoding="iso-8859-1"?>
<!-- Generator: Adobe Illustrator 19.0.0, SVG Export Plug-In . SVG Version: 6.00 Build 0)  -->
<svg version="1.1" id="Capa_1" xmlns="http://www.w3.org/2000/svg" xmlns:xlink="http://www.w3.org/1999/xlink" x="0px" y="0px"
	 viewBox="0 0 496.485 496.485" style="enable-background:new 0 0 496.485 496.485;" xml:space="preserve">
<circle style="fill:#F16051;" cx="186.958" cy="186.958" r="186.958"/>
<rect x="7.758" y="234.279" style="fill:#4FBF9F;" width="396.412" height="254.448"/>
<path style="fill:#193651;" d="M404.17,496.485H7.758c-4.655,0-7.758-3.103-7.758-7.758V234.279c0-4.655,3.103-7.758,7.758-7.758
	H404.17c4.655,0,7.758,3.103,7.758,7.758v254.449C411.927,493.382,408.824,496.485,404.17,496.485z M15.515,480.97h380.897V242.036
	H15.515V480.97z"/>
<path style="fill:#FFFFFF;" d="M334.352,265.309H77.576c0,21.721-17.067,38.788-38.788,38.788v114.812
	c21.721,0,38.788,17.067,38.788,38.788h256.776c0-21.721,17.067-38.788,38.788-38.788V304.097
	C352.194,304.097,334.352,287.03,334.352,265.309z"/>
<g>
	<ellipse style="fill:#4FBF9F;" cx="206.352" cy="361.503" rx="53.527" ry="66.715"/>
	<circle style="fill:#4FBF9F;" cx="86.885" cy="361.503" r="17.842"/>
</g>
<g>
	<path style="fill:#FFFFFF;" d="M204.024,400.291v-6.982c-8.533-0.776-16.291-3.879-23.273-10.085l6.982-7.758
		c5.43,4.655,10.861,6.982,16.291,7.758v-17.842c-6.982-1.552-12.412-3.879-15.515-6.982c-3.103-3.103-4.655-6.982-4.655-12.412
		c0-5.43,1.552-10.085,5.43-13.188c3.879-3.103,8.533-5.43,14.739-5.43v-4.655h6.206v4.655c6.982,0.776,13.188,3.103,19.394,6.982
		l-6.206,8.533c-3.879-3.103-8.533-4.655-13.188-5.43v17.842l0,0c6.982,1.552,12.412,3.879,15.515,6.982
		c3.103,3.103,4.655,6.982,4.655,12.412c0,5.43-1.552,10.085-5.43,13.188c-3.879,3.103-9.309,5.43-15.515,5.43v6.982H204.024z
		 M197.818,339.782c-1.552,1.552-2.327,3.103-2.327,5.43s0.776,3.879,1.552,4.655c1.552,1.552,3.879,2.327,6.982,3.879v-16.291
		C200.921,338.23,199.37,339.006,197.818,339.782z M217.212,380.897c1.552-1.552,2.327-3.103,2.327-5.43
		c0-2.327-0.776-3.879-2.327-5.43s-3.879-2.327-7.758-3.879v17.067C213.333,383.224,215.661,382.448,217.212,380.897z"/>
	<circle style="fill:#FFFFFF;" cx="390.982" cy="306.424" r="97.745"/>
</g>
<path style="fill:#193651;" d="M390.982,411.927c-58.182,0-105.503-47.321-105.503-105.503S332.8,201.697,390.982,201.697
	s105.503,46.545,105.503,104.727S449.164,411.927,390.982,411.927z M390.982,217.212c-49.648,0-89.988,40.339-89.988,89.988
	s40.339,89.988,89.988,89.988s89.988-40.339,89.988-89.988S440.63,217.212,390.982,217.212z"/>
<circle style="fill:#FDBF5E;" cx="390.982" cy="306.424" r="67.491"/>
<g>
	<path style="fill:#FFFFFF;" d="M389.43,334.352v-4.655c-6.206-0.776-11.636-3.103-16.291-7.758l4.655-6.206
		c3.879,3.103,7.758,5.43,11.636,6.206v-13.188c-5.43-1.552-8.533-3.103-10.861-4.655c-2.327-2.327-3.879-4.655-3.879-8.533
		s1.552-6.982,3.879-9.309c3.103-2.327,6.206-3.879,10.861-3.879v-3.103h4.655v3.103c4.655,0,9.309,2.327,13.964,5.43l-4.655,5.43
		c-3.103-2.327-6.206-3.103-9.309-3.879v13.188l0,0c5.43,1.552,9.309,3.103,11.636,4.655c2.327,2.327,3.879,5.43,3.879,9.309
		s-1.552,6.982-3.879,9.309c-3.103,2.327-6.206,3.879-10.861,3.879v4.655H389.43z M384.776,290.909
		c-0.776,0.776-1.552,2.327-1.552,3.879c0,1.552,0.776,2.327,1.552,3.879c0.776,0.776,2.327,1.552,5.43,2.327v-11.636
		C387.879,289.358,386.327,290.133,384.776,290.909z M399.515,320.388c1.552-0.776,1.552-2.327,1.552-3.879
		s-0.776-3.103-1.552-3.879s-3.103-1.552-5.43-2.327v12.412C396.412,322.715,397.964,321.939,399.515,320.388z"/>
	<path style="fill:#FFFFFF;" d="M349.867,300.994c-3.103,0-5.43,2.327-5.43,5.43l0,0c0,3.103,2.327,5.43,5.43,5.43
		c3.103,0,5.43-2.327,5.43-5.43l0,0C356.073,303.321,352.97,300.994,349.867,300.994z"/>
	<path style="fill:#FFFFFF;" d="M432.097,300.994c-3.103,0-5.43,2.327-5.43,5.43l0,0c0,3.103,2.327,5.43,5.43,5.43
		c3.103,0,5.43-2.327,5.43-5.43l0,0C438.303,303.321,435.2,300.994,432.097,300.994z"/>
</g>
<rect x="93.867" y="104.727" style="fill:#E1E6E9;" width="186.182" height="130.327"/>
<path style="fill:#193651;" d="M280.048,242.036H93.867c-4.655,0-7.758-3.103-7.758-7.758V104.727c0-4.655,3.103-7.758,7.758-7.758
	h186.182c4.655,0,7.758,3.103,7.758,7.758v130.327C287.806,238.933,283.927,242.036,280.048,242.036z M101.624,226.521h170.667
	V112.485H101.624L101.624,226.521L101.624,226.521z"/>
<rect x="121.018" y="131.879" style="fill:#FFFFFF;" width="130.327" height="74.473"/>
<polygon style="fill:#E1E6E9;" points="186.958,44.994 40.339,96.97 186.958,148.945 332.8,96.97 "/>
<path style="fill:#193651;" d="M186.958,156.703c-0.776,0-1.552,0-2.327-0.776l-146.618-51.2c-3.103-0.776-5.43-3.879-5.43-6.982
	s2.327-6.206,5.43-6.982l145.842-51.976c1.552-0.776,3.879-0.776,5.43,0l145.842,51.976c3.103,0.776,5.43,3.879,5.43,6.982
	s-2.327,6.206-5.43,6.982l-145.842,51.976C188.509,156.703,187.733,156.703,186.958,156.703z M63.612,96.97l123.345,43.442
	L310.303,96.97L186.958,53.527L63.612,96.97z"/>
<polygon style="fill:#FFFFFF;" points="114.812,96.97 186.958,71.37 258.327,96.97 186.958,122.57 "/>
<g>
	<rect x="139.636" y="175.321" style="fill:#193651;" width="15.515" height="13.964"/>
	<rect x="179.2" y="175.321" style="fill:#193651;" width="15.515" height="13.964"/>
</g>
<g>
	<rect x="217.988" y="175.321" style="fill:#193651;" width="15.515" height="13.964"/>
	<rect x="428.218" y="26.376" style="fill:#193651;" width="68.267" height="15.515"/>
	<rect x="454.594" style="fill:#193651;" width="15.515" height="68.267"/>
	<rect x="384" y="117.915" style="fill:#193651;" width="68.267" height="15.515"/>
	<rect x="409.6" y="91.539" style="fill:#193651;" width="15.515" height="68.267"/>
</g>
<g>
</g>
<g>
</g>
<g>
</g>
<g>
</g>
<g>
</g>
<g>
</g>
<g>
</g>
<g>
</g>
<g>
</g>
<g>
</g>
<g>
</g>
<g>
</g>
<g>
</g>
<g>
</g>
<g>
</g>
</svg>
