<svg height="496pt" viewBox="0 0 496 496.36801" width="496pt" xmlns="http://www.w3.org/2000/svg"><path d="m242.886719 83.773438-125.570313 78.988281h261.382813l-125.570313-78.988281c-3.070312-2.179688-7.175781-2.179688-10.242187 0zm0 0" fill="#28a7e6"/><path d="m378.699219 166.761719h-261.382813c-1.785156 0-3.347656-1.183594-3.84375-2.894531-.496094-1.714844.203125-3.546876 1.714844-4.496094l125.484375-78.929688c4.433594-3.085937 10.359375-3.066406 14.773437.070313l125.382813 78.859375c1.507813.949218 2.207031 2.78125 1.714844 4.496094-.496094 1.710937-2.0625 2.894531-3.84375 2.894531zm-247.511719-8h233.640625l-113.828125-71.601563c-1.863281-1.316406-4.113281-1.320312-5.796875-.125-.058594.042969-.125.085938-.1875.125zm111.699219-74.988281h.039062zm0 0" fill="#173851"/><path d="m119.5 162.761719h257.019531v24.082031h-257.019531zm0 0" fill="#fff"/><path d="m376.515625 190.84375h-257.015625c-2.210938 0-4-1.789062-4-4v-24.082031c0-2.214844 1.789062-4 4-4h257.015625c2.210937 0 4 1.785156 4 4v24.082031c0 2.207031-1.789063 4-4 4zm-253.015625-8h249.015625v-16.082031h-249.015625zm0 0" fill="#173851"/><path d="m119.5 349.085938h257.019531v24.636718h-257.019531zm0 0" fill="#28a7e6"/><path d="m376.515625 377.726562h-257.015625c-2.210938 0-4-1.785156-4-4v-24.640624c0-2.214844 1.789062-4 4-4h257.015625c2.210937 0 4 1.785156 4 4v24.640624c0 2.214844-1.789063 4-4 4zm-253.015625-8h249.015625v-16.640624h-249.015625zm0 0" fill="#173851"/><path d="m141.75 325.53125h46.125v23.554688h-46.125zm0 0" fill="#fff"/><path d="m187.875 353.085938h-46.125c-2.207031 0-4-1.789063-4-4v-23.554688c0-2.210938 1.792969-4 4-4h46.125c2.207031 0 4 1.789062 4 4v23.554688c0 2.210937-1.792969 4-4 4zm-42.125-8h38.125v-15.554688h-38.125zm0 0" fill="#173851"/><path d="m141.585938 186.84375h46.449218v22.175781h-46.449218zm0 0" fill="#fff"/><path d="m188.039062 213.015625h-46.453124c-2.207032 0-4-1.789063-4-4v-22.175781c0-2.210938 1.792968-4 4-4h46.453124c2.207032 0 4 1.789062 4 4v22.175781c0 2.210937-1.792968 4-4 4zm-42.453124-8h38.453124v-14.175781h-38.453124zm0 0" fill="#173851"/><path d="m153.027344 209.019531h23.570312v116.511719h-23.570312zm0 0" fill="#28a7e6"/><path d="m176.597656 329.53125h-23.570312c-2.207032 0-4-1.789062-4-4v-116.515625c0-2.210937 1.792968-4 4-4h23.570312c2.210938 0 4 1.789063 4 4v116.515625c0 2.210938-1.789062 4-4 4zm-19.570312-8h15.570312v-108.515625h-15.570312zm0 0" fill="#173851"/><path d="m224.300781 186.84375h46.445313v22.175781h-46.445313zm0 0" fill="#fff"/><path d="m270.75 213.015625h-46.449219c-2.210937 0-4-1.789063-4-4v-22.175781c0-2.210938 1.789063-4 4-4h46.445313c2.214844 0 4 1.789062 4 4v22.175781c.003906 2.210937-1.785156 4-3.996094 4zm-42.449219-8h38.445313v-14.175781h-38.445313zm0 0" fill="#173851"/><path d="m235.738281 209.019531h23.574219v116.511719h-23.574219zm0 0" fill="#28a7e6"/><path d="m259.3125 329.53125h-23.574219c-2.207031 0-4-1.789062-4-4v-116.515625c0-2.210937 1.792969-4 4-4h23.574219c2.210938 0 4 1.789063 4 4v116.515625c0 2.210938-1.789062 4-4 4zm-19.574219-8h15.574219v-108.515625h-15.574219zm0 0" fill="#173851"/><path d="m224.464844 325.53125h46.121094v23.554688h-46.121094zm0 0" fill="#fff"/><path d="m270.585938 353.085938h-46.117188c-2.210938 0-4-1.789063-4-4v-23.554688c0-2.210938 1.789062-4 4-4h46.117188c2.214843 0 4 1.789062 4 4v23.554688c0 2.210937-1.789063 4-4 4zm-42.121094-8h38.117187v-15.554688h-38.117187zm0 0" fill="#173851"/><path d="m307.015625 186.84375h46.449219v22.175781h-46.449219zm0 0" fill="#fff"/><path d="m353.464844 213.015625h-46.449219c-2.210937 0-4-1.789063-4-4v-22.175781c0-2.210938 1.789063-4 4-4h46.449219c2.210937 0 4 1.789062 4 4v22.175781c0 2.210937-1.789063 4-4 4zm-42.449219-8h38.449219v-14.175781h-38.449219zm0 0" fill="#173851"/><path d="m318.453125 209.019531h23.574219v116.511719h-23.574219zm0 0" fill="#28a7e6"/><path d="m342.023438 329.53125h-23.574219c-2.210938 0-4-1.789062-4-4v-116.515625c0-2.210937 1.789062-4 4-4h23.574219c2.210937 0 4 1.789063 4 4v116.515625c0 2.210938-1.789063 4-4 4zm-19.574219-8h15.574219v-108.515625h-15.574219zm0 0" fill="#173851"/><path d="m307.179688 325.53125h46.125v23.554688h-46.125zm0 0" fill="#fff"/><g fill="#173851"><path d="m353.300781 353.085938h-46.121093c-2.210938 0-4-1.789063-4-4v-23.554688c0-2.210938 1.789062-4 4-4h46.121093c2.210938 0 4 1.789062 4 4v23.554688c0 2.210937-1.789062 4-4 4zm-42.121093-8h38.121093v-15.554688h-38.121093zm0 0"/><path d="m75.589844 424.863281c-1.023438 0-2.046875-.390625-2.828125-1.171875-96.769531-96.789062-96.769531-254.265625 0-351.058594 64.117187-64.128906 158.246093-88.121093 245.640625-62.601562 2.121094.621094 3.335937 2.839844 2.71875 4.960938-.617188 2.121093-2.835938 3.335937-4.957032 2.71875-84.585937-24.691407-175.691406-1.484376-237.746093 60.582031-93.652344 93.667969-93.652344 246.078125 0 339.746093 1.566406 1.566407 1.566406 4.09375 0 5.65625-.777344.78125-1.804688 1.167969-2.828125 1.167969zm0 0"/><path d="m247.519531 496.367188c-43.429687 0-87.070312-11.511719-126.269531-35.125-1.890625-1.136719-2.5-3.59375-1.359375-5.484376 1.140625-1.890624 3.601563-2.503906 5.492187-1.367187 93.835938 56.515625 214 41.363281 292.21875-36.867187 93.648438-93.667969 93.648438-246.082032 0-339.75-9.230468-8.828126-21.765624-20.253907-36.304687-29.761719-1.855469-1.210938-2.375-3.6875-1.160156-5.535157 1.207031-1.851562 3.699219-2.367187 5.535156-1.160156 15.089844 9.867188 27.980469 21.609375 37.527344 30.738282 96.832031 96.851562 96.832031 254.335937.0625 351.125-48.164063 48.164062-111.71875 73.183593-175.742188 73.1875zm0 0"/><path d="m75.589844 424.863281c-.015625 0-.027344 0-.042969 0l-45.15625-.511719c-2.207031-.023437-3.980469-1.835937-3.957031-4.046874.027344-2.191407 1.8125-3.953126 4-3.953126h.046875l41.066406.464844-.46875-41.585937c-.023437-2.210938 1.75-4.023438 3.957031-4.046875h.042969c2.1875 0 3.976563 1.761718 4 3.953125l.511719 45.675781c.011718 1.078125-.410156 2.113281-1.171875 2.875-.746094.757812-1.765625 1.175781-2.828125 1.175781zm0 0"/><path d="m384.503906 87.160156c-2.214844 0-4-1.789062-4-4v-39.515625c0-1.082031.429688-2.109375 1.203125-2.859375.773438-.753906 1.851563-1.125 2.890625-1.140625l44.128906 1.023438c2.207032.050781 3.957032 1.882812 3.910157 4.09375-.054688 2.207031-1.976563 3.921875-4.09375 3.90625l-40.035157-.929688v35.421875c-.003906 2.207032-1.792968 4-4.003906 4zm0 0"/></g></svg>