<?xml version="1.0" encoding="iso-8859-1"?>
<!-- Generator: Adobe Illustrator 19.0.0, SVG Export Plug-In . SVG Version: 6.00 Build 0)  -->
<svg version="1.1" id="Capa_1" xmlns="http://www.w3.org/2000/svg" xmlns:xlink="http://www.w3.org/1999/xlink" x="0px" y="0px"
	 viewBox="0 0 529.6 529.6" style="enable-background:new 0 0 529.6 529.6;" xml:space="preserve">
<polygon style="fill:#193651;" points="439.2,140 439.2,94.4 455.2,94.4 455.2,106.4 500,70.4 455.2,33.6 455.2,53.6 204.8,53.6 
	204.8,37.6 439.2,37.6 439.2,0 525.6,70.4 "/>
<rect x="380.8" y="80" style="fill:#193651;" width="16" height="16"/>
<rect x="345.6" y="80" style="fill:#193651;" width="16" height="16"/>
<rect x="309.6" y="80" style="fill:#193651;" width="16" height="16"/>
<rect x="274.4" y="80" style="fill:#193651;" width="16" height="16"/>
<rect x="238.4" y="80" style="fill:#193651;" width="16" height="16"/>
<rect x="203.2" y="80" style="fill:#193651;" width="16" height="16"/>
<g>
	<rect x="416.8" y="80" style="fill:#193651;" width="16" height="16"/>
	<polygon style="fill:#193651;" points="90.4,529.6 4,459.2 90.4,389.6 90.4,435.2 74.4,435.2 74.4,423.2 29.6,459.2 74.4,496 
		74.4,476 324.8,476 324.8,492 90.4,492 	"/>
</g>
<rect x="132.8" y="433.6" style="fill:#193651;" width="16" height="16"/>
<rect x="168" y="433.6" style="fill:#193651;" width="16" height="16"/>
<rect x="204" y="433.6" style="fill:#193651;" width="16" height="16"/>
<rect x="239.2" y="433.6" style="fill:#193651;" width="16" height="16"/>
<rect x="275.2" y="433.6" style="fill:#193651;" width="16" height="16"/>
<rect x="310.4" y="433.6" style="fill:#193651;" width="16" height="16"/>
<rect x="96.8" y="433.6" style="fill:#193651;" width="16" height="16"/>
<rect x="88.714" y="159.985" transform="matrix(-0.9719 -0.2354 0.2354 -0.9719 459.5643 585.2325)" style="fill:#FFFFFF;" width="352" height="210.4"/>
<path style="fill:#193651;" d="M416.8,418.4L59.2,331.2l53.6-220l357.6,86.4L416.8,418.4z M78.4,320l326.4,79.2l45.6-188.8
	L124,131.2L78.4,320z"/>
<path style="fill:#44C4A1;" d="M113.6,278.4l23.2-95.2c12.8,3.2,25.6-4.8,28.8-17.6l233.6,56.8c-3.2,12.8,4.8,25.6,17.6,28.8
	l-24,95.2c-12.8-3.2-25.6,4.8-28.8,17.6l-233.6-56.8C134.4,294.4,126.4,281.6,113.6,278.4z"/>
<g>
	<circle style="fill:#FFFFFF;" cx="264.8" cy="264.8" r="52.8"/>
	<circle style="fill:#FFFFFF;" cx="364.8" cy="288.8" r="10.4"/>
	<circle style="fill:#FFFFFF;" cx="164.8" cy="240.8" r="10.4"/>
</g>
<g>
	<path style="fill:#193651;" d="M257.6,294.4c-9.6-2.4-15.2-12-12.8-21.6l8.8,2.4c-0.8,4.8,1.6,8.8,6.4,10.4
		c4.8,0.8,8.8-1.6,10.4-6.4c0.8-4.8-1.6-8.8-6.4-10.4c-9.6-2.4-15.2-12-12.8-21.6c2.4-9.6,12-15.2,21.6-12.8
		c9.6,2.4,15.2,12,12.8,21.6l-8.8-2.4c0.8-4.8-1.6-8.8-6.4-10.4c-4.8-0.8-8.8,1.6-10.4,6.4c-0.8,4.8,1.6,8.8,6.4,10.4
		c9.6,2.4,15.2,12,12.8,21.6C276.8,291.2,267.2,296.8,257.6,294.4z"/>
	
		<rect x="268.061" y="228.76" transform="matrix(-0.9719 -0.2354 0.2354 -0.9719 482.5687 522.3282)" style="fill:#193651;" width="8.8" height="7.2"/>
	
		<rect x="252.747" y="293.641" transform="matrix(-0.9719 -0.2354 0.2354 -0.9719 437.0965 646.662)" style="fill:#193651;" width="8.8" height="7.2"/>
</g>
<g>
</g>
<g>
</g>
<g>
</g>
<g>
</g>
<g>
</g>
<g>
</g>
<g>
</g>
<g>
</g>
<g>
</g>
<g>
</g>
<g>
</g>
<g>
</g>
<g>
</g>
<g>
</g>
<g>
</g>
</svg>
