<?xml version="1.0" encoding="iso-8859-1"?>
<!-- Generator: Adobe Illustrator 19.0.0, SVG Export Plug-In . SVG Version: 6.00 Build 0)  -->
<svg version="1.1" id="Capa_1" xmlns="http://www.w3.org/2000/svg" xmlns:xlink="http://www.w3.org/1999/xlink" x="0px" y="0px"
	 viewBox="0 0 496.485 496.485" style="enable-background:new 0 0 496.485 496.485;" xml:space="preserve">
<path style="fill:#E1E6E9;" d="M404.545,7.758H92.691c-17.067,0-31.03,13.964-31.03,31.03v418.909
	c0,17.067,13.964,31.03,31.03,31.03H403.77c17.067,0,31.03-13.964,31.03-31.03V38.788C435.576,21.721,421.612,7.758,404.545,7.758z"
	/>
<path style="fill:#193651;" d="M404.545,496.485H92.691c-21.721,0-38.788-17.067-38.788-38.788V38.788
	C53.903,17.067,70.97,0,92.691,0H403.77c21.721,0,38.788,17.067,38.788,38.788v418.909
	C443.333,479.418,425.491,496.485,404.545,496.485z M92.691,15.515c-13.188,0-23.273,10.085-23.273,23.273v418.909
	c0,13.188,10.085,23.273,23.273,23.273H403.77c13.188,0,23.273-10.085,23.273-23.273V38.788c0-13.188-10.085-23.273-23.273-23.273
	H92.691z"/>
<g>
	<path style="fill:#FFFFFF;" d="M205.176,350.642h-96.97c-8.533,0-15.515,6.982-15.515,15.515v76.024
		c0,8.533,6.982,15.515,15.515,15.515H204.4c8.533,0,15.515-6.982,15.515-15.515v-76.024
		C220.691,357.624,213.709,350.642,205.176,350.642z"/>
	<path style="fill:#FFFFFF;" d="M389.03,350.642h-96.97c-8.533,0-15.515,6.982-15.515,15.515v76.024
		c0,8.533,6.982,15.515,15.515,15.515h96.194c8.533,0,15.515-6.982,15.515-15.515v-76.024
		C404.545,357.624,397.564,350.642,389.03,350.642z"/>
	<path style="fill:#FFFFFF;" d="M389.03,206.352h-96.97c-8.533,0-15.515,6.982-15.515,15.515v76.024
		c0,8.533,6.982,15.515,15.515,15.515h96.194c8.533,0,15.515-6.982,15.515-15.515v-76.024
		C404.545,213.333,397.564,206.352,389.03,206.352z"/>
	<path style="fill:#FFFFFF;" d="M205.176,206.352h-96.97c-8.533,0-15.515,6.982-15.515,15.515v76.024
		c0,8.533,6.982,15.515,15.515,15.515H204.4c8.533,0,15.515-6.982,15.515-15.515v-76.024
		C220.691,213.333,213.709,206.352,205.176,206.352z"/>
</g>
<path style="fill:#2EA2DB;" d="M389.03,38.788H108.206c-8.533,0-15.515,6.982-15.515,15.515v62.836
	c0,8.533,6.982,15.515,15.515,15.515h280.048c8.533,0,15.515-6.982,15.515-15.515V54.303
	C404.545,45.77,397.564,38.788,389.03,38.788z"/>
<g>
	<path style="fill:#F16051;" d="M140.012,156.703H96.57c-2.327,0-3.879,1.552-3.879,3.879v14.739c0,2.327,1.552,3.879,3.879,3.879
		h43.442c2.327,0,3.879-1.552,3.879-3.879v-14.739C143.115,158.255,141.564,156.703,140.012,156.703z"/>
	<path style="fill:#F16051;" d="M226.897,156.703h-43.442c-2.327,0-3.879,1.552-3.879,3.879v14.739c0,2.327,1.552,3.879,3.879,3.879
		h43.442c2.327,0,3.879-1.552,3.879-3.879v-14.739C230,158.255,228.448,156.703,226.897,156.703z"/>
	<path style="fill:#F16051;" d="M313.782,156.703h-43.442c-2.327,0-3.879,1.552-3.879,3.879v14.739c0,2.327,1.552,3.879,3.879,3.879
		h43.442c2.327,0,3.879-1.552,3.879-3.879v-14.739C317.661,158.255,315.333,156.703,313.782,156.703z"/>
	<path style="fill:#F16051;" d="M400.667,156.703h-43.442c-2.327,0-3.879,1.552-3.879,3.879v14.739c0,2.327,1.552,3.879,3.879,3.879
		h43.442c2.327,0,3.879-1.552,3.879-3.879v-14.739C404.545,158.255,402.994,156.703,400.667,156.703z"/>
</g>
<g>
	<polygon style="fill:#193651;" points="186.558,250.57 165.612,250.57 165.612,230.4 146.994,230.4 146.994,250.57 126.824,250.57 
		126.824,269.188 146.994,269.188 146.994,289.358 165.612,289.358 165.612,269.188 186.558,269.188 	"/>
	<rect x="126.824" y="394.861" style="fill:#193651;" width="59.733" height="18.618"/>
</g>
<g>
	<rect x="310.679" y="413.479" style="fill:#F16051;" width="59.733" height="18.618"/>
	<rect x="310.679" y="377.018" style="fill:#F16051;" width="59.733" height="18.618"/>
</g>
<polygon style="fill:#193651;" points="368.085,274.618 354.121,259.879 368.085,245.915 354.897,232.727 340.933,246.691 
	326.194,232.727 313.006,245.915 327.745,259.879 313.006,274.618 326.194,287.806 340.933,273.067 354.897,287.806 "/>
<g>
	<rect x="185.782" y="77.576" style="fill:#193651;" width="15.515" height="15.515"/>
	<rect x="240.861" y="77.576" style="fill:#193651;" width="15.515" height="15.515"/>
	<rect x="295.939" y="77.576" style="fill:#193651;" width="15.515" height="15.515"/>
</g>
<g>
</g>
<g>
</g>
<g>
</g>
<g>
</g>
<g>
</g>
<g>
</g>
<g>
</g>
<g>
</g>
<g>
</g>
<g>
</g>
<g>
</g>
<g>
</g>
<g>
</g>
<g>
</g>
<g>
</g>
</svg>
