<svg height="512pt" viewBox="-51 0 512 512" width="512pt" xmlns="http://www.w3.org/2000/svg"><path d="m349.902344 59.734375h34.132812c9.414063.027344 17.039063 7.652344 17.066406 17.066406v409.597657c-.027343 9.414062-7.652343 17.039062-17.066406 17.066406h-307.199218c-9.414063-.027344-17.039063-7.652344-17.070313-17.066406v-34.132813zm0 0" fill="#abb1bb" fill-rule="evenodd"/><path d="m349.902344 25.601562v409.597657c-.03125 9.414062-7.652344 17.039062-17.066406 17.066406h-307.203126c-9.414062-.027344-17.039062-7.652344-17.066406-17.066406v-341.332031l85.335938-85.332032h238.933594c9.414062.027344 17.035156 7.652344 17.066406 17.066406zm0 0" fill="#e5e8eb" fill-rule="evenodd"/><path d="m93.902344 8.535156v68.265625c-.03125 9.414063-7.652344 17.039063-17.066406 17.066407h-68.269532zm0 0" fill="#6692aa" fill-rule="evenodd"/><g fill="#232323"><path d="m25.632812 460.800781h25.601563v25.597657c0 14.140624 11.460937 25.601562 25.601563 25.601562h307.199218c14.136719 0 25.597656-11.460938 25.597656-25.601562v-409.597657c0-14.140625-11.460937-25.601562-25.597656-25.601562h-25.601562v-25.597657c0-14.140624-11.460938-25.601562-25.597656-25.601562h-238.933594c-.179688 0-.34375.09375-.523438.101562-.757812.050782-1.507812.199219-2.226562.445313-.265625.09375-.519532.160156-.777344.28125-.933594.410156-1.785156.988281-2.507812 1.707031l-85.332032 85.332032c-.714844.726562-1.292968 1.574218-1.707031 2.5-.121094.265624-.1875.53125-.28125.804687-.246094.707031-.394531 1.445313-.4375 2.191406 0 .1875-.109375.351563-.109375.539063v51.199218c0 4.710938 3.820312 8.53125 8.535156 8.53125 4.710938 0 8.53125-3.820312 8.53125-8.53125v-42.703124h59.734375c14.136719 0 25.597657-11.460938 25.597657-25.597657v-59.734375h230.4375c4.710937 0 8.53125 3.820313 8.53125 8.535156v341.332032c0 4.710937 3.820312 8.53125 8.535156 8.53125 4.710937 0 8.53125-3.820313 8.53125-8.53125v-298.667969h25.601562c4.710938 0 8.53125 3.820313 8.53125 8.535156v409.597657c0 4.714843-3.820312 8.535156-8.53125 8.535156h-307.199218c-4.714844 0-8.535157-3.820313-8.535157-8.535156v-25.597657h264.535157c14.136718 0 25.597656-11.460937 25.597656-25.601562v-25.597657c0-4.714843-3.820313-8.535156-8.53125-8.535156-4.714844 0-8.535156 3.820313-8.535156 8.535156v25.597657c0 4.714843-3.820313 8.535156-8.53125 8.535156h-307.203126c-4.710937 0-8.53125-3.820313-8.53125-8.535156v-247.464844c0-4.714844-3.820312-8.535156-8.535156-8.535156-4.710937 0-8.5312498 3.820312-8.5312498 8.535156v247.464844c0 14.140625 11.4609378 25.601562 25.5976558 25.601562zm59.734376-384c0 4.710938-3.820313 8.53125-8.53125 8.53125h-47.667969l56.199219-56.199219zm0 0"/><path d="m298.699219 145.066406h-238.933594c-4.710937 0-8.53125 3.820313-8.53125 8.535156 0 4.710938 3.820313 8.53125 8.53125 8.53125h238.933594c4.714843 0 8.535156-3.820312 8.535156-8.53125 0-4.714843-3.820313-8.535156-8.535156-8.535156zm0 0" fill-rule="evenodd"/><path d="m59.765625 332.800781h238.933594c4.714843 0 8.535156-3.820312 8.535156-8.535156 0-4.710937-3.820313-8.53125-8.535156-8.53125h-238.933594c-4.710937 0-8.53125 3.820313-8.53125 8.53125 0 4.714844 3.820313 8.535156 8.53125 8.535156zm0 0" fill-rule="evenodd"/><path d="m298.699219 187.734375h-42.664063c-4.714844 0-8.535156 3.820313-8.535156 8.53125 0 4.714844 3.820312 8.535156 8.535156 8.535156h42.664063c4.714843 0 8.535156-3.820312 8.535156-8.535156 0-4.710937-3.820313-8.53125-8.535156-8.53125zm0 0" fill-rule="evenodd"/><path d="m59.765625 204.800781h153.601563c4.714843 0 8.535156-3.820312 8.535156-8.535156 0-4.710937-3.820313-8.53125-8.535156-8.53125h-153.601563c-4.710937 0-8.53125 3.820313-8.53125 8.53125 0 4.714844 3.820313 8.535156 8.53125 8.535156zm0 0" fill-rule="evenodd"/><path d="m153.632812 358.398438c-4.710937 0-8.53125 3.820312-8.53125 8.535156 0 4.710937 3.820313 8.53125 8.53125 8.53125h8.535157c4.710937 0 8.53125-3.820313 8.53125-8.53125 0-4.714844-3.820313-8.535156-8.53125-8.535156zm0 0" fill-rule="evenodd"/><path d="m59.765625 375.464844h51.203125c4.710938 0 8.53125-3.820313 8.53125-8.53125 0-4.714844-3.820312-8.535156-8.53125-8.535156h-51.203125c-4.710937 0-8.53125 3.820312-8.53125 8.535156 0 4.710937 3.820313 8.53125 8.53125 8.53125zm0 0" fill-rule="evenodd"/><path d="m59.765625 247.464844h42.667969c4.714844 0 8.535156-3.820313 8.535156-8.53125 0-4.714844-3.820312-8.535156-8.535156-8.535156h-42.667969c-4.710937 0-8.53125 3.820312-8.53125 8.535156 0 4.710937 3.820313 8.53125 8.53125 8.53125zm0 0" fill-rule="evenodd"/><path d="m298.699219 230.398438h-153.597657c-4.714843 0-8.535156 3.820312-8.535156 8.535156 0 4.710937 3.820313 8.53125 8.535156 8.53125h153.597657c4.714843 0 8.535156-3.820313 8.535156-8.53125 0-4.714844-3.820313-8.535156-8.535156-8.535156zm0 0" fill-rule="evenodd"/><path d="m59.765625 290.132812h25.601563c4.714843 0 8.535156-3.820312 8.535156-8.53125 0-4.714843-3.820313-8.535156-8.535156-8.535156h-25.601563c-4.710937 0-8.53125 3.820313-8.53125 8.535156 0 4.710938 3.820313 8.53125 8.53125 8.53125zm0 0" fill-rule="evenodd"/><path d="m128.035156 273.066406c-4.714844 0-8.535156 3.820313-8.535156 8.535156 0 4.710938 3.820312 8.53125 8.535156 8.53125h102.398438c4.714844 0 8.535156-3.820312 8.535156-8.53125 0-4.714843-3.820312-8.535156-8.535156-8.535156zm0 0" fill-rule="evenodd"/><path d="m298.699219 273.066406h-25.597657c-4.714843 0-8.535156 3.820313-8.535156 8.535156 0 4.710938 3.820313 8.53125 8.535156 8.53125h25.597657c4.714843 0 8.535156-3.820312 8.535156-8.53125 0-4.714843-3.820313-8.535156-8.535156-8.535156zm0 0" fill-rule="evenodd"/></g></svg>