<svg id="Layer_1" enable-background="new 0 0 256 256" height="512" viewBox="0 0 256 256" width="512" xmlns="http://www.w3.org/2000/svg"><g id="Layer_44"><g><path d="m214.1 113.3c-.3-4.5-3.4-8.4-7.8-9.5l-20.4-5.1-12.3-6.1-4.1 11.9c-.2.7-.9 1.2-1.6 1.2h-12.7c-.7 0-1.4-.5-1.6-1.2l-4.1-11.8c-2.4 3.5-5.5 6.4-9.2 8.4v10.1l12.3 6.1 20.4 5.1c4.4 1.1 7.6 4.9 7.8 9.5l1.7 30.7h30.1c2.3 0 4.1-1.8 4.1-4.1 0-.1 0-.2 0-.2z" fill="#c7d7e5"/><path d="m189 39.4c-.6 0-1.1 0-1.7.1v19.9c0 .6 0 1.2-.1 1.8 6 1 11.6-3.1 12.6-9.1s-3.1-11.6-9.1-12.6c-.5-.1-1.1-.1-1.7-.1z" fill="#f9d0b4"/><path d="m187.3 35.6c0-.7-.6-1.4-1.4-1.4-10.9-.3-16.7-4.6-18.9-6.8-.6-.5-1.5-.5-2 0 0 0-.1.1-.1.1-1.4 1.8-3 3.4-4.8 4.7 2 2.6 3.1 5.8 3.1 9v19.8c4.4 4.2 4.6 11.1.4 15.5-2.5 2.6-6.2 3.9-9.8 3.2-.1 1.6-.4 3.2-.7 4.7 2.6.8 5.3 1.2 8 1.2 14.5 0 26.2-11.8 26.3-26.3v-23.3c-.1-.1-.1-.3-.1-.4z" fill="#f9d0b4"/><path d="m181.6 7.7c-2.7 0-5.4.7-7.7 2.1-2.7-4.5-7.6-7.3-12.9-7.3h-7.7c-11.7 0-22 7.5-25.7 18.6 5.3 0 10.2 2.8 12.9 7.3 6.6-4 15.1-2.3 19.6 3.9 1.8-1.4 3.4-3 4.8-4.7.5-.6 1.4-.7 2-.2 0 0 .1.1.1.1 2.2 2.2 8 6.5 18.9 6.8.7 0 1.3.6 1.4 1.4v.4 3.5c3.4-.5 6.8.6 9.3 2.9v-19.8c0-8.3-6.7-15-15-15z" fill="#5b5d60"/><path d="m161 85.7c-2.7 0-5.4-.4-8-1.3-.8 3-2 5.8-3.7 8.3l4.1 11.8c.2.7.9 1.2 1.6 1.2h12.7c.7 0 1.4-.5 1.6-1.2l4.1-11.9v-10.1c-3.7 2.1-8 3.2-12.4 3.2z" fill="#f9d0b4"/><path d="m180.6 131.9c-.3-4.5-3.4-8.4-7.8-9.5l-20.4-5.1-12.3-6.1-4.1 11.9c-.2.7-.9 1.2-1.6 1.2h-12.7c-.7 0-1.4-.5-1.6-1.2l-4.1-11.8c-2.4 3.5-5.5 6.4-9.2 8.4v10.1l12.3 6.1 20.4 5.1c4.4 1.1 7.6 4.9 7.8 9.5l1.7 30.7h30c2.3 0 4.1-1.8 4.1-4.1 0-.1 0-.2 0-.2z" fill="#dae6f1"/><path d="m155.6 58c-.6 0-1.1 0-1.7.1v19.9c0 .6 0 1.2-.1 1.8 6 1 11.6-3.1 12.6-9.1s-3.1-11.6-9.1-12.6c-.5-.1-1.1-.1-1.7-.1z" fill="#f9d0b4"/><path d="m153.9 54.2c0-.7-.6-1.4-1.4-1.4-10.9-.3-16.7-4.6-18.9-6.8-.6-.5-1.5-.5-2 0 0 0-.1.1-.1.1-1.4 1.8-3 3.4-4.8 4.7 2 2.6 3.1 5.8 3.1 9v19.7c4.4 4.2 4.6 11.1.4 15.5-2.5 2.6-6.2 3.9-9.8 3.2-.1 1.6-.4 3.2-.7 4.7 2.6.8 5.3 1.2 8 1.2 14.5 0 26.2-11.8 26.3-26.3v-23.2c-.1-.2-.1-.3-.1-.4z" fill="#f9d0b4"/><path d="m148.2 26.3c-2.7 0-5.4.7-7.7 2.1-2.7-4.5-7.6-7.3-12.9-7.3h-7.7c-11.7 0-22 7.5-25.7 18.6 5.3 0 10.2 2.8 12.9 7.3 6.6-4 15.1-2.3 19.6 3.8 1.8-1.4 3.4-3 4.8-4.7.5-.6 1.4-.7 2-.2 0 0 .1.1.1.1 2.2 2.2 8 6.5 18.9 6.8.7 0 1.3.6 1.4 1.4v.4 3.5c3.4-.5 6.8.6 9.3 2.9v-19.7c0-8.3-6.7-15-15-15z" fill="#5b5d60"/><path d="m119.7 103c-.8 3-2 5.8-3.7 8.3l4.1 11.8c.2.7.9 1.2 1.6 1.2h12.7c.7 0 1.4-.5 1.6-1.2l4.1-11.9v-10.1c-6.3 3.4-13.6 4.1-20.4 1.9z" fill="#f9d0b4"/><path d="m147.2 150.5c-.3-4.5-3.4-8.4-7.8-9.5l-20.4-5.1-12.3-6.1-4.1 11.9c-.2.7-.9 1.2-1.6 1.2h-12.8c-.7 0-1.4-.5-1.6-1.2l-4.1-11.9-12.3 6.1-20.4 5.1c-4.4 1.1-7.6 4.9-7.8 9.5l-2.5 45c-.1 2.3 1.6 4.2 3.9 4.3h.2 102.1c2.3 0 4.1-1.8 4.1-4.1 0-.1 0-.2 0-.2z" fill="#edf4fc"/><g fill="#f9d0b4"><path d="m122.2 76.5c-.6 0-1.1 0-1.7.1v19.9c0 .6 0 1.2-.1 1.8 6 1 11.6-3.1 12.6-9.1s-3.1-11.6-9.1-12.6c-.6 0-1.2-.1-1.7-.1z"/><path d="m67.9 96.6v-19.9c-6-1-11.6 3.1-12.6 9.1s3.1 11.6 9.1 12.6c1.2.2 2.4.2 3.6 0-.1-.7-.1-1.3-.1-1.8z"/><path d="m98.1 64.7c-9.6 12-23.7 10.3-28.5 9.3-.8-.2-1.5.3-1.7 1.1v.3 21.2c0 14.5 11.8 26.2 26.3 26.3 14.5 0 26.2-11.8 26.3-26.3v-23.5c0-.1 0-.3 0-.4 0-.7-.6-1.4-1.4-1.4-10.9-.3-16.7-4.6-18.9-6.8-.6-.5-1.5-.5-2 0 0 .1 0 .1-.1.2z"/></g><path d="m66.2 76.5c.6 0 1.1 0 1.7.1v-1.3c0-.8.6-1.4 1.4-1.4h.3c4.8 1 18.9 2.7 28.5-9.4.5-.6 1.4-.7 2-.2 0 0 .1.1.1.1 2.2 2.2 8 6.5 18.9 6.8.7 0 1.3.6 1.4 1.4v.4 3.5c3.4-.5 6.8.6 9.3 2.9v-19.5c0-8.3-6.7-15-15-15-2.7 0-5.4.7-7.7 2.1-2.7-4.5-7.6-7.3-12.9-7.3h-7.7c-15 0-27.1 12.2-27.1 27.1v12.2c1.9-1.6 4.3-2.5 6.8-2.5z" fill="#5b5d60"/><path d="m94.2 122.8c-4.1 0-8.1-1-11.7-2.8v9.7l4.1 11.9c.2.7.9 1.2 1.6 1.2h12.7c.7 0 1.4-.5 1.6-1.2l4.1-11.9v-10.1c-3.8 2.1-8 3.2-12.4 3.2z" fill="#f9d0b4"/><circle cx="167.1" cy="197.4" fill="#f5c84c" r="3.1"/><circle cx="59.1" cy="29.7" fill="#70d6f9" r="3.1"/><circle cx="203.1" cy="82.7" fill="#87d147" r="3.1"/><path d="m88.3 10.3c-4.3-.8-7.8-4.1-8.6-8.5 0-.1-.1-.2-.2-.2s-.1.1-.2.2c-.9 4.3-4.3 7.7-8.6 8.5-.1 0-.2.1-.2.2s.1.1.2.2c4.3.8 7.8 4.1 8.6 8.5 0 .1.1.2.2.2s.1-.1.2-.2c.9-4.3 4.3-7.7 8.6-8.5.1 0 .2-.1.2-.2s-.1-.2-.2-.2z" fill="#f5c84c"/><path d="m187.9 211.6h-2.1v-2.1c0-1.6-1.3-2.9-2.9-2.9s-2.9 1.3-2.9 2.9v2.1h-2.1c-1.6 0-2.9 1.3-2.9 2.9s1.3 2.9 2.9 2.9h2.1v2.1c0 1.6 1.3 2.9 2.9 2.9s2.9-1.3 2.9-2.9v-2.1h2.1c1.6 0 2.9-1.3 2.9-2.9s-1.3-2.9-2.9-2.9z" fill="#fc657e"/><path d="m156.4 227.5-15.2-15.2c-2.5-2.5-6.5-2.5-9 0-.2.2-.4.4-.5.6-2 2.6-1.7 6.3.7 8.6l3 3c.3.3.3.7 0 1-.1.1-.3.2-.5.2h-36.8c-3.4-.1-6.3 2.6-6.4 6v.2c0 3.6 2.8 6.5 6.4 6.6h36.8c.4 0 .7.3.7.7 0 .2-.1.4-.2.5l-2.9 2.9c-2.6 2.5-2.7 6.7-.2 9.3 0 0 0 0 .1.1 2.5 2.4 6.4 2.3 8.9-.1l15.2-15.2c2.4-2.7 2.4-6.7-.1-9.2z" fill="#70d6f9"/><path d="m130.6 253.6c3.5 3.3 9 3.2 12.3-.2l15.2-15.2c3.5-3.5 3.5-9.1 0-12.5l-15.1-15.2c-3.5-3.5-9.1-3.5-12.5 0-.3.3-.5.5-.7.8-2.7 3.6-2.4 8.6.8 11.8h-32.5c-4.8-.1-8.7 3.7-8.9 8.5v.2c0 4.9 3.9 9 8.9 9.1h32.4c-3.5 3.5-3.4 9.2.1 12.7zm-32.5-17.8c-2.2-.1-3.9-1.9-3.9-4.1 0-2 1.7-3.7 3.7-3.6h.2 36.8c1.8 0 3.2-1.4 3.2-3.2 0-.8-.3-1.6-.9-2.2l-3-3c-1.5-1.4-1.7-3.6-.5-5.3 1.3-1.7 3.7-2 5.4-.7.1.1.2.2.4.3l15.2 15.2c1.5 1.5 1.5 3.9 0 5.5l-15.2 15.2c-1.5 1.5-3.9 1.5-5.4.1-1.6-1.6-1.5-4.2.1-5.8l2.9-2.9c1.2-1.2 1.2-3.3 0-4.5-.6-.6-1.4-.9-2.2-.9z"/><path d="m69.3 133.5-20.2 5.1c-5.5 1.4-9.4 6.1-9.7 11.8l-2.5 45c-.2 3.6 2.6 6.8 6.2 7h.4 102.1c3.6 0 6.6-3 6.6-6.6 0-.1 0-.2 0-.4l-.6-11.6h27.4c3.6 0 6.6-3 6.6-6.6 0-.1 0-.2 0-.4l-.6-11.6h27.5c3.6 0 6.6-3 6.6-6.6 0-.1 0-.2 0-.4l-2.5-45c-.3-5.6-4.2-10.4-9.7-11.8l-20.2-5.1-10.7-5.2v-7.1c7.2-4.4 12.2-11.8 13.5-20.2 7.4-.3 13.2-6.5 13-13.9-.1-3.1-1.3-6.1-3.4-8.4v-18.8c0-9.7-7.8-17.5-17.5-17.5-2.4 0-4.7.5-6.9 1.4-3.3-4.2-8.4-6.6-13.7-6.6h-7.7c-12.1 0-22.9 7.4-27.5 18.6h-6c-12.1 0-22.9 7.4-27.5 18.6h-6c-16.4 0-29.6 13.3-29.6 29.6v11c-5.4 5.1-5.5 13.7-.4 19 2.4 2.5 5.7 4 9.2 4.1 1.4 8.7 6.6 16.3 14.2 20.6v6.7zm76.3 63.8h-17.8v-22.5c0-1.4-1.1-2.5-2.5-2.5s-2.5 1.1-2.5 2.5v22.5h-57.2v-22.5c0-1.4-1.1-2.5-2.5-2.5s-2.5 1.1-2.5 2.5v22.5h-17c-.9 0-1.6-.7-1.6-1.6v-.1l2.5-45c.2-3.4 2.6-6.4 5.9-7.2l20.4-5.1c.2 0 .3-.1.5-.2l9.7-4.8 3.2 9.2c.6 1.7 2.2 2.8 4 2.8h12.7c1.8 0 3.4-1.1 4-2.8l3.2-9.2 9.7 4.8c.2.1.3.1.5.2l20.4 5.1c3.3.8 5.8 3.8 5.9 7.2.7 12.8 1.5 27.1 2.5 45 .2.9-.5 1.6-1.5 1.7zm-15-109.8c0 4.4-3.3 8-7.6 8.4v-16.8c4.3.4 7.6 4 7.6 8.4zm2.2-39c3 2.6 8.8 6.2 18.6 6.7v22.8c0 8.7-4.8 16.7-12.5 20.9-5 2.7-10.8 3.5-16.3 2.3 0-.1 0-.2 0-.2 7.2-.3 13-6.2 13-13.5 0-3.3-1.2-6.4-3.4-8.9v-18.7c0-3-.8-5.9-2.2-8.5 1-.9 1.9-1.9 2.8-2.9zm31.3 20.4c0 4.4-3.3 8.1-7.7 8.4v-16.8c5.1.9 7.7 4.2 7.7 8.4zm-26.5 41.9-3.8 11h-11.6l-3.5-10.1c1.1-1.8 2-3.6 2.7-5.6 5.4 1.2 11.1.8 16.3-1.1zm41.4 67.9h-17.8v-22.5c0-1.4-1.1-2.5-2.5-2.5s-2.5 1.1-2.5 2.5v22.5h-5l-1.6-28.4c-.3-5.6-4.2-10.4-9.7-11.8l-20.2-5.1-10.6-5.2v-7.1c2.2-1.3 4.1-2.9 5.9-4.7l2.6 7.6c.6 1.7 2.2 2.8 4 2.8h12.7c1.8 0 3.4-1.1 4-2.8l3.2-9.2 9.7 4.8c.2.1.3.1.5.2l20.4 5.1c.8.2 1.6.5 2.3 1 2.1 1.4 3.5 3.7 3.6 6.2l2.5 45c.2.8-.5 1.5-1.5 1.6.1 0 .1 0 0 0zm6.2-77.6 20.4 5.1c3.3.8 5.8 3.8 5.9 7.2l2.5 45c0 .9-.6 1.6-1.5 1.7h-.1-17.8v-22.5c0-1.4-1.1-2.5-2.5-2.5s-2.5 1.1-2.5 2.5v22.5h-5l-1.6-28.4c-.3-5.6-4.2-10.4-9.7-11.8l-20.2-5.1-10.6-5.2v-7.1c2.2-1.3 4.1-2.9 5.9-4.8l2.6 7.6c.6 1.7 2.2 2.8 4 2.8h12.7c1.8 0 3.4-1.1 4-2.8l3.2-9.2 9.7 4.8c.3.1.4.2.6.2zm-14.2-8.9-3.8 11h-11.6l-3.5-10.1c1.1-1.8 2-3.6 2.7-5.6 5.4 1.2 11.1.8 16.3-1.1zm-15-9.6c0-.1 0-.2 0-.2 7.2-.3 13-6.2 13-13.5 0-3.3-1.2-6.4-3.4-8.9v-18.7c0-3-.8-5.9-2.2-8.5 1-.9 1.9-1.8 2.7-2.8 3 2.6 8.8 6.2 18.6 6.7v22.7c0 13.1-10.7 23.8-23.8 23.8-1.6 0-3.2-.2-4.9-.6zm33.8-23.8v-16.9c4.7.4 8.1 4.6 7.6 9.2-.3 4.1-3.5 7.3-7.6 7.7zm-36.4-53.8h7.7c4.4 0 8.5 2.4 10.7 6.1.7 1.2 2.2 1.6 3.4.9 5.9-3.6 13.6-1.6 17.1 4.3 1.2 2 1.8 4.2 1.8 6.5v15.2c-1.4-.5-2.8-.9-4.3-1v-1.4c0-2.1-1.7-3.8-3.8-3.8-10.2-.3-15.4-4.4-17.2-6.1-1.6-1.5-4-1.5-5.6.1-.1.1-.2.2-.3.3-.8 1-1.7 1.9-2.6 2.8-5-5-12.6-6.4-19.1-3.6-2.6-3.2-6.1-5.4-10.1-6.3 4.2-8.6 12.8-14 22.3-14zm-33.5 18.6h7.7c4.4 0 8.5 2.4 10.7 6.1.7 1.2 2.2 1.6 3.4.9 6-3.5 13.6-1.5 17.2 4.4 1.1 1.9 1.7 4.1 1.7 6.3v15.2c-1.4-.5-2.8-.9-4.3-1v-1.4c0-2.1-1.7-3.8-3.8-3.8-10.2-.3-15.4-4.4-17.2-6.1-1.5-1.5-4-1.5-5.5.1-.1.1-.2.2-.3.3-.8 1-1.7 1.9-2.6 2.8-5-5-12.6-6.4-19.1-3.6-2.6-3.2-6.1-5.4-10.1-6.3 4.2-8.5 12.8-13.9 22.2-13.9zm-58 43.2c0-13.6 11-24.6 24.6-24.6h7.7c4.4 0 8.5 2.4 10.7 6.1.7 1.2 2.2 1.6 3.4.9 5.9-3.5 13.6-1.6 17.1 4.4 1.1 1.9 1.8 4.1 1.8 6.4v15c-1.4-.5-2.8-.9-4.3-1v-1.4c0-2.1-1.7-3.8-3.8-3.8-10.2-.3-15.4-4.4-17.2-6.1-1.5-1.5-4-1.5-5.5.1-.1.1-.2.2-.3.3-8.6 10.8-21.1 9.5-26.1 8.5-1.9-.4-3.8.6-4.5 2.4-1.3.1-2.6.3-3.8.7zm-4.2 20.7c0-4.4 3.3-8 7.7-8.4v16.9c-4.3-.5-7.6-4.1-7.7-8.5zm12.7 9.1v-19.9c10.6 1.8 21.5-1 28.9-9.6 3 2.6 8.8 6.2 18.6 6.7v22.8c0 8.7-4.8 16.7-12.5 20.9-6.8 3.7-15 3.8-21.9.4h-.1c-7.9-4.2-13-12.4-13-21.3zm33.8 26.9v5.8l-3.8 11h-11.6l-3.8-11v-5.5c6.2 2.1 13 2 19.2-.3z"/><path d="m95.1 154.8c-1.4-.3-2.7.6-2.9 2-.3 1.4.6 2.7 2 2.9s2.7-.6 2.9-2c0-.2 0-.3 0-.5 0-1.1-.9-2.2-2-2.4z"/><path d="m95.1 168.9c-1.4-.3-2.7.6-2.9 2-.3 1.4.6 2.7 2 2.9s2.7-.6 2.9-2c0-.2 0-.3 0-.5 0-1.2-.9-2.2-2-2.4z"/><path d="m95.1 182.9c-1.4-.3-2.7.6-2.9 2-.3 1.4.6 2.7 2 2.9s2.7-.6 2.9-2c0-.2 0-.3 0-.5 0-1.1-.9-2.2-2-2.4z"/></g></g></svg>