<?xml version="1.0"?>
<svg xmlns="http://www.w3.org/2000/svg" xmlns:xlink="http://www.w3.org/1999/xlink" version="1.1" id="Capa_1" x="0px" y="0px" viewBox="0 0 512 512" style="enable-background:new 0 0 512 512;" xml:space="preserve" width="512px" height="512px"><g><g>
	<g>
		<path d="M75.997,359.996C34.092,359.996,0,394.088,0,435.993s34.092,75.997,75.997,75.997s75.997-34.092,75.997-75.997    S117.903,359.996,75.997,359.996z M75.997,491.991c-30.877,0-55.998-25.121-55.998-55.998s25.121-55.998,55.998-55.998    c30.877,0,55.998,25.121,55.998,55.998S106.874,491.991,75.997,491.991z" data-original="#000000" class="active-path" data-old_color="#000000" fill="#444C66"/>
	</g>
</g><g>
	<g>
		<path d="M75.997,180.003C34.092,180.003,0,214.095,0,256c0,41.906,34.092,75.997,75.997,75.997s75.997-34.092,75.997-75.997    C151.994,214.095,117.903,180.003,75.997,180.003z M75.997,311.998c-30.877,0-55.998-25.121-55.998-55.998    c0-30.877,25.121-55.998,55.998-55.998c30.877,0,55.998,25.121,55.998,55.998C131.995,286.877,106.874,311.998,75.997,311.998z" data-original="#000000" class="active-path" data-old_color="#000000" fill="#444C66"/>
	</g>
</g><g>
	<g>
		<path d="M502,34.008H223.992c-5.523,0-10,4.477-10,10c0,5.523,4.477,10,10,10H502c5.523,0,10-4.477,10-10    C512,38.485,507.523,34.008,502,34.008z" data-original="#000000" class="active-path" data-old_color="#000000" fill="#444C66"/>
	</g>
</g><g>
	<g>
		<path d="M362.997,98.006H223.992c-5.523,0-10,4.477-10,10c0,5.523,4.477,10,10,10h139.005c5.523,0,10-4.477,10-10    C372.996,102.483,368.519,98.006,362.997,98.006z" data-original="#000000" class="active-path" data-old_color="#000000" fill="#444C66"/>
	</g>
</g><g>
	<g>
		<path d="M409.395,100.936c-1.87-1.86-4.44-2.93-7.08-2.93c-2.63,0-5.21,1.07-7.07,2.93c-1.86,1.86-2.93,4.44-2.93,7.07    c0,2.63,1.07,5.21,2.93,7.07c1.86,1.86,4.44,2.93,7.07,2.93c2.64,0,5.21-1.071,7.08-2.93c1.86-1.86,2.92-4.44,2.92-7.07    C412.315,105.376,411.255,102.796,409.395,100.936z" data-original="#000000" class="active-path" data-old_color="#000000" fill="#444C66"/>
	</g>
</g><g>
	<g>
		<path d="M502,214.002H223.992c-5.523,0-10,4.477-10,10c0,5.523,4.477,10,10,10H502c5.523,0,10-4.477,10-10    C512,218.478,507.523,214.002,502,214.002z" data-original="#000000" class="active-path" data-old_color="#000000" fill="#444C66"/>
	</g>
</g><g>
	<g>
		<path d="M402.318,277.999H263.313c-5.523,0-10,4.477-10,10s4.477,10,10,10h139.005c5.523,0,10-4.477,10-10    S407.841,277.999,402.318,277.999z" data-original="#000000" class="active-path" data-old_color="#000000" fill="#444C66"/>
	</g>
</g><g>
	<g>
		<path d="M231.061,280.929c-1.86-1.86-4.44-2.93-7.07-2.93s-5.21,1.07-7.07,2.93c-1.86,1.86-2.93,4.44-2.93,7.07    s1.07,5.21,2.93,7.07s4.44,2.93,7.07,2.93s5.21-1.07,7.07-2.93c1.86-1.86,2.93-4.44,2.93-7.07S232.921,282.789,231.061,280.929z" data-original="#000000" class="active-path" data-old_color="#000000" fill="#444C66"/>
	</g>
</g><g>
	<g>
		<path d="M502,393.995H223.992c-5.523,0-10,4.477-10,10c0,5.523,4.477,10,10,10H502c5.523,0,10-4.477,10-10    C512,398.472,507.523,393.995,502,393.995z" data-original="#000000" class="active-path" data-old_color="#000000" fill="#444C66"/>
	</g>
</g><g>
	<g>
		<path d="M362.997,457.993H223.992c-5.523,0-10,4.477-10,10c0,5.523,4.477,10,10,10h139.005c5.523,0,10-4.477,10-10    C372.996,462.469,368.519,457.993,362.997,457.993z" data-original="#000000" class="active-path" data-old_color="#000000" fill="#444C66"/>
	</g>
</g><g>
	<g>
		<path d="M409.385,460.922c-1.86-1.86-4.43-2.93-7.07-2.93c-2.63,0-5.21,1.07-7.07,2.93c-1.86,1.86-2.93,4.44-2.93,7.07    c0,2.63,1.07,5.21,2.93,7.07c1.86,1.86,4.44,2.93,7.07,2.93c2.64,0,5.21-1.071,7.07-2.93c1.87-1.86,2.93-4.44,2.93-7.07    C412.315,465.362,411.255,462.782,409.385,460.922z" data-original="#000000" class="active-path" data-old_color="#000000" fill="#444C66"/>
	</g>
</g><g>
	<g>
		<path d="M75.997,0.01C34.092,0.01,0,34.101,0,76.007c0,41.905,34.092,75.997,75.997,75.997s75.997-34.092,75.997-75.997    C151.994,34.101,117.903,0.01,75.997,0.01z M75.997,132.005c-30.877,0-55.998-25.121-55.998-55.998    c0-30.877,25.121-55.998,55.998-55.998c30.877,0,55.998,25.121,55.998,55.998C131.995,106.884,106.874,132.005,75.997,132.005z" data-original="#000000" class="active-path" data-old_color="#000000" fill="#444C66"/>
	</g>
</g></g> </svg>
