<?xml version="1.0" encoding="iso-8859-1"?>
<!-- Generator: Adobe Illustrator 19.0.0, SVG Export Plug-In . SVG Version: 6.00 Build 0)  -->
<svg version="1.1" id="Capa_1" xmlns="http://www.w3.org/2000/svg" xmlns:xlink="http://www.w3.org/1999/xlink" x="0px" y="0px"
	 viewBox="0 0 587.2 587.2" style="enable-background:new 0 0 587.2 587.2;" xml:space="preserve">
<path style="fill:#FFFFFF;" d="M83.2,155.2v-72c0-20.8-16.8-37.6-37.6-37.6l0,0C24.8,45.6,8,62.4,8,83.2v72H83.2z"/>
<path style="fill:#193651;" d="M91.2,163.2H0v-80c0-24.8,20.8-45.6,45.6-45.6s45.6,20.8,45.6,45.6V163.2z M16,147.2h59.2v-64
	c0-16-13.6-29.6-29.6-29.6S16,67.2,16,83.2V147.2z"/>
<path style="fill:#FFBF5D;" d="M124,45.6H83.2H45.6c20.8,0,37.6,16.8,37.6,37.6v20v52v386.4H428V83.2c0-20.8-16.8-37.6-37.6-37.6
	H124z"/>
<path style="fill:#193651;" d="M436,549.6H75.2V83.2c0-16-13.6-29.6-29.6-29.6v-16h344.8c24.8,0,45.6,20.8,45.6,45.6V549.6z
	 M91.2,533.6H420V83.2c0-16-13.6-29.6-29.6-29.6H80c7.2,8,11.2,18.4,11.2,29.6C91.2,83.2,91.2,533.6,91.2,533.6z"/>
<g>
	<path style="fill:#FFFFFF;" d="M115.2,509.6V83.2c0-1.6,0-4,0-5.6h281.6v432H115.2z"/>
	
		<rect x="175.132" y="183.39" transform="matrix(-0.9353 0.3539 -0.3539 -0.9353 784.425 436.1405)" style="fill:#FFFFFF;" width="354.406" height="212.803"/>
</g>
<path style="fill:#193651;" d="M220,462.4l-80.8-213.6l346.4-131.2l80.8,213.6L220,462.4z M160,257.6l69.6,184l316.8-120l-69.6-184
	L160,257.6z"/>
<path style="fill:#E1E6E9;" d="M234.4,381.6L203.2,300c16.8-6.4,24.8-24.8,18.4-41.6l208-78.4c6.4,16.8,24.8,24.8,41.6,18.4
	l31.2,81.6c-16.8,6.4-24.8,24.8-18.4,41.6L276,400C269.6,383.2,251.2,375.2,234.4,381.6z"/>
<rect x="224.8" y="246.4" style="fill:#D3D7DA;" width="354.4" height="212.8"/>
<path style="fill:#193651;" d="M587.2,467.2H216.8V238.4h370.4V467.2z M232.8,451.2h338.4V254.4H232.8V451.2z"/>
<path style="fill:#FFFFFF;" d="M258.4,396.8v-87.2c17.6,0,32-14.4,32-32h222.4c0,17.6,14.4,32,32,32v87.2c-17.6,0-32,14.4-32,32
	H290.4C290.4,411.2,276,396.8,258.4,396.8z"/>
<g>
	<circle style="fill:#27A2DE;" cx="401.6" cy="352.8" r="56"/>
	<circle style="fill:#27A2DE;" cx="512.8" cy="352.8" r="13.6"/>
	<circle style="fill:#27A2DE;" cx="291.2" cy="352.8" r="13.6"/>
</g>
<path style="fill:#FFFFFF;" d="M418.4,365.6c0-8.8-7.2-16.8-16.8-16.8c-4.8,0-8-4-8-8c0-4.8,4-8,8-8c4.8,0,8,4,8,8h8.8
	c0-8-5.6-14.4-12-16v-6.4h-8.8v6.4c-7.2,1.6-12,8-12,16c0,8.8,7.2,16.8,16.8,16.8c4.8,0,8,4,8,8c0,4.8-4,8-8,8c-4.8,0-8-4-8-8h-8.8
	c0,8,5.6,14.4,12,16v6.4h8.8v-6.4C413.6,380,418.4,373.6,418.4,365.6z"/>
<rect x="149.6" y="104" style="fill:#193651;" width="128" height="16"/>
<rect x="154.4" y="147.2" style="fill:#193651;" width="16" height="16"/>
<rect x="205.6" y="147.2" style="fill:#193651;" width="16" height="16"/>
<rect x="256.8" y="147.2" style="fill:#193651;" width="16" height="16"/>
<g>
</g>
<g>
</g>
<g>
</g>
<g>
</g>
<g>
</g>
<g>
</g>
<g>
</g>
<g>
</g>
<g>
</g>
<g>
</g>
<g>
</g>
<g>
</g>
<g>
</g>
<g>
</g>
<g>
</g>
</svg>
