<?xml version="1.0" encoding="iso-8859-1"?>
<!-- Generator: Adobe Illustrator 19.0.0, SVG Export Plug-In . SVG Version: 6.00 Build 0)  -->
<svg version="1.1" id="Capa_1" xmlns="http://www.w3.org/2000/svg" xmlns:xlink="http://www.w3.org/1999/xlink" x="0px" y="0px"
	 viewBox="0 0 512 512" style="enable-background:new 0 0 512 512;" xml:space="preserve">
<path style="fill:#FFFFFF;" d="M75.2,504L75.2,504c36.8,0,67.2-29.6,67.2-67.2V330.4H8v106.4C8,474.4,37.6,504,75.2,504z"/>
<path style="fill:#193651;" d="M75.2,512C33.6,512,0,478.4,0,436.8V322.4h149.6v114.4C149.6,478.4,116,512,75.2,512z M16,338.4v98.4
	c0,32.8,26.4,59.2,59.2,59.2s59.2-26.4,59.2-59.2v-98.4H16z"/>
<path style="fill:#FFFFFF;" d="M141.6,8v322.4v59.2v47.2c0,36.8-29.6,67.2-67.2,67.2h67.2h100.8h194.4c36.8,0,67.2-29.6,67.2-67.2
	v-328L402.4,8H141.6z"/>
<path style="fill:#193651;" d="M436.8,512H75.2v-16c32.8,0,59.2-26.4,59.2-59.2V0h272L512,106.4v331.2
	C512,478.4,478.4,512,436.8,512z M120.8,496h316c32.8,0,59.2-26.4,59.2-59.2v-324L399.2,16H149.6v420.8
	C149.6,460.8,138.4,482.4,120.8,496z"/>
<path style="fill:#FFBF5D;" d="M167.2,472c4-11.2,6.4-22.4,6.4-35.2V40h215.2l83.2,82.4v314.4c0,19.2-16,35.2-35.2,35.2H167.2z"/>
<polygon style="fill:#E1E6E9;" points="389.6,40 389.6,122.4 472,122.4 "/>
<rect x="204.8" y="81.6" style="fill:#193651;" width="140" height="16"/>
<rect x="204.8" y="148" style="fill:#193651;" width="229.6" height="16"/>
<rect x="204.8" y="214.4" style="fill:#193651;" width="229.6" height="16"/>
<g>
	<rect x="204.8" y="280.8" style="fill:#193651;" width="229.6" height="16"/>
	<path style="fill:#193651;" d="M422.4,401.6c0-12.8-10.4-24-24-24c-6.4,0-11.2-4.8-11.2-11.2c0-6.4,4.8-11.2,11.2-11.2
		c6.4,0,11.2,4.8,11.2,11.2h12c0-11.2-7.2-20-17.6-23.2v-8.8h-12v8.8c-10.4,2.4-17.6,12-17.6,23.2c0,12.8,10.4,24,24,24
		c6.4,0,11.2,4.8,11.2,11.2c0,6.4-4.8,11.2-11.2,11.2c-6.4,0-11.2-4.8-11.2-11.2h-12c0,11.2,7.2,20,17.6,23.2v8.8h12v-8.8
		C414.4,421.6,422.4,412.8,422.4,401.6z"/>
</g>
<rect x="204.8" y="384.8" style="fill:#193651;" width="16" height="16"/>
<rect x="256" y="384.8" style="fill:#193651;" width="16" height="16"/>
<rect x="307.2" y="384.8" style="fill:#193651;" width="16" height="16"/>
<g>
</g>
<g>
</g>
<g>
</g>
<g>
</g>
<g>
</g>
<g>
</g>
<g>
</g>
<g>
</g>
<g>
</g>
<g>
</g>
<g>
</g>
<g>
</g>
<g>
</g>
<g>
</g>
<g>
</g>
</svg>
