<?xml version="1.0" encoding="utf-8"?>
<!-- Generator: Adobe Illustrator 24.3.0, SVG Export Plug-In . SVG Version: 6.00 Build 0)  -->
<svg version="1.1" id="Capa_1" xmlns="http://www.w3.org/2000/svg" xmlns:xlink="http://www.w3.org/1999/xlink" x="0px" y="0px"
	 viewBox="0 0 496.5 496.5" style="enable-background:new 0 0 496.5 496.5;" xml:space="preserve">
<style type="text/css">
	.st0{fill:#F05454;}
	.st1{fill:#E1E6E9;}
	.st2{fill:#193651;}
	.st3{fill:#FFFFFF;}
	.st4{fill:#FDBF5E;}
	.st5{fill:#F16051;}
	.st6{opacity:0.36;fill:#4CAF50;}
	.st7{opacity:0.36;fill:#607D8B;}
	.st8{opacity:0.36;fill:#FFFFFF;}
	.st9{opacity:0.36;fill:#429846;}
	.st10{opacity:0.36;fill:#546D79;}
	.st11{opacity:0.36;fill:#DEDEDE;}
</style>
<circle class="st0" cx="183.1" cy="335.1" r="161.4"/>
<rect x="180.8" y="33.4" class="st1" width="287" height="334.4"/>
<path class="st2" d="M467.8,374.7h-287c-3.9,0-7-3.1-7-7V33.4c0-3.9,3.1-7,7-7h287c3.9,0,7,3.1,7,7v334.4
	C474.8,371.6,471.7,374.7,467.8,374.7z M187.7,360.7h273.8V40.3H187.7V360.7z"/>
<rect x="207.6" y="59.7" class="st3" width="233.5" height="280.8"/>
<path class="st4" d="M169.9,414.3c10.9,5.4,42.7,18.6,41.9-4.7c10.9,3.9,20.9-0.8,20.2-13.2c10.9,3.9,20.2-3.1,20.2-14.7
	c20.2,3.9,21.7-17.1,12.4-29.5c-7-8.5-15.5-15.5-24-22.5c-13.2-11.6-25.6-24-38.8-34.1c-9.3-7-18.6-7-30.3-9.3
	c-20.2-3.9-35.7-4.7-52.8-17.1l-41.1,61.3c5.4,5.4,12.4,11.6,18.6,17.8"/>
<path class="st2" d="M198.6,429.8c-13.2,0-28.7-7.8-31.8-9.3s-4.7-5.4-3.1-9.3c1.6-3.1,5.4-4.7,9.3-3.1c10.9,5.4,25.6,10.1,30.3,7
	c1.6-0.8,1.6-2.3,1.6-5.4c0-2.3,0.8-4.7,2.3-5.4c1.6-1.6,3.9-1.6,6.2-0.8c6.2,2.3,11.6,0.8,11.6-6.2c0-2.3,0.8-4.7,2.3-5.4
	c1.6-1.6,3.9-1.6,6.2-0.8c7,2.3,10.9-1.6,11.6-8.5c0-2.3,0.8-3.9,2.3-4.7c1.6-1.6,3.1-1.6,5.4-1.6c4.7,0.8,7.8,0,9.3-2.3
	c2.3-3.1,1.6-10.9-3.1-16.3c-5.4-6.2-11.6-11.6-18.6-17.8l-4.7-3.9c-4.7-3.9-8.5-7.8-13.2-11.6c-8.5-7.8-17.1-15.5-25.6-22.5
	c-6.2-4.7-12.4-5.4-20.9-7c-2.3,0-4.7-0.8-6.2-0.8c-3.1-0.8-6.2-0.8-9.3-1.6c-14-2.3-27.2-4.7-40.3-12.4l-34.1,50.4
	c1.6,1.6,3.1,3.1,5.4,4.7c3.1,3.1,6.2,6.2,9.3,8.5c2.3,2.3,3.1,7,0,9.3c-2.3,2.3-7,3.1-9.3,0c-3.1-3.1-6.2-5.4-9.3-8.5
	s-6.2-6.2-9.3-8.5c-2.3-2.3-3.1-6.2-0.8-8.5l41.1-61.3c0.8-1.6,2.3-2.3,4.7-3.1c1.6,0,3.9,0,5.4,0.8c13.2,9.3,25.6,11.6,41.1,14
	c3.1,0.8,6.2,0.8,9.3,1.6c2.3,0.8,3.9,0.8,6.2,0.8c9.3,1.6,17.8,3.1,26.4,9.3c9.3,7,18.6,15.5,27.2,23.3c3.9,3.9,8.5,7.8,12.4,11.6
	l4.7,3.9c7,6.2,14,11.6,20.2,19.4c7.8,9.3,9.3,23.3,4.7,31.8c-3.1,5.4-9.3,8.5-16.3,9.3c-2.3,8.5-9.3,15.5-20.2,15.5
	c-2.3,8.5-10.1,14-20.2,13.2C214.9,425.9,207.9,429.8,198.6,429.8z"/>
<path class="st4" d="M196.3,290.9l64.4,55.9l27.2-12.4v-70.6l-97-16.3l-41.1,36.5c-7,6.2-7,17.1-0.8,23.3l0,0
	c5.4,5.4,13.2,6.2,19.4,2.3L196.3,290.9z"/>
<path class="st2" d="M260.7,353.7c-1.6,0-3.1-0.8-4.7-1.6l-60.5-52.8L170.7,315c-3.9,2.3-7.8,3.1-11.6,3.1l0,0
	c-6.2,0-11.6-2.3-15.5-6.2c-9.3-9.3-8.5-24,0.8-33.4l41.1-36.5c1.6-1.6,3.9-1.6,5.4-1.6l97,16.3c3.1,0.8,5.4,3.1,5.4,7v70.6
	c0,2.3-1.6,4.7-3.9,6.2L262.2,353C262.2,353,261.4,353.7,260.7,353.7z M196.3,283.9c1.6,0,3.1,0.8,4.7,1.6l60.5,52.8l19.4-8.5v-60.5
	l-88.4-14.7l-38.8,34.1c-3.9,3.1-3.9,9.3-0.8,13.2c3.1,3.1,7.8,3.1,10.9,1.6l28.7-17.8C193.9,284.7,195.5,283.9,196.3,283.9z"/>
<path class="st3" d="M97,252.1l-43.4,64.4c-3.9,6.2-2.3,14.7,3.9,18.6s14.7,2.3,18.6-3.9l43.4-64.4c3.9-6.2,2.3-14.7-3.9-18.6
	S101.6,245.9,97,252.1z"/>
<path class="st2" d="M65.2,344.4L65.2,344.4c-3.9,0-7.8-1.6-11.6-3.1c-9.3-6.2-11.6-18.6-5.4-27.9L91.5,249
	c6.2-9.3,18.6-11.6,27.9-5.4s11.6,18.6,5.4,27.9l-43.4,64.4C78.4,341.3,72.1,344.4,65.2,344.4z M102.4,256L59,320.4
	c-2.3,3.1-1.6,7.8,1.6,9.3c3.1,2.3,7.8,1.6,9.3-1.6l43.4-64.4c2.3-3.1,1.6-7.8-1.6-9.3C109.4,252.1,104.7,252.9,102.4,256z"/>
<path class="st3" d="M315,338.2v-77.6c0-7.8-6.2-14-14-14s-14,6.2-14,14v77.6c0,7.8,6.2,14,14,14C308.8,351.4,315,345.2,315,338.2z"
	/>
<path class="st2" d="M301,358.4L301,358.4c-10.9,0-20.2-9.3-20.2-20.2v-77.6c0-10.9,9.3-20.2,20.2-20.2c10.9,0,20.2,9.3,20.2,20.2
	v77.6C321.9,349.1,312.6,358.4,301,358.4z M301,253.7c-3.9,0-7,3.1-7,7v77.6c0,3.9,3.1,7,7,7s7-3.1,7-7v-77.6
	C308,256.8,304.9,253.7,301,253.7z"/>
<path class="st2" d="M252.9,388.7c-1.6,0-3.1-0.8-4.7-1.6l-33.4-30.3c-3.1-2.3-3.1-7-0.8-9.3c2.3-3.1,7-3.1,9.3-0.8l33.4,30.3
	c3.1,2.3,3.1,7,0.8,9.3C256,387.9,254.4,388.7,252.9,388.7z"/>
<path class="st2" d="M232,403.4c-1.6,0-3.1-0.8-4.7-1.6l-29.5-26.4c-3.1-2.3-3.1-7-0.8-9.3c2.3-3.1,7-3.1,9.3-0.8l29.5,26.4
	c3.1,2.3,3.1,7,0.8,9.3C235.8,402.6,234.3,403.4,232,403.4z"/>
<path class="st2" d="M211.8,416.6c-1.6,0-3.1-0.8-4.7-2.3l-17.8-17.8c-2.3-2.3-2.3-7,0-9.3s7-2.3,9.3,0l17.8,17.8
	c2.3,2.3,2.3,7,0,9.3C215.7,415.8,213.3,416.6,211.8,416.6z"/>
<path class="st4" d="M173.8,393.3L173.8,393.3c-4.7-5.4-12.4-5.4-18.6-0.8l-9.3,7.8c-5.4,4.7-6.2,13.2-1.6,18.6
	c4.7,5.4,13.2,6.2,18.6,1.6l9.3-7.8C178.4,407.3,178.4,398.7,173.8,393.3z"/>
<path class="st2" d="M155.2,429.8L155.2,429.8c-5.4,0-10.9-2.3-14.7-7c-7-8.5-6.2-20.9,2.3-27.9l9.3-7.8c7.8-7,20.9-6.2,27.9,2.3
	c7,8.5,6.2,20.9-2.3,27.9l-9.3,7.8C164.5,428.2,159.8,429.8,155.2,429.8z M164.5,395.6c-0.8,0-2.3,0-3.9,1.6l-9.3,7.8
	c-2.3,2.3-3.1,6.2-0.8,9.3c2.3,2.3,6.2,3.1,9.3,0.8l9.3-7.8c2.3-2.3,3.1-6.2,0.8-9.3C167.6,396.4,166,395.6,164.5,395.6z"/>
<path class="st4" d="M116.4,345.2c-3.9-4.7-11.6-5.4-16.3-0.8l-7.8,6.2c-4.7,3.9-5.4,11.6-0.8,16.3l0,0c3.9,4.7,11.6,5.4,16.3,0.8
	l7.8-6.2C120.2,356.8,121,349.9,116.4,345.2z"/>
<path class="st2" d="M100.8,377L100.8,377c-5.4,0-10.1-2.3-14-6.2c-6.2-7.8-5.4-18.6,1.6-25.6l7.8-6.2c7-6.2,19.4-5.4,25.6,1.6
	c6.2,7.8,5.4,18.6-1.6,25.6l-7.8,6.2C109.4,375.5,104.7,377,100.8,377z M107.8,347.5c-0.8,0-1.6,0-3.1,0.8l-7.8,6.2
	c-1.6,1.6-2.3,4.7-0.8,6.2c0.8,0.8,2.3,1.6,3.1,1.6l0,0c0.8,0,1.6,0,3.1-0.8l7.8-6.2c1.6-1.6,2.3-4.7,0.8-6.2
	C110.9,348.3,109.4,347.5,107.8,347.5z"/>
<path class="st4" d="M160.6,370.8c-4.7-5.4-12.4-6.2-17.8-1.6l-17.1,15.5c-5.4,4.7-6.2,13.2-1.6,17.8l0,0c4.7,5.4,12.4,5.4,17.8,1.6
	l17.1-15.5C165.2,384,165.2,376.2,160.6,370.8z"/>
<path class="st2" d="M133.4,413.5L133.4,413.5c-5.4,0-10.9-2.3-14.7-7c-3.1-3.9-5.4-9.3-4.7-14c0-5.4,3.1-10.1,7-13.2l17.1-15.5
	c7.8-7,20.9-6.2,27.9,1.6s6.2,20.2-2.3,27.9l-17.1,15.5C142.7,411.9,138.1,413.5,133.4,413.5z M151.3,373.1c-0.8,0-2.3,0-3.9,1.6
	l-17.1,15.5c-1.6,0.8-2.3,2.3-2.3,3.9s0.8,3.1,1.6,4.7c2.3,2.3,6.2,3.1,8.5,0.8l17.1-15.5c2.3-2.3,3.1-6.2,0.8-8.5
	C154.4,373.9,152.8,373.1,151.3,373.1z"/>
<path class="st4" d="M148.2,348.3c-4.7-5.4-12.4-5.4-17.1-1.6L104.7,370c-5.4,4.7-5.4,12.4-1.6,17.1c4.7,5.4,12.4,5.4,17.1,1.6
	l26.4-23.3C152,361.5,152.8,353.7,148.2,348.3z"/>
<path class="st2" d="M112.5,398.7L112.5,398.7c-5.4,0-10.9-2.3-14-6.2s-4.7-8.5-4.7-14c0-4.7,2.3-9.3,6.2-13.2l26.4-23.3
	c7.8-6.2,20.2-5.4,26.4,1.6c3.1,3.9,4.7,8.5,4.7,14c0,4.7-2.3,9.3-6.2,13.2l-26.4,23.3C121.8,396.4,117.1,398.7,112.5,398.7z
	 M138.9,351.4c-0.8,0-2.3,0-3.9,1.6l-26.4,23.3c-2.3,2.3-2.3,5.4-0.8,7.8c0.8,1.6,2.3,1.6,3.9,1.6l0,0c0.8,0,2.3,0,3.9-1.6
	l26.4-23.3c0.8-0.8,1.6-2.3,1.6-3.9s0-3.1-1.6-3.9C142,351.4,140.4,351.4,138.9,351.4z"/>
<polygon class="st5" points="404.9,60.5 252.1,60.5 277.7,7 379.3,7 "/>
<path class="st2" d="M404.9,67.5L404.9,67.5H252.1c-2.3,0-4.7-1.6-5.4-3.1c-1.6-2.3-1.6-4.7-0.8-6.2l25.6-54.3
	c0.8-2.3,3.1-3.9,6.2-3.9h102.4c2.3,0,4.7,1.6,6.2,3.9l24.8,52.8c0.8,0.8,1.6,2.3,1.6,3.9C411.9,64.4,408.8,67.5,404.9,67.5z
	 M262.2,53.5h131.9l-19.4-40.3h-93.1L262.2,53.5z"/>
<rect x="234.3" y="100.1" class="st3" width="27.9" height="27.9"/>
<path class="st2" d="M262.2,134.2h-27.9c-3.9,0-7-3.1-7-7V99.3c0-3.9,3.1-7,7-7h27.9c3.9,0,7,3.1,7,7v27.9
	C269.2,131.1,266.1,134.2,262.2,134.2z M241.3,121H256v-14.7h-14.7V121z"/>
<rect x="234.3" y="169.9" class="st3" width="27.9" height="27.9"/>
<g>
	<path class="st2" d="M262.2,204.8h-27.9c-3.9,0-7-3.1-7-7v-27.9c0-3.9,3.1-7,7-7h27.9c3.9,0,7,3.1,7,7v27.9
		C269.2,201.7,266.1,204.8,262.2,204.8z M241.3,190.8H256v-14.7h-14.7V190.8z"/>
	<path class="st2" d="M412.7,120.2H315c-3.9,0-7-3.1-7-7c0-3.9,3.1-7,7-7h97.7c3.9,0,7,3.1,7,7C418.9,117.1,415.8,120.2,412.7,120.2
		z"/>
	<path class="st2" d="M412.7,190.8H315c-3.9,0-7-3.1-7-7s3.1-7,7-7h97.7c3.9,0,7,3.1,7,7C418.9,187.7,415.8,190.8,412.7,190.8z"/>
	<path class="st2" d="M412.7,260.7h-63.6c-3.9,0-7-3.1-7-7s3.1-7,7-7h63.6c3.9,0,7,3.1,7,7C418.9,257.6,415.8,260.7,412.7,260.7z"/>
	<rect x="342.1" y="303.3" class="st2" width="13.2" height="13.2"/>
	<rect x="373.9" y="303.3" class="st2" width="13.2" height="13.2"/>
	<rect x="405.7" y="303.3" class="st2" width="13.2" height="13.2"/>
</g>
<path class="st6" d="M88.4,51.8c-16.5,0-30,13.5-30,30s13.5,30,30,30s30-13.5,30-30S105,51.8,88.4,51.8z"/>
<path class="st7" d="M35.9,81.8c0-29,23.6-52.5,52.5-52.5c10.4,0,20.3,3,28.7,8.5l-7.6,7.6c-2.4,2.4-0.7,6.4,2.7,6.4h22.5
	c2.1,0,3.8-1.7,3.8-3.8V25.5c0-3.3-4-5-6.4-2.7l-9.6,9.6c-9.9-6.8-21.6-10.7-34-10.7c-33.1,0-60,26.9-60,60c0,5.9,0.9,11.7,2.6,17.3
	c0.6,2,2.7,3.1,4.7,2.5c2-0.6,3.1-2.7,2.5-4.7C36.7,92,35.9,86.9,35.9,81.8L35.9,81.8z"/>
<path class="st7" d="M145.9,64.5c-0.6-2-2.7-3.1-4.7-2.5c-2,0.6-3.1,2.7-2.5,4.7c1.5,4.9,2.2,10,2.2,15.2c0,29-23.6,52.5-52.5,52.5
	c-10.4,0-20.2-3-28.6-8.5l7.5-7.6c2.3-2.4,0.7-6.4-2.7-6.4H42.2c-1,0-2,0.4-2.7,1.1c-0.7,0.7-1.1,1.7-1.1,2.7l0.3,22.5
	c0,3.3,4.1,5,6.4,2.6l9.4-9.5c9.8,6.8,21.6,10.6,34,10.6c33.1,0,60-26.9,60-60C148.4,75.9,147.6,70.1,145.9,64.5L145.9,64.5z"/>
<path class="st8" d="M102.4,94.8c-1.7,2.2-4.8,2.7-7,1l-10-8.8c-1.3-0.9-2-2.4-2-4V66.8c0-2.8,2.2-5,5-5s5,2.2,5,5v13.8l8,7.3
	C103.6,89.5,104.1,92.6,102.4,94.8L102.4,94.8z"/>
<path class="st9" d="M88.4,51.8c-16.5,0-30,13.5-30,30s13.5,30,30,30V89.7l-3-2.6c-1.3-0.9-2-2.4-2-4V66.8c0-2.8,2.2-5,5-5V51.8z"/>
<path class="st10" d="M88.4,21.8c-33.1,0-60,26.9-60,60c0,5.9,0.9,11.7,2.6,17.3c0.5,1.6,2,2.7,3.6,2.7c0.4,0,0.7-0.1,1.1-0.2
	c2-0.6,3.1-2.7,2.5-4.7c-1.5-4.9-2.2-10-2.2-15.2c0-29,23.6-52.5,52.5-52.5V21.8z"/>
<path class="st10" d="M64.7,111.8H42.2c-1,0-2,0.4-2.7,1.1c-0.7,0.7-1.1,1.7-1.1,2.7l0.3,22.5c0,2.2,1.9,3.7,3.8,3.7
	c0.9,0,1.9-0.3,2.6-1.1l9.4-9.5c9.8,6.8,21.6,10.6,34,10.6v-7.5c-10.4,0-20.2-3-28.6-8.5l7.5-7.6C69.7,115.8,68,111.8,64.7,111.8z"
	/>
<path class="st11" d="M88.4,61.8c-2.8,0-5,2.2-5,5V83c0,1.6,0.7,3.1,2,4l3,2.6V61.8z"/>
</svg>
