<?xml version="1.0" encoding="iso-8859-1"?>
<!-- Generator: Adobe Illustrator 19.0.0, SVG Export Plug-In . SVG Version: 6.00 Build 0)  -->
<svg version="1.1" id="Capa_1" xmlns="http://www.w3.org/2000/svg" xmlns:xlink="http://www.w3.org/1999/xlink" x="0px" y="0px"
	 viewBox="0 0 512 512" style="enable-background:new 0 0 512 512;" xml:space="preserve">
<circle style="fill:#FFFFFF;" cx="64.8" cy="196.4" r="21.6"/>
<path style="fill:#193651;" d="M64.8,226.8c-16.8,0-29.6-13.6-29.6-29.6c0-16.8,13.6-29.6,29.6-29.6s29.6,13.6,29.6,29.6
	S81.6,226.8,64.8,226.8z M64.8,182.8c-8,0-13.6,6.4-13.6,13.6S57.6,210,64.8,210s13.6-6.4,13.6-13.6S72.8,182.8,64.8,182.8z"/>
<circle style="fill:#FFFFFF;" cx="210.4" cy="114" r="21.6"/>
<g>
	<path style="fill:#193651;" d="M210.4,143.6c-16.8,0-29.6-13.6-29.6-29.6c0-16.8,13.6-29.6,29.6-29.6S240,98,240,114
		C240.8,130.8,227.2,143.6,210.4,143.6z M210.4,100.4c-8,0-13.6,6.4-13.6,13.6s6.4,13.6,13.6,13.6S224,121.2,224,114
		S218.4,100.4,210.4,100.4z"/>
	<polygon style="fill:#193651;" points="14.4,446 1.6,436.4 128,277.2 304,324.4 497.6,90 510.4,100.4 309.6,342 133.6,295.6 	"/>
</g>
<path style="fill:#FFFFFF;" d="M94.4,246.8H35.2C20,246.8,8,258.8,8,274v53.6h20.8v88l92.8-116.8V274
	C121.6,258.8,109.6,246.8,94.4,246.8z"/>
<path style="fill:#193651;" d="M20.8,438V335.6H0V274c0-19.2,16-35.2,35.2-35.2h60c19.2,0,35.2,16,35.2,35.2v27.2L20.8,438z
	 M16,319.6h20.8v72.8l76.8-96.8V274c0-10.4-8.8-19.2-19.2-19.2H35.2c-10.4,0-19.2,8.8-19.2,19.2V319.6z"/>
<path style="fill:#FFFFFF;" d="M267.2,245.2v-53.6c0-15.2-12-27.2-27.2-27.2h-60c-15.2,0-27.2,12-27.2,27.2v53.6h20.8V298l72.8,19.2
	v-72H267.2z"/>
<path style="fill:#193651;" d="M254.4,327.6l-88.8-23.2v-51.2h-20.8v-61.6c0-19.2,16-35.2,35.2-35.2h60c19.2,0,35.2,16,35.2,35.2
	v61.6h-20.8L254.4,327.6L254.4,327.6z M182.4,291.6l56.8,15.2v-69.6H260v-45.6c0-10.4-8.8-19.2-19.2-19.2h-60
	c-10.4,0-19.2,8.8-19.2,19.2v45.6h20.8L182.4,291.6L182.4,291.6z"/>
<path style="fill:#44C4A1;" d="M392.8,164.4h20.8v-53.6c0-15.2-12-27.2-27.2-27.2h-60c-15.2,0-27.2,12-27.2,27.2v53.6H320v152.8
	l72.8-87.2V164.4z"/>
<path style="fill:#193651;" d="M312,339.6V172.4h-20.8v-61.6c0-19.2,16-35.2,35.2-35.2h60c19.2,0,35.2,16,35.2,35.2v61.6h-20.8v60
	L312,339.6z M307.2,156.4H328v139.2l56.8-68v-70.4h20.8v-45.6c0-10.4-8.8-19.2-19.2-19.2h-60c-10.4,0-19.2,8.8-19.2,19.2
	L307.2,156.4L307.2,156.4z"/>
<circle style="fill:#FFFFFF;" cx="356" cy="33.2" r="21.6"/>
<g>
	<path style="fill:#193651;" d="M356,63.6c-16.8,0-29.6-13.6-29.6-29.6c0-16.8,13.6-29.6,29.6-29.6c16.8,0,29.6,13.6,29.6,29.6
		C386.4,50,372.8,63.6,356,63.6z M356,19.6c-8,0-13.6,6.4-13.6,13.6s6.4,14.4,13.6,14.4c8,0,13.6-6.4,13.6-13.6S364,19.6,356,19.6z"
		/>
	<polygon style="fill:#193651;" points="512,130.8 496,130.8 496,102.8 468,102.8 468,86.8 512,86.8 	"/>
</g>
<rect x="348" y="127.6" style="fill:#193651;" width="16" height="16"/>
<rect x="348" y="175.6" style="fill:#193651;" width="16" height="16"/>
<rect x="202.4" y="199.6" style="fill:#193651;" width="16" height="16"/>
<rect x="56.8" y="278.8" style="fill:#193651;" width="16" height="16"/>
<g>
	<rect x="35.2" y="397.2" style="fill:#193651;" width="16" height="110.4"/>
	<path style="fill:#193651;" d="M121.6,507.6h-16v-11.2h16V507.6z M121.6,480.4h-16v-16h16V480.4z M121.6,448.4h-16v-16h16V448.4z
		 M121.6,416.4h-16v-16h16V416.4z M121.6,384.4h-16v-16h16V384.4z M121.6,352.4h-16v-16h16V352.4z"/>
</g>
<g>
	<rect x="176.8" y="304.4" style="fill:#193651;" width="16" height="203.2"/>
	<path style="fill:#193651;" d="M264,507.6h-16v-11.2h16V507.6z M264,480.4h-16v-16h16V480.4z M264,448.4h-16v-16h16V448.4z
		 M264,416.4h-16v-16h16V416.4z M264,384.4h-16v-16h16V384.4z M264,352.4h-16v-16h16V352.4z"/>
</g>
<g>
	<rect x="318.4" y="309.2" style="fill:#193651;" width="16" height="198.4"/>
	<path style="fill:#193651;" d="M405.6,499.6h-16v-16h16V499.6z M405.6,467.6h-16v-16h16V467.6z M405.6,435.6h-16v-16h16V435.6z
		 M405.6,403.6h-16v-16h16V403.6z M405.6,371.6h-16v-16h16V371.6z M405.6,339.6h-16v-16h16V339.6z M405.6,307.6h-16v-16h16V307.6z
		 M405.6,275.6h-16v-16h16V275.6z"/>
</g>
<rect x="460.8" y="138" style="fill:#193651;" width="16" height="369.6"/>
<g>
</g>
<g>
</g>
<g>
</g>
<g>
</g>
<g>
</g>
<g>
</g>
<g>
</g>
<g>
</g>
<g>
</g>
<g>
</g>
<g>
</g>
<g>
</g>
<g>
</g>
<g>
</g>
<g>
</g>
</svg>
