<?xml version="1.0" encoding="iso-8859-1"?>
<!-- Generator: Adobe Illustrator 19.0.0, SVG Export Plug-In . SVG Version: 6.00 Build 0)  -->
<svg version="1.1" id="Capa_1" xmlns="http://www.w3.org/2000/svg" xmlns:xlink="http://www.w3.org/1999/xlink" x="0px" y="0px"
	 viewBox="0 0 521.6 521.6" style="enable-background:new 0 0 521.6 521.6;" xml:space="preserve">
<path style="fill:#FFFFFF;" d="M8,380.8c0,72,84,130.4,187.2,130.4s187.2-58.4,187.2-130.4V145.6H8V380.8z"/>
<path style="fill:#193651;" d="M195.2,519.2C88,519.2,0,456.8,0,380.8V137.6h390.4v243.2C390.4,456.8,303.2,519.2,195.2,519.2z
	 M16,153.6v227.2c0,67.2,80,122.4,179.2,122.4S374.4,448,374.4,380.8V153.6H16z"/>
<path style="fill:#FFFFFF;" d="M382.4,302.4c0,72-84,130.4-187.2,130.4S8,374.4,8,302.4"/>
<path style="fill:#193651;" d="M195.2,440.8C87.2,440.8,0,378.4,0,302.4h16c0,67.2,80,122.4,179.2,122.4s179.2-55.2,179.2-122.4h16
	C390.4,378.4,303.2,440.8,195.2,440.8z"/>
<path style="fill:#FFFFFF;" d="M382.4,224c0,72-84,130.4-187.2,130.4S8,296,8,224"/>
<g>
	<path style="fill:#193651;" d="M195.2,362.4C87.2,362.4,0,300,0,224h16c0,67.2,80,122.4,179.2,122.4S374.4,291.2,374.4,224h16
		C390.4,300,303.2,362.4,195.2,362.4z"/>
	<path style="fill:#193651;" d="M487.2,510.4h-16v-16h16V510.4z M487.2,478.4h-16v-16h16V478.4z M487.2,446.4h-16v-16h16V446.4z
		 M487.2,414.4h-16v-16h16V414.4z M487.2,382.4h-16v-16h16V382.4z M487.2,350.4h-16v-16h16V350.4z M487.2,318.4h-16v-16h16V318.4z"
		/>
	<path style="fill:#193651;" d="M443.2,510.4h-16v-16h16V510.4z M443.2,478.4h-16v-16h16V478.4z M443.2,446.4h-16v-16h16V446.4z
		 M443.2,414.4h-16v-16h16V414.4z M443.2,382.4h-16v-16h16V382.4z M443.2,350.4h-16v-16h16V350.4z M443.2,318.4h-16v-16h16V318.4z"
		/>
</g>
<rect x="471.2" y="68.8" style="fill:#193651;" width="16" height="209.6"/>
<rect x="427.2" y="68.8" style="fill:#193651;" width="16" height="209.6"/>
<ellipse style="fill:#FFFFFF;" cx="195.2" cy="145.6" rx="187.2" ry="130.4"/>
<path style="fill:#193651;" d="M195.2,283.2C87.2,283.2,0,220.8,0,144.8S88,7.2,195.2,7.2s195.2,61.6,195.2,138.4
	S303.2,283.2,195.2,283.2z M195.2,23.2C96.8,23.2,16,77.6,16,145.6S96,268,195.2,268s179.2-55.2,179.2-122.4S294.4,23.2,195.2,23.2z
	"/>
<path style="fill:#FFBF5D;" d="M195.2,243.2c-84.8,0-156.8-44.8-156.8-98.4s72-98.4,156.8-98.4S352,91.2,352,144.8
	S280,243.2,195.2,243.2z"/>
<path style="fill:#193651;" d="M237.6,169.6c0-18.4-19.2-32.8-41.6-32.8c-11.2,0-20-7.2-20-16s8.8-16,20-16s20,7.2,20,16h21.6
	c0-15.2-13.6-28-31.2-31.2V76.8h-21.6v12c-17.6,4-31.2,16.8-31.2,31.2c0,18.4,19.2,32.8,41.6,32.8c11.2,0,20,7.2,20,16
	s-8.8,16-20,16s-20-7.2-20-16h-21.6c0,15.2,13.6,28,31.2,31.2v12h21.6v-12C224,197.6,237.6,184.8,237.6,169.6z"/>
<rect x="77.6" y="137.6" style="fill:#193651;" width="16" height="16"/>
<g>
	<rect x="296.8" y="137.6" style="fill:#193651;" width="16" height="16"/>
	<path style="fill:#193651;" d="M521.6,76.8h-128l64-74.4L521.6,76.8z M428,60.8h58.4l-28.8-33.6L428,60.8z"/>
</g>
<g>
</g>
<g>
</g>
<g>
</g>
<g>
</g>
<g>
</g>
<g>
</g>
<g>
</g>
<g>
</g>
<g>
</g>
<g>
</g>
<g>
</g>
<g>
</g>
<g>
</g>
<g>
</g>
<g>
</g>
</svg>
