<svg id="Icons" height="512" viewBox="0 0 60 60" width="512" xmlns="http://www.w3.org/2000/svg"><path d="m15 5v-3a1 1 0 0 1 1-1h38a1 1 0 0 1 1 1v52a1 1 0 0 1 -1 1h-9z" fill="#c9c9c9"/><path d="m45 58a1 1 0 0 1 -1 1h-38a1 1 0 0 1 -1-1v-45.59a.99.99 0 0 1 .29-.7l6.42-6.42a.99.99 0 0 1 .7-.29h31.59a1 1 0 0 1 1 1z" fill="#e2e2e2"/><circle cx="25" cy="18" fill="#fcd576" r="9"/><rect fill="#477492" height="4" rx="1" width="12" x="19" y="31"/><rect fill="#477492" height="4" rx="1" width="12" x="19" y="40"/><rect fill="#477492" height="4" rx="1" width="12" x="19" y="49"/><path d="m12 5.09v5.91a1 1 0 0 1 -1 1h-5.91a1.078 1.078 0 0 1 .2-.29l6.42-6.42a1.078 1.078 0 0 1 .29-.2z" fill="#c9c9c9"/><g fill="#373737"><path d="m5 15a1 1 0 0 0 -1 1v42a2 2 0 0 0 2 2h38a2 2 0 0 0 2-2v-2h8a2 2 0 0 0 2-2v-52a2 2 0 0 0 -2-2h-38a2 2 0 0 0 -2 2v2h-1.59a1.977 1.977 0 0 0 -1.41.583l-6.417 6.417a1.942 1.942 0 0 0 -.4.583 1 1 0 0 0 .5 1.326.971.971 0 0 0 .417.091h5.9a2 2 0 0 0 2-2v-5h31v52h-38v-42a1 1 0 0 0 -1-1zm2.413-4 3.587-3.589v3.589zm8.587-7v-2h38v52h-8v-48a2 2 0 0 0 -2-2z"/><path d="m32 32a2 2 0 0 0 -2-2h-10a2 2 0 0 0 -2 2v2a2 2 0 0 0 2 2h10a2 2 0 0 0 2-2zm-12 2v-2h10v2z"/><path d="m32 41a2 2 0 0 0 -2-2h-10a2 2 0 0 0 -2 2v2a2 2 0 0 0 2 2h10a2 2 0 0 0 2-2zm-12 2v-2h10v2z"/><path d="m30 48h-10a2 2 0 0 0 -2 2v2a2 2 0 0 0 2 2h10a2 2 0 0 0 2-2v-2a2 2 0 0 0 -2-2zm-10 4v-2h10v2z"/><path d="m25 17a1 1 0 1 1 .867-1.5 1 1 0 0 0 1.731-1 2.993 2.993 0 0 0 -1.598-1.3v-.2a1 1 0 0 0 -2 0v.184a2.993 2.993 0 0 0 1 5.816 1 1 0 1 1 -.867 1.5 1 1 0 0 0 -1.731 1 2.993 2.993 0 0 0 1.6 1.3v.2a1 1 0 0 0 2 0v-.184a2.993 2.993 0 0 0 -1.002-5.816z"/><path d="m42 22a5.006 5.006 0 0 0 -5-5h-2.051a10 10 0 1 0 0 2h2.051a3 3 0 0 1 3 3v7a3 3 0 0 1 -3 3 1 1 0 0 0 -1.707-.707l-1 1a1 1 0 0 0 0 1.414l1 1a1 1 0 0 0 1.707-.707 5.006 5.006 0 0 0 5-5zm-17 4a8 8 0 1 1 8-8 8.009 8.009 0 0 1 -8 8z"/><path d="m13 32a5.006 5.006 0 0 0 -5 5v1a5.006 5.006 0 0 0 5 5 1 1 0 0 0 1.707.707l1-1a1 1 0 0 0 0-1.414l-1-1a1 1 0 0 0 -1.707.707 3 3 0 0 1 -3-3v-1a3 3 0 0 1 3-3h2a1 1 0 0 0 0-2z"/><path d="m37 50a1 1 0 0 0 -1.707-.707l-1 1a1 1 0 0 0 0 1.414l1 1a1 1 0 0 0 1.707-.707 5.006 5.006 0 0 0 5-5v-1a5.006 5.006 0 0 0 -5-5h-2a1 1 0 0 0 0 2h2a3 3 0 0 1 3 3v1a3 3 0 0 1 -3 3z"/></g></svg>