<svg height="496pt" viewBox="0 -16 496.00309 496" width="496pt" xmlns="http://www.w3.org/2000/svg"><path d="m268.449219 428.253906-198.039063-6.699218c-14.753906-.59375-26.523437-12.808594-26.523437-27.394532v-315.09375c0-16.554687 14.757812-29.359375 31.3125-27.195312l193.25 25.417968zm0 0" fill="#45c9a5"/><path d="m268.445312 432.253906c-.046874 0-.089843 0-.136718-.003906l-198.035156-6.699219c-16.765626-.667969-30.390626-14.753906-30.390626-31.390625v-315.09375c0-8.984375 3.902344-17.5625 10.703126-23.523437 6.878906-6.046875 16.050781-8.839844 25.125-7.632813l193.253906 25.414063c1.988281.261719 3.476562 1.957031 3.476562 3.964843v350.960938c0 1.082031-.441406 2.121094-1.222656 2.875-.742188.722656-1.738281 1.128906-2.773438 1.128906zm-196.867187-376.617187c-5.75 0-11.34375 2.082031-15.714844 5.917969-5.070312 4.445312-7.976562 10.832031-7.976562 17.511718v315.09375c0 12.402344 10.175781 22.898438 22.683593 23.398438l193.878907 6.558594v-343.320313l-189.773438-24.960937c-1.035156-.128907-2.070312-.199219-3.097656-.199219zm0 0" fill="#173851"/><path d="m268.449219 427.140625v1.113281l-198.039063-6.699218c-14.753906-.59375-26.523437-12.808594-26.523437-27.394532v-313.910156l-16.949219 2.957031c-13.367188 2.363281-22.9375 13.789063-22.9375 26.996094v322.386719c0 16.550781 14.757812 29.359375 31.3125 27.195312l235.128906-29.558594zm0 0" fill="#d4dedd"/><path d="m31.6875 464.019531c-7.671875 0-15.148438-2.777343-20.988281-7.90625-6.800781-5.964843-10.699219-14.539062-10.699219-23.523437v-322.386719c0-15.238281 11.035156-28.25 26.238281-30.933594l16.960938-2.960937c1.171875-.1875 2.355469.121094 3.261719.878906.902343.761719 1.421874 1.886719 1.421874 3.066406v313.914063c0 12.402343 10.175782 22.898437 22.683594 23.398437l195.214844 6.597656c.425781-.382812.945312-.679687 1.53125-.851562 1.691406-.496094 3.523438.175781 4.488281 1.660156l1.996094 3.085938c.75 1.15625.851563 2.613281.265625 3.863281-.578125 1.246094-1.757812 2.109375-3.121094 2.28125l-235.128906 29.558594c-1.375.171875-2.753906.257812-4.125.257812zm8.199219-379.015625-12.261719 2.140625c-11.371094 2.007813-19.625 11.707031-19.625 23.058594v322.386719c0 6.683594 2.90625 13.066406 7.976562 17.515625 5.152344 4.523437 11.992188 6.597656 18.816407 5.714843l197.234375-24.792968-161.75-5.472656c-16.765625-.667969-30.390625-14.753907-30.390625-31.390626zm0 0" fill="#173851"/><path d="m477.203125 331.65625c-.253906.132812-.488281.304688-.746094.429688l-5.011719 2.277343-203.996093 95.859375 203.21875-57.738281c14.558593-3.152344 9.371093-27.195313 8.976562-41.972656zm0 0" fill="#d4dedd"/><path d="m267.449219 434.226562c-1.632813 0-3.148438-1-3.75-2.597656-.730469-1.953125.160156-4.136718 2.042969-5.023437l203.992187-95.859375 5.0625-2.296875c.082031-.054688.484375-.300781.574219-.34375.042968-.023438.089844-.046875.132812-.066407l2.441406-1.144531c1.222657-.578125 2.648438-.492187 3.796876.214844 1.148437.710937 1.863281 1.949219 1.902343 3.296875.070313 2.648438.300781 5.597656.539063 8.675781 1.109375 14.347657 2.632812 34.003907-12.667969 37.316407l-202.972656 57.675781c-.363281.101562-.734375.152343-1.09375.152343zm208.53125-97.527343-2.882813 1.304687-159.480468 74.941406 155.953124-44.308593c8.101563-1.757813 7.820313-13.617188 6.632813-28.9375-.074219-1.019531-.152344-2.023438-.222656-3zm0 0" fill="#173851"/><path d="m476.453125 332.089844-207.210937 94.191406v-348.988281l157.152343-70.742188c17.351563-7.886719 37.292969 3.546875 39.089844 22.265625l26.324219 275.882813c1.394531 11.625-4.984375 22.460937-15.355469 27.390625zm0 0" fill="#45c9a5"/><path d="m269.242188 430.28125c-.753907 0-1.507813-.214844-2.164063-.636719-1.140625-.738281-1.835937-2.003906-1.835937-3.363281v-348.992188c0-1.574218.921874-3 2.363281-3.648437l157.148437-70.738281c9.492188-4.3125 20.128906-3.796875 29.15625 1.417968 8.910156 5.152344 14.578125 13.941407 15.554688 24.109376l26.324218 275.886718c1.5625 12.980469-5.511718 25.632813-17.621093 31.386719-.019531.007813-.039063.019531-.058594.027344l-207.214844 94.195312c-.523437.238281-1.089843.355469-1.652343.355469zm4-350.402344v340.195313l201.527343-91.613281c8.976563-4.277344 14.234375-13.632813 13.070313-23.285157l-26.332032-275.976562c-.726562-7.566407-4.953124-14.105469-11.597656-17.945313-6.757812-3.914062-14.734375-4.300781-21.855468-1.058594zm203.210937 252.210938h.039063zm0 0" fill="#173851"/><g fill="#fff"><path d="m349.421875 90.402344h.292969c3.566406-.148438 5.945312-2.058594 7.28125-4.257813 1.636718 1.910157 3.863281 2.9375 6.238281 2.789063 2.675781-.148438 4.757813-1.175782 6.09375-3.085938 1.636719-2.054687 2.226563-4.84375 2.078125-8.804687-.144531-2.496094-.441406-5.136719-.890625-6.902344l-.296875-1.175781-30.601562 1.027344-.148438 1.320312c-.148438.882812-.296875 2.9375-.148438 5.871094.148438 5.136718 1.1875 8.519531 3.414063 10.71875 1.929687 1.617187 4.15625 2.5 6.6875 2.5zm16.042969-14.679688c0 .4375.148437 1.027344.148437 1.757813.148438 4.695312-2.082031 4.84375-2.972656 4.84375-.894531 0-1.636719-.289063-2.230469-1.027344-.742187-.730469-1.039062-2.054687-1.1875-3.523437v-1.90625zm-15.898438 7.925782h-.144531c-3.269531 0-4.015625-3.082032-4.015625-5.578126 0-.589843 0-1.175781 0-1.617187l8.027344-.292969v1.617188c-.003906 2.054687-.300782 5.722656-3.867188 5.871094zm0 0"/><path d="m372 109.078125-31.792969-9.539063.296875 6.898438 9.0625 2.644531.296875 7.925781-8.914062 3.378907.292969 7.046875 31.203124-11.746094zm-9.953125 3.375c-.148437 0-.148437.148437-.292969.148437l-6.242187 2.347657-.148438-4.402344 6.390625 1.90625zm0 0"/><path d="m373.1875 154.027344-13.371094.4375c-1.785156 0-3.5625.148437-5.199218.292968 1.039062-.730468 2.226562-1.46875 3.414062-2.199218l14.855469-9.984375-.148438-6.3125-31.496093 1.027343.148437 6.3125 13.667969-.441406c2.082031 0 3.867187-.148437 5.644531-.289062-1.1875.730468-2.523437 1.613281-4.011719 2.640625l-14.855468 9.835937.148437 6.023438 31.496094-1.03125zm0 0"/><path d="m374.375 202-.296875-8.511719-11.289063-8.367187 10.996094-.296875-.300781-6.601563-31.34375 1.027344.148437 6.601562 11.882813-.4375 1.1875 1.027344-12.773437 9.101563.292968 7.777343 17.386719-12.476562zm0 0"/><path d="m353.132812 240.785156h.296876c3.5625-.148437 5.941406-2.054687 7.277343-4.253906 1.636719 1.90625 3.863281 2.933594 6.242188 2.785156 2.675781-.148437 4.753906-1.175781 6.089843-3.082031 1.636719-2.058594 2.230469-4.84375 2.082032-8.808594-.148438-2.496093-.445313-5.136719-.894532-6.898437l-.292968-1.179688-30.605469 1.03125-.148437 1.320313c-.148438.878906-.296876 2.933593-.148438 5.871093.148438 5.136719 1.1875 8.515626 3.417969 10.714844 1.929687 1.621094 4.160156 2.5 6.683593 2.5zm16.042969-14.679687c0 .441406.148438 1.027343.148438 1.761719.148437 4.695312-2.082031 4.84375-2.972657 4.84375-2.078124.144531-3.414062-1.617188-3.414062-4.554688v-1.90625zm-15.894531 7.785156c-1.484375 0-2.378906-.441406-3.121094-1.46875-.746094-1.027344-1.039062-2.496094-1.1875-4.257813 0-.585937 0-1.175781 0-1.613281l8.023438-.292969v1.617188c0 1.757812-.296875 3.375-.890625 4.402344-.597657 1.167968-1.484375 1.613281-2.824219 1.613281zm0 0"/><path d="m359.96875 279.132812h.890625c4.605469-.148437 8.46875-1.617187 11.292969-4.253906 2.824218-2.640625 4.308594-6.3125 4.160156-10.425781-.296875-8.515625-7.28125-14.386719-16.9375-13.945313-4.601562.148438-8.46875 1.617188-11.289062 4.257813-2.824219 2.640625-4.308594 6.3125-4.160157 10.421875.292969 6.898438 5.34375 13.945312 16.042969 13.945312zm-10.105469-14.09375c-.148437-2.789062 1.484375-4.554687 2.675781-5.582031 1.785157-1.320312 4.308594-2.199219 7.132813-2.347656 2.972656-.148437 5.644531.589844 7.574219 1.761719 2.082031 1.316406 3.121094 3.082031 3.121094 5.429687.148437 5.136719-5.050782 7.632813-9.804688 7.929688-2.96875.148437-5.640625-.589844-7.574219-1.761719-1.9375-1.320312-2.976562-3.078125-3.125-5.429688zm0 0"/><path d="m361.007812 317.476562h.890626c9.363281-.292968 15.75-6.3125 15.453124-14.679687-.148437-4.113281-1.929687-7.78125-4.902343-10.277344-3.121094-2.640625-7.28125-3.8125-12.035157-3.667969-4.601562.148438-8.464843 1.617188-11.289062 4.257813s-4.308594 6.3125-4.160156 10.425781c.144531 6.894532 5.195312 13.941406 16.042968 13.941406zm-10.105468-14.089843c-.144532-5.136719 4.90625-7.632813 9.804687-7.929688 2.972657-.148437 5.644531.589844 7.578125 1.761719 2.078125 1.320312 3.117188 3.082031 3.117188 5.429688.148437 2.347656-.890625 4.257812-2.824219 5.726562-1.78125 1.320312-4.304687 2.054688-6.980469 2.199219-2.972656.148437-5.644531-.589844-7.578125-1.761719-2.074219-1.320312-3.117187-3.078125-3.117187-5.425781zm0 0"/><path d="m377.945312 343.636719-11.292968-8.367188 10.992187-.441406-.296875-6.605469-31.496094 1.175782.296876 6.457031 11.738281-.292969 1.335937 1.027344-12.773437 9.105468.292969 7.777344 17.386718-12.480468 14.109375 11.011718zm0 0"/><path d="m204.609375 332.175781c-2.214844 0-4-1.785156-4-4v-219.160156c0-2.210937 1.785156-4 4-4 2.210937 0 4 1.789063 4 4v219.160156c0 2.214844-1.789063 4-4 4zm0 0"/><path d="m156.171875 332.175781c-2.210937 0-4-1.785156-4-4v-219.160156c0-2.210937 1.789063-4 4-4s4 1.789063 4 4v219.160156c0 2.214844-1.789063 4-4 4zm0 0"/><path d="m107.734375 284.316406c-2.210937 0-4-1.785156-4-4v-171.300781c0-2.210937 1.789063-4 4-4 2.214844 0 4 1.789063 4 4v171.300781c0 2.214844-1.789063 4-4 4zm0 0"/><path d="m80.546875 324.15625h53.554687v51.800781h-53.554687zm0 0"/></g></svg>