<?xml version="1.0" encoding="iso-8859-1"?>
<!-- Generator: Adobe Illustrator 19.0.0, SVG Export Plug-In . SVG Version: 6.00 Build 0)  -->
<svg version="1.1" id="Capa_1" xmlns="http://www.w3.org/2000/svg" xmlns:xlink="http://www.w3.org/1999/xlink" x="0px" y="0px"
	 viewBox="0 0 512.556 512.556" style="enable-background:new 0 0 512.556 512.556;" xml:space="preserve">
<path style="fill:#FFFFFF;" d="M256,89.878L256,89.878c-68,0-122.4,108.8-122.4,165.6l0,0c0,56.8,55.2,102.4,122.4,102.4l0,0
	c68,0,122.4-45.6,122.4-102.4l0,0C378.4,198.678,324,89.878,256,89.878z"/>
<path style="fill:#193651;" d="M256,365.878c-72,0-130.4-49.6-130.4-110.4c0-57.6,56.8-173.6,130.4-173.6s130.4,115.2,130.4,173.6
	C386.4,316.278,328,365.878,256,365.878z M256,97.878c-62.4,0-114.4,104-114.4,157.6c0,52,51.2,94.4,114.4,94.4
	s114.4-42.4,114.4-94.4C370.4,201.878,318.4,97.878,256,97.878z"/>
<path style="fill:#FFBF5D;" d="M256,325.878c-50.4,0-90.4-32-90.4-70.4c0-46.4,48-133.6,90.4-133.6s90.4,87.2,90.4,133.6
	C346.4,293.878,306.4,325.878,256,325.878z"/>
<path style="fill:#FFFFFF;" d="M256,89.878c14.4,0,27.2,4.8,40,12.8l22.4-80.8l0,0c-40-18.4-85.6-18.4-125.6,0l23.2,80.8
	C228.8,94.678,241.6,89.878,256,89.878L256,89.878z"/>
<g>
	<path style="fill:#193651;" d="M211.2,115.478l-27.2-97.6l6.4-3.2c40.8-19.2,91.2-19.2,132,0l5.6,3.2l-27.2,97.6l-8.8-5.6
		c-24-15.2-48-15.2-72,0L211.2,115.478z M256,81.878c12,0,23.2,3.2,35.2,8.8l17.6-64c-33.6-13.6-72.8-13.6-106.4,0l17.6,64
		C232.8,85.078,244,81.878,256,81.878z"/>
	<path style="fill:#193651;" d="M256,221.878c-6.4,0-12-5.6-12-12s5.6-12,12-12s12,5.6,12,12h12.8c0-11.2-8-20.8-18.4-23.2v-9.6
		h-12.8v9.6c-10.4,2.4-18.4,12-18.4,23.2c0,13.6,11.2,24.8,24.8,24.8c6.4,0,12,5.6,12,12s-5.6,12-12,12s-12-5.6-12-12h-12.8
		c0,11.2,8,20.8,18.4,23.2v9.6h12.8v-9.6c10.4-2.4,18.4-12,18.4-23.2C280.8,232.278,269.6,221.878,256,221.878z"/>
</g>
<rect x="8" y="293.078" style="fill:#44C4A1;" width="77.6" height="175.2"/>
<path style="fill:#193651;" d="M93.6,477.078H0v-192h93.6V477.078z M16,461.078h61.6v-160H16V461.078z"/>
<path style="fill:#FFFFFF;" d="M314.4,405.078c16.8,0,30.4-12.8,30.4-29.6l0,0c0-16-13.6-29.6-30.4-29.6h-83.2c-4,0-8-0.8-11.2-1.6
	l-53.6-28c-4-1.6-8-2.4-12-2.4h-68v136.8h30.4l153.6,49.6c12.8,4,26.4,3.2,38.4-3.2l180.8-93.6c13.6-7.2,19.2-23.2,12.8-36l0,0
	c-6.4-12.8-21.6-19.2-35.2-14.4L314.4,405.078"/>
<g>
	<path style="fill:#193651;" d="M284.8,512.278c-6.4,0-12-0.8-17.6-3.2l-152.8-49.6H77.6v-152.8h76c4.8,0,10.4,0.8,15.2,2.4l0.8,0.8
		l53.6,27.2c2.4,0.8,5.6,1.6,8,1.6h83.2c20.8,0,38.4,16.8,38.4,37.6c0,3.2,0,5.6-0.8,8.8l112-37.6c4-1.6,8-1.6,12-1.6
		c13.6,0,27.2,8,32.8,20c8.8,17.6,1.6,37.6-16,47.2l-181.6,92.8C303.2,509.878,294.4,512.278,284.8,512.278z M93.6,443.478h24.8
		l153.6,50.4c10.4,3.2,22.4,2.4,32-2.4l180.8-93.6c9.6-4.8,13.6-16,8.8-25.6c-4-8.8-15.2-13.6-25.6-10.4l-132,44
		c-6.4,4.8-14.4,7.2-22.4,7.2H264l64-21.6c4.8-4,7.2-9.6,7.2-16c0-12-9.6-21.6-22.4-21.6h-81.6c-4.8,0-9.6-0.8-13.6-2.4l-0.8-0.8
		l-53.6-27.2c-3.2-0.8-6.4-1.6-8.8-1.6h-60v121.6H93.6z"/>
	<path style="fill:#193651;" d="M231.2,427.478h-16c0-16.8,13.6-30.4,30.4-30.4h68.8v16h-68.8
		C237.6,413.078,231.2,419.478,231.2,427.478z"/>
</g>
<rect x="39.2" y="424.278" style="fill:#193651;" width="16" height="16"/>
<rect x="39.2" y="373.078" style="fill:#193651;" width="16" height="16"/>
<rect x="39.2" y="321.878" style="fill:#193651;" width="16" height="16"/>
<g>
</g>
<g>
</g>
<g>
</g>
<g>
</g>
<g>
</g>
<g>
</g>
<g>
</g>
<g>
</g>
<g>
</g>
<g>
</g>
<g>
</g>
<g>
</g>
<g>
</g>
<g>
</g>
<g>
</g>
</svg>
