<?xml version="1.0" encoding="utf-8"?>
<!-- Generator: Adobe Illustrator 24.1.1, SVG Export Plug-In . SVG Version: 6.00 Build 0)  -->
<svg version="1.1" id="Layer_1" xmlns="http://www.w3.org/2000/svg" xmlns:xlink="http://www.w3.org/1999/xlink" x="0px" y="0px"
	 viewBox="0 0 512 512" style="enable-background:new 0 0 512 512;" xml:space="preserve">
<style type="text/css">
	.st0{fill:#E5E5E5;}
	.st1{fill:#C1C1C1;}
	.st2{fill:#9B9B9B;}
	.st3{fill:#93D6BB;}
	.st4{fill:#A7E5CB;}
	.st5{fill:#B06328;}
	.st6{fill:#B0C4D8;}
	.st7{fill:#99B4CD;}
	.st8{fill:#C4D7E5;}
	.st9{fill:#70B7E5;}
	.st10{fill:#92C5EB;}
	.st11{fill:#4C9CD6;}
	.st12{fill:#A35425;}
	.st13{fill:#C97629;}
</style>
<path class="st0" d="M511,212.4l-64.4,211.5c-2.9,9.4-11.5,15.8-21.3,15.8h-13.5H22.3C10,439.7,0,429.7,0,417.4V94.6
	c0-12.3,10-22.3,22.3-22.3h367.3c12.3,0,22.3,10,22.3,22.3v89h7.8h3.4h66.8C504.7,183.7,515.4,198.1,511,212.4z"/>
<path class="st1" d="M511,212.4l-64.4,211.5c-2.9,9.4-11.5,15.8-21.3,15.8h-13.5v-256h7.8h3.4h66.8
	C504.7,183.7,515.4,198.1,511,212.4z"/>
<path class="st2" d="M411.8,439.7L411.8,439.7v-256h44.5l-32,245C423.6,434.9,418.2,439.7,411.8,439.7z"/>
<path class="st1" d="M214.3,128c0-4.6,3.7-8.3,8.3-8.3h144.7c4.6,0,8.3,3.7,8.3,8.3s-3.7,8.3-8.3,8.3H222.6
	C218,136.3,214.3,132.6,214.3,128z M367.3,164.2H222.6c-4.6,0-8.3,3.7-8.3,8.3s3.7,8.3,8.3,8.3h144.7c4.6,0,8.3-3.7,8.3-8.3
	C375.7,167.9,371.9,164.2,367.3,164.2z M367.3,208.7H222.6c-4.6,0-8.3,3.7-8.3,8.3s3.7,8.3,8.3,8.3h144.7c4.6,0,8.3-3.7,8.3-8.3
	C375.7,212.4,371.9,208.7,367.3,208.7z M367.3,253.2H222.6c-4.6,0-8.3,3.7-8.3,8.3c0,4.6,3.7,8.3,8.3,8.3h144.7
	c4.6,0,8.3-3.7,8.3-8.3C375.7,257,371.9,253.2,367.3,253.2z M367.3,297.7H189.2c-4.6,0-8.3,3.7-8.3,8.3s3.7,8.3,8.3,8.3h178.1
	c4.6,0,8.3-3.7,8.3-8.3S371.9,297.7,367.3,297.7z M44.5,314.4h111.3c4.6,0,8.3-3.7,8.3-8.3s-3.7-8.3-8.3-8.3H44.5
	c-4.6,0-8.3,3.7-8.3,8.3S39.9,314.4,44.5,314.4z M367.3,342.3h-44.5c-4.6,0-8.3,3.7-8.3,8.3s3.7,8.3,8.3,8.3h44.5
	c4.6,0,8.3-3.7,8.3-8.3S371.9,342.3,367.3,342.3z M44.5,359h244.9c4.6,0,8.3-3.7,8.3-8.3s-3.7-8.3-8.3-8.3H44.5
	c-4.6,0-8.3,3.7-8.3,8.3S39.9,359,44.5,359z M367.3,386.8H133.6c-4.6,0-8.3,3.7-8.3,8.3s3.7,8.3,8.3,8.3h233.7
	c4.6,0,8.3-3.7,8.3-8.3C375.7,390.5,371.9,386.8,367.3,386.8z M100.2,386.8H44.5c-4.6,0-8.3,3.7-8.3,8.3s3.7,8.3,8.3,8.3h55.7
	c4.6,0,8.3-3.7,8.3-8.3C108.5,390.5,104.8,386.8,100.2,386.8z"/>
<path class="st3" d="M44.5,250.4V139.1c0-6.1,5-11.1,11.1-11.1H167c6.1,0,11.1,5,11.1,11.1v111.3c0,6.1-5,11.1-11.1,11.1H55.7
	C49.5,261.6,44.5,256.6,44.5,250.4z"/>
<path class="st4" d="M150.3,194.8c0,21.5-17.4,39-39,39s-39-17.4-39-39s17.4-39,39-39S150.3,173.3,150.3,194.8z"/>
<path class="st5" d="M506.9,474.3L506.9,474.3c0,14.2-11.9,26.1-26.1,26.1l0,0c-7.5,0-14.2-3-19.4-8.2L378,401.3c-3-3-3-7.5,0-10.4
	l19.4-19.4c3-3,7.5-3,10.4,0l90.9,84.2C503.9,460.1,506.9,467.6,506.9,474.3z"/>
<rect x="366.1" y="354.3" transform="matrix(0.7071 -0.7071 0.7071 0.7071 -151.325 374.5941)" class="st6" width="20.9" height="31.3"/>
<path class="st7" d="M384,377.4l3.7,3.7l7.5-7.5l-22.4-22.4l-14.9,14.9l11.2,11.2l0,0C373.5,372.9,379.5,372.9,384,377.4z"/>
<path class="st8" d="M290.8,172.5c-61.8,0-111.8,49.9-111.8,111.8S229,396,290.8,396s111.8-49.9,111.8-111.8
	S352.7,172.5,290.8,172.5z M290.8,373.7c-49.2,0-89.4-40.2-89.4-89.4s40.2-89.4,89.4-89.4s89.4,40.2,89.4,89.4
	S340,373.7,290.8,373.7z"/>
<circle class="st9" cx="290.8" cy="284.3" r="89.4"/>
<path class="st10" d="M246.9,294.7c3.7-28.3,26.1-50.7,54.4-54.4h0.7c12.7-1.5,13.4-19.4,1.5-21.6c-7.5-1.5-14.9-1.5-22.4-0.7
	c-29.1,4.5-52.2,27.6-55.9,55.9c-1.5,7.5-0.7,15.6,0.7,22.4c2.2,12.7,20.1,11.2,21.6-1.5C246.9,295.5,246.9,294.7,246.9,294.7z"/>
<path class="st11" d="M208.9,291.7c0-49.2,40.2-89.4,89.4-89.4c23.1,0,43.2,8.9,59.6,22.4c-16.4-18.6-40.2-29.8-67.1-29.8
	c-49.2,0-89.4,40.2-89.4,89.4c0,26.8,11.9,50.7,29.8,67.1C217.8,334.9,208.9,314.8,208.9,291.7z"/>
<path class="st12" d="M498,454.9l-4.5-3.7c3.7,4.5,6,10.4,6,16.4l0,0c0,9.7-11.9,13.4-18.6,6.7L402.6,396c-4.5-4.5-11.2-4.5-15.6,0
	l-7.5,7.5l81.2,87.2c4.5,4.5,10.4,8.2,16.4,8.9c8.2,0.7,16.4-2.2,21.6-7.5s8.2-13.4,7.5-21.6C506.2,464.6,502.4,459.4,498,454.9z"/>
<path class="st13" d="M421.2,403.5c-0.7,0-2.2,0-3-0.7l-18.6-18.6c-1.5-1.5-1.5-3.7,0-5.2c1.5-1.5,3.7-1.5,5.2,0l18.6,18.6
	c1.5,1.5,1.5,3.7,0,5.2C423.5,403.5,422,403.5,421.2,403.5z"/>
</svg>
