<?xml version="1.0"?>
<svg xmlns="http://www.w3.org/2000/svg" fill="#888E9E" xmlns:xlink="http://www.w3.org/1999/xlink" version="1.1" id="Layer_1" x="0px" y="0px" viewBox="0 0 512.001 512.001" style="enable-background:new 0 0 512.001 512.001;" xml:space="preserve" width="512px" height="512px"><g><g id="XMLID_1222_">
	<g id="XMLID_1836_">
		<path id="XMLID_1878_" d="M370.979,284.8H141.022C95.243,284.8,58,322.044,58,367.822v134.179c0,5.522,4.478,10,10,10h376    c5.522,0,10-4.478,10-10s-4.478-10-10-10H269.792l64.604-187.2h36.583c34.75,0,63.021,28.271,63.021,63.021v54.179    c0,5.522,4.478,10,10,10s10-4.478,10-10v-54.179C454,322.044,416.757,284.8,370.979,284.8z M78,367.822    c0-34.75,28.271-63.021,63.021-63.021h36.105l64.604,187.2H126v-64.5c0-5.522-4.478-10-10-10s-10,4.478-10,10v64.5H78V367.822z     M266,441.68v-87.374c0-5.522-4.478-10-10-10c-5.522,0-10,4.478-10,10v88.755L198.285,304.8h114.952L266,441.68z" data-original="#000000" class="active-path" data-old_color="#000000" />
		<path id="XMLID_1882_" d="M202.417,110.423c15.67,0,28.418-12.748,28.418-28.418c0-7.052,2.842-13.588,8.001-18.404    c5.151-4.809,11.903-7.19,19.008-6.698c12.405,0.855,22.405,10.854,23.26,23.258c0.867,12.571-7.357,23.676-19.555,26.405    c-19.998,4.473-33.965,21.866-33.965,42.297v19.967c0,15.669,12.748,28.417,28.417,28.417s28.417-12.748,28.417-28.417v-9.895    c14.575-5.403,27.5-14.95,36.952-27.415c11.966-15.782,17.803-35.409,16.435-55.267c-2.796-40.56-35.49-73.254-76.052-76.051    c-23.001-1.582-44.908,6.178-61.697,21.852C183.497,37.509,174,59.361,174,82.006C174,97.674,186.748,110.423,202.417,110.423z     M213.703,36.673c12.695-11.852,29.274-17.716,46.675-16.519c30.652,2.113,55.361,26.821,57.474,57.473    c1.036,15.032-3.374,29.88-12.419,41.808c-8.348,11.009-20.27,19.007-33.569,22.521c-4.389,1.159-7.445,5.129-7.445,9.668v17.204    c0,4.642-3.775,8.417-8.417,8.417c-4.642,0-8.417-3.775-8.417-8.417v-19.967c0-10.998,7.538-20.365,18.331-22.779    c21.914-4.903,36.692-24.795,35.142-47.298c-1.538-22.312-19.523-40.297-41.839-41.836c-1.084-0.074-2.163-0.111-3.237-0.111    c-11.501,0-22.333,4.248-30.792,12.143c-9.256,8.64-14.354,20.369-14.354,33.025c0,4.642-3.776,8.417-8.418,8.417    S194,86.646,194,82.005C194,64.883,201.182,48.361,213.703,36.673z" data-original="#000000" class="active-path" data-old_color="#000000" />
		<path id="XMLID_1885_" d="M256.001,209.166c-15.669,0-28.417,12.748-28.417,28.418c0,15.669,12.748,28.417,28.417,28.417    s28.417-12.748,28.417-28.417C284.418,221.914,271.67,209.166,256.001,209.166z M256.001,246.001    c-4.642,0-8.417-3.775-8.417-8.417s3.775-8.418,8.417-8.418c4.642,0,8.417,3.776,8.417,8.418S260.643,246.001,256.001,246.001z" data-original="#000000" class="active-path" data-old_color="#000000" />
		<path id="XMLID_1886_" d="M444,452.001c-2.63,0-5.21,1.069-7.07,2.93s-2.93,4.44-2.93,7.07s1.069,5.21,2.93,7.069    c1.86,1.86,4.44,2.931,7.07,2.931s5.21-1.07,7.069-2.931c1.86-1.859,2.931-4.439,2.931-7.069s-1.07-5.21-2.931-7.07    C449.21,453.07,446.63,452.001,444,452.001z" data-original="#000000" class="active-path" data-old_color="#000000" />
		<path id="XMLID_1887_" d="M116,397.501c2.63,0,5.21-1.07,7.069-2.931c1.86-1.859,2.931-4.439,2.931-7.069s-1.07-5.21-2.931-7.07    c-1.859-1.86-4.439-2.93-7.069-2.93s-5.21,1.069-7.07,2.93s-2.93,4.44-2.93,7.07s1.069,5.21,2.93,7.069    C110.79,396.43,113.37,397.501,116,397.501z" data-original="#000000" class="active-path" data-old_color="#000000" />
	</g>
</g></g> </svg>
