<svg height="512" viewBox="0 0 60 60" width="512" xmlns="http://www.w3.org/2000/svg"><g id="040---Analytics" transform="translate(-1)"><path id="Shape" d="m32 28c.28 0-1.33.56 24.72-9.12.2498194-.0921513.4525707-.2801309.5633209-.5222796s.1203525-.5184677.0266791-.7677204c-3.958743-10.55545438-14.0366541-17.55942335-25.31-17.59-.5522847 0-1 .44771525-1 1v26c0 .5522847.4477153 1 1 1zm1-26c9.7083511.42023135 18.3035241 6.40219135 22.07 15.36l-22.07 8.2z"/><path id="Shape" d="m55 33c.0105002-3.2219409-.5585581-6.4195064-1.68-9.44-.0977043-.251779-.2930937-.4533336-.5417169-.5588102-.2486232-.1054765-.5293385-.1059056-.7782831-.0011898l-23 8.56v-24.56c0-.55228475-.4477153-1-1-1-10.9333846-.00645202-20.79142082 6.5814239-24.96814348 16.6855779-4.17672265 10.1041541-1.84755928 21.7298147 5.89923632 29.4451306 7.74679556 7.7153158 19.38184386 9.997122 29.46890716 5.7792915 6.8486808 3.9365159 15.5766741 1.8868983 19.9572571-4.6866151s2.9123393-15.4178935-3.3572571-20.2233849zm-28-25v23.74l-23.07-5.43c2.86055687-10.4902546 12.2042254-17.9060574 23.07-18.31zm-23.54 20.26 23.24 5.46-7.7 22.56c-11.27103843-4.3569099-17.81251932-16.1517808-15.54-28.02zm17.39 28.67 7.94-23.16 23-8.54c.6939329 2.098927 1.1009515 4.2820267 1.21 6.49-6.7991877-3.5940214-15.2150387-1.4635521-19.4852002 4.9326705-4.2701616 6.3962226-3.0110577 14.9857572 2.9152002 19.8873295-5.0164945 1.800823-10.479688 1.9375782-15.58.39zm25.15 1.07c-7.1797017 0-13-5.8202983-13-13s5.8202983-13 13-13 13 5.8202983 13 13c0 3.4478144-1.3696389 6.7544152-3.8076118 9.1923882-2.437973 2.4379729-5.7445738 3.8076118-9.1923882 3.8076118z"/><path id="Shape" d="m52.71 38.29c-.1877666-.1893127-.4433625-.2957983-.71-.2957983s-.5222334.1064856-.71.2957983l-12 12c-.2884599.2860905-.3751619.7182668-.219371 1.0934815.155791.3752147.5231059.6188811.929371.6165185.265803.0015368.5212812-.1028135.71-.29l12-12c.1893127-.1877666.2957983-.4433625.2957983-.71s-.1064856-.5222334-.2957983-.71z"/><path id="Shape" d="m44 40c0-1.6568542-1.3431458-3-3-3s-3 1.3431458-3 3 1.3431458 3 3 3 3-1.3431458 3-3zm-4 0c0-.5522847.4477153-1 1-1s1 .4477153 1 1-.4477153 1-1 1-1-.4477153-1-1z"/><path id="Shape" d="m51 47c-1.6568542 0-3 1.3431458-3 3s1.3431458 3 3 3 3-1.3431458 3-3-1.3431458-3-3-3zm0 4c-.5522847 0-1-.4477153-1-1s.4477153-1 1-1 1 .4477153 1 1-.4477153 1-1 1z"/></g></svg>