<?xml version="1.0"?>
<svg xmlns="http://www.w3.org/2000/svg" xmlns:xlink="http://www.w3.org/1999/xlink" fill="#444C66" version="1.1" id="Capa_1" x="0px" y="0px" viewBox="0 0 512 512" style="enable-background:new 0 0 512 512;" xml:space="preserve" width="512px" height="512px" class=""><g><g>
	<g>
		<path d="M110.933,0H25.6C11.469,0.017,0.017,11.469,0,25.6v85.333c0,2.261,0.896,4.437,2.5,6.033c1.596,1.604,3.772,2.5,6.033,2.5    s4.437-0.896,6.033-2.5c1.604-1.596,2.5-3.772,2.5-6.033V25.6c0-4.71,3.823-8.533,8.533-8.533h85.333    c4.71,0,8.533-3.823,8.533-8.533S115.644,0,110.933,0z" data-original="#000000" class="active-path" data-old_color="#000000" />
	</g>
</g><g>
	<g>
		<path d="M486.4,0h-85.333c-4.71,0-8.533,3.823-8.533,8.533s3.823,8.533,8.533,8.533H486.4c4.71,0,8.533,3.823,8.533,8.533v85.333    c0,4.71,3.823,8.533,8.533,8.533s8.533-3.823,8.533-8.533V25.6C511.983,11.469,500.531,0.017,486.4,0z" data-original="#000000" class="active-path" data-old_color="#000000" />
	</g>
</g><g>
	<g>
		<path d="M509.5,395.034c-1.596-1.604-3.772-2.5-6.033-2.5c-2.261,0-4.437,0.896-6.033,2.5c-1.604,1.596-2.5,3.772-2.5,6.033V486.4    c0,4.71-3.823,8.533-8.533,8.533h-85.333c-4.71,0-8.533,3.823-8.533,8.533s3.823,8.533,8.533,8.533H486.4    c14.131-0.017,25.583-11.469,25.6-25.6v-85.333C512,398.805,511.104,396.629,509.5,395.034z" data-original="#000000" class="active-path" data-old_color="#000000" />
	</g>
</g><g>
	<g>
		<path d="M110.933,494.933H25.6c-4.71,0-8.533-3.823-8.533-8.533v-85.333c0-4.71-3.823-8.533-8.533-8.533S0,396.356,0,401.067    V486.4c0.017,14.131,11.469,25.583,25.6,25.6h85.333c4.71,0,8.533-3.823,8.533-8.533S115.644,494.933,110.933,494.933z" data-original="#000000" class="active-path" data-old_color="#000000" />
	</g>
</g><g>
	<g>
		<polygon points="153.6,291.874 153.6,358.4 183.467,358.4 201.762,334.012   " data-original="#000000" class="active-path" data-old_color="#000000" />
	</g>
</g><g>
	<g>
		<polygon points="374.938,222.293 314.573,229.828 308.779,264.533 362.94,264.533 394.155,227.089   " data-original="#000000" class="active-path" data-old_color="#000000" />
	</g>
</g><g>
	<g>
		<path d="M183.467,375.467H153.6v22.485c2.227,2.543,4.395,4.89,6.426,6.955c1.638,1.664,3.439,3.354,5.257,5.043l34.389-12.877    L183.467,375.467z" data-original="#000000" class="active-path" data-old_color="#000000" />
	</g>
</g><g>
	<g>
		<polygon points="227.831,409.6 247.467,444.937 247.467,409.6   " data-original="#000000" class="active-path" data-old_color="#000000" />
	</g>
</g><g>
	<g>
		<polygon points="173.909,179.2 145.067,179.2 145.067,206.089 190.08,211.712   " data-original="#000000" class="active-path" data-old_color="#000000" />
	</g>
</g><g>
	<g>
		<polygon points="217.6,341.333 198.4,366.933 217.6,392.533 247.467,392.533 247.467,341.333   " data-original="#000000" class="active-path" data-old_color="#000000" />
	</g>
</g><g>
	<g>
		<path d="M209.451,411.64l-29.474,11.034c2.722,2.244,5.461,4.48,8.192,6.699c10.317,8.055,20.19,16.657,29.594,25.771    c6.281,6.793,14.455,11.563,23.458,13.687L209.451,411.64z" data-original="#000000" class="active-path" data-old_color="#000000" />
	</g>
</g><g>
	<g>
		<path d="M111.181,179.2c-0.324,10.684-0.265,21.419,0.009,31.266c0.111,0.162,0.256,0.282,0.358,0.452    c0.026,0.043,0.026,0.102,0.06,0.145L128,206.967V179.2H111.181z" data-original="#000000" class="active-path" data-old_color="#000000" />
	</g>
</g><g>
	<g>
		<path d="M95.983,244.48c-0.128-1.374-1.075-12.356-1.664-27.665c-1.954-1.843-4.437-3.038-7.1-3.413    c-3.012-0.367-6.016,0.691-8.132,2.859c-2.577,4.719-3.191,10.266-1.707,15.437c2.074,10.513,5.043,20.838,8.875,30.848    l1.476,4.224c1.126,3.26,2.082,6.69,3.046,10.138c1.391,6.596,3.857,12.919,7.305,18.714c0.836,1.425,2.167,2.492,3.738,3.004    C99.422,272.529,96.034,244.907,95.983,244.48z" data-original="#000000" class="active-path" data-old_color="#000000" />
	</g>
</g><g>
	<g>
		<polygon points="197.427,229.828 137.062,222.293 117.845,227.089 149.06,264.533 203.221,264.533   " data-original="#000000" class="active-path" data-old_color="#000000" />
	</g>
</g><g>
	<g>
		<path d="M432.888,216.252c-2.116-2.159-5.112-3.209-8.107-2.842c-2.662,0.375-5.146,1.57-7.1,3.413    c-0.58,15.223-1.527,26.112-1.638,27.383c-0.068,0.614-3.465,28.305-5.862,54.426c1.587-0.521,2.918-1.596,3.763-3.038    c3.43-5.786,5.897-12.1,7.279-18.688c0.964-3.447,1.929-6.886,3.046-10.138l1.476-4.224c3.831-10.001,6.793-20.318,8.866-30.822    C436.113,226.543,435.49,220.971,432.888,216.252z" data-original="#000000" class="active-path" data-old_color="#000000" />
	</g>
</g><g>
	<g>
		<path d="M375.467,276.164v99.106c8.508-11.674,13.781-25.378,15.292-39.74c0-7.927,0.777-19.738,1.86-32.316    c0-0.503,0.043-1.007,0.137-1.51c1.792-20.412,4.301-42.368,5.555-52.941L375.467,276.164z" data-original="#000000" class="active-path" data-old_color="#000000" />
	</g>
</g><g>
	<g>
		<path d="M113.69,248.764c1.237,10.402,3.755,32.435,5.555,52.941c0.094,0.495,0.137,1.007,0.137,1.51    c1.084,12.57,1.86,24.38,1.86,32.316c1.51,14.362,6.784,28.075,15.292,39.74v-99.106L113.69,248.764z" data-original="#000000" class="active-path" data-old_color="#000000" />
	</g>
</g><g>
	<g>
		<polygon points="192.973,179.2 207.147,207.693 235.477,179.2   " data-original="#000000" class="active-path" data-old_color="#000000" />
	</g>
</g><g>
	<g>
		<polygon points="211.123,281.6 167.782,281.6 216.542,324.267 247.467,324.267 247.467,296.124   " data-original="#000000" class="active-path" data-old_color="#000000" />
	</g>
</g><g>
	<g>
		<polygon points="264.533,191.352 264.533,277.743 291.038,267.153 298.061,225.067   " data-original="#000000" class="active-path" data-old_color="#000000" />
	</g>
</g><g>
	<g>
		<path d="M302.566,411.631L270.78,468.83c9.011-2.133,17.178-6.903,23.467-13.696c9.395-9.105,19.268-17.698,29.576-25.762    c2.731-2.219,5.478-4.454,8.209-6.707L302.566,411.631z" data-original="#000000" class="active-path" data-old_color="#000000" />
	</g>
</g><g>
	<g>
		<polygon points="276.523,179.2 304.853,207.693 319.027,179.2   " data-original="#000000" class="active-path" data-old_color="#000000" />
	</g>
</g><g>
	<g>
		<path d="M328.533,375.467l-16.205,21.606l34.389,12.877c1.826-1.69,3.627-3.379,5.265-5.052c2.031-2.065,4.198-4.403,6.417-6.946    v-22.485H328.533z" data-original="#000000" class="active-path" data-old_color="#000000" />
	</g>
</g><g>
	<g>
		<polygon points="310.238,334.012 328.533,358.4 358.4,358.4 358.4,291.874   " data-original="#000000" class="active-path" data-old_color="#000000" />
	</g>
</g><g>
	<g>
		<polygon points="264.533,409.6 264.533,444.937 284.169,409.6   " data-original="#000000" class="active-path" data-old_color="#000000" />
	</g>
</g><g>
	<g>
		<path d="M400.819,179.2H384v27.767l16.393,4.096c0.026-0.043,0.026-0.102,0.06-0.145c0.111-0.171,0.256-0.29,0.367-0.461    C401.092,200.627,401.143,189.901,400.819,179.2z" data-original="#000000" class="active-path" data-old_color="#000000" />
	</g>
</g><g>
	<g>
		<path d="M391.637,121.626c-15.036-30.524-62.071-78.959-124.297-78.959h-22.682c-62.225,0-109.261,48.435-124.288,78.959    c-5.043,12.937-7.851,26.633-8.286,40.508h287.838C399.479,148.258,396.672,134.562,391.637,121.626z" data-original="#000000" class="active-path" data-old_color="#000000" />
	</g>
</g><g>
	<g>
		<polygon points="213.939,225.067 220.962,267.153 247.467,277.743 247.467,191.352   " data-original="#000000" class="active-path" data-old_color="#000000" />
	</g>
</g><g>
	<g>
		<polygon points="294.4,341.333 264.533,341.333 264.533,392.533 294.4,392.533 313.6,366.933   " data-original="#000000" class="active-path" data-old_color="#000000" />
	</g>
</g><g>
	<g>
		<polygon points="338.091,179.2 321.92,211.712 366.933,206.089 366.933,179.2   " data-original="#000000" class="active-path" data-old_color="#000000" />
	</g>
</g><g>
	<g>
		<polygon points="300.877,281.6 264.533,296.124 264.533,324.267 295.458,324.267 344.218,281.6   " data-original="#000000" class="active-path" data-old_color="#000000" />
	</g>
</g></g> </svg>
