<?xml version="1.0"?>
<svg xmlns="http://www.w3.org/2000/svg" height="512px" fill="#444C66" viewBox="-46 0 512 512.00102" width="512px"><g><path d="m230.234375 492h-.269531c-5.523438 0-10 4.476562-10 10s4.476562 10 10 10h.269531c5.523437 0 10-4.476562 10-10s-4.476563-10-10-10zm0 0" data-original="#000000" class="active-path" data-old_color="#000000" /><path d="m420 230c0-68.316406-52.972656-124.496094-120-129.621094v-70.378906c0-16.542969-13.457031-30-30-30h-240c-16.542969 0-30 13.457031-30 30v452c0 16.542969 13.457031 30 30 30h160c5.523438 0 10-4.476562 10-10s-4.476562-10-10-10h-160c-5.511719 0-10-4.484375-10-10v-10h260v10c0 5.515625-4.484375 10-10 10h-11.035156c-5.523438 0-10 4.476562-10 10s4.476562 10 10 10h11.035156c16.542969 0 30-13.457031 30-30v-122.382812c67.027344-5.121094 120-61.300782 120-129.617188zm-390-210h240c5.515625 0 10 4.484375 10 10v10h-80c-5.523438 0-10 4.476562-10 10 0 5.515625-4.484375 10-10 10h-60c-5.515625 0-10-4.484375-10-10 0-5.523438-4.476562-10-10-10h-80v-10c0-5.515625 4.488281-10 10-10zm-10 432v-392h71.714844c4.125 11.640625 15.246094 20 28.285156 20h60c13.039062 0 24.160156-8.359375 28.285156-20h71.714844v40.378906c-67.027344 5.125-120 61.304688-120 129.621094 0 22.675781 5.886719 44.84375 17.066406 64.410156l-16.601562 52.578125c-1.125 3.558594-.171875 7.445313 2.464844 10.082031 1.90625 1.902344 4.460937 2.929688 7.070312 2.929688 1.007812 0 2.023438-.152344 3.011719-.464844l52.578125-16.601562c16.675781 9.527344 35.246094 15.195312 54.410156 16.667968v92.398438zm270-112c-20.515625 0-40.53125-5.6875-57.878906-16.449219-1.597656-.992187-3.425782-1.5-5.269532-1.5-1.011718 0-2.027343.152344-3.011718.460938l-38.515625 12.164062 12.164062-38.515625c.875-2.78125.496094-5.804687-1.039062-8.28125-10.761719-17.351562-16.449219-37.367187-16.449219-57.878906 0-60.652344 49.347656-110 110-110s110 49.347656 110 110-49.347656 110-110 110zm0 0" data-original="#000000" class="active-path" data-old_color="#000000" /><path d="m50.269531 135h-.269531c-5.523438 0-10 4.476562-10 10s4.476562 10 10 10h.269531c5.523438 0 10-4.476562 10-10s-4.476562-10-10-10zm0 0" data-original="#000000" class="active-path" data-old_color="#000000" /><path d="m110.035156 135h-31.035156c-5.523438 0-10 4.476562-10 10s4.476562 10 10 10h31.035156c5.523438 0 10-4.476562 10-10s-4.476562-10-10-10zm0 0" data-original="#000000" class="active-path" data-old_color="#000000" /><path d="m50.269531 175h-.269531c-5.523438 0-10 4.476562-10 10s4.476562 10 10 10h.269531c5.523438 0 10-4.476562 10-10s-4.476562-10-10-10zm0 0" data-original="#000000" class="active-path" data-old_color="#000000" /><path d="m110.035156 175h-31.035156c-5.523438 0-10 4.476562-10 10s4.476562 10 10 10h31.035156c5.523438 0 10-4.476562 10-10s-4.476562-10-10-10zm0 0" data-original="#000000" class="active-path" data-old_color="#000000" /><path d="m110.035156 215h-31.035156c-5.523438 0-10 4.476562-10 10s4.476562 10 10 10h31.035156c5.523438 0 10-4.476562 10-10s-4.476562-10-10-10zm0 0" data-original="#000000" class="active-path" data-old_color="#000000" /><path d="m50.269531 215h-.269531c-5.523438 0-10 4.476562-10 10s4.476562 10 10 10h.269531c5.523438 0 10-4.476562 10-10s-4.476562-10-10-10zm0 0" data-original="#000000" class="active-path" data-old_color="#000000" /><path d="m290 150c-13.785156 0-25 11.214844-25 25v50c0 13.785156 11.214844 25 25 25s25-11.214844 25-25v-50c0-13.785156-11.214844-25-25-25zm5 75c0 2.707031-2.289062 5-5 5s-5-2.292969-5-5v-50c0-2.710938 2.289062-5 5-5s5 2.289062 5 5zm0 0" data-original="#000000" class="active-path" data-old_color="#000000" /><path d="m290 260c-13.785156 0-25 11.214844-25 25s11.214844 25 25 25 25-11.214844 25-25-11.214844-25-25-25zm0 30c-2.757812 0-5-2.242188-5-5s2.242188-5 5-5 5 2.242188 5 5-2.242188 5-5 5zm0 0" data-original="#000000" class="active-path" data-old_color="#000000" /></g> </svg>
