<?xml version="1.0"?>
<svg xmlns="http://www.w3.org/2000/svg" height="512px" viewBox="0 0 512 512" fill="#444C66" width="512px"><g><path d="m457.089844 186.097656c-4.828125-40.96875-21.769532-78.796875-49.203125-109.871094 1.636719-7.296874-.8125-15.234374-7.007813-20.25-13.285156-10.75-10.976562-8.886718-13.507812-10.875-37.324219-29.082031-83.980469-45.101562-131.371094-45.101562-48.808594 0-96.53125 16.863281-134.386719 47.488281l-10.492187 8.488281c-6.195313 5.011719-8.644532 12.949219-7.007813 20.246094-27.375 31.011719-44.304687 68.753906-49.171875 109.609375-35.886718 24.402344-54.941406 64.425781-54.941406 105.558594 0 39.75 17.886719 79.191406 53.5 103.898437v26.710938c0 45.5625 36.9375 82.5 82.5 82.5h47.6875c5.289062 4.664062 12.222656 7.5 19.8125 7.5h29.394531c15.78125 0 29.332031-11.949219 30.519531-27.6875 1.324219-17.582031-12.605468-32.3125-29.914062-32.3125h-30c-7.589844 0-14.523438 2.835938-19.8125 7.5h-47.6875c-20.710938 0-37.5-16.789062-37.5-37.5v-16.738281c0-4.046875-2.265625-6.175781-6.96875-7.59375-44.152344-14.058594-76.382812-54.992188-76.382812-106.277344 0-47.554687 27.824218-89.941406 74.882812-106.582031 8.332031-2.96875 17.210938-.703125 23.199219 5.140625 4.417969 4.332031 6.757812 9.902343 6.769531 16.109375v169.882812c-.011719 7.089844-3.101562 13.410156-8.699219 17.789063-3.273437 2.527343-3.867187 7.25-1.320312 10.519531 2.570312 3.285156 7.25 3.859375 10.53125 1.320312 8.9375-6.914062 14.507812-17.710937 14.488281-29.628906v-169.882812c.019531-10.304688-4.152344-19.914063-11.300781-26.859375-5.324219-5.15625-12.101563-8.785157-19.785157-10.128907 5.644532-20.902343 15.636719-40.546874 29.273438-57.53125 6.6875 2.722657 14.523438 1.777344 20.445312-3.011718l10.496094-8.492188c25.933594-20.980468 58.558594-32.535156 91.871094-32.535156s65.9375 11.554688 91.871094 32.535156l10.496094 8.488282c5.941406 4.8125 13.804687 5.695312 20.433593 3 15.507813 19.3125 26.316407 42.054687 31.363281 66.179687.652344 3.136719 3.269532 5.578125 6.574219 5.917969 1.761719.179687 3.523438.578125 5.230469 1.1875 44.890625 15.859375 75.039062 58.539062 75.03125 106.191406.007812 47.648438-30.140625 90.316406-75.03125 106.1875-8.566406 3.03125-17.367188.554688-23.21875-5.160156-4.402344-4.316406-6.742188-9.878906-6.75-16.089844v-169.878906c.007812-5.179688 1.6875-10.019532 4.867188-14.019532 2.582031-3.230468 2.050781-7.960937-1.179688-10.539062-3.269531-2.613281-7.972656-2.027344-10.539062 1.179688-5.261719 6.570312-8.160157 14.871093-8.148438 23.378906v169.882812c-.039062 20.996094 17.09375 37.519532 37.460938 37.558594 19.054687 0 72.378906-25.257812 91.21875-82.71875 4.1875-12.800781 6.320312-26.179688 6.320312-39.78125 0-42.382812-20.855469-81.246094-54.910156-104.902344zm-253.589844 280.902344h29.59375c7.6875 0 14.441406 5.617188 15.308594 13.257812 1.023437 9.046876-6.058594 16.742188-14.902344 16.742188h-29.59375c-7.6875 0-14.441406-5.617188-15.308594-13.257812-1.023437-9.046876 6.058594-16.742188 14.902344-16.742188zm-135-62.765625c4.808594 2.449219 9.8125 4.632813 15 6.53125v11.234375c0 28.996094 23.503906 52.5 52.5 52.5h38.449219c-1.242188 4.808594-1.289063 10.003906 0 15h-38.449219c-37.277344 0-67.5-30.222656-67.5-67.5zm19.773438-234.5625c-1.09375.28125-2.179688.609375-3.253907.988281-4.644531 1.640625-9.136719 3.523438-13.488281 5.617188 5.789062-31.929688 19.699219-61.488282 40.773438-86.570313l9.621093 11.894531c-16.140625 19.9375-27.679687 43.265626-33.652343 68.070313zm286.976562-73.597656c-1.839844 2.277343-5.175781 2.628906-7.449219.789062l-10.496093-8.492187c-28.59375-23.132813-64.570313-35.871094-101.304688-35.871094s-72.710938 12.738281-101.304688 35.871094l-10.496093 8.492187c-1.089844.882813-2.464844 1.296875-3.875 1.152344-1.40625-.144531-2.675781-.828125-3.574219-1.941406l-16.980469-20.984375c-1.835937-2.273438-1.484375-5.613282.789063-7.449219l10.492187-8.492187c35.191407-28.46875 79.566407-44.148438 124.949219-44.148438 42.066406 0 85.1875 13.433594 122.230469 41.992188 2.035156 1.59375 1.496093 1.164062 13.214843 10.648437 2.269532 1.835937 2.621094 5.175781.785157 7.445313zm48.480469 73.617187c-5.972657-24.8125-17.511719-48.148437-33.65625-68.089844l9.621093-11.894531c21.089844 25.09375 35 54.664063 40.78125 86.621094-4.523437-2.214844-11.875-5.386719-16.746093-6.636719zm0 0" data-original="#000000" class="active-path" data-old_color="#000000" /><path d="m261.527344 115.589844c-24.753906-1.542969-48.332032 6.941406-66.375 23.894531-17.78125 16.710937-27.976563 40.285156-27.976563 64.679687 0 18.609376 15.140625 33.75 33.75 33.75s33.75-15.140624 33.75-33.75c0-5.925781 2.378907-11.429687 6.703125-15.492187 4.3125-4.050781 9.984375-6.082031 15.964844-5.714844 10.445312.648438 19.140625 9.339844 19.789062 19.785157.582032 9.378906-4.878906 17.929687-13.589843 21.273437-25.128907 9.660156-41.367188 33.167969-41.367188 59.890625v19.933594c0 18.609375 15.140625 33.75 33.75 33.75s33.75-15.140625 33.75-33.75v-17.578125c35.234375-14.46875 57.195313-49.445313 54.824219-87.699219-2.761719-44.539062-38.433594-80.210938-82.972656-82.972656zm20.851562 157.433594c-4.679687 1.796874-7.703125 6.066406-7.703125 10.882812v19.933594c0 10.339844-8.410156 18.75-18.75 18.75-10.335937 0-18.75-8.410156-18.75-18.75v-19.933594c0-20.464844 12.464844-38.476562 31.75-45.886719 14.851563-5.710937 24.167969-20.257812 23.179688-36.207031-1.109375-17.859375-15.96875-32.71875-33.835938-33.828125-.777343-.046875-1.550781-.070313-2.324219-.070313-9.300781 0-18.046874 3.445313-24.835937 9.828126-7.371094 6.929687-11.433594 16.3125-11.433594 26.421874 0 10.339844-8.410156 18.75-18.75 18.75-10.335937 0-18.75-8.410156-18.75-18.75 0-20.269531 8.476563-39.859374 23.25-53.75 14.992188-14.085937 34.585938-21.132812 55.171875-19.855468 37.003906 2.296875 66.636719 31.933594 68.933594 68.933594 2.007812 32.371093-16.941406 61.917968-47.152344 73.53125zm0 0" data-original="#000000" class="active-path" data-old_color="#000000" /><path d="m254.28125 352.628906c-17.632812.824219-32.101562 15.539063-32.101562 33.710938 0 18.824218 15.363281 33.75 33.75 33.75 19.222656 0 34.609374-16.082032 33.703124-35.398438-.859374-18.214844-16.414062-32.945312-35.351562-32.0625zm.875 52.4375-.160156-.007812c-9.957032-.480469-18.304688-8.996094-17.796875-19.660156.453125-9.867188 8.871093-18.285157 19.679687-17.785157 9.644532.441407 17.324219 8.460938 17.769532 17.785157.566406 12.007812-9.855469 20.335937-19.492188 19.667968zm0 0" data-original="#000000" class="active-path" data-old_color="#000000" /></g> </svg>
