<?xml version="1.0"?>
<svg xmlns="http://www.w3.org/2000/svg" xmlns:xlink="http://www.w3.org/1999/xlink" fill="#444C66" version="1.1" id="Capa_1" x="0px" y="0px" viewBox="0 0 512 512" style="enable-background:new 0 0 512 512;" xml:space="preserve" width="512px" height="512px" class=""><g><path d="M304.327,355.911H162.738l-33.684,99.912H46.841L193.569,56.177h80.5l146.727,399.646h-81.643  L304.327,355.911z M183.863,295.964h100.482L233.532,150.95L183.863,295.964z" data-original="#4D4D4D" class="active-path" data-old_color="#8D6F92"/><path  d="M304.327,355.911h-70.508l-0.084-59.947h50.609L233.532,150.95l0.287-94.773h40.25l146.727,399.646  h-81.643L304.327,355.911z" data-original="#3B3B3B" class="" data-old_color="#3B3B3B"/><path d="M457.659,512c-4.143,0-7.5-3.358-7.5-7.5V7.5c0-4.142,3.357-7.5,7.5-7.5s7.5,3.358,7.5,7.5v497  C465.159,508.642,461.802,512,457.659,512z" data-original="#CCCCCC" class="" data-old_color="#CCCCCC"/></g> </svg>
