<svg id="Capa_1" enable-background="new 0 0 512 512" height="512" viewBox="0 0 512 512" width="512" xmlns="http://www.w3.org/2000/svg"><g><path d="m212.536 297.91c-19.669 0-35.672 16.002-35.672 35.672 0 19.669 16.002 35.672 35.672 35.672s35.672-16.002 35.672-35.672c0-19.669-16.002-35.672-35.672-35.672zm0 56.365c-11.41 0-20.693-9.283-20.693-20.693s9.283-20.693 20.693-20.693 20.693 9.283 20.693 20.693-9.283 20.693-20.693 20.693z"/><path d="m120.13 328.887c-19.669 0-35.672 16.002-35.672 35.672 0 19.669 16.002 35.672 35.672 35.672s35.672-16.002 35.672-35.672c-.001-19.669-16.003-35.672-35.672-35.672zm0 56.365c-11.41 0-20.693-9.283-20.693-20.693s9.283-20.693 20.693-20.693 20.693 9.283 20.693 20.693-9.283 20.693-20.693 20.693z"/><path d="m304.943 328.887c-19.669 0-35.672 16.002-35.672 35.672 0 19.669 16.002 35.672 35.672 35.672 19.669 0 35.672-16.002 35.672-35.672-.001-19.669-16.003-35.672-35.672-35.672zm0 56.365c-11.41 0-20.693-9.283-20.693-20.693s9.283-20.693 20.693-20.693 20.693 9.283 20.693 20.693-9.283 20.693-20.693 20.693z"/><path d="m240.155 386.996h-55.238c-4.136 0-7.489 3.353-7.489 7.489s3.353 7.489 7.489 7.489h55.238c4.136 0 7.489-3.353 7.489-7.489s-3.353-7.489-7.489-7.489z"/><path d="m144.462 271.652h65.943c4.136 0 7.489-3.353 7.489-7.489s-3.353-7.489-7.489-7.489h-65.943c-4.136 0-7.489 3.353-7.489 7.489s3.353 7.489 7.489 7.489z"/><path d="m246.162 271.652h27.66c4.136 0 7.489-3.353 7.489-7.489s-3.353-7.489-7.489-7.489h-27.66c-4.136 0-7.489 3.353-7.489 7.489s3.353 7.489 7.489 7.489z"/><path d="m240.155 417.74h-55.238c-4.136 0-7.489 3.353-7.489 7.489s3.353 7.489 7.489 7.489h55.238c4.136 0 7.489-3.353 7.489-7.489s-3.353-7.489-7.489-7.489z"/><path d="m331.677 418.458h-55.239c-4.136 0-7.489 3.353-7.489 7.489s3.353 7.489 7.489 7.489h55.239c4.136 0 7.489-3.353 7.489-7.489s-3.352-7.489-7.489-7.489z"/><path d="m331.677 449.202h-55.239c-4.136 0-7.489 3.353-7.489 7.489s3.353 7.489 7.489 7.489h55.239c4.136 0 7.489-3.353 7.489-7.489s-3.352-7.489-7.489-7.489z"/><path d="m147.025 418.458h-55.239c-4.136 0-7.489 3.353-7.489 7.489s3.353 7.489 7.489 7.489h55.239c4.136 0 7.489-3.353 7.489-7.489s-3.353-7.489-7.489-7.489z"/><path d="m147.025 449.202h-55.239c-4.136 0-7.489 3.353-7.489 7.489s3.353 7.489 7.489 7.489h55.239c4.136 0 7.489-3.353 7.489-7.489s-3.353-7.489-7.489-7.489z"/><g><path d="m294.617 497.021h-225.954c-6.894 0-12.482-5.589-12.482-12.482v-145.602c0-4.101-3.16-7.677-7.259-7.8-4.241-.127-7.72 3.273-7.72 7.486v145.916c0 15.166 12.295 27.461 27.461 27.461h225.953c4.136 0 7.489-3.353 7.489-7.489.001-4.137-3.352-7.49-7.488-7.49z"/><path d="m463.308 263.606h-3.767c-3.435 0-6.219-2.784-6.219-6.219v-73.281c0-11.707-9.491-21.198-21.198-21.198h-8.45c-3.433-15.727-17.461-27.541-34.202-27.541-1.907 0-3.778.159-5.603.454v-44.688c0-15.166-12.295-27.461-27.461-27.461h-38.368c-20.025-37.833-59.801-63.672-105.504-63.672-46.504 0-86.872 26.751-106.54 65.669h-37.333c-15.166 0-27.461 12.295-27.461 27.461v210.956c0 4.101 3.16 7.677 7.259 7.8 4.241.127 7.72-3.273 7.72-7.486v-211.27c0-6.894 5.589-12.482 12.482-12.482h31.008c-4.163 12.125-6.428 25.125-6.428 38.644 0 27.001 8.8 52.47 25.447 73.654 22.793 29.004 56.998 45.638 93.845 45.638 36.845 0 71.05-16.634 93.844-45.636.004-.006.009-.012.014-.018 16.64-21.181 25.435-46.644 25.435-73.638 0-14.265-2.52-27.951-7.133-40.641h31.713c6.894 0 12.482 5.589 12.482 12.482v50.948c-8.738 6.373-14.431 16.681-14.431 28.3v194.172c0 9.189 1.87 18.281 5.496 26.724l8.935 20.802v72.46c0 6.894-5.589 12.482-12.482 12.482h-27.568c-4.136 0-7.489 3.353-7.489 7.489 0 4.136 3.353 7.489 7.489 7.489h27.569c15.166 0 27.461-12.295 27.461-27.461v-50.702c1.753.623 3.638.961 5.603.961 6.677 0 12.461-3.811 15.096-9.946l14.421-33.575c3.647-8.491 5.496-17.482 5.496-26.723v-186.665h7.639c3.435 0 6.219 2.784 6.219 6.219v73.28c0 11.708 9.491 21.198 21.198 21.198h3.452c4.101 0 7.677-3.16 7.8-7.259.128-4.241-3.273-7.72-7.486-7.72zm-250.772-40.001c-30.81 0-59.503-13.311-79.387-36.654 8.992-21.016 28.971-35.444 51.972-37.164 3.55-.265 6.496-2.639 7.504-6.049 1.01-3.415-.173-7.015-3.012-9.17-9.546-7.25-15.021-18.27-15.021-30.232 0-10.408 4.131-20.117 11.631-27.338 7.496-7.217 17.361-10.972 27.799-10.577 19.865.755 36.218 17.556 36.454 37.453.144 12.147-5.329 23.335-15.015 30.693-2.839 2.156-4.022 5.755-3.013 9.17 1.007 3.409 3.951 5.784 7.502 6.051 23.003 1.721 42.981 16.15 51.973 37.164-19.884 23.343-48.577 36.653-79.387 36.653zm89.288-50.335c-10.288-18.054-27.518-31.184-47.663-36.289 7.348-9.401 11.438-21.16 11.294-33.284-.16-13.551-5.507-26.416-15.054-36.227-9.551-9.814-22.269-15.502-35.81-16.017-14.542-.549-28.3 4.688-38.756 14.754-10.461 10.071-16.222 23.612-16.222 38.129 0 12.074 3.996 23.457 11.248 32.657-20.124 5.115-37.333 18.238-47.613 36.277-9.86-16.212-15.026-34.643-15.026-53.978 0-57.518 46.795-104.313 104.314-104.313s104.314 46.794 104.314 104.313c0 19.334-5.166 37.765-15.026 53.978zm107.683 191.283c0 7.197-1.44 14.199-4.28 20.812l-14.421 33.576c-.093.217-.377.878-1.333.878s-1.239-.661-1.333-.879l-14.421-33.575c-2.84-6.613-4.28-13.615-4.28-20.812v-136.317h40.068zm0-151.296h-40.068v-42.876c0-11.047 8.987-20.034 20.034-20.034s20.034 8.987 20.034 20.034z"/></g></g></svg>