<svg id="Gradient" height="512" viewBox="0 0 512 512" width="512" xmlns="http://www.w3.org/2000/svg" xmlns:xlink="http://www.w3.org/1999/xlink"><linearGradient id="linear-gradient" gradientUnits="userSpaceOnUse" x1="256" x2="256" y1="496" y2="16"><stop offset="0" stop-color="#12bee5"/><stop offset=".5" stop-color="#c071e9"/><stop offset="1" stop-color="#f24f5a"/></linearGradient><path d="m156.938 495.391a8 8 0 0 0 8.719-1.734l18.343-18.344 18.343 18.344a8 8 0 0 0 11.314 0l18.343-18.344 18.343 18.344a8 8 0 0 0 11.314 0l18.343-18.344 18.343 18.344a8 8 0 0 0 11.314 0l18.343-18.344 18.343 18.344a8 8 0 0 0 11.314 0l18.343-18.344 18.343 18.344a8 8 0 0 0 11.314 0l18.343-18.344 18.343 18.344a8 8 0 0 0 13.657-5.657v-448a24.028 24.028 0 0 0 -24-24h-296a32.036 32.036 0 0 0 -32 32v16h-40a8 8 0 0 0 -8 8v344a32.036 32.036 0 0 0 32 32h64v40a8 8 0 0 0 4.938 7.391zm283.062-455.391v428.687l-10.343-10.344a8 8 0 0 0 -11.314 0l-18.343 18.344-18.343-18.344a8 8 0 0 0 -11.314 0l-18.343 18.344-18.343-18.344a8 8 0 0 0 -11.314 0l-18.343 18.344-18.343-18.344a8 8 0 0 0 -11.314 0l-18.343 18.344-18.343-18.344a8 8 0 0 0 -11.314 0l-18.343 18.344-18.343-18.344a8 8 0 0 0 -11.314 0l-10.343 10.344v-420.687a31.8 31.8 0 0 0 -4.3-16h268.3a8.009 8.009 0 0 1 8 8zm-368 376v-336h32v336a16 16 0 0 1 -32 0zm43.7 16a31.8 31.8 0 0 0 4.3-16v-368a16 16 0 0 1 32 0v384zm196.3-288a8.009 8.009 0 0 0 -8-8 24 24 0 0 1 -8-46.624v-1.376a8 8 0 0 1 16 0v1.376a24.039 24.039 0 0 1 16 22.624 8 8 0 0 1 -16 0 8 8 0 1 0 -8 8 24 24 0 0 1 8 46.624v1.376a8 8 0 0 1 -16 0v-1.376a24.039 24.039 0 0 1 -16-22.624 8 8 0 0 1 16 0 8 8 0 0 0 16 0zm-8 64a80 80 0 1 0 -80-80 80.091 80.091 0 0 0 80 80zm0-144a64 64 0 1 1 -64 64 64.072 64.072 0 0 1 64-64zm24 168a8 8 0 0 1 -8 8h-32a8 8 0 0 1 0-16h32a8 8 0 0 1 8 8zm-136 32a8 8 0 0 1 8-8h112a8 8 0 0 1 0 16h-112a8 8 0 0 1 -8-8zm144 0a8 8 0 0 1 8-8h16a8 8 0 0 1 0 16h-16a8 8 0 0 1 -8-8zm48 0a8 8 0 0 1 8-8h16a8 8 0 0 1 0 16h-16a8 8 0 0 1 -8-8zm-192 32a8 8 0 0 1 8-8h112a8 8 0 0 1 0 16h-112a8 8 0 0 1 -8-8zm144 0a8 8 0 0 1 8-8h16a8 8 0 0 1 0 16h-16a8 8 0 0 1 -8-8zm80 0a8 8 0 0 1 -8 8h-16a8 8 0 0 1 0-16h16a8 8 0 0 1 8 8zm-224 32a8 8 0 0 1 8-8h112a8 8 0 0 1 0 16h-112a8 8 0 0 1 -8-8zm144 0a8 8 0 0 1 8-8h16a8 8 0 0 1 0 16h-16a8 8 0 0 1 -8-8zm80 0a8 8 0 0 1 -8 8h-16a8 8 0 0 1 0-16h16a8 8 0 0 1 8 8zm-224 32a8 8 0 0 1 8-8h112a8 8 0 0 1 0 16h-112a8 8 0 0 1 -8-8zm144 0a8 8 0 0 1 8-8h16a8 8 0 0 1 0 16h-16a8 8 0 0 1 -8-8zm80 0a8 8 0 0 1 -8 8h-16a8 8 0 0 1 0-16h16a8 8 0 0 1 8 8zm-224 32a8 8 0 0 1 8-8h112a8 8 0 0 1 0 16h-112a8 8 0 0 1 -8-8zm144 0a8 8 0 0 1 8-8h16a8 8 0 0 1 0 16h-16a8 8 0 0 1 -8-8zm80 0a8 8 0 0 1 -8 8h-16a8 8 0 0 1 0-16h16a8 8 0 0 1 8 8zm0 32a8 8 0 0 1 -8 8h-64a8 8 0 0 1 0-16h64a8 8 0 0 1 8 8z" fill="url(#linear-gradient)"/></svg>