<?xml version="1.0" encoding="iso-8859-1"?>
<!-- Generator: Adobe Illustrator 19.0.0, SVG Export Plug-In . SVG Version: 6.00 Build 0)  -->
<svg version="1.1" id="Capa_1" xmlns="http://www.w3.org/2000/svg" xmlns:xlink="http://www.w3.org/1999/xlink" x="0px" y="0px"
	 viewBox="0 0 520 520" style="enable-background:new 0 0 520 520;" xml:space="preserve">
<g>
	<path style="fill:#FFFFFF;" d="M313.6,12H48C25.6,12,8,29.6,8,52v416c0,22.4,17.6,40,40,40h265.6c22.4,0,40-17.6,40-40V52
		C353.6,29.6,335.2,12,313.6,12z"/>
	<path style="fill:#FFFFFF;" d="M212,444h-62.4c-8.8,0-16,7.2-16,16s7.2,16,16,16H212c8.8,0,16-7.2,16-16S220.8,444,212,444z"/>
</g>
<rect x="40" y="76.8" style="fill:#E1E6E9;" width="281.6" height="343.2"/>
<rect x="159.2" y="129.6" style="fill:#44C4A1;" width="352.8" height="237.6"/>
<path style="fill:#FFFFFF;" d="M434.4,160H167.2v176.8h267.2c0-26.4,21.6-47.2,47.2-47.2v-82.4C455.2,207.2,434.4,186.4,434.4,160z"
	/>
<ellipse style="fill:#44C4A1;" cx="268.8" cy="248" rx="48" ry="60.8"/>
<path style="fill:#FFFFFF;" d="M266.4,286.4V280c-8-0.8-16-4-22.4-9.6l6.4-8c4.8,4.8,10.4,7.2,16,8V252c-16.8-4-20-10.4-20-18.4
	c0-11.2,8.8-17.6,20-18.4v-4.8h5.6v4.8c6.4,0.8,12.8,2.4,19.2,7.2l-5.6,8.8c-4-3.2-8-4.8-12.8-5.6v16.8l0,0c16.8,4,20,10.4,20,19.2
	c0,11.2-8.8,17.6-20.8,18.4v6.4H266.4z M257.6,232c0,4.8,4,6.4,8.8,8v-16C261.6,224.8,257.6,227.2,257.6,232z M281.6,261.6
	c0-5.6-4-7.2-9.6-8.8v16.8C277.6,269.6,281.6,266.4,281.6,261.6z"/>
<circle style="fill:#44C4A1;" cx="408" cy="248" r="15.2"/>
<g>
	<path style="fill:#193651;" d="M149.6,436c-13.6,0-24,10.4-24,24s10.4,24,24,24H212c13.6,0,24-10.4,24-24s-10.4-24-24-24H149.6z
		 M220,460c0,4.8-3.2,8-8,8h-62.4c-4.8,0-8-3.2-8-8s3.2-8,8-8H212C216,452,220,455.2,220,460z"/>
	<path style="fill:#193651;" d="M512,121.6H361.6V52c0-26.4-21.6-48-48-48H48C21.6,4,0,25.6,0,52v416c0,26.4,21.6,48,48,48h265.6
		c26.4,0,48-21.6,48-48v-92.8H512c4.8,0,8-3.2,8-8V129.6C520,124.8,516.8,121.6,512,121.6z M345.6,468c0,17.6-14.4,32-32,32H48
		c-17.6,0-32-14.4-32-32V52c0-17.6,14.4-32,32-32h265.6c17.6,0,32,14.4,32,32v69.6H167.2V108c0-4.8-3.2-8-8-8s-8,3.2-8,8
		c0,277.6,0,3.2,0,280.8c0,4.8,3.2,8,8,8s8-3.2,8-8v-13.6h177.6V468H345.6z M504,359.2H167.2V137.6H504V359.2z"/>
	<rect x="129.6" y="36.8" style="fill:#193651;" width="16" height="16"/>
	<rect x="172.8" y="36.8" style="fill:#193651;" width="16" height="16"/>
	<rect x="216" y="36.8" style="fill:#193651;" width="16" height="16"/>
</g>
<g>
</g>
<g>
</g>
<g>
</g>
<g>
</g>
<g>
</g>
<g>
</g>
<g>
</g>
<g>
</g>
<g>
</g>
<g>
</g>
<g>
</g>
<g>
</g>
<g>
</g>
<g>
</g>
<g>
</g>
</svg>
