<?xml version="1.0"?>
<svg xmlns="http://www.w3.org/2000/svg" id="Layer_1" enable-background="new 0 0 512 512" height="512px" viewBox="0 0 512 512" width="512px" class=""><g><g id="_x31_058_x2C__Delete_x2C__garbage_x2C__recycle_x2C__remove_x2C__trash"><g><path d="m166.012 156.016c-5.527 0-10.001 4.473-10.001 9.995v259.97c0 5.522 4.474 10.002 10.001 10.002 5.518 0 9.991-4.479 9.991-10.002v-259.97c0-5.522-4.474-9.995-9.991-9.995z" data-original="#000000" class="active-path" data-old_color="#000000" fill="#FFFFFF"/><path d="m256 156.016c-5.527 0-10.001 4.473-10.001 9.995v259.97c0 5.522 4.474 10.002 10.001 10.002 5.518 0 9.991-4.479 9.991-10.002v-259.97c0-5.522-4.473-9.995-9.991-9.995z" data-original="#000000" class="active-path" data-old_color="#000000" fill="#FFFFFF"/><path d="m345.988 156.016c-5.527 0-10 4.473-10 9.995v259.97c0 5.522 4.473 10.002 10 10.002 5.518 0 10.002-4.479 10.002-10.002v-259.97c0-5.522-4.484-9.995-10.002-9.995z" data-original="#000000" class="active-path" data-old_color="#000000" fill="#FFFFFF"/><path d="m485.971 475.975h-75.504c9.64-10.692 15.51-24.836 15.51-40.323v-319.635h20.003c5.518 0 9.989-4.478 9.989-9.996 0-5.522-4.473-10.001-9.989-10.001-14.515 0-54.566 0-79.998 0v-45.663c0-18.928-15.394-34.329-34.33-34.329h-151.312c-18.928 0-34.33 15.401-34.33 34.329v45.663c-25.48 0-65.504 0-79.987 0-5.528 0-10.001 4.479-10.001 10.001 0 5.519 4.473 9.996 10.001 9.996h19.992v319.633c0 15.487 5.88 29.631 15.509 40.323h-75.504c-5.519 0-9.992 4.479-9.992 10.002s4.474 9.996 9.992 9.996h459.951c5.521 0 10.002-4.473 10.002-9.996 0-5.522-4.483-10-10.002-10zm-319.959-425.618c0-7.901 6.426-14.332 14.328-14.332h151.31c7.901 0 14.338 6.431 14.338 14.332v45.663h-179.976zm-19.67 425.618c-22.238 0-40.326-18.092-40.326-40.323v-319.635h299.969v319.633c0 22.231-18.099 40.323-40.336 40.323z" data-original="#000000" class="active-path" data-old_color="#000000" fill="#FFFFFF"/></g></g></g> </svg>
