<?xml version="1.0" encoding="iso-8859-1"?>
<!-- Generator: Adobe Illustrator 19.0.0, SVG Export Plug-In . SVG Version: 6.00 Build 0)  -->
<svg version="1.1" id="Capa_1" xmlns="http://www.w3.org/2000/svg" xmlns:xlink="http://www.w3.org/1999/xlink" x="0px" y="0px"
	 viewBox="0 0 511.767 511.767" style="enable-background:new 0 0 511.767 511.767;" xml:space="preserve">
<path style="fill:#E6E9ED;" d="M507.752,19.913H51.96v351.839c0,13.244-10.737,23.988-23.989,23.988H51.96h431.802
	c13.252,0,23.99-10.744,23.99-23.988v-0.008l0,0V19.913z"/>
<path style="fill:#FFFFFF;" d="M67.953,371.752V19.913H51.96v351.839c0,13.244-10.737,23.988-23.989,23.988h15.992
	C57.216,395.74,67.953,384.996,67.953,371.752z"/>
<g style="opacity:0.1;">
	<path d="M507.846,371.752V19.913h-15.992v351.839c0,13.244-10.738,23.988-23.99,23.988h15.992
		C497.108,395.74,507.846,384.996,507.846,371.752z"/>
</g>
<polygon style="fill:#656D78;" points="361.912,391.821 290.992,402.856 286.541,379.029 357.68,366.793 "/>
<g style="opacity:0.2;">
	<polygon points="357.68,366.793 349.91,368.129 353.916,391.821 290.766,401.645 290.992,402.856 361.912,391.821 	"/>
</g>
<g style="opacity:0.2;">
	<polygon style="fill:#FFFFFF;" points="294.537,379.029 357.906,368.129 357.68,366.793 286.541,379.029 290.992,402.856 
		298.762,401.645 	"/>
</g>
<g>
	<rect x="99.943" y="131.863" style="fill:#5D9CEC;" width="111.95" height="71.967"/>
	<rect x="99.943" y="51.903" style="fill:#5D9CEC;" width="375.83" height="47.978"/>
</g>
<path style="fill:#CCD1D9;" d="M3.982,43.902v327.85c0,13.244,10.737,23.988,23.989,23.988s23.989-10.744,23.989-23.988V19.913
	L3.982,43.902z"/>
<path style="fill:#FFCE54;" d="M131.924,155.851c0,4.412-3.576,7.996-7.996,7.996c-4.42,0-7.996-3.584-7.996-7.996
	c0-4.42,3.576-7.997,7.996-7.997C128.348,147.854,131.924,151.431,131.924,155.851z"/>
<polygon style="fill:#E6E9ED;" points="171.905,163.847 141.982,203.829 201.954,203.829 "/>
<polygon style="fill:#CCD1D9;" points="152.141,190.249 141.982,203.829 118.742,203.829 139.92,171.843 "/>
<polygon style="fill:#ED5565;" points="256.765,375.985 236.774,371.83 222.859,293.069 259.483,270.44 278.91,380.623 "/>
<g style="opacity:0.3;">
	<polygon style="fill:#FFFFFF;" points="264.762,375.985 244.77,371.83 230.855,293.069 260.272,274.891 259.483,270.44 
		222.859,293.069 236.774,371.83 256.765,375.985 278.91,380.623 278.608,378.889 	"/>
</g>
<path style="fill:#F5F7FA;" d="M485.621,263.723l-13.994-79.487l-15.758,2.796c8.402,47.26-117.625,69.492-117.625,69.492
	L267.4,269.081l-7.918,1.359l19.428,110.184l78.77-13.83c0,0,128.738-6.48,134.336,25.027l15.752-2.795L485.621,263.723z"/>
<polygon style="fill:#ED5565;" points="507.768,389.026 492.016,391.821 455.869,187.032 471.627,184.236 "/>
<g style="opacity:0.2;">
	<polygon points="471.627,184.236 463.873,185.611 499.772,389.026 491.776,390.447 492.016,391.821 507.768,389.026 	"/>
</g>
<polygon style="fill:#ED5565;" points="386.385,483.459 347.043,490.416 306.399,400.199 345.404,393.469 "/>
<g style="opacity:0.2;">
	<polygon points="345.404,393.469 337.994,394.75 378.389,483.459 346.451,489.104 347.043,490.416 386.385,483.459 	"/>
</g>
<g style="opacity:0.3;">
	<polygon style="fill:#FFFFFF;" points="314.395,400.199 345.99,394.75 345.404,393.469 306.399,400.199 347.043,490.416 
		354.447,489.104 	"/>
</g>
<polygon style="fill:#E6E9ED;" points="357.68,366.793 278.91,380.623 259.483,270.44 338.244,256.524 "/>
<g>
	<path style="fill:#3A3847;" d="M487.846,372.151c-1.896,0-3.584-1.367-3.928-3.303l-27.822-157.452
		c-0.383-2.171,1.062-4.249,3.24-4.631c2.117-0.383,4.24,1.062,4.631,3.24l27.824,157.452c0.381,2.17-1.062,4.248-3.242,4.631
		C488.315,372.127,488.08,372.151,487.846,372.151z"/>
	<path style="fill:#3A3847;" d="M492.008,395.819c-1.896,0-3.584-1.365-3.928-3.303c-3.631-20.412-81.758-24.168-130.197-21.733
		c-2.414,0.078-4.092-1.592-4.193-3.795c-0.117-2.201,1.586-4.076,3.787-4.193c13.549-0.664,132.432-5.67,138.477,28.322
		c0.389,2.18-1.062,4.248-3.234,4.639C492.477,395.795,492.242,395.819,492.008,395.819z"/>
	<path style="fill:#3A3847;" d="M338.237,260.522c-1.898,0-3.586-1.367-3.93-3.303c-0.381-2.179,1.07-4.249,3.242-4.631
		c0.873-0.156,88.006-15.859,109.996-47.322c4.021-5.755,5.459-11.495,4.389-17.531c-0.391-2.179,1.062-4.248,3.232-4.639
		c2.203-0.383,4.248,1.062,4.639,3.241c1.445,8.121-0.477,16.032-5.709,23.512c-23.887,34.164-111.441,49.954-115.158,50.61
		C338.703,260.498,338.469,260.522,338.237,260.522z"/>
	<path style="fill:#3A3847;" d="M455.862,191.03c-1.898,0-3.584-1.358-3.928-3.295c-0.391-2.179,1.062-4.248,3.232-4.639
		l15.758-2.796c2.18-0.39,4.256,1.062,4.639,3.233c0.391,2.179-1.061,4.248-3.232,4.638l-15.758,2.795
		C456.33,191.014,456.096,191.03,455.862,191.03z"/>
	<path style="fill:#3A3847;" d="M507.76,393.024c-1.898,0-3.584-1.367-3.928-3.303l-36.141-204.79
		c-0.383-2.179,1.07-4.248,3.24-4.631c2.141-0.39,4.248,1.062,4.631,3.241l36.141,204.789c0.383,2.172-1.062,4.248-3.24,4.631
		C508.229,393,507.994,393.024,507.76,393.024z"/>
	<path style="fill:#3A3847;" d="M492.008,395.819c-1.896,0-3.584-1.365-3.928-3.303c-0.389-2.17,1.062-4.248,3.242-4.631
		l15.75-2.795c2.131-0.383,4.248,1.055,4.631,3.232c0.391,2.18-1.062,4.248-3.24,4.639l-15.752,2.795
		C492.477,395.795,492.242,395.819,492.008,395.819z"/>
	<path style="fill:#3A3847;" d="M278.903,384.621c-1.904,0-3.592-1.367-3.928-3.303c-0.383-2.18,1.07-4.248,3.242-4.631
		l78.768-13.838c2.125-0.359,4.256,1.07,4.631,3.248c0.383,2.18-1.07,4.248-3.24,4.631l-78.77,13.838
		C279.371,384.606,279.137,384.621,278.903,384.621z"/>
	<path style="fill:#3A3847;" d="M259.475,274.438c-1.906,0-3.6-1.375-3.936-3.326c-0.367-2.172,1.094-4.24,3.264-4.615
		l78.746-13.909c2.139-0.406,4.248,1.062,4.631,3.233c0.383,2.179-1.062,4.255-3.242,4.638l-78.775,13.916
		C259.928,274.414,259.701,274.438,259.475,274.438z"/>
	<path style="fill:#3A3847;" d="M278.91,384.621c-0.273,0-0.545-0.023-0.818-0.086l-42.13-8.793
		c-1.601-0.336-2.842-1.609-3.123-3.217l-13.916-78.762c-0.289-1.615,0.438-3.24,1.835-4.1l36.623-22.631
		c1.133-0.693,2.539-0.779,3.734-0.24c1.209,0.537,2.076,1.646,2.303,2.951l19.43,110.184c0.232,1.312-0.203,2.646-1.156,3.568
		C280.942,384.223,279.942,384.621,278.91,384.621z M240.241,368.465l33.705,7.035l-17.375-98.564l-29.299,18.109L240.241,368.465z"
		/>
	<path style="fill:#3A3847;" d="M354.869,355.041c-1.906,0-3.594-1.367-3.928-3.311l-13.83-78.762
		c-0.383-2.178,1.07-4.248,3.24-4.631c2.141-0.391,4.248,1.062,4.631,3.248l13.83,78.762c0.383,2.178-1.07,4.248-3.242,4.631
		C355.338,355.018,355.104,355.041,354.869,355.041z"/>
	<path style="fill:#3A3847;" d="M241.405,310.014c-1.905,0-3.6-1.373-3.936-3.318c-0.367-2.178,1.093-4.248,3.264-4.615l7.918-1.357
		c2.218-0.367,4.248,1.076,4.623,3.264c0.367,2.17-1.093,4.24-3.264,4.615l-7.918,1.357
		C241.858,309.998,241.632,310.014,241.405,310.014z"/>
	<path style="fill:#3A3847;" d="M249.721,357.274c-1.905,0-3.6-1.373-3.936-3.318c-0.367-2.178,1.093-4.248,3.264-4.615l7.919-1.359
		c2.201-0.357,4.248,1.078,4.621,3.266c0.367,2.17-1.092,4.24-3.264,4.615l-7.918,1.357
		C250.175,357.258,249.948,357.274,249.721,357.274z"/>
	<path style="fill:#3A3847;" d="M245.559,333.692c-1.905,0-3.6-1.375-3.936-3.318c-0.375-2.18,1.085-4.248,3.264-4.623l7.918-1.359
		c2.21-0.367,4.249,1.078,4.622,3.256c0.375,2.18-1.084,4.248-3.263,4.623l-7.918,1.359
		C246.012,333.668,245.786,333.692,245.559,333.692z"/>
	<path style="fill:#3A3847;" d="M266.674,269.08c-1.896,0-3.584-1.367-3.928-3.303c-0.391-2.172,1.062-4.248,3.232-4.631
		l15.752-2.803c2.209-0.406,4.256,1.061,4.639,3.24c0.391,2.17-1.062,4.248-3.234,4.631l-15.75,2.803
		C267.143,269.057,266.908,269.08,266.674,269.08z"/>
	<path style="fill:#3A3847;" d="M386.385,487.457c-1.514,0-2.967-0.867-3.639-2.344L345.24,402.59
		c-0.914-2.008-0.023-4.381,1.982-5.295c2.016-0.906,4.381-0.016,5.295,1.982l37.506,82.525c0.914,2.016,0.023,4.381-1.982,5.295
		C387.502,487.348,386.94,487.457,386.385,487.457z"/>
	<path style="fill:#3A3847;" d="M347.043,494.414c-1.514,0-2.967-0.875-3.639-2.342l-37.584-82.604
		c-0.914-2.014-0.023-4.381,1.984-5.295c2.014-0.912,4.381-0.031,5.293,1.984l37.586,82.604c0.912,2.006,0.023,4.379-1.984,5.293
		C348.16,494.297,347.598,494.414,347.043,494.414z"/>
	<path style="fill:#3A3847;" d="M339.117,495.852c-1.889,0-3.576-1.352-3.928-3.279c-0.391-2.172,1.047-4.256,3.217-4.646
		l55.125-9.77c2.131-0.375,4.24,1.07,4.621,3.256c0.383,2.18-1.076,4.248-3.248,4.623l-55.061,9.754
		C339.602,495.836,339.36,495.852,339.117,495.852z"/>
	<path style="fill:#3A3847;" d="M290.985,406.854c-1.891,0-3.578-1.352-3.928-3.281l-1.602-8.799
		c-0.391-2.172,1.047-4.248,3.217-4.646c2.141-0.43,4.256,1.037,4.654,3.217l1.602,8.801c0.391,2.17-1.047,4.248-3.219,4.646
		C291.467,406.838,291.227,406.854,290.985,406.854z"/>
	<path style="fill:#3A3847;" d="M290.985,406.854c-1.906,0-3.602-1.367-3.936-3.32c-0.375-2.17,1.084-4.24,3.264-4.613l70.92-12.238
		c2.141-0.357,4.248,1.078,4.623,3.258c0.375,2.178-1.086,4.248-3.264,4.623L291.67,406.8
		C291.444,406.838,291.211,406.854,290.985,406.854z"/>
	<path style="fill:#3A3847;" d="M361.904,394.617c-1.891,0-3.568-1.344-3.928-3.273l-1.438-7.84
		c-0.398-2.17,1.047-4.256,3.217-4.654c2.133-0.398,4.248,1.039,4.654,3.211l1.438,7.84c0.398,2.17-1.047,4.256-3.217,4.654
		C362.389,394.602,362.147,394.617,361.904,394.617z"/>
	<path style="fill:#3A3847;" d="M507.768,263.801c-2.211,0-3.998-1.787-3.998-3.998V19.913c0-2.21,1.787-3.999,3.998-3.999
		c2.209,0,3.998,1.789,3.998,3.999v239.89C511.766,262.014,509.977,263.801,507.768,263.801z"/>
	<path style="fill:#3A3847;" d="M51.976,375.75c-2.209,0-3.998-1.789-3.998-3.998V19.913c0-2.21,1.789-3.999,3.998-3.999
		c2.21,0,3.999,1.789,3.999,3.999v351.839C55.974,373.961,54.186,375.75,51.976,375.75z"/>
	<path style="fill:#3A3847;" d="M27.987,399.738c-2.21,0-3.998-1.787-3.998-3.998c0-2.209,1.788-3.998,3.998-3.998
		c11.026,0,19.991-8.973,19.991-19.99c0-2.211,1.789-3.998,3.998-3.998c2.21,0,3.999,1.787,3.999,3.998
		C55.974,387.182,43.417,399.738,27.987,399.738z"/>
	<path style="fill:#3A3847;" d="M27.987,399.738C12.556,399.738,0,387.181,0,371.752c0-2.211,1.788-3.998,3.998-3.998
		s3.998,1.787,3.998,3.998c0,11.018,8.965,19.99,19.991,19.99c2.21,0,3.998,1.789,3.998,3.998
		C31.985,397.951,30.197,399.738,27.987,399.738z"/>
	<path style="fill:#3A3847;" d="M3.998,375.75c-2.21,0-3.998-1.789-3.998-3.998V43.902c0-2.21,1.788-3.998,3.998-3.998
		s3.998,1.788,3.998,3.998v327.85C7.996,373.961,6.208,375.75,3.998,375.75z"/>
	<path style="fill:#3A3847;" d="M35.983,375.75c-2.21,0-3.998-1.789-3.998-3.998V27.91c0-2.21,1.788-3.999,3.998-3.999
		s3.998,1.789,3.998,3.999v343.842C39.981,373.961,38.193,375.75,35.983,375.75z"/>
	<path style="fill:#3A3847;" d="M19.99,375.75c-2.209,0-3.998-1.789-3.998-3.998V35.906c0-2.21,1.789-3.998,3.998-3.998
		c2.21,0,3.999,1.788,3.999,3.998v335.846C23.989,373.961,22.2,375.75,19.99,375.75z"/>
	<path style="fill:#3A3847;" d="M27.987,383.746c-2.21,0-3.998-1.787-3.998-3.998c0-2.209,1.788-3.998,3.998-3.998
		c2.202,0,3.998-1.797,3.998-3.998c0-2.211,1.788-3.998,3.998-3.998s3.998,1.787,3.998,3.998
		C39.981,378.365,34.601,383.746,27.987,383.746z"/>
	<path style="fill:#3A3847;" d="M27.987,383.746c-6.614,0-11.995-5.381-11.995-11.994c0-2.211,1.789-3.998,3.998-3.998
		c2.21,0,3.999,1.787,3.999,3.998c0,2.201,1.796,3.998,3.998,3.998c2.21,0,3.998,1.789,3.998,3.998
		C31.985,381.959,30.197,383.746,27.987,383.746z"/>
	<path style="fill:#3A3847;" d="M252.603,399.738H27.987c-2.21,0-3.998-1.787-3.998-3.998c0-2.209,1.788-3.998,3.998-3.998h224.616
		c2.21,0,3.999,1.789,3.999,3.998C256.601,397.951,254.813,399.738,252.603,399.738z"/>
	<path style="fill:#3A3847;" d="M507.768,23.911H51.976c-2.209,0-3.998-1.789-3.998-3.998c0-2.21,1.789-3.999,3.998-3.999h455.792
		c2.209,0,3.998,1.789,3.998,3.999C511.766,22.123,509.977,23.911,507.768,23.911z"/>
	<path style="fill:#3A3847;" d="M475.781,103.875H99.954c-2.21,0-3.998-1.788-3.998-3.998V51.899c0-2.21,1.788-3.999,3.998-3.999
		h375.828c2.211,0,3.998,1.789,3.998,3.999v47.978C479.779,102.087,477.992,103.875,475.781,103.875z M103.952,95.879h367.831
		V55.897H103.952V95.879z"/>
	<path style="fill:#3A3847;" d="M451.793,79.885h-327.85c-2.21,0-3.998-1.788-3.998-3.998s1.788-3.998,3.998-3.998h327.85
		c2.209,0,3.998,1.788,3.998,3.998S454.002,79.885,451.793,79.885z"/>
	<path style="fill:#3A3847;" d="M459.789,399.738h-71.967c-2.211,0-3.998-1.787-3.998-3.998c0-2.209,1.787-3.998,3.998-3.998h71.967
		c2.211,0,3.998,1.789,3.998,3.998C463.787,397.951,462,399.738,459.789,399.738z"/>
	<path style="fill:#3A3847;" d="M211.903,207.827H99.954c-2.21,0-3.998-1.788-3.998-3.998v-71.967c0-2.21,1.788-3.998,3.998-3.998
		h111.949c2.209,0,3.998,1.788,3.998,3.998v71.967C215.901,206.039,214.112,207.827,211.903,207.827z M103.952,199.831h103.953
		V135.86H103.952V199.831z"/>
	<path style="fill:#3A3847;" d="M142.013,207.827c-0.835,0-1.679-0.257-2.39-0.796c-1.773-1.32-2.132-3.827-0.812-5.6l29.908-39.981
		c1.335-1.765,3.842-2.116,5.599-0.804c1.765,1.32,2.124,3.827,0.805,5.599l-29.908,39.974
		C144.433,207.273,143.231,207.827,142.013,207.827z"/>
	<path style="fill:#3A3847;" d="M201.985,207.827c-1.21,0-2.413-0.554-3.193-1.601l-30.064-39.981
		c-1.328-1.765-0.977-4.271,0.789-5.591c1.75-1.32,4.271-0.984,5.599,0.789l30.064,39.981c1.327,1.765,0.976,4.271-0.789,5.6
		C203.672,207.562,202.829,207.827,201.985,207.827z"/>
	<path style="fill:#3A3847;" d="M118.75,207.827c-0.765,0-1.53-0.218-2.21-0.664c-1.835-1.226-2.342-3.702-1.124-5.544
		l21.186-31.985c1.226-1.843,3.717-2.335,5.544-1.124c1.835,1.218,2.343,3.701,1.125,5.536l-21.186,31.985
		C121.311,207.195,120.047,207.827,118.75,207.827z"/>
	<path style="fill:#3A3847;" d="M152.173,194.232c-1.289,0-2.562-0.625-3.327-1.789l-12.236-18.39
		c-1.226-1.835-0.727-4.318,1.109-5.544c1.835-1.219,4.318-0.734,5.544,1.116l12.236,18.39c1.226,1.843,0.727,4.318-1.109,5.544
		C153.703,194.013,152.937,194.232,152.173,194.232z"/>
	<path style="fill:#3A3847;" d="M123.943,167.845c-6.614,0-11.995-5.38-11.995-11.994s5.38-11.995,11.995-11.995
		c6.615,0,11.994,5.381,11.994,11.995S130.557,167.845,123.943,167.845z M123.943,151.853c-2.202,0-3.998,1.789-3.998,3.999
		c0,2.202,1.796,3.998,3.998,3.998s3.998-1.796,3.998-3.998C127.941,153.641,126.145,151.853,123.943,151.853z"/>
	<path style="fill:#3A3847;" d="M339.844,135.86H235.892c-2.21,0-3.999-1.788-3.999-3.998s1.789-3.998,3.999-3.998h103.952
		c2.211,0,3.998,1.788,3.998,3.998S342.055,135.86,339.844,135.86z"/>
	<path style="fill:#3A3847;" d="M339.844,159.849H235.892c-2.21,0-3.999-1.788-3.999-3.998s1.789-3.999,3.999-3.999h103.952
		c2.211,0,3.998,1.789,3.998,3.999S342.055,159.849,339.844,159.849z"/>
	<path style="fill:#3A3847;" d="M339.844,183.838H235.892c-2.21,0-3.999-1.788-3.999-3.998s1.789-3.999,3.999-3.999h103.952
		c2.211,0,3.998,1.789,3.998,3.999S342.055,183.838,339.844,183.838z"/>
	<path style="fill:#3A3847;" d="M339.844,207.827H235.892c-2.21,0-3.999-1.788-3.999-3.998s1.789-3.998,3.999-3.998h103.952
		c2.211,0,3.998,1.788,3.998,3.998S342.055,207.827,339.844,207.827z"/>
	<path style="fill:#3A3847;" d="M339.844,231.816H235.892c-2.21,0-3.999-1.788-3.999-3.998s1.789-3.998,3.999-3.998h103.952
		c2.211,0,3.998,1.788,3.998,3.998S342.055,231.816,339.844,231.816z"/>
	<path style="fill:#3A3847;" d="M251.884,255.805h-15.993c-2.21,0-3.999-1.788-3.999-3.998s1.789-3.999,3.999-3.999h15.993
		c2.21,0,3.998,1.789,3.998,3.999S254.094,255.805,251.884,255.805z"/>
	<path style="fill:#3A3847;" d="M212.223,231.816H100.274c-2.21,0-3.998-1.788-3.998-3.998s1.788-3.998,3.998-3.998h111.949
		c2.21,0,3.998,1.788,3.998,3.998S214.433,231.816,212.223,231.816z"/>
	<path style="fill:#3A3847;" d="M196.23,327.772h-95.956c-2.21,0-3.998-1.787-3.998-3.998c0-2.209,1.788-3.998,3.998-3.998h95.956
		c2.21,0,3.998,1.789,3.998,3.998C200.228,325.985,198.44,327.772,196.23,327.772z"/>
	<path style="fill:#3A3847;" d="M204.226,351.762H100.274c-2.21,0-3.998-1.789-3.998-3.998c0-2.211,1.788-4,3.998-4h103.952
		c2.21,0,3.998,1.789,3.998,4C208.224,349.973,206.436,351.762,204.226,351.762z"/>
	<path style="fill:#3A3847;" d="M212.223,375.75H100.274c-2.21,0-3.998-1.789-3.998-3.998c0-2.211,1.788-3.998,3.998-3.998h111.949
		c2.21,0,3.998,1.787,3.998,3.998C216.221,373.961,214.433,375.75,212.223,375.75z"/>
	<path style="fill:#3A3847;" d="M212.223,255.805H100.274c-2.21,0-3.998-1.788-3.998-3.998s1.788-3.999,3.998-3.999h111.949
		c2.21,0,3.998,1.789,3.998,3.999S214.433,255.805,212.223,255.805z"/>
	<path style="fill:#3A3847;" d="M204.226,279.793H100.274c-2.21,0-3.998-1.787-3.998-3.998c0-2.209,1.788-3.998,3.998-3.998h103.952
		c2.21,0,3.998,1.789,3.998,3.998C208.224,278.006,206.436,279.793,204.226,279.793z"/>
	<path style="fill:#3A3847;" d="M196.23,303.783h-95.956c-2.21,0-3.998-1.789-3.998-3.998c0-2.211,1.788-3.998,3.998-3.998h95.956
		c2.21,0,3.998,1.787,3.998,3.998C200.228,301.994,198.44,303.783,196.23,303.783z"/>
	<path style="fill:#3A3847;" d="M475.781,135.86H363.834c-2.211,0-4-1.788-4-3.998s1.789-3.998,4-3.998h111.947
		c2.211,0,3.998,1.788,3.998,3.998S477.992,135.86,475.781,135.86z"/>
	<path style="fill:#3A3847;" d="M475.781,159.849H363.834c-2.211,0-4-1.788-4-3.998s1.789-3.999,4-3.999h111.947
		c2.211,0,3.998,1.789,3.998,3.999S477.992,159.849,475.781,159.849z"/>
	<path style="fill:#3A3847;" d="M435.801,183.838h-71.967c-2.211,0-4-1.788-4-3.998s1.789-3.999,4-3.999h71.967
		c2.209,0,3.998,1.789,3.998,3.999S438.01,183.838,435.801,183.838z"/>
	<path style="fill:#3A3847;" d="M411.811,207.827h-47.977c-2.211,0-4-1.788-4-3.998s1.789-3.998,4-3.998h47.977
		c2.211,0,3.998,1.788,3.998,3.998S414.022,207.827,411.811,207.827z"/>
	<path style="fill:#3A3847;" d="M371.83,231.816h-7.996c-2.211,0-4-1.788-4-3.998s1.789-3.998,4-3.998h7.996
		c2.209,0,3.998,1.788,3.998,3.998S374.039,231.816,371.83,231.816z"/>
</g>
<g>
</g>
<g>
</g>
<g>
</g>
<g>
</g>
<g>
</g>
<g>
</g>
<g>
</g>
<g>
</g>
<g>
</g>
<g>
</g>
<g>
</g>
<g>
</g>
<g>
</g>
<g>
</g>
<g>
</g>
</svg>
